%TF.GenerationSoftware,KiCad,Pcbnew,(5.1.12)-1*%
%TF.CreationDate,2023-06-16T14:50:00-05:00*%
%TF.ProjectId,Logiplant,4c6f6769-706c-4616-9e74-2e6b69636164,rev?*%
%TF.SameCoordinates,Original*%
%TF.FileFunction,AssemblyDrawing,Top*%
%FSLAX46Y46*%
G04 Gerber Fmt 4.6, Leading zero omitted, Abs format (unit mm)*
G04 Created by KiCad (PCBNEW (5.1.12)-1) date 2023-06-16 14:50:00*
%MOMM*%
%LPD*%
G01*
G04 APERTURE LIST*
%ADD10C,0.100000*%
%ADD11C,0.200000*%
%ADD12C,0.150000*%
%ADD13C,0.254000*%
G04 APERTURE END LIST*
D10*
%TO.C,R4*%
X-68750000Y-93730000D02*
X-71250000Y-93730000D01*
X-71250000Y-93730000D02*
X-71250000Y-100030000D01*
X-71250000Y-100030000D02*
X-68750000Y-100030000D01*
X-68750000Y-100030000D02*
X-68750000Y-93730000D01*
X-70000000Y-91800000D02*
X-70000000Y-93730000D01*
X-70000000Y-101960000D02*
X-70000000Y-100030000D01*
%TO.C,R5*%
X-122350000Y-149800000D02*
G75*
G03*
X-122350000Y-149800000I-1250000J0D01*
G01*
X-123600000Y-149800000D02*
X-118520000Y-149800000D01*
%TO.C,R3*%
X-119550000Y-176800000D02*
G75*
G03*
X-119550000Y-176800000I-1250000J0D01*
G01*
X-120800000Y-176800000D02*
X-120800000Y-171720000D01*
%TO.C,R2*%
X-112550000Y-171800000D02*
G75*
G03*
X-112550000Y-171800000I-1250000J0D01*
G01*
X-113800000Y-171800000D02*
X-113800000Y-176880000D01*
%TO.C,R1*%
X-124750000Y-131000000D02*
G75*
G03*
X-124750000Y-131000000I-1250000J0D01*
G01*
X-126000000Y-131000000D02*
X-120920000Y-131000000D01*
%TO.C,J6*%
X-61755000Y-120938000D02*
X-59663000Y-118845000D01*
X-61938000Y-120755000D02*
X-59846000Y-118662000D01*
X-56755000Y-120938000D02*
X-54663000Y-118845000D01*
X-56938000Y-120755000D02*
X-54846000Y-118662000D01*
X-51755000Y-120938000D02*
X-49662000Y-118845000D01*
X-51938000Y-120755000D02*
X-49845000Y-118662000D01*
X-48300000Y-122100000D02*
X-63300000Y-122100000D01*
X-48300000Y-117200000D02*
X-63300000Y-117200000D01*
X-48300000Y-115700000D02*
X-63300000Y-115700000D01*
X-48300000Y-115700000D02*
X-48300000Y-125000000D01*
X-48800000Y-115200000D02*
X-48300000Y-115700000D01*
X-63300000Y-115200000D02*
X-48800000Y-115200000D01*
X-63300000Y-125000000D02*
X-63300000Y-115200000D01*
X-48300000Y-125000000D02*
X-63300000Y-125000000D01*
X-59300000Y-119800000D02*
G75*
G03*
X-59300000Y-119800000I-1500000J0D01*
G01*
X-54300000Y-119800000D02*
G75*
G03*
X-54300000Y-119800000I-1500000J0D01*
G01*
X-49300000Y-119800000D02*
G75*
G03*
X-49300000Y-119800000I-1500000J0D01*
G01*
%TO.C,J7*%
X-81285000Y-183862000D02*
X-83377000Y-185955000D01*
X-81102000Y-184045000D02*
X-83194000Y-186138000D01*
X-86365000Y-183862000D02*
X-88457000Y-185955000D01*
X-86182000Y-184045000D02*
X-88274000Y-186138000D01*
X-91445000Y-183862000D02*
X-93538000Y-185955000D01*
X-91262000Y-184045000D02*
X-93355000Y-186138000D01*
X-94940000Y-182700000D02*
X-79700000Y-182700000D01*
X-94940000Y-187600000D02*
X-79700000Y-187600000D01*
X-94940000Y-189100000D02*
X-79700000Y-189100000D01*
X-94940000Y-189100000D02*
X-94940000Y-179800000D01*
X-94440000Y-189600000D02*
X-94940000Y-189100000D01*
X-79700000Y-189600000D02*
X-94440000Y-189600000D01*
X-79700000Y-179800000D02*
X-79700000Y-189600000D01*
X-94940000Y-179800000D02*
X-79700000Y-179800000D01*
X-80740000Y-185000000D02*
G75*
G03*
X-80740000Y-185000000I-1500000J0D01*
G01*
X-85820000Y-185000000D02*
G75*
G03*
X-85820000Y-185000000I-1500000J0D01*
G01*
X-90900000Y-185000000D02*
G75*
G03*
X-90900000Y-185000000I-1500000J0D01*
G01*
%TO.C,OLED1*%
X-82312000Y-101712000D02*
X-82312000Y-87234000D01*
X-79264000Y-106788000D02*
X-79264000Y-82030000D01*
X-82312000Y-101712000D02*
X-111268000Y-101712000D01*
X-114316000Y-106790000D02*
X-114316000Y-82032000D01*
X-111268000Y-109838000D02*
X-82312000Y-109838000D01*
X-82312000Y-87234000D02*
X-111268000Y-87234000D01*
X-111268000Y-101712000D02*
X-111268000Y-87234000D01*
X-82312000Y-78982000D02*
X-111268000Y-78982000D01*
X-79264000Y-82030000D02*
G75*
G03*
X-82312000Y-78982000I-3048000J0D01*
G01*
X-114316000Y-82032000D02*
G75*
G02*
X-111270000Y-78982000I3048000J2000D01*
G01*
X-79264000Y-106788000D02*
G75*
G02*
X-82310000Y-109838000I-3048000J-2000D01*
G01*
X-114316000Y-106790000D02*
G75*
G03*
X-111268000Y-109838000I3048000J0D01*
G01*
D11*
%TO.C,U2*%
X-98199000Y-116700000D02*
X-104005000Y-116700000D01*
X-104005000Y-121022000D02*
X-104005000Y-116700000D01*
X-98199000Y-121022000D02*
X-104005000Y-121022000D01*
X-98199000Y-116700000D02*
X-98199000Y-121022000D01*
X-104000000Y-164800000D02*
X-86000000Y-164800000D01*
X-104000000Y-147020000D02*
X-104000000Y-164800000D01*
X-86000000Y-147020000D02*
X-104000000Y-147020000D01*
X-86000000Y-164800000D02*
X-86000000Y-147020000D01*
X-109500000Y-117010000D02*
X-80500000Y-117010000D01*
X-109500000Y-171400000D02*
X-109500000Y-117010000D01*
X-80500000Y-171400000D02*
X-109500000Y-171400000D01*
X-80500000Y-117010000D02*
X-80500000Y-171400000D01*
D10*
%TO.C,SERVO1*%
X-126635000Y-125670000D02*
X-127270000Y-125035000D01*
X-119650000Y-125670000D02*
X-126635000Y-125670000D01*
X-119650000Y-123130000D02*
X-119650000Y-125670000D01*
X-127270000Y-123130000D02*
X-119650000Y-123130000D01*
X-127270000Y-125035000D02*
X-127270000Y-123130000D01*
%TO.C,Seguro1*%
X-122365000Y-140930000D02*
X-121730000Y-141565000D01*
X-126810000Y-140930000D02*
X-122365000Y-140930000D01*
X-126810000Y-143470000D02*
X-126810000Y-140930000D01*
X-121730000Y-143470000D02*
X-126810000Y-143470000D01*
X-121730000Y-141565000D02*
X-121730000Y-143470000D01*
%TO.C,Recibo1*%
X-76870000Y-102565000D02*
X-76235000Y-101930000D01*
X-76870000Y-107010000D02*
X-76870000Y-102565000D01*
X-74330000Y-107010000D02*
X-76870000Y-107010000D01*
X-74330000Y-101930000D02*
X-74330000Y-107010000D01*
X-76235000Y-101930000D02*
X-74330000Y-101930000D01*
%TO.C,HALL1*%
X-64870000Y-91965000D02*
X-64235000Y-91330000D01*
X-64870000Y-98950000D02*
X-64870000Y-91965000D01*
X-62330000Y-98950000D02*
X-64870000Y-98950000D01*
X-62330000Y-91330000D02*
X-62330000Y-98950000D01*
X-64235000Y-91330000D02*
X-62330000Y-91330000D01*
%TO.C,Bolsa1*%
X-122365000Y-133730000D02*
X-121730000Y-134365000D01*
X-126810000Y-133730000D02*
X-122365000Y-133730000D01*
X-126810000Y-136270000D02*
X-126810000Y-133730000D01*
X-121730000Y-136270000D02*
X-126810000Y-136270000D01*
X-121730000Y-134365000D02*
X-121730000Y-136270000D01*
%TO.C,J4*%
X-107165000Y-184262000D02*
X-109257000Y-186355000D01*
X-106982000Y-184445000D02*
X-109074000Y-186538000D01*
X-112245000Y-184262000D02*
X-114338000Y-186355000D01*
X-112062000Y-184445000D02*
X-114155000Y-186538000D01*
X-115740000Y-183100000D02*
X-105580000Y-183100000D01*
X-115740000Y-188000000D02*
X-105580000Y-188000000D01*
X-115740000Y-189500000D02*
X-105580000Y-189500000D01*
X-115740000Y-189500000D02*
X-115740000Y-180200000D01*
X-115240000Y-190000000D02*
X-115740000Y-189500000D01*
X-105580000Y-190000000D02*
X-115240000Y-190000000D01*
X-105580000Y-180200000D02*
X-105580000Y-190000000D01*
X-115740000Y-180200000D02*
X-105580000Y-180200000D01*
X-106620000Y-185400000D02*
G75*
G03*
X-106620000Y-185400000I-1500000J0D01*
G01*
X-111700000Y-185400000D02*
G75*
G03*
X-111700000Y-185400000I-1500000J0D01*
G01*
%TO.C,D1*%
X-53600000Y-97400000D02*
X-53600000Y-92320000D01*
X-52250000Y-92320000D02*
G75*
G03*
X-52250000Y-92320000I-1350000J0D01*
G01*
%TD*%
%TO.C,R4*%
D12*
X-71917619Y-93189047D02*
X-71917619Y-93760476D01*
X-71917619Y-93474761D02*
X-72917619Y-93474761D01*
X-72774761Y-93570000D01*
X-72679523Y-93665238D01*
X-72631904Y-93760476D01*
X-71917619Y-92760476D02*
X-72917619Y-92760476D01*
X-72298571Y-92665238D02*
X-71917619Y-92379523D01*
X-72584285Y-92379523D02*
X-72203333Y-92760476D01*
X-67177619Y-93236666D02*
X-67653809Y-93570000D01*
X-67177619Y-93808095D02*
X-68177619Y-93808095D01*
X-68177619Y-93427142D01*
X-68130000Y-93331904D01*
X-68082380Y-93284285D01*
X-67987142Y-93236666D01*
X-67844285Y-93236666D01*
X-67749047Y-93284285D01*
X-67701428Y-93331904D01*
X-67653809Y-93427142D01*
X-67653809Y-93808095D01*
X-67844285Y-92379523D02*
X-67177619Y-92379523D01*
X-68225238Y-92617619D02*
X-67510952Y-92855714D01*
X-67510952Y-92236666D01*
%TO.C,R5*%
X-121179047Y-152622380D02*
X-121750476Y-152622380D01*
X-121464761Y-152622380D02*
X-121464761Y-151622380D01*
X-121560000Y-151765238D01*
X-121655238Y-151860476D01*
X-121750476Y-151908095D01*
X-120750476Y-152622380D02*
X-120750476Y-151622380D01*
X-120655238Y-152241428D02*
X-120369523Y-152622380D01*
X-120369523Y-151955714D02*
X-120750476Y-152336666D01*
X-121226666Y-147882380D02*
X-121560000Y-147406190D01*
X-121798095Y-147882380D02*
X-121798095Y-146882380D01*
X-121417142Y-146882380D01*
X-121321904Y-146930000D01*
X-121274285Y-146977619D01*
X-121226666Y-147072857D01*
X-121226666Y-147215714D01*
X-121274285Y-147310952D01*
X-121321904Y-147358571D01*
X-121417142Y-147406190D01*
X-121798095Y-147406190D01*
X-120321904Y-146882380D02*
X-120798095Y-146882380D01*
X-120845714Y-147358571D01*
X-120798095Y-147310952D01*
X-120702857Y-147263333D01*
X-120464761Y-147263333D01*
X-120369523Y-147310952D01*
X-120321904Y-147358571D01*
X-120274285Y-147453809D01*
X-120274285Y-147691904D01*
X-120321904Y-147787142D01*
X-120369523Y-147834761D01*
X-120464761Y-147882380D01*
X-120702857Y-147882380D01*
X-120798095Y-147834761D01*
X-120845714Y-147787142D01*
%TO.C,R3*%
X-118882380Y-175760000D02*
X-118930000Y-175712380D01*
X-118977619Y-175617142D01*
X-118977619Y-175379047D01*
X-118930000Y-175283809D01*
X-118882380Y-175236190D01*
X-118787142Y-175188571D01*
X-118691904Y-175188571D01*
X-118549047Y-175236190D01*
X-117977619Y-175807619D01*
X-117977619Y-175188571D01*
X-118072857Y-174760000D02*
X-118025238Y-174712380D01*
X-117977619Y-174760000D01*
X-118025238Y-174807619D01*
X-118072857Y-174760000D01*
X-117977619Y-174760000D01*
X-118882380Y-174331428D02*
X-118930000Y-174283809D01*
X-118977619Y-174188571D01*
X-118977619Y-173950476D01*
X-118930000Y-173855238D01*
X-118882380Y-173807619D01*
X-118787142Y-173760000D01*
X-118691904Y-173760000D01*
X-118549047Y-173807619D01*
X-117977619Y-174379047D01*
X-117977619Y-173760000D01*
X-117977619Y-173331428D02*
X-118977619Y-173331428D01*
X-117977619Y-172760000D02*
X-118549047Y-173188571D01*
X-118977619Y-172760000D02*
X-118406190Y-173331428D01*
X-122717619Y-174426666D02*
X-123193809Y-174760000D01*
X-122717619Y-174998095D02*
X-123717619Y-174998095D01*
X-123717619Y-174617142D01*
X-123670000Y-174521904D01*
X-123622380Y-174474285D01*
X-123527142Y-174426666D01*
X-123384285Y-174426666D01*
X-123289047Y-174474285D01*
X-123241428Y-174521904D01*
X-123193809Y-174617142D01*
X-123193809Y-174998095D01*
X-123717619Y-174093333D02*
X-123717619Y-173474285D01*
X-123336666Y-173807619D01*
X-123336666Y-173664761D01*
X-123289047Y-173569523D01*
X-123241428Y-173521904D01*
X-123146190Y-173474285D01*
X-122908095Y-173474285D01*
X-122812857Y-173521904D01*
X-122765238Y-173569523D01*
X-122717619Y-173664761D01*
X-122717619Y-173950476D01*
X-122765238Y-174045714D01*
X-122812857Y-174093333D01*
%TO.C,R2*%
X-115717619Y-174554285D02*
X-115717619Y-175125714D01*
X-115717619Y-174840000D02*
X-116717619Y-174840000D01*
X-116574761Y-174935238D01*
X-116479523Y-175030476D01*
X-116431904Y-175125714D01*
X-115717619Y-174125714D02*
X-116717619Y-174125714D01*
X-115717619Y-173554285D02*
X-116289047Y-173982857D01*
X-116717619Y-173554285D02*
X-116146190Y-174125714D01*
X-110977619Y-174506666D02*
X-111453809Y-174840000D01*
X-110977619Y-175078095D02*
X-111977619Y-175078095D01*
X-111977619Y-174697142D01*
X-111930000Y-174601904D01*
X-111882380Y-174554285D01*
X-111787142Y-174506666D01*
X-111644285Y-174506666D01*
X-111549047Y-174554285D01*
X-111501428Y-174601904D01*
X-111453809Y-174697142D01*
X-111453809Y-175078095D01*
X-111882380Y-174125714D02*
X-111930000Y-174078095D01*
X-111977619Y-173982857D01*
X-111977619Y-173744761D01*
X-111930000Y-173649523D01*
X-111882380Y-173601904D01*
X-111787142Y-173554285D01*
X-111691904Y-173554285D01*
X-111549047Y-173601904D01*
X-110977619Y-174173333D01*
X-110977619Y-173554285D01*
%TO.C,R1*%
X-123579047Y-133822380D02*
X-124150476Y-133822380D01*
X-123864761Y-133822380D02*
X-123864761Y-132822380D01*
X-123960000Y-132965238D01*
X-124055238Y-133060476D01*
X-124150476Y-133108095D01*
X-123150476Y-133822380D02*
X-123150476Y-132822380D01*
X-123055238Y-133441428D02*
X-122769523Y-133822380D01*
X-122769523Y-133155714D02*
X-123150476Y-133536666D01*
X-123626666Y-129082380D02*
X-123960000Y-128606190D01*
X-124198095Y-129082380D02*
X-124198095Y-128082380D01*
X-123817142Y-128082380D01*
X-123721904Y-128130000D01*
X-123674285Y-128177619D01*
X-123626666Y-128272857D01*
X-123626666Y-128415714D01*
X-123674285Y-128510952D01*
X-123721904Y-128558571D01*
X-123817142Y-128606190D01*
X-124198095Y-128606190D01*
X-122674285Y-129082380D02*
X-123245714Y-129082380D01*
X-122960000Y-129082380D02*
X-122960000Y-128082380D01*
X-123055238Y-128225238D01*
X-123150476Y-128320476D01*
X-123245714Y-128368095D01*
%TO.C,J6*%
X-59038095Y-114497142D02*
X-59085714Y-114544761D01*
X-59228571Y-114592380D01*
X-59323809Y-114592380D01*
X-59466666Y-114544761D01*
X-59561904Y-114449523D01*
X-59609523Y-114354285D01*
X-59657142Y-114163809D01*
X-59657142Y-114020952D01*
X-59609523Y-113830476D01*
X-59561904Y-113735238D01*
X-59466666Y-113640000D01*
X-59323809Y-113592380D01*
X-59228571Y-113592380D01*
X-59085714Y-113640000D01*
X-59038095Y-113687619D01*
X-58466666Y-114592380D02*
X-58561904Y-114544761D01*
X-58609523Y-114497142D01*
X-58657142Y-114401904D01*
X-58657142Y-114116190D01*
X-58609523Y-114020952D01*
X-58561904Y-113973333D01*
X-58466666Y-113925714D01*
X-58323809Y-113925714D01*
X-58228571Y-113973333D01*
X-58180952Y-114020952D01*
X-58133333Y-114116190D01*
X-58133333Y-114401904D01*
X-58180952Y-114497142D01*
X-58228571Y-114544761D01*
X-58323809Y-114592380D01*
X-58466666Y-114592380D01*
X-57704761Y-113925714D02*
X-57704761Y-114592380D01*
X-57704761Y-114020952D02*
X-57657142Y-113973333D01*
X-57561904Y-113925714D01*
X-57419047Y-113925714D01*
X-57323809Y-113973333D01*
X-57276190Y-114068571D01*
X-57276190Y-114592380D01*
X-56800000Y-113925714D02*
X-56800000Y-114592380D01*
X-56800000Y-114020952D02*
X-56752380Y-113973333D01*
X-56657142Y-113925714D01*
X-56514285Y-113925714D01*
X-56419047Y-113973333D01*
X-56371428Y-114068571D01*
X-56371428Y-114592380D01*
X-56133333Y-114687619D02*
X-55371428Y-114687619D01*
X-54561904Y-114592380D02*
X-54895238Y-114116190D01*
X-55133333Y-114592380D02*
X-55133333Y-113592380D01*
X-54752380Y-113592380D01*
X-54657142Y-113640000D01*
X-54609523Y-113687619D01*
X-54561904Y-113782857D01*
X-54561904Y-113925714D01*
X-54609523Y-114020952D01*
X-54657142Y-114068571D01*
X-54752380Y-114116190D01*
X-55133333Y-114116190D01*
X-54133333Y-114068571D02*
X-53800000Y-114068571D01*
X-53657142Y-114592380D02*
X-54133333Y-114592380D01*
X-54133333Y-113592380D01*
X-53657142Y-113592380D01*
X-52752380Y-114592380D02*
X-53228571Y-114592380D01*
X-53228571Y-113592380D01*
X-52419047Y-114068571D02*
X-52085714Y-114068571D01*
X-51942857Y-114592380D02*
X-52419047Y-114592380D01*
X-52419047Y-113592380D01*
X-51942857Y-113592380D01*
X-56133333Y-116052380D02*
X-56133333Y-116766666D01*
X-56180952Y-116909523D01*
X-56276190Y-117004761D01*
X-56419047Y-117052380D01*
X-56514285Y-117052380D01*
X-55228571Y-116052380D02*
X-55419047Y-116052380D01*
X-55514285Y-116100000D01*
X-55561904Y-116147619D01*
X-55657142Y-116290476D01*
X-55704761Y-116480952D01*
X-55704761Y-116861904D01*
X-55657142Y-116957142D01*
X-55609523Y-117004761D01*
X-55514285Y-117052380D01*
X-55323809Y-117052380D01*
X-55228571Y-117004761D01*
X-55180952Y-116957142D01*
X-55133333Y-116861904D01*
X-55133333Y-116623809D01*
X-55180952Y-116528571D01*
X-55228571Y-116480952D01*
X-55323809Y-116433333D01*
X-55514285Y-116433333D01*
X-55609523Y-116480952D01*
X-55657142Y-116528571D01*
X-55704761Y-116623809D01*
%TO.C,J7*%
X-92510476Y-191017142D02*
X-92558095Y-191064761D01*
X-92700952Y-191112380D01*
X-92796190Y-191112380D01*
X-92939047Y-191064761D01*
X-93034285Y-190969523D01*
X-93081904Y-190874285D01*
X-93129523Y-190683809D01*
X-93129523Y-190540952D01*
X-93081904Y-190350476D01*
X-93034285Y-190255238D01*
X-92939047Y-190160000D01*
X-92796190Y-190112380D01*
X-92700952Y-190112380D01*
X-92558095Y-190160000D01*
X-92510476Y-190207619D01*
X-91939047Y-191112380D02*
X-92034285Y-191064761D01*
X-92081904Y-191017142D01*
X-92129523Y-190921904D01*
X-92129523Y-190636190D01*
X-92081904Y-190540952D01*
X-92034285Y-190493333D01*
X-91939047Y-190445714D01*
X-91796190Y-190445714D01*
X-91700952Y-190493333D01*
X-91653333Y-190540952D01*
X-91605714Y-190636190D01*
X-91605714Y-190921904D01*
X-91653333Y-191017142D01*
X-91700952Y-191064761D01*
X-91796190Y-191112380D01*
X-91939047Y-191112380D01*
X-91177142Y-190445714D02*
X-91177142Y-191112380D01*
X-91177142Y-190540952D02*
X-91129523Y-190493333D01*
X-91034285Y-190445714D01*
X-90891428Y-190445714D01*
X-90796190Y-190493333D01*
X-90748571Y-190588571D01*
X-90748571Y-191112380D01*
X-90272380Y-190445714D02*
X-90272380Y-191112380D01*
X-90272380Y-190540952D02*
X-90224761Y-190493333D01*
X-90129523Y-190445714D01*
X-89986666Y-190445714D01*
X-89891428Y-190493333D01*
X-89843809Y-190588571D01*
X-89843809Y-191112380D01*
X-89605714Y-191207619D02*
X-88843809Y-191207619D01*
X-88605714Y-191112380D02*
X-88605714Y-190112380D01*
X-88129523Y-191112380D02*
X-88129523Y-190112380D01*
X-87796190Y-190826666D01*
X-87462857Y-190112380D01*
X-87462857Y-191112380D01*
X-86986666Y-191112380D02*
X-86986666Y-190112380D01*
X-86605714Y-190112380D01*
X-86510476Y-190160000D01*
X-86462857Y-190207619D01*
X-86415238Y-190302857D01*
X-86415238Y-190445714D01*
X-86462857Y-190540952D01*
X-86510476Y-190588571D01*
X-86605714Y-190636190D01*
X-86986666Y-190636190D01*
X-85415238Y-191112380D02*
X-85748571Y-190636190D01*
X-85986666Y-191112380D02*
X-85986666Y-190112380D01*
X-85605714Y-190112380D01*
X-85510476Y-190160000D01*
X-85462857Y-190207619D01*
X-85415238Y-190302857D01*
X-85415238Y-190445714D01*
X-85462857Y-190540952D01*
X-85510476Y-190588571D01*
X-85605714Y-190636190D01*
X-85986666Y-190636190D01*
X-84986666Y-190588571D02*
X-84653333Y-190588571D01*
X-84510476Y-191112380D02*
X-84986666Y-191112380D01*
X-84986666Y-190112380D01*
X-84510476Y-190112380D01*
X-84129523Y-191064761D02*
X-83986666Y-191112380D01*
X-83748571Y-191112380D01*
X-83653333Y-191064761D01*
X-83605714Y-191017142D01*
X-83558095Y-190921904D01*
X-83558095Y-190826666D01*
X-83605714Y-190731428D01*
X-83653333Y-190683809D01*
X-83748571Y-190636190D01*
X-83939047Y-190588571D01*
X-84034285Y-190540952D01*
X-84081904Y-190493333D01*
X-84129523Y-190398095D01*
X-84129523Y-190302857D01*
X-84081904Y-190207619D01*
X-84034285Y-190160000D01*
X-83939047Y-190112380D01*
X-83700952Y-190112380D01*
X-83558095Y-190160000D01*
X-82939047Y-190112380D02*
X-82748571Y-190112380D01*
X-82653333Y-190160000D01*
X-82558095Y-190255238D01*
X-82510476Y-190445714D01*
X-82510476Y-190779047D01*
X-82558095Y-190969523D01*
X-82653333Y-191064761D01*
X-82748571Y-191112380D01*
X-82939047Y-191112380D01*
X-83034285Y-191064761D01*
X-83129523Y-190969523D01*
X-83177142Y-190779047D01*
X-83177142Y-190445714D01*
X-83129523Y-190255238D01*
X-83034285Y-190160000D01*
X-82939047Y-190112380D01*
X-81510476Y-191112380D02*
X-81843809Y-190636190D01*
X-82081904Y-191112380D02*
X-82081904Y-190112380D01*
X-81700952Y-190112380D01*
X-81605714Y-190160000D01*
X-81558095Y-190207619D01*
X-81510476Y-190302857D01*
X-81510476Y-190445714D01*
X-81558095Y-190540952D01*
X-81605714Y-190588571D01*
X-81700952Y-190636190D01*
X-82081904Y-190636190D01*
X-87653333Y-187652380D02*
X-87653333Y-188366666D01*
X-87700952Y-188509523D01*
X-87796190Y-188604761D01*
X-87939047Y-188652380D01*
X-88034285Y-188652380D01*
X-87272380Y-187652380D02*
X-86605714Y-187652380D01*
X-87034285Y-188652380D01*
%TO.C,OLED1*%
X-99938095Y-90457142D02*
X-99985714Y-90504761D01*
X-100128571Y-90552380D01*
X-100223809Y-90552380D01*
X-100366666Y-90504761D01*
X-100461904Y-90409523D01*
X-100509523Y-90314285D01*
X-100557142Y-90123809D01*
X-100557142Y-89980952D01*
X-100509523Y-89790476D01*
X-100461904Y-89695238D01*
X-100366666Y-89600000D01*
X-100223809Y-89552380D01*
X-100128571Y-89552380D01*
X-99985714Y-89600000D01*
X-99938095Y-89647619D01*
X-99366666Y-90552380D02*
X-99461904Y-90504761D01*
X-99509523Y-90457142D01*
X-99557142Y-90361904D01*
X-99557142Y-90076190D01*
X-99509523Y-89980952D01*
X-99461904Y-89933333D01*
X-99366666Y-89885714D01*
X-99223809Y-89885714D01*
X-99128571Y-89933333D01*
X-99080952Y-89980952D01*
X-99033333Y-90076190D01*
X-99033333Y-90361904D01*
X-99080952Y-90457142D01*
X-99128571Y-90504761D01*
X-99223809Y-90552380D01*
X-99366666Y-90552380D01*
X-98604761Y-89885714D02*
X-98604761Y-90552380D01*
X-98604761Y-89980952D02*
X-98557142Y-89933333D01*
X-98461904Y-89885714D01*
X-98319047Y-89885714D01*
X-98223809Y-89933333D01*
X-98176190Y-90028571D01*
X-98176190Y-90552380D01*
X-97700000Y-89885714D02*
X-97700000Y-90552380D01*
X-97700000Y-89980952D02*
X-97652380Y-89933333D01*
X-97557142Y-89885714D01*
X-97414285Y-89885714D01*
X-97319047Y-89933333D01*
X-97271428Y-90028571D01*
X-97271428Y-90552380D01*
X-97033333Y-90647619D02*
X-96271428Y-90647619D01*
X-95842857Y-89552380D02*
X-95747619Y-89552380D01*
X-95652380Y-89600000D01*
X-95604761Y-89647619D01*
X-95557142Y-89742857D01*
X-95509523Y-89933333D01*
X-95509523Y-90171428D01*
X-95557142Y-90361904D01*
X-95604761Y-90457142D01*
X-95652380Y-90504761D01*
X-95747619Y-90552380D01*
X-95842857Y-90552380D01*
X-95938095Y-90504761D01*
X-95985714Y-90457142D01*
X-96033333Y-90361904D01*
X-96080952Y-90171428D01*
X-96080952Y-89933333D01*
X-96033333Y-89742857D01*
X-95985714Y-89647619D01*
X-95938095Y-89600000D01*
X-95842857Y-89552380D01*
X-94557142Y-90552380D02*
X-95128571Y-90552380D01*
X-94842857Y-90552380D02*
X-94842857Y-89552380D01*
X-94938095Y-89695238D01*
X-95033333Y-89790476D01*
X-95128571Y-89838095D01*
X-94223809Y-90552380D02*
X-93700000Y-89885714D01*
X-94223809Y-89885714D02*
X-93700000Y-90552380D01*
X-93128571Y-89552380D02*
X-93033333Y-89552380D01*
X-92938095Y-89600000D01*
X-92890476Y-89647619D01*
X-92842857Y-89742857D01*
X-92795238Y-89933333D01*
X-92795238Y-90171428D01*
X-92842857Y-90361904D01*
X-92890476Y-90457142D01*
X-92938095Y-90504761D01*
X-93033333Y-90552380D01*
X-93128571Y-90552380D01*
X-93223809Y-90504761D01*
X-93271428Y-90457142D01*
X-93319047Y-90361904D01*
X-93366666Y-90171428D01*
X-93366666Y-89933333D01*
X-93319047Y-89742857D01*
X-93271428Y-89647619D01*
X-93223809Y-89600000D01*
X-93128571Y-89552380D01*
X-92223809Y-89980952D02*
X-92319047Y-89933333D01*
X-92366666Y-89885714D01*
X-92414285Y-89790476D01*
X-92414285Y-89742857D01*
X-92366666Y-89647619D01*
X-92319047Y-89600000D01*
X-92223809Y-89552380D01*
X-92033333Y-89552380D01*
X-91938095Y-89600000D01*
X-91890476Y-89647619D01*
X-91842857Y-89742857D01*
X-91842857Y-89790476D01*
X-91890476Y-89885714D01*
X-91938095Y-89933333D01*
X-92033333Y-89980952D01*
X-92223809Y-89980952D01*
X-92319047Y-90028571D01*
X-92366666Y-90076190D01*
X-92414285Y-90171428D01*
X-92414285Y-90361904D01*
X-92366666Y-90457142D01*
X-92319047Y-90504761D01*
X-92223809Y-90552380D01*
X-92033333Y-90552380D01*
X-91938095Y-90504761D01*
X-91890476Y-90457142D01*
X-91842857Y-90361904D01*
X-91842857Y-90171428D01*
X-91890476Y-90076190D01*
X-91938095Y-90028571D01*
X-92033333Y-89980952D01*
%TO.C,U2*%
D13*
X-97795476Y-141667619D02*
X-96767380Y-141667619D01*
X-96646428Y-141607142D01*
X-96585952Y-141546666D01*
X-96525476Y-141425714D01*
X-96525476Y-141183809D01*
X-96585952Y-141062857D01*
X-96646428Y-141002380D01*
X-96767380Y-140941904D01*
X-97795476Y-140941904D01*
X-97674523Y-140397619D02*
X-97735000Y-140337142D01*
X-97795476Y-140216190D01*
X-97795476Y-139913809D01*
X-97735000Y-139792857D01*
X-97674523Y-139732380D01*
X-97553571Y-139671904D01*
X-97432619Y-139671904D01*
X-97251190Y-139732380D01*
X-96525476Y-140458095D01*
X-96525476Y-139671904D01*
%TO.C,SERVO1*%
D12*
X-118232857Y-128138095D02*
X-118185238Y-128185714D01*
X-118137619Y-128328571D01*
X-118137619Y-128423809D01*
X-118185238Y-128566666D01*
X-118280476Y-128661904D01*
X-118375714Y-128709523D01*
X-118566190Y-128757142D01*
X-118709047Y-128757142D01*
X-118899523Y-128709523D01*
X-118994761Y-128661904D01*
X-119090000Y-128566666D01*
X-119137619Y-128423809D01*
X-119137619Y-128328571D01*
X-119090000Y-128185714D01*
X-119042380Y-128138095D01*
X-118137619Y-127566666D02*
X-118185238Y-127661904D01*
X-118232857Y-127709523D01*
X-118328095Y-127757142D01*
X-118613809Y-127757142D01*
X-118709047Y-127709523D01*
X-118756666Y-127661904D01*
X-118804285Y-127566666D01*
X-118804285Y-127423809D01*
X-118756666Y-127328571D01*
X-118709047Y-127280952D01*
X-118613809Y-127233333D01*
X-118328095Y-127233333D01*
X-118232857Y-127280952D01*
X-118185238Y-127328571D01*
X-118137619Y-127423809D01*
X-118137619Y-127566666D01*
X-118804285Y-126804761D02*
X-118137619Y-126804761D01*
X-118709047Y-126804761D02*
X-118756666Y-126757142D01*
X-118804285Y-126661904D01*
X-118804285Y-126519047D01*
X-118756666Y-126423809D01*
X-118661428Y-126376190D01*
X-118137619Y-126376190D01*
X-118804285Y-125900000D02*
X-118137619Y-125900000D01*
X-118709047Y-125900000D02*
X-118756666Y-125852380D01*
X-118804285Y-125757142D01*
X-118804285Y-125614285D01*
X-118756666Y-125519047D01*
X-118661428Y-125471428D01*
X-118137619Y-125471428D01*
X-118042380Y-125233333D02*
X-118042380Y-124471428D01*
X-119137619Y-124042857D02*
X-119137619Y-123947619D01*
X-119090000Y-123852380D01*
X-119042380Y-123804761D01*
X-118947142Y-123757142D01*
X-118756666Y-123709523D01*
X-118518571Y-123709523D01*
X-118328095Y-123757142D01*
X-118232857Y-123804761D01*
X-118185238Y-123852380D01*
X-118137619Y-123947619D01*
X-118137619Y-124042857D01*
X-118185238Y-124138095D01*
X-118232857Y-124185714D01*
X-118328095Y-124233333D01*
X-118518571Y-124280952D01*
X-118756666Y-124280952D01*
X-118947142Y-124233333D01*
X-119042380Y-124185714D01*
X-119090000Y-124138095D01*
X-119137619Y-124042857D01*
X-118137619Y-122757142D02*
X-118137619Y-123328571D01*
X-118137619Y-123042857D02*
X-119137619Y-123042857D01*
X-118994761Y-123138095D01*
X-118899523Y-123233333D01*
X-118851904Y-123328571D01*
X-118137619Y-122423809D02*
X-118804285Y-121900000D01*
X-118804285Y-122423809D02*
X-118137619Y-121900000D01*
X-119137619Y-121328571D02*
X-119137619Y-121233333D01*
X-119090000Y-121138095D01*
X-119042380Y-121090476D01*
X-118947142Y-121042857D01*
X-118756666Y-120995238D01*
X-118518571Y-120995238D01*
X-118328095Y-121042857D01*
X-118232857Y-121090476D01*
X-118185238Y-121138095D01*
X-118137619Y-121233333D01*
X-118137619Y-121328571D01*
X-118185238Y-121423809D01*
X-118232857Y-121471428D01*
X-118328095Y-121519047D01*
X-118518571Y-121566666D01*
X-118756666Y-121566666D01*
X-118947142Y-121519047D01*
X-119042380Y-121471428D01*
X-119090000Y-121423809D01*
X-119137619Y-121328571D01*
X-119137619Y-120661904D02*
X-119137619Y-120042857D01*
X-118756666Y-120376190D01*
X-118756666Y-120233333D01*
X-118709047Y-120138095D01*
X-118661428Y-120090476D01*
X-118566190Y-120042857D01*
X-118328095Y-120042857D01*
X-118232857Y-120090476D01*
X-118185238Y-120138095D01*
X-118137619Y-120233333D01*
X-118137619Y-120519047D01*
X-118185238Y-120614285D01*
X-118232857Y-120661904D01*
X-126126666Y-124804761D02*
X-125983809Y-124852380D01*
X-125745714Y-124852380D01*
X-125650476Y-124804761D01*
X-125602857Y-124757142D01*
X-125555238Y-124661904D01*
X-125555238Y-124566666D01*
X-125602857Y-124471428D01*
X-125650476Y-124423809D01*
X-125745714Y-124376190D01*
X-125936190Y-124328571D01*
X-126031428Y-124280952D01*
X-126079047Y-124233333D01*
X-126126666Y-124138095D01*
X-126126666Y-124042857D01*
X-126079047Y-123947619D01*
X-126031428Y-123900000D01*
X-125936190Y-123852380D01*
X-125698095Y-123852380D01*
X-125555238Y-123900000D01*
X-125126666Y-124328571D02*
X-124793333Y-124328571D01*
X-124650476Y-124852380D02*
X-125126666Y-124852380D01*
X-125126666Y-123852380D01*
X-124650476Y-123852380D01*
X-123650476Y-124852380D02*
X-123983809Y-124376190D01*
X-124221904Y-124852380D02*
X-124221904Y-123852380D01*
X-123840952Y-123852380D01*
X-123745714Y-123900000D01*
X-123698095Y-123947619D01*
X-123650476Y-124042857D01*
X-123650476Y-124185714D01*
X-123698095Y-124280952D01*
X-123745714Y-124328571D01*
X-123840952Y-124376190D01*
X-124221904Y-124376190D01*
X-123364761Y-123852380D02*
X-123031428Y-124852380D01*
X-122698095Y-123852380D01*
X-122174285Y-123852380D02*
X-121983809Y-123852380D01*
X-121888571Y-123900000D01*
X-121793333Y-123995238D01*
X-121745714Y-124185714D01*
X-121745714Y-124519047D01*
X-121793333Y-124709523D01*
X-121888571Y-124804761D01*
X-121983809Y-124852380D01*
X-122174285Y-124852380D01*
X-122269523Y-124804761D01*
X-122364761Y-124709523D01*
X-122412380Y-124519047D01*
X-122412380Y-124185714D01*
X-122364761Y-123995238D01*
X-122269523Y-123900000D01*
X-122174285Y-123852380D01*
X-120793333Y-124852380D02*
X-121364761Y-124852380D01*
X-121079047Y-124852380D02*
X-121079047Y-123852380D01*
X-121174285Y-123995238D01*
X-121269523Y-124090476D01*
X-121364761Y-124138095D01*
%TO.C,Seguro1*%
X-127512857Y-145938095D02*
X-127465238Y-145985714D01*
X-127417619Y-146128571D01*
X-127417619Y-146223809D01*
X-127465238Y-146366666D01*
X-127560476Y-146461904D01*
X-127655714Y-146509523D01*
X-127846190Y-146557142D01*
X-127989047Y-146557142D01*
X-128179523Y-146509523D01*
X-128274761Y-146461904D01*
X-128370000Y-146366666D01*
X-128417619Y-146223809D01*
X-128417619Y-146128571D01*
X-128370000Y-145985714D01*
X-128322380Y-145938095D01*
X-127417619Y-145366666D02*
X-127465238Y-145461904D01*
X-127512857Y-145509523D01*
X-127608095Y-145557142D01*
X-127893809Y-145557142D01*
X-127989047Y-145509523D01*
X-128036666Y-145461904D01*
X-128084285Y-145366666D01*
X-128084285Y-145223809D01*
X-128036666Y-145128571D01*
X-127989047Y-145080952D01*
X-127893809Y-145033333D01*
X-127608095Y-145033333D01*
X-127512857Y-145080952D01*
X-127465238Y-145128571D01*
X-127417619Y-145223809D01*
X-127417619Y-145366666D01*
X-128084285Y-144604761D02*
X-127417619Y-144604761D01*
X-127989047Y-144604761D02*
X-128036666Y-144557142D01*
X-128084285Y-144461904D01*
X-128084285Y-144319047D01*
X-128036666Y-144223809D01*
X-127941428Y-144176190D01*
X-127417619Y-144176190D01*
X-128084285Y-143700000D02*
X-127417619Y-143700000D01*
X-127989047Y-143700000D02*
X-128036666Y-143652380D01*
X-128084285Y-143557142D01*
X-128084285Y-143414285D01*
X-128036666Y-143319047D01*
X-127941428Y-143271428D01*
X-127417619Y-143271428D01*
X-127322380Y-143033333D02*
X-127322380Y-142271428D01*
X-128417619Y-141842857D02*
X-128417619Y-141747619D01*
X-128370000Y-141652380D01*
X-128322380Y-141604761D01*
X-128227142Y-141557142D01*
X-128036666Y-141509523D01*
X-127798571Y-141509523D01*
X-127608095Y-141557142D01*
X-127512857Y-141604761D01*
X-127465238Y-141652380D01*
X-127417619Y-141747619D01*
X-127417619Y-141842857D01*
X-127465238Y-141938095D01*
X-127512857Y-141985714D01*
X-127608095Y-142033333D01*
X-127798571Y-142080952D01*
X-128036666Y-142080952D01*
X-128227142Y-142033333D01*
X-128322380Y-141985714D01*
X-128370000Y-141938095D01*
X-128417619Y-141842857D01*
X-127417619Y-140557142D02*
X-127417619Y-141128571D01*
X-127417619Y-140842857D02*
X-128417619Y-140842857D01*
X-128274761Y-140938095D01*
X-128179523Y-141033333D01*
X-128131904Y-141128571D01*
X-127417619Y-140223809D02*
X-128084285Y-139700000D01*
X-128084285Y-140223809D02*
X-127417619Y-139700000D01*
X-128417619Y-139128571D02*
X-128417619Y-139033333D01*
X-128370000Y-138938095D01*
X-128322380Y-138890476D01*
X-128227142Y-138842857D01*
X-128036666Y-138795238D01*
X-127798571Y-138795238D01*
X-127608095Y-138842857D01*
X-127512857Y-138890476D01*
X-127465238Y-138938095D01*
X-127417619Y-139033333D01*
X-127417619Y-139128571D01*
X-127465238Y-139223809D01*
X-127512857Y-139271428D01*
X-127608095Y-139319047D01*
X-127798571Y-139366666D01*
X-128036666Y-139366666D01*
X-128227142Y-139319047D01*
X-128322380Y-139271428D01*
X-128370000Y-139223809D01*
X-128417619Y-139128571D01*
X-128322380Y-138414285D02*
X-128370000Y-138366666D01*
X-128417619Y-138271428D01*
X-128417619Y-138033333D01*
X-128370000Y-137938095D01*
X-128322380Y-137890476D01*
X-128227142Y-137842857D01*
X-128131904Y-137842857D01*
X-127989047Y-137890476D01*
X-127417619Y-138461904D01*
X-127417619Y-137842857D01*
X-127127142Y-142604761D02*
X-126984285Y-142652380D01*
X-126746190Y-142652380D01*
X-126650952Y-142604761D01*
X-126603333Y-142557142D01*
X-126555714Y-142461904D01*
X-126555714Y-142366666D01*
X-126603333Y-142271428D01*
X-126650952Y-142223809D01*
X-126746190Y-142176190D01*
X-126936666Y-142128571D01*
X-127031904Y-142080952D01*
X-127079523Y-142033333D01*
X-127127142Y-141938095D01*
X-127127142Y-141842857D01*
X-127079523Y-141747619D01*
X-127031904Y-141700000D01*
X-126936666Y-141652380D01*
X-126698571Y-141652380D01*
X-126555714Y-141700000D01*
X-125746190Y-142604761D02*
X-125841428Y-142652380D01*
X-126031904Y-142652380D01*
X-126127142Y-142604761D01*
X-126174761Y-142509523D01*
X-126174761Y-142128571D01*
X-126127142Y-142033333D01*
X-126031904Y-141985714D01*
X-125841428Y-141985714D01*
X-125746190Y-142033333D01*
X-125698571Y-142128571D01*
X-125698571Y-142223809D01*
X-126174761Y-142319047D01*
X-124841428Y-141985714D02*
X-124841428Y-142795238D01*
X-124889047Y-142890476D01*
X-124936666Y-142938095D01*
X-125031904Y-142985714D01*
X-125174761Y-142985714D01*
X-125270000Y-142938095D01*
X-124841428Y-142604761D02*
X-124936666Y-142652380D01*
X-125127142Y-142652380D01*
X-125222380Y-142604761D01*
X-125270000Y-142557142D01*
X-125317619Y-142461904D01*
X-125317619Y-142176190D01*
X-125270000Y-142080952D01*
X-125222380Y-142033333D01*
X-125127142Y-141985714D01*
X-124936666Y-141985714D01*
X-124841428Y-142033333D01*
X-123936666Y-141985714D02*
X-123936666Y-142652380D01*
X-124365238Y-141985714D02*
X-124365238Y-142509523D01*
X-124317619Y-142604761D01*
X-124222380Y-142652380D01*
X-124079523Y-142652380D01*
X-123984285Y-142604761D01*
X-123936666Y-142557142D01*
X-123460476Y-142652380D02*
X-123460476Y-141985714D01*
X-123460476Y-142176190D02*
X-123412857Y-142080952D01*
X-123365238Y-142033333D01*
X-123270000Y-141985714D01*
X-123174761Y-141985714D01*
X-122698571Y-142652380D02*
X-122793809Y-142604761D01*
X-122841428Y-142557142D01*
X-122889047Y-142461904D01*
X-122889047Y-142176190D01*
X-122841428Y-142080952D01*
X-122793809Y-142033333D01*
X-122698571Y-141985714D01*
X-122555714Y-141985714D01*
X-122460476Y-142033333D01*
X-122412857Y-142080952D01*
X-122365238Y-142176190D01*
X-122365238Y-142461904D01*
X-122412857Y-142557142D01*
X-122460476Y-142604761D01*
X-122555714Y-142652380D01*
X-122698571Y-142652380D01*
X-121412857Y-142652380D02*
X-121984285Y-142652380D01*
X-121698571Y-142652380D02*
X-121698571Y-141652380D01*
X-121793809Y-141795238D01*
X-121889047Y-141890476D01*
X-121984285Y-141938095D01*
%TO.C,Recibo1*%
X-79338095Y-108427142D02*
X-79385714Y-108474761D01*
X-79528571Y-108522380D01*
X-79623809Y-108522380D01*
X-79766666Y-108474761D01*
X-79861904Y-108379523D01*
X-79909523Y-108284285D01*
X-79957142Y-108093809D01*
X-79957142Y-107950952D01*
X-79909523Y-107760476D01*
X-79861904Y-107665238D01*
X-79766666Y-107570000D01*
X-79623809Y-107522380D01*
X-79528571Y-107522380D01*
X-79385714Y-107570000D01*
X-79338095Y-107617619D01*
X-78766666Y-108522380D02*
X-78861904Y-108474761D01*
X-78909523Y-108427142D01*
X-78957142Y-108331904D01*
X-78957142Y-108046190D01*
X-78909523Y-107950952D01*
X-78861904Y-107903333D01*
X-78766666Y-107855714D01*
X-78623809Y-107855714D01*
X-78528571Y-107903333D01*
X-78480952Y-107950952D01*
X-78433333Y-108046190D01*
X-78433333Y-108331904D01*
X-78480952Y-108427142D01*
X-78528571Y-108474761D01*
X-78623809Y-108522380D01*
X-78766666Y-108522380D01*
X-78004761Y-107855714D02*
X-78004761Y-108522380D01*
X-78004761Y-107950952D02*
X-77957142Y-107903333D01*
X-77861904Y-107855714D01*
X-77719047Y-107855714D01*
X-77623809Y-107903333D01*
X-77576190Y-107998571D01*
X-77576190Y-108522380D01*
X-77100000Y-107855714D02*
X-77100000Y-108522380D01*
X-77100000Y-107950952D02*
X-77052380Y-107903333D01*
X-76957142Y-107855714D01*
X-76814285Y-107855714D01*
X-76719047Y-107903333D01*
X-76671428Y-107998571D01*
X-76671428Y-108522380D01*
X-76433333Y-108617619D02*
X-75671428Y-108617619D01*
X-75242857Y-107522380D02*
X-75147619Y-107522380D01*
X-75052380Y-107570000D01*
X-75004761Y-107617619D01*
X-74957142Y-107712857D01*
X-74909523Y-107903333D01*
X-74909523Y-108141428D01*
X-74957142Y-108331904D01*
X-75004761Y-108427142D01*
X-75052380Y-108474761D01*
X-75147619Y-108522380D01*
X-75242857Y-108522380D01*
X-75338095Y-108474761D01*
X-75385714Y-108427142D01*
X-75433333Y-108331904D01*
X-75480952Y-108141428D01*
X-75480952Y-107903333D01*
X-75433333Y-107712857D01*
X-75385714Y-107617619D01*
X-75338095Y-107570000D01*
X-75242857Y-107522380D01*
X-73957142Y-108522380D02*
X-74528571Y-108522380D01*
X-74242857Y-108522380D02*
X-74242857Y-107522380D01*
X-74338095Y-107665238D01*
X-74433333Y-107760476D01*
X-74528571Y-107808095D01*
X-73623809Y-108522380D02*
X-73100000Y-107855714D01*
X-73623809Y-107855714D02*
X-73100000Y-108522380D01*
X-72528571Y-107522380D02*
X-72433333Y-107522380D01*
X-72338095Y-107570000D01*
X-72290476Y-107617619D01*
X-72242857Y-107712857D01*
X-72195238Y-107903333D01*
X-72195238Y-108141428D01*
X-72242857Y-108331904D01*
X-72290476Y-108427142D01*
X-72338095Y-108474761D01*
X-72433333Y-108522380D01*
X-72528571Y-108522380D01*
X-72623809Y-108474761D01*
X-72671428Y-108427142D01*
X-72719047Y-108331904D01*
X-72766666Y-108141428D01*
X-72766666Y-107903333D01*
X-72719047Y-107712857D01*
X-72671428Y-107617619D01*
X-72623809Y-107570000D01*
X-72528571Y-107522380D01*
X-71814285Y-107617619D02*
X-71766666Y-107570000D01*
X-71671428Y-107522380D01*
X-71433333Y-107522380D01*
X-71338095Y-107570000D01*
X-71290476Y-107617619D01*
X-71242857Y-107712857D01*
X-71242857Y-107808095D01*
X-71290476Y-107950952D01*
X-71861904Y-108522380D01*
X-71242857Y-108522380D01*
X-75147619Y-106636666D02*
X-75623809Y-106970000D01*
X-75147619Y-107208095D02*
X-76147619Y-107208095D01*
X-76147619Y-106827142D01*
X-76100000Y-106731904D01*
X-76052380Y-106684285D01*
X-75957142Y-106636666D01*
X-75814285Y-106636666D01*
X-75719047Y-106684285D01*
X-75671428Y-106731904D01*
X-75623809Y-106827142D01*
X-75623809Y-107208095D01*
X-75195238Y-105827142D02*
X-75147619Y-105922380D01*
X-75147619Y-106112857D01*
X-75195238Y-106208095D01*
X-75290476Y-106255714D01*
X-75671428Y-106255714D01*
X-75766666Y-106208095D01*
X-75814285Y-106112857D01*
X-75814285Y-105922380D01*
X-75766666Y-105827142D01*
X-75671428Y-105779523D01*
X-75576190Y-105779523D01*
X-75480952Y-106255714D01*
X-75195238Y-104922380D02*
X-75147619Y-105017619D01*
X-75147619Y-105208095D01*
X-75195238Y-105303333D01*
X-75242857Y-105350952D01*
X-75338095Y-105398571D01*
X-75623809Y-105398571D01*
X-75719047Y-105350952D01*
X-75766666Y-105303333D01*
X-75814285Y-105208095D01*
X-75814285Y-105017619D01*
X-75766666Y-104922380D01*
X-75147619Y-104493809D02*
X-75814285Y-104493809D01*
X-76147619Y-104493809D02*
X-76100000Y-104541428D01*
X-76052380Y-104493809D01*
X-76100000Y-104446190D01*
X-76147619Y-104493809D01*
X-76052380Y-104493809D01*
X-75147619Y-104017619D02*
X-76147619Y-104017619D01*
X-75766666Y-104017619D02*
X-75814285Y-103922380D01*
X-75814285Y-103731904D01*
X-75766666Y-103636666D01*
X-75719047Y-103589047D01*
X-75623809Y-103541428D01*
X-75338095Y-103541428D01*
X-75242857Y-103589047D01*
X-75195238Y-103636666D01*
X-75147619Y-103731904D01*
X-75147619Y-103922380D01*
X-75195238Y-104017619D01*
X-75147619Y-102970000D02*
X-75195238Y-103065238D01*
X-75242857Y-103112857D01*
X-75338095Y-103160476D01*
X-75623809Y-103160476D01*
X-75719047Y-103112857D01*
X-75766666Y-103065238D01*
X-75814285Y-102970000D01*
X-75814285Y-102827142D01*
X-75766666Y-102731904D01*
X-75719047Y-102684285D01*
X-75623809Y-102636666D01*
X-75338095Y-102636666D01*
X-75242857Y-102684285D01*
X-75195238Y-102731904D01*
X-75147619Y-102827142D01*
X-75147619Y-102970000D01*
X-75147619Y-101684285D02*
X-75147619Y-102255714D01*
X-75147619Y-101970000D02*
X-76147619Y-101970000D01*
X-76004761Y-102065238D01*
X-75909523Y-102160476D01*
X-75861904Y-102255714D01*
%TO.C,HALL1*%
X-67338095Y-100367142D02*
X-67385714Y-100414761D01*
X-67528571Y-100462380D01*
X-67623809Y-100462380D01*
X-67766666Y-100414761D01*
X-67861904Y-100319523D01*
X-67909523Y-100224285D01*
X-67957142Y-100033809D01*
X-67957142Y-99890952D01*
X-67909523Y-99700476D01*
X-67861904Y-99605238D01*
X-67766666Y-99510000D01*
X-67623809Y-99462380D01*
X-67528571Y-99462380D01*
X-67385714Y-99510000D01*
X-67338095Y-99557619D01*
X-66766666Y-100462380D02*
X-66861904Y-100414761D01*
X-66909523Y-100367142D01*
X-66957142Y-100271904D01*
X-66957142Y-99986190D01*
X-66909523Y-99890952D01*
X-66861904Y-99843333D01*
X-66766666Y-99795714D01*
X-66623809Y-99795714D01*
X-66528571Y-99843333D01*
X-66480952Y-99890952D01*
X-66433333Y-99986190D01*
X-66433333Y-100271904D01*
X-66480952Y-100367142D01*
X-66528571Y-100414761D01*
X-66623809Y-100462380D01*
X-66766666Y-100462380D01*
X-66004761Y-99795714D02*
X-66004761Y-100462380D01*
X-66004761Y-99890952D02*
X-65957142Y-99843333D01*
X-65861904Y-99795714D01*
X-65719047Y-99795714D01*
X-65623809Y-99843333D01*
X-65576190Y-99938571D01*
X-65576190Y-100462380D01*
X-65100000Y-99795714D02*
X-65100000Y-100462380D01*
X-65100000Y-99890952D02*
X-65052380Y-99843333D01*
X-64957142Y-99795714D01*
X-64814285Y-99795714D01*
X-64719047Y-99843333D01*
X-64671428Y-99938571D01*
X-64671428Y-100462380D01*
X-64433333Y-100557619D02*
X-63671428Y-100557619D01*
X-63242857Y-99462380D02*
X-63147619Y-99462380D01*
X-63052380Y-99510000D01*
X-63004761Y-99557619D01*
X-62957142Y-99652857D01*
X-62909523Y-99843333D01*
X-62909523Y-100081428D01*
X-62957142Y-100271904D01*
X-63004761Y-100367142D01*
X-63052380Y-100414761D01*
X-63147619Y-100462380D01*
X-63242857Y-100462380D01*
X-63338095Y-100414761D01*
X-63385714Y-100367142D01*
X-63433333Y-100271904D01*
X-63480952Y-100081428D01*
X-63480952Y-99843333D01*
X-63433333Y-99652857D01*
X-63385714Y-99557619D01*
X-63338095Y-99510000D01*
X-63242857Y-99462380D01*
X-61957142Y-100462380D02*
X-62528571Y-100462380D01*
X-62242857Y-100462380D02*
X-62242857Y-99462380D01*
X-62338095Y-99605238D01*
X-62433333Y-99700476D01*
X-62528571Y-99748095D01*
X-61623809Y-100462380D02*
X-61100000Y-99795714D01*
X-61623809Y-99795714D02*
X-61100000Y-100462380D01*
X-60528571Y-99462380D02*
X-60433333Y-99462380D01*
X-60338095Y-99510000D01*
X-60290476Y-99557619D01*
X-60242857Y-99652857D01*
X-60195238Y-99843333D01*
X-60195238Y-100081428D01*
X-60242857Y-100271904D01*
X-60290476Y-100367142D01*
X-60338095Y-100414761D01*
X-60433333Y-100462380D01*
X-60528571Y-100462380D01*
X-60623809Y-100414761D01*
X-60671428Y-100367142D01*
X-60719047Y-100271904D01*
X-60766666Y-100081428D01*
X-60766666Y-99843333D01*
X-60719047Y-99652857D01*
X-60671428Y-99557619D01*
X-60623809Y-99510000D01*
X-60528571Y-99462380D01*
X-59861904Y-99462380D02*
X-59242857Y-99462380D01*
X-59576190Y-99843333D01*
X-59433333Y-99843333D01*
X-59338095Y-99890952D01*
X-59290476Y-99938571D01*
X-59242857Y-100033809D01*
X-59242857Y-100271904D01*
X-59290476Y-100367142D01*
X-59338095Y-100414761D01*
X-59433333Y-100462380D01*
X-59719047Y-100462380D01*
X-59814285Y-100414761D01*
X-59861904Y-100367142D01*
X-63147619Y-97140000D02*
X-64147619Y-97140000D01*
X-63671428Y-97140000D02*
X-63671428Y-96568571D01*
X-63147619Y-96568571D02*
X-64147619Y-96568571D01*
X-63433333Y-96140000D02*
X-63433333Y-95663809D01*
X-63147619Y-96235238D02*
X-64147619Y-95901904D01*
X-63147619Y-95568571D01*
X-63147619Y-94759047D02*
X-63147619Y-95235238D01*
X-64147619Y-95235238D01*
X-63147619Y-93949523D02*
X-63147619Y-94425714D01*
X-64147619Y-94425714D01*
X-63147619Y-93092380D02*
X-63147619Y-93663809D01*
X-63147619Y-93378095D02*
X-64147619Y-93378095D01*
X-64004761Y-93473333D01*
X-63909523Y-93568571D01*
X-63861904Y-93663809D01*
%TO.C,Bolsa1*%
X-127512857Y-138738095D02*
X-127465238Y-138785714D01*
X-127417619Y-138928571D01*
X-127417619Y-139023809D01*
X-127465238Y-139166666D01*
X-127560476Y-139261904D01*
X-127655714Y-139309523D01*
X-127846190Y-139357142D01*
X-127989047Y-139357142D01*
X-128179523Y-139309523D01*
X-128274761Y-139261904D01*
X-128370000Y-139166666D01*
X-128417619Y-139023809D01*
X-128417619Y-138928571D01*
X-128370000Y-138785714D01*
X-128322380Y-138738095D01*
X-127417619Y-138166666D02*
X-127465238Y-138261904D01*
X-127512857Y-138309523D01*
X-127608095Y-138357142D01*
X-127893809Y-138357142D01*
X-127989047Y-138309523D01*
X-128036666Y-138261904D01*
X-128084285Y-138166666D01*
X-128084285Y-138023809D01*
X-128036666Y-137928571D01*
X-127989047Y-137880952D01*
X-127893809Y-137833333D01*
X-127608095Y-137833333D01*
X-127512857Y-137880952D01*
X-127465238Y-137928571D01*
X-127417619Y-138023809D01*
X-127417619Y-138166666D01*
X-128084285Y-137404761D02*
X-127417619Y-137404761D01*
X-127989047Y-137404761D02*
X-128036666Y-137357142D01*
X-128084285Y-137261904D01*
X-128084285Y-137119047D01*
X-128036666Y-137023809D01*
X-127941428Y-136976190D01*
X-127417619Y-136976190D01*
X-128084285Y-136500000D02*
X-127417619Y-136500000D01*
X-127989047Y-136500000D02*
X-128036666Y-136452380D01*
X-128084285Y-136357142D01*
X-128084285Y-136214285D01*
X-128036666Y-136119047D01*
X-127941428Y-136071428D01*
X-127417619Y-136071428D01*
X-127322380Y-135833333D02*
X-127322380Y-135071428D01*
X-128417619Y-134642857D02*
X-128417619Y-134547619D01*
X-128370000Y-134452380D01*
X-128322380Y-134404761D01*
X-128227142Y-134357142D01*
X-128036666Y-134309523D01*
X-127798571Y-134309523D01*
X-127608095Y-134357142D01*
X-127512857Y-134404761D01*
X-127465238Y-134452380D01*
X-127417619Y-134547619D01*
X-127417619Y-134642857D01*
X-127465238Y-134738095D01*
X-127512857Y-134785714D01*
X-127608095Y-134833333D01*
X-127798571Y-134880952D01*
X-128036666Y-134880952D01*
X-128227142Y-134833333D01*
X-128322380Y-134785714D01*
X-128370000Y-134738095D01*
X-128417619Y-134642857D01*
X-127417619Y-133357142D02*
X-127417619Y-133928571D01*
X-127417619Y-133642857D02*
X-128417619Y-133642857D01*
X-128274761Y-133738095D01*
X-128179523Y-133833333D01*
X-128131904Y-133928571D01*
X-127417619Y-133023809D02*
X-128084285Y-132500000D01*
X-128084285Y-133023809D02*
X-127417619Y-132500000D01*
X-128417619Y-131928571D02*
X-128417619Y-131833333D01*
X-128370000Y-131738095D01*
X-128322380Y-131690476D01*
X-128227142Y-131642857D01*
X-128036666Y-131595238D01*
X-127798571Y-131595238D01*
X-127608095Y-131642857D01*
X-127512857Y-131690476D01*
X-127465238Y-131738095D01*
X-127417619Y-131833333D01*
X-127417619Y-131928571D01*
X-127465238Y-132023809D01*
X-127512857Y-132071428D01*
X-127608095Y-132119047D01*
X-127798571Y-132166666D01*
X-128036666Y-132166666D01*
X-128227142Y-132119047D01*
X-128322380Y-132071428D01*
X-128370000Y-132023809D01*
X-128417619Y-131928571D01*
X-128322380Y-131214285D02*
X-128370000Y-131166666D01*
X-128417619Y-131071428D01*
X-128417619Y-130833333D01*
X-128370000Y-130738095D01*
X-128322380Y-130690476D01*
X-128227142Y-130642857D01*
X-128131904Y-130642857D01*
X-127989047Y-130690476D01*
X-127417619Y-131261904D01*
X-127417619Y-130642857D01*
X-126246190Y-134928571D02*
X-126103333Y-134976190D01*
X-126055714Y-135023809D01*
X-126008095Y-135119047D01*
X-126008095Y-135261904D01*
X-126055714Y-135357142D01*
X-126103333Y-135404761D01*
X-126198571Y-135452380D01*
X-126579523Y-135452380D01*
X-126579523Y-134452380D01*
X-126246190Y-134452380D01*
X-126150952Y-134500000D01*
X-126103333Y-134547619D01*
X-126055714Y-134642857D01*
X-126055714Y-134738095D01*
X-126103333Y-134833333D01*
X-126150952Y-134880952D01*
X-126246190Y-134928571D01*
X-126579523Y-134928571D01*
X-125436666Y-135452380D02*
X-125531904Y-135404761D01*
X-125579523Y-135357142D01*
X-125627142Y-135261904D01*
X-125627142Y-134976190D01*
X-125579523Y-134880952D01*
X-125531904Y-134833333D01*
X-125436666Y-134785714D01*
X-125293809Y-134785714D01*
X-125198571Y-134833333D01*
X-125150952Y-134880952D01*
X-125103333Y-134976190D01*
X-125103333Y-135261904D01*
X-125150952Y-135357142D01*
X-125198571Y-135404761D01*
X-125293809Y-135452380D01*
X-125436666Y-135452380D01*
X-124531904Y-135452380D02*
X-124627142Y-135404761D01*
X-124674761Y-135309523D01*
X-124674761Y-134452380D01*
X-124198571Y-135404761D02*
X-124103333Y-135452380D01*
X-123912857Y-135452380D01*
X-123817619Y-135404761D01*
X-123770000Y-135309523D01*
X-123770000Y-135261904D01*
X-123817619Y-135166666D01*
X-123912857Y-135119047D01*
X-124055714Y-135119047D01*
X-124150952Y-135071428D01*
X-124198571Y-134976190D01*
X-124198571Y-134928571D01*
X-124150952Y-134833333D01*
X-124055714Y-134785714D01*
X-123912857Y-134785714D01*
X-123817619Y-134833333D01*
X-122912857Y-135452380D02*
X-122912857Y-134928571D01*
X-122960476Y-134833333D01*
X-123055714Y-134785714D01*
X-123246190Y-134785714D01*
X-123341428Y-134833333D01*
X-122912857Y-135404761D02*
X-123008095Y-135452380D01*
X-123246190Y-135452380D01*
X-123341428Y-135404761D01*
X-123389047Y-135309523D01*
X-123389047Y-135214285D01*
X-123341428Y-135119047D01*
X-123246190Y-135071428D01*
X-123008095Y-135071428D01*
X-122912857Y-135023809D01*
X-121912857Y-135452380D02*
X-122484285Y-135452380D01*
X-122198571Y-135452380D02*
X-122198571Y-134452380D01*
X-122293809Y-134595238D01*
X-122389047Y-134690476D01*
X-122484285Y-134738095D01*
%TO.C,J4*%
X-112969523Y-191512380D02*
X-112969523Y-190512380D01*
X-112588571Y-190512380D01*
X-112493333Y-190560000D01*
X-112445714Y-190607619D01*
X-112398095Y-190702857D01*
X-112398095Y-190845714D01*
X-112445714Y-190940952D01*
X-112493333Y-190988571D01*
X-112588571Y-191036190D01*
X-112969523Y-191036190D01*
X-111779047Y-190512380D02*
X-111588571Y-190512380D01*
X-111493333Y-190560000D01*
X-111398095Y-190655238D01*
X-111350476Y-190845714D01*
X-111350476Y-191179047D01*
X-111398095Y-191369523D01*
X-111493333Y-191464761D01*
X-111588571Y-191512380D01*
X-111779047Y-191512380D01*
X-111874285Y-191464761D01*
X-111969523Y-191369523D01*
X-112017142Y-191179047D01*
X-112017142Y-190845714D01*
X-111969523Y-190655238D01*
X-111874285Y-190560000D01*
X-111779047Y-190512380D01*
X-111017142Y-190512380D02*
X-110779047Y-191512380D01*
X-110588571Y-190798095D01*
X-110398095Y-191512380D01*
X-110160000Y-190512380D01*
X-109779047Y-190988571D02*
X-109445714Y-190988571D01*
X-109302857Y-191512380D02*
X-109779047Y-191512380D01*
X-109779047Y-190512380D01*
X-109302857Y-190512380D01*
X-108302857Y-191512380D02*
X-108636190Y-191036190D01*
X-108874285Y-191512380D02*
X-108874285Y-190512380D01*
X-108493333Y-190512380D01*
X-108398095Y-190560000D01*
X-108350476Y-190607619D01*
X-108302857Y-190702857D01*
X-108302857Y-190845714D01*
X-108350476Y-190940952D01*
X-108398095Y-190988571D01*
X-108493333Y-191036190D01*
X-108874285Y-191036190D01*
X-110993333Y-188052380D02*
X-110993333Y-188766666D01*
X-111040952Y-188909523D01*
X-111136190Y-189004761D01*
X-111279047Y-189052380D01*
X-111374285Y-189052380D01*
X-110088571Y-188385714D02*
X-110088571Y-189052380D01*
X-110326666Y-188004761D02*
X-110564761Y-188719047D01*
X-109945714Y-188719047D01*
%TO.C,D1*%
X-50677619Y-97621904D02*
X-51677619Y-97621904D01*
X-51677619Y-97383809D01*
X-51630000Y-97240952D01*
X-51534761Y-97145714D01*
X-51439523Y-97098095D01*
X-51249047Y-97050476D01*
X-51106190Y-97050476D01*
X-50915714Y-97098095D01*
X-50820476Y-97145714D01*
X-50725238Y-97240952D01*
X-50677619Y-97383809D01*
X-50677619Y-97621904D01*
X-50582380Y-96860000D02*
X-50582380Y-96098095D01*
X-50725238Y-95907619D02*
X-50677619Y-95764761D01*
X-50677619Y-95526666D01*
X-50725238Y-95431428D01*
X-50772857Y-95383809D01*
X-50868095Y-95336190D01*
X-50963333Y-95336190D01*
X-51058571Y-95383809D01*
X-51106190Y-95431428D01*
X-51153809Y-95526666D01*
X-51201428Y-95717142D01*
X-51249047Y-95812380D01*
X-51296666Y-95860000D01*
X-51391904Y-95907619D01*
X-51487142Y-95907619D01*
X-51582380Y-95860000D01*
X-51630000Y-95812380D01*
X-51677619Y-95717142D01*
X-51677619Y-95479047D01*
X-51630000Y-95336190D01*
X-50677619Y-94907619D02*
X-51344285Y-94907619D01*
X-51249047Y-94907619D02*
X-51296666Y-94860000D01*
X-51344285Y-94764761D01*
X-51344285Y-94621904D01*
X-51296666Y-94526666D01*
X-51201428Y-94479047D01*
X-50677619Y-94479047D01*
X-51201428Y-94479047D02*
X-51296666Y-94431428D01*
X-51344285Y-94336190D01*
X-51344285Y-94193333D01*
X-51296666Y-94098095D01*
X-51201428Y-94050476D01*
X-50677619Y-94050476D01*
X-50677619Y-93145714D02*
X-51201428Y-93145714D01*
X-51296666Y-93193333D01*
X-51344285Y-93288571D01*
X-51344285Y-93479047D01*
X-51296666Y-93574285D01*
X-50725238Y-93145714D02*
X-50677619Y-93240952D01*
X-50677619Y-93479047D01*
X-50725238Y-93574285D01*
X-50820476Y-93621904D01*
X-50915714Y-93621904D01*
X-51010952Y-93574285D01*
X-51058571Y-93479047D01*
X-51058571Y-93240952D01*
X-51106190Y-93145714D01*
X-50677619Y-92526666D02*
X-50725238Y-92621904D01*
X-50820476Y-92669523D01*
X-51677619Y-92669523D01*
X-50677619Y-92002857D02*
X-50725238Y-92098095D01*
X-50820476Y-92145714D01*
X-51677619Y-92145714D01*
X-52247619Y-96061904D02*
X-53247619Y-96061904D01*
X-52247619Y-95490476D02*
X-52819047Y-95919047D01*
X-53247619Y-95490476D02*
X-52676190Y-96061904D01*
X-55617619Y-95598095D02*
X-56617619Y-95598095D01*
X-56617619Y-95360000D01*
X-56570000Y-95217142D01*
X-56474761Y-95121904D01*
X-56379523Y-95074285D01*
X-56189047Y-95026666D01*
X-56046190Y-95026666D01*
X-55855714Y-95074285D01*
X-55760476Y-95121904D01*
X-55665238Y-95217142D01*
X-55617619Y-95360000D01*
X-55617619Y-95598095D01*
X-55617619Y-94074285D02*
X-55617619Y-94645714D01*
X-55617619Y-94360000D02*
X-56617619Y-94360000D01*
X-56474761Y-94455238D01*
X-56379523Y-94550476D01*
X-56331904Y-94645714D01*
%TD*%
M02*
