%TF.GenerationSoftware,KiCad,Pcbnew,(5.1.12)-1*%
%TF.CreationDate,2023-11-22T13:00:46-05:00*%
%TF.ProjectId,Logiplant,4c6f6769-706c-4616-9e74-2e6b69636164,rev?*%
%TF.SameCoordinates,Original*%
%TF.FileFunction,AssemblyDrawing,Top*%
%FSLAX46Y46*%
G04 Gerber Fmt 4.6, Leading zero omitted, Abs format (unit mm)*
G04 Created by KiCad (PCBNEW (5.1.12)-1) date 2023-11-22 13:00:46*
%MOMM*%
%LPD*%
G01*
G04 APERTURE LIST*
%ADD10C,0.100000*%
%ADD11C,0.200000*%
%ADD12C,0.150000*%
%ADD13C,0.254000*%
G04 APERTURE END LIST*
D10*
%TO.C,U4*%
X-100560000Y-95160000D02*
G75*
G03*
X-100560000Y-95160000I-1500000J0D01*
G01*
X-100560000Y-100240000D02*
G75*
G03*
X-100560000Y-100240000I-1500000J0D01*
G01*
X-100560000Y-105320000D02*
G75*
G03*
X-100560000Y-105320000I-1500000J0D01*
G01*
X-96860000Y-92620000D02*
X-96860000Y-107860000D01*
X-96860000Y-107860000D02*
X-106660000Y-107860000D01*
X-106660000Y-107860000D02*
X-106660000Y-93120000D01*
X-106660000Y-93120000D02*
X-106160000Y-92620000D01*
X-106160000Y-92620000D02*
X-96860000Y-92620000D01*
X-106160000Y-92620000D02*
X-106160000Y-107860000D01*
X-104660000Y-92620000D02*
X-104660000Y-107860000D01*
X-99760000Y-92620000D02*
X-99760000Y-107860000D01*
X-101105000Y-96298000D02*
X-103198000Y-94205000D01*
X-100922000Y-96115000D02*
X-103015000Y-94022000D01*
X-101105000Y-101378000D02*
X-103198000Y-99286000D01*
X-100922000Y-101195000D02*
X-103015000Y-99103000D01*
X-101105000Y-106458000D02*
X-103198000Y-104366000D01*
X-100922000Y-106275000D02*
X-103015000Y-104183000D01*
%TO.C,R3*%
X-77920000Y-178540000D02*
X-77920000Y-181040000D01*
X-77920000Y-181040000D02*
X-71620000Y-181040000D01*
X-71620000Y-181040000D02*
X-71620000Y-178540000D01*
X-71620000Y-178540000D02*
X-77920000Y-178540000D01*
X-79850000Y-179790000D02*
X-77920000Y-179790000D01*
X-69690000Y-179790000D02*
X-71620000Y-179790000D01*
%TO.C,R2*%
X-113250000Y-109060000D02*
X-110750000Y-109060000D01*
X-110750000Y-109060000D02*
X-110750000Y-102760000D01*
X-110750000Y-102760000D02*
X-113250000Y-102760000D01*
X-113250000Y-102760000D02*
X-113250000Y-109060000D01*
X-112000000Y-110990000D02*
X-112000000Y-109060000D01*
X-112000000Y-100830000D02*
X-112000000Y-102760000D01*
%TO.C,Recibo1*%
X-124610000Y-129370000D02*
G75*
G03*
X-124610000Y-129370000I-1500000J0D01*
G01*
X-124610000Y-134450000D02*
G75*
G03*
X-124610000Y-134450000I-1500000J0D01*
G01*
X-124610000Y-139530000D02*
G75*
G03*
X-124610000Y-139530000I-1500000J0D01*
G01*
X-120910000Y-126830000D02*
X-120910000Y-142070000D01*
X-120910000Y-142070000D02*
X-130710000Y-142070000D01*
X-130710000Y-142070000D02*
X-130710000Y-127330000D01*
X-130710000Y-127330000D02*
X-130210000Y-126830000D01*
X-130210000Y-126830000D02*
X-120910000Y-126830000D01*
X-130210000Y-126830000D02*
X-130210000Y-142070000D01*
X-128710000Y-126830000D02*
X-128710000Y-142070000D01*
X-123810000Y-126830000D02*
X-123810000Y-142070000D01*
X-125155000Y-130508000D02*
X-127248000Y-128415000D01*
X-124972000Y-130325000D02*
X-127065000Y-128232000D01*
X-125155000Y-135588000D02*
X-127248000Y-133496000D01*
X-124972000Y-135405000D02*
X-127065000Y-133313000D01*
X-125155000Y-140668000D02*
X-127248000Y-138576000D01*
X-124972000Y-140485000D02*
X-127065000Y-138393000D01*
%TO.C,U3*%
X-118830000Y-164400000D02*
X-123230000Y-164400000D01*
X-123230000Y-164400000D02*
X-123230000Y-174400000D01*
X-123230000Y-174400000D02*
X-118830000Y-174400000D01*
X-118830000Y-174400000D02*
X-118830000Y-164400000D01*
X-120100000Y-164400000D02*
X-120100000Y-174400000D01*
X-118830000Y-167550000D02*
X-120100000Y-167550000D01*
X-118830000Y-171250000D02*
X-120100000Y-171250000D01*
%TO.C,U1*%
X-130170000Y-189600000D02*
X-125770000Y-189600000D01*
X-125770000Y-189600000D02*
X-125770000Y-179600000D01*
X-125770000Y-179600000D02*
X-130170000Y-179600000D01*
X-130170000Y-179600000D02*
X-130170000Y-189600000D01*
X-128900000Y-189600000D02*
X-128900000Y-179600000D01*
X-130170000Y-186450000D02*
X-128900000Y-186450000D01*
X-130170000Y-182750000D02*
X-128900000Y-182750000D01*
%TO.C,R5*%
X-63820000Y-124020000D02*
G75*
G03*
X-63820000Y-124020000I-1250000J0D01*
G01*
X-65070000Y-124020000D02*
X-65070000Y-129100000D01*
%TO.C,R1*%
X-48120000Y-127180000D02*
G75*
G03*
X-48120000Y-127180000I-1250000J0D01*
G01*
X-49370000Y-127180000D02*
X-54450000Y-127180000D01*
D11*
%TO.C,U2*%
X-95561000Y-177280000D02*
X-89755000Y-177280000D01*
X-89755000Y-172958000D02*
X-89755000Y-177280000D01*
X-95561000Y-172958000D02*
X-89755000Y-172958000D01*
X-95561000Y-177280000D02*
X-95561000Y-172958000D01*
X-89760000Y-129180000D02*
X-107760000Y-129180000D01*
X-89760000Y-146960000D02*
X-89760000Y-129180000D01*
X-107760000Y-146960000D02*
X-89760000Y-146960000D01*
X-107760000Y-129180000D02*
X-107760000Y-146960000D01*
X-84260000Y-176970000D02*
X-113260000Y-176970000D01*
X-84260000Y-122580000D02*
X-84260000Y-176970000D01*
X-113260000Y-122580000D02*
X-84260000Y-122580000D01*
X-113260000Y-176970000D02*
X-113260000Y-122580000D01*
D10*
%TO.C,SERVO1*%
X-71315000Y-131830000D02*
X-70680000Y-132465000D01*
X-78300000Y-131830000D02*
X-71315000Y-131830000D01*
X-78300000Y-134370000D02*
X-78300000Y-131830000D01*
X-70680000Y-134370000D02*
X-78300000Y-134370000D01*
X-70680000Y-132465000D02*
X-70680000Y-134370000D01*
%TO.C,Seguro1*%
X-65745000Y-134040000D02*
X-66380000Y-133405000D01*
X-61300000Y-134040000D02*
X-65745000Y-134040000D01*
X-61300000Y-131500000D02*
X-61300000Y-134040000D01*
X-66380000Y-131500000D02*
X-61300000Y-131500000D01*
X-66380000Y-133405000D02*
X-66380000Y-131500000D01*
%TO.C,HALL1*%
X-117510000Y-119565000D02*
X-118145000Y-120200000D01*
X-117510000Y-112580000D02*
X-117510000Y-119565000D01*
X-120050000Y-112580000D02*
X-117510000Y-112580000D01*
X-120050000Y-120200000D02*
X-120050000Y-112580000D01*
X-118145000Y-120200000D02*
X-120050000Y-120200000D01*
%TO.C,Bolsa1*%
X-55055000Y-133880000D02*
X-55690000Y-133245000D01*
X-50610000Y-133880000D02*
X-55055000Y-133880000D01*
X-50610000Y-131340000D02*
X-50610000Y-133880000D01*
X-55690000Y-131340000D02*
X-50610000Y-131340000D01*
X-55690000Y-133245000D02*
X-55690000Y-131340000D01*
%TO.C,J4*%
X-125332000Y-159485000D02*
X-127425000Y-157393000D01*
X-125515000Y-159668000D02*
X-127608000Y-157576000D01*
X-125332000Y-154405000D02*
X-127425000Y-152312000D01*
X-125515000Y-154588000D02*
X-127608000Y-152495000D01*
X-124170000Y-150910000D02*
X-124170000Y-161070000D01*
X-129070000Y-150910000D02*
X-129070000Y-161070000D01*
X-130570000Y-150910000D02*
X-130570000Y-161070000D01*
X-130570000Y-150910000D02*
X-121270000Y-150910000D01*
X-131070000Y-151410000D02*
X-130570000Y-150910000D01*
X-131070000Y-161070000D02*
X-131070000Y-151410000D01*
X-121270000Y-161070000D02*
X-131070000Y-161070000D01*
X-121270000Y-150910000D02*
X-121270000Y-161070000D01*
X-124970000Y-158530000D02*
G75*
G03*
X-124970000Y-158530000I-1500000J0D01*
G01*
X-124970000Y-153450000D02*
G75*
G03*
X-124970000Y-153450000I-1500000J0D01*
G01*
%TO.C,D1*%
X-68730000Y-168230000D02*
X-68730000Y-163150000D01*
X-67380000Y-163150000D02*
G75*
G03*
X-67380000Y-163150000I-1350000J0D01*
G01*
%TD*%
%TO.C,U4*%
D12*
X-108267619Y-104311428D02*
X-108267619Y-103740000D01*
X-107267619Y-104025714D02*
X-108267619Y-104025714D01*
X-107267619Y-102978095D02*
X-107791428Y-102978095D01*
X-107886666Y-103025714D01*
X-107934285Y-103120952D01*
X-107934285Y-103311428D01*
X-107886666Y-103406666D01*
X-107315238Y-102978095D02*
X-107267619Y-103073333D01*
X-107267619Y-103311428D01*
X-107315238Y-103406666D01*
X-107410476Y-103454285D01*
X-107505714Y-103454285D01*
X-107600952Y-103406666D01*
X-107648571Y-103311428D01*
X-107648571Y-103073333D01*
X-107696190Y-102978095D01*
X-107267619Y-102501904D02*
X-107934285Y-102501904D01*
X-107743809Y-102501904D02*
X-107839047Y-102454285D01*
X-107886666Y-102406666D01*
X-107934285Y-102311428D01*
X-107934285Y-102216190D01*
X-107934285Y-101882857D02*
X-107077142Y-101882857D01*
X-106981904Y-101930476D01*
X-106934285Y-102025714D01*
X-106934285Y-102073333D01*
X-108267619Y-101882857D02*
X-108220000Y-101930476D01*
X-108172380Y-101882857D01*
X-108220000Y-101835238D01*
X-108267619Y-101882857D01*
X-108172380Y-101882857D01*
X-107315238Y-101025714D02*
X-107267619Y-101120952D01*
X-107267619Y-101311428D01*
X-107315238Y-101406666D01*
X-107410476Y-101454285D01*
X-107791428Y-101454285D01*
X-107886666Y-101406666D01*
X-107934285Y-101311428D01*
X-107934285Y-101120952D01*
X-107886666Y-101025714D01*
X-107791428Y-100978095D01*
X-107696190Y-100978095D01*
X-107600952Y-101454285D01*
X-107934285Y-100692380D02*
X-107934285Y-100311428D01*
X-108267619Y-100549523D02*
X-107410476Y-100549523D01*
X-107315238Y-100501904D01*
X-107267619Y-100406666D01*
X-107267619Y-100311428D01*
X-107267619Y-99549523D02*
X-107791428Y-99549523D01*
X-107886666Y-99597142D01*
X-107934285Y-99692380D01*
X-107934285Y-99882857D01*
X-107886666Y-99978095D01*
X-107315238Y-99549523D02*
X-107267619Y-99644761D01*
X-107267619Y-99882857D01*
X-107315238Y-99978095D01*
X-107410476Y-100025714D01*
X-107505714Y-100025714D01*
X-107600952Y-99978095D01*
X-107648571Y-99882857D01*
X-107648571Y-99644761D01*
X-107696190Y-99549523D01*
X-107267619Y-98501904D02*
X-107743809Y-98835238D01*
X-107267619Y-99073333D02*
X-108267619Y-99073333D01*
X-108267619Y-98692380D01*
X-108220000Y-98597142D01*
X-108172380Y-98549523D01*
X-108077142Y-98501904D01*
X-107934285Y-98501904D01*
X-107839047Y-98549523D01*
X-107791428Y-98597142D01*
X-107743809Y-98692380D01*
X-107743809Y-99073333D01*
X-107315238Y-97692380D02*
X-107267619Y-97787619D01*
X-107267619Y-97978095D01*
X-107315238Y-98073333D01*
X-107410476Y-98120952D01*
X-107791428Y-98120952D01*
X-107886666Y-98073333D01*
X-107934285Y-97978095D01*
X-107934285Y-97787619D01*
X-107886666Y-97692380D01*
X-107791428Y-97644761D01*
X-107696190Y-97644761D01*
X-107600952Y-98120952D01*
X-107267619Y-97073333D02*
X-107315238Y-97168571D01*
X-107410476Y-97216190D01*
X-108267619Y-97216190D01*
X-107315238Y-96311428D02*
X-107267619Y-96406666D01*
X-107267619Y-96597142D01*
X-107315238Y-96692380D01*
X-107410476Y-96740000D01*
X-107791428Y-96740000D01*
X-107886666Y-96692380D01*
X-107934285Y-96597142D01*
X-107934285Y-96406666D01*
X-107886666Y-96311428D01*
X-107791428Y-96263809D01*
X-107696190Y-96263809D01*
X-107600952Y-96740000D01*
X-105807619Y-101001904D02*
X-104998095Y-101001904D01*
X-104902857Y-100954285D01*
X-104855238Y-100906666D01*
X-104807619Y-100811428D01*
X-104807619Y-100620952D01*
X-104855238Y-100525714D01*
X-104902857Y-100478095D01*
X-104998095Y-100430476D01*
X-105807619Y-100430476D01*
X-105474285Y-99525714D02*
X-104807619Y-99525714D01*
X-105855238Y-99763809D02*
X-105140952Y-100001904D01*
X-105140952Y-99382857D01*
%TO.C,R3*%
X-74817619Y-181612380D02*
X-74722380Y-181612380D01*
X-74627142Y-181660000D01*
X-74579523Y-181707619D01*
X-74531904Y-181802857D01*
X-74484285Y-181993333D01*
X-74484285Y-182231428D01*
X-74531904Y-182421904D01*
X-74579523Y-182517142D01*
X-74627142Y-182564761D01*
X-74722380Y-182612380D01*
X-74817619Y-182612380D01*
X-74912857Y-182564761D01*
X-74960476Y-182517142D01*
X-75008095Y-182421904D01*
X-75055714Y-182231428D01*
X-75055714Y-181993333D01*
X-75008095Y-181802857D01*
X-74960476Y-181707619D01*
X-74912857Y-181660000D01*
X-74817619Y-181612380D01*
X-74936666Y-180242380D02*
X-75270000Y-179766190D01*
X-75508095Y-180242380D02*
X-75508095Y-179242380D01*
X-75127142Y-179242380D01*
X-75031904Y-179290000D01*
X-74984285Y-179337619D01*
X-74936666Y-179432857D01*
X-74936666Y-179575714D01*
X-74984285Y-179670952D01*
X-75031904Y-179718571D01*
X-75127142Y-179766190D01*
X-75508095Y-179766190D01*
X-74603333Y-179242380D02*
X-73984285Y-179242380D01*
X-74317619Y-179623333D01*
X-74174761Y-179623333D01*
X-74079523Y-179670952D01*
X-74031904Y-179718571D01*
X-73984285Y-179813809D01*
X-73984285Y-180051904D01*
X-74031904Y-180147142D01*
X-74079523Y-180194761D01*
X-74174761Y-180242380D01*
X-74460476Y-180242380D01*
X-74555714Y-180194761D01*
X-74603333Y-180147142D01*
%TO.C,R2*%
X-110177619Y-105957619D02*
X-110177619Y-105862380D01*
X-110130000Y-105767142D01*
X-110082380Y-105719523D01*
X-109987142Y-105671904D01*
X-109796666Y-105624285D01*
X-109558571Y-105624285D01*
X-109368095Y-105671904D01*
X-109272857Y-105719523D01*
X-109225238Y-105767142D01*
X-109177619Y-105862380D01*
X-109177619Y-105957619D01*
X-109225238Y-106052857D01*
X-109272857Y-106100476D01*
X-109368095Y-106148095D01*
X-109558571Y-106195714D01*
X-109796666Y-106195714D01*
X-109987142Y-106148095D01*
X-110082380Y-106100476D01*
X-110130000Y-106052857D01*
X-110177619Y-105957619D01*
X-111547619Y-106076666D02*
X-112023809Y-106410000D01*
X-111547619Y-106648095D02*
X-112547619Y-106648095D01*
X-112547619Y-106267142D01*
X-112500000Y-106171904D01*
X-112452380Y-106124285D01*
X-112357142Y-106076666D01*
X-112214285Y-106076666D01*
X-112119047Y-106124285D01*
X-112071428Y-106171904D01*
X-112023809Y-106267142D01*
X-112023809Y-106648095D01*
X-112452380Y-105695714D02*
X-112500000Y-105648095D01*
X-112547619Y-105552857D01*
X-112547619Y-105314761D01*
X-112500000Y-105219523D01*
X-112452380Y-105171904D01*
X-112357142Y-105124285D01*
X-112261904Y-105124285D01*
X-112119047Y-105171904D01*
X-111547619Y-105743333D01*
X-111547619Y-105124285D01*
%TO.C,Recibo1*%
X-131412857Y-138188095D02*
X-131365238Y-138235714D01*
X-131317619Y-138378571D01*
X-131317619Y-138473809D01*
X-131365238Y-138616666D01*
X-131460476Y-138711904D01*
X-131555714Y-138759523D01*
X-131746190Y-138807142D01*
X-131889047Y-138807142D01*
X-132079523Y-138759523D01*
X-132174761Y-138711904D01*
X-132270000Y-138616666D01*
X-132317619Y-138473809D01*
X-132317619Y-138378571D01*
X-132270000Y-138235714D01*
X-132222380Y-138188095D01*
X-131317619Y-137616666D02*
X-131365238Y-137711904D01*
X-131412857Y-137759523D01*
X-131508095Y-137807142D01*
X-131793809Y-137807142D01*
X-131889047Y-137759523D01*
X-131936666Y-137711904D01*
X-131984285Y-137616666D01*
X-131984285Y-137473809D01*
X-131936666Y-137378571D01*
X-131889047Y-137330952D01*
X-131793809Y-137283333D01*
X-131508095Y-137283333D01*
X-131412857Y-137330952D01*
X-131365238Y-137378571D01*
X-131317619Y-137473809D01*
X-131317619Y-137616666D01*
X-131984285Y-136854761D02*
X-131317619Y-136854761D01*
X-131889047Y-136854761D02*
X-131936666Y-136807142D01*
X-131984285Y-136711904D01*
X-131984285Y-136569047D01*
X-131936666Y-136473809D01*
X-131841428Y-136426190D01*
X-131317619Y-136426190D01*
X-131984285Y-135950000D02*
X-131317619Y-135950000D01*
X-131889047Y-135950000D02*
X-131936666Y-135902380D01*
X-131984285Y-135807142D01*
X-131984285Y-135664285D01*
X-131936666Y-135569047D01*
X-131841428Y-135521428D01*
X-131317619Y-135521428D01*
X-131222380Y-135283333D02*
X-131222380Y-134521428D01*
X-132317619Y-134092857D02*
X-132317619Y-133997619D01*
X-132270000Y-133902380D01*
X-132222380Y-133854761D01*
X-132127142Y-133807142D01*
X-131936666Y-133759523D01*
X-131698571Y-133759523D01*
X-131508095Y-133807142D01*
X-131412857Y-133854761D01*
X-131365238Y-133902380D01*
X-131317619Y-133997619D01*
X-131317619Y-134092857D01*
X-131365238Y-134188095D01*
X-131412857Y-134235714D01*
X-131508095Y-134283333D01*
X-131698571Y-134330952D01*
X-131936666Y-134330952D01*
X-132127142Y-134283333D01*
X-132222380Y-134235714D01*
X-132270000Y-134188095D01*
X-132317619Y-134092857D01*
X-131317619Y-132807142D02*
X-131317619Y-133378571D01*
X-131317619Y-133092857D02*
X-132317619Y-133092857D01*
X-132174761Y-133188095D01*
X-132079523Y-133283333D01*
X-132031904Y-133378571D01*
X-131317619Y-132473809D02*
X-131984285Y-131950000D01*
X-131984285Y-132473809D02*
X-131317619Y-131950000D01*
X-132317619Y-131378571D02*
X-132317619Y-131283333D01*
X-132270000Y-131188095D01*
X-132222380Y-131140476D01*
X-132127142Y-131092857D01*
X-131936666Y-131045238D01*
X-131698571Y-131045238D01*
X-131508095Y-131092857D01*
X-131412857Y-131140476D01*
X-131365238Y-131188095D01*
X-131317619Y-131283333D01*
X-131317619Y-131378571D01*
X-131365238Y-131473809D01*
X-131412857Y-131521428D01*
X-131508095Y-131569047D01*
X-131698571Y-131616666D01*
X-131936666Y-131616666D01*
X-132127142Y-131569047D01*
X-132222380Y-131521428D01*
X-132270000Y-131473809D01*
X-132317619Y-131378571D01*
X-132317619Y-130711904D02*
X-132317619Y-130092857D01*
X-131936666Y-130426190D01*
X-131936666Y-130283333D01*
X-131889047Y-130188095D01*
X-131841428Y-130140476D01*
X-131746190Y-130092857D01*
X-131508095Y-130092857D01*
X-131412857Y-130140476D01*
X-131365238Y-130188095D01*
X-131317619Y-130283333D01*
X-131317619Y-130569047D01*
X-131365238Y-130664285D01*
X-131412857Y-130711904D01*
X-128857619Y-136616666D02*
X-129333809Y-136950000D01*
X-128857619Y-137188095D02*
X-129857619Y-137188095D01*
X-129857619Y-136807142D01*
X-129810000Y-136711904D01*
X-129762380Y-136664285D01*
X-129667142Y-136616666D01*
X-129524285Y-136616666D01*
X-129429047Y-136664285D01*
X-129381428Y-136711904D01*
X-129333809Y-136807142D01*
X-129333809Y-137188095D01*
X-128905238Y-135807142D02*
X-128857619Y-135902380D01*
X-128857619Y-136092857D01*
X-128905238Y-136188095D01*
X-129000476Y-136235714D01*
X-129381428Y-136235714D01*
X-129476666Y-136188095D01*
X-129524285Y-136092857D01*
X-129524285Y-135902380D01*
X-129476666Y-135807142D01*
X-129381428Y-135759523D01*
X-129286190Y-135759523D01*
X-129190952Y-136235714D01*
X-128905238Y-134902380D02*
X-128857619Y-134997619D01*
X-128857619Y-135188095D01*
X-128905238Y-135283333D01*
X-128952857Y-135330952D01*
X-129048095Y-135378571D01*
X-129333809Y-135378571D01*
X-129429047Y-135330952D01*
X-129476666Y-135283333D01*
X-129524285Y-135188095D01*
X-129524285Y-134997619D01*
X-129476666Y-134902380D01*
X-128857619Y-134473809D02*
X-129524285Y-134473809D01*
X-129857619Y-134473809D02*
X-129810000Y-134521428D01*
X-129762380Y-134473809D01*
X-129810000Y-134426190D01*
X-129857619Y-134473809D01*
X-129762380Y-134473809D01*
X-128857619Y-133997619D02*
X-129857619Y-133997619D01*
X-129476666Y-133997619D02*
X-129524285Y-133902380D01*
X-129524285Y-133711904D01*
X-129476666Y-133616666D01*
X-129429047Y-133569047D01*
X-129333809Y-133521428D01*
X-129048095Y-133521428D01*
X-128952857Y-133569047D01*
X-128905238Y-133616666D01*
X-128857619Y-133711904D01*
X-128857619Y-133902380D01*
X-128905238Y-133997619D01*
X-128857619Y-132950000D02*
X-128905238Y-133045238D01*
X-128952857Y-133092857D01*
X-129048095Y-133140476D01*
X-129333809Y-133140476D01*
X-129429047Y-133092857D01*
X-129476666Y-133045238D01*
X-129524285Y-132950000D01*
X-129524285Y-132807142D01*
X-129476666Y-132711904D01*
X-129429047Y-132664285D01*
X-129333809Y-132616666D01*
X-129048095Y-132616666D01*
X-128952857Y-132664285D01*
X-128905238Y-132711904D01*
X-128857619Y-132807142D01*
X-128857619Y-132950000D01*
X-128857619Y-131664285D02*
X-128857619Y-132235714D01*
X-128857619Y-131950000D02*
X-129857619Y-131950000D01*
X-129714761Y-132045238D01*
X-129619523Y-132140476D01*
X-129571904Y-132235714D01*
%TO.C,U3*%
X-124027619Y-174280952D02*
X-124027619Y-174757142D01*
X-125027619Y-174757142D01*
X-124027619Y-173947619D02*
X-125027619Y-173947619D01*
X-124313333Y-173614285D01*
X-125027619Y-173280952D01*
X-124027619Y-173280952D01*
X-125027619Y-172900000D02*
X-125027619Y-172233333D01*
X-124027619Y-172661904D01*
X-124599047Y-171709523D02*
X-124646666Y-171804761D01*
X-124694285Y-171852380D01*
X-124789523Y-171900000D01*
X-124837142Y-171900000D01*
X-124932380Y-171852380D01*
X-124980000Y-171804761D01*
X-125027619Y-171709523D01*
X-125027619Y-171519047D01*
X-124980000Y-171423809D01*
X-124932380Y-171376190D01*
X-124837142Y-171328571D01*
X-124789523Y-171328571D01*
X-124694285Y-171376190D01*
X-124646666Y-171423809D01*
X-124599047Y-171519047D01*
X-124599047Y-171709523D01*
X-124551428Y-171804761D01*
X-124503809Y-171852380D01*
X-124408571Y-171900000D01*
X-124218095Y-171900000D01*
X-124122857Y-171852380D01*
X-124075238Y-171804761D01*
X-124027619Y-171709523D01*
X-124027619Y-171519047D01*
X-124075238Y-171423809D01*
X-124122857Y-171376190D01*
X-124218095Y-171328571D01*
X-124408571Y-171328571D01*
X-124503809Y-171376190D01*
X-124551428Y-171423809D01*
X-124599047Y-171519047D01*
X-125027619Y-170709523D02*
X-125027619Y-170614285D01*
X-124980000Y-170519047D01*
X-124932380Y-170471428D01*
X-124837142Y-170423809D01*
X-124646666Y-170376190D01*
X-124408571Y-170376190D01*
X-124218095Y-170423809D01*
X-124122857Y-170471428D01*
X-124075238Y-170519047D01*
X-124027619Y-170614285D01*
X-124027619Y-170709523D01*
X-124075238Y-170804761D01*
X-124122857Y-170852380D01*
X-124218095Y-170900000D01*
X-124408571Y-170947619D01*
X-124646666Y-170947619D01*
X-124837142Y-170900000D01*
X-124932380Y-170852380D01*
X-124980000Y-170804761D01*
X-125027619Y-170709523D01*
X-125027619Y-169471428D02*
X-125027619Y-169947619D01*
X-124551428Y-169995238D01*
X-124599047Y-169947619D01*
X-124646666Y-169852380D01*
X-124646666Y-169614285D01*
X-124599047Y-169519047D01*
X-124551428Y-169471428D01*
X-124456190Y-169423809D01*
X-124218095Y-169423809D01*
X-124122857Y-169471428D01*
X-124075238Y-169519047D01*
X-124027619Y-169614285D01*
X-124027619Y-169852380D01*
X-124075238Y-169947619D01*
X-124122857Y-169995238D01*
X-123932380Y-169233333D02*
X-123932380Y-168471428D01*
X-125027619Y-168376190D02*
X-125027619Y-167804761D01*
X-124027619Y-168090476D02*
X-125027619Y-168090476D01*
X-125027619Y-167280952D02*
X-125027619Y-167090476D01*
X-124980000Y-166995238D01*
X-124884761Y-166900000D01*
X-124694285Y-166852380D01*
X-124360952Y-166852380D01*
X-124170476Y-166900000D01*
X-124075238Y-166995238D01*
X-124027619Y-167090476D01*
X-124027619Y-167280952D01*
X-124075238Y-167376190D01*
X-124170476Y-167471428D01*
X-124360952Y-167519047D01*
X-124694285Y-167519047D01*
X-124884761Y-167471428D01*
X-124980000Y-167376190D01*
X-125027619Y-167280952D01*
X-124932380Y-166471428D02*
X-124980000Y-166423809D01*
X-125027619Y-166328571D01*
X-125027619Y-166090476D01*
X-124980000Y-165995238D01*
X-124932380Y-165947619D01*
X-124837142Y-165900000D01*
X-124741904Y-165900000D01*
X-124599047Y-165947619D01*
X-124027619Y-166519047D01*
X-124027619Y-165900000D01*
X-124932380Y-165519047D02*
X-124980000Y-165471428D01*
X-125027619Y-165376190D01*
X-125027619Y-165138095D01*
X-124980000Y-165042857D01*
X-124932380Y-164995238D01*
X-124837142Y-164947619D01*
X-124741904Y-164947619D01*
X-124599047Y-164995238D01*
X-124027619Y-165566666D01*
X-124027619Y-164947619D01*
X-125027619Y-164328571D02*
X-125027619Y-164233333D01*
X-124980000Y-164138095D01*
X-124932380Y-164090476D01*
X-124837142Y-164042857D01*
X-124646666Y-163995238D01*
X-124408571Y-163995238D01*
X-124218095Y-164042857D01*
X-124122857Y-164090476D01*
X-124075238Y-164138095D01*
X-124027619Y-164233333D01*
X-124027619Y-164328571D01*
X-124075238Y-164423809D01*
X-124122857Y-164471428D01*
X-124218095Y-164519047D01*
X-124408571Y-164566666D01*
X-124646666Y-164566666D01*
X-124837142Y-164519047D01*
X-124932380Y-164471428D01*
X-124980000Y-164423809D01*
X-125027619Y-164328571D01*
X-118257619Y-170161904D02*
X-117448095Y-170161904D01*
X-117352857Y-170114285D01*
X-117305238Y-170066666D01*
X-117257619Y-169971428D01*
X-117257619Y-169780952D01*
X-117305238Y-169685714D01*
X-117352857Y-169638095D01*
X-117448095Y-169590476D01*
X-118257619Y-169590476D01*
X-118257619Y-169209523D02*
X-118257619Y-168590476D01*
X-117876666Y-168923809D01*
X-117876666Y-168780952D01*
X-117829047Y-168685714D01*
X-117781428Y-168638095D01*
X-117686190Y-168590476D01*
X-117448095Y-168590476D01*
X-117352857Y-168638095D01*
X-117305238Y-168685714D01*
X-117257619Y-168780952D01*
X-117257619Y-169066666D01*
X-117305238Y-169161904D01*
X-117352857Y-169209523D01*
%TO.C,U1*%
X-124067619Y-192195238D02*
X-124067619Y-192671428D01*
X-125067619Y-192671428D01*
X-124067619Y-191861904D02*
X-125067619Y-191861904D01*
X-125067619Y-191623809D01*
X-125020000Y-191480952D01*
X-124924761Y-191385714D01*
X-124829523Y-191338095D01*
X-124639047Y-191290476D01*
X-124496190Y-191290476D01*
X-124305714Y-191338095D01*
X-124210476Y-191385714D01*
X-124115238Y-191480952D01*
X-124067619Y-191623809D01*
X-124067619Y-191861904D01*
X-124067619Y-190338095D02*
X-124067619Y-190909523D01*
X-124067619Y-190623809D02*
X-125067619Y-190623809D01*
X-124924761Y-190719047D01*
X-124829523Y-190814285D01*
X-124781904Y-190909523D01*
X-124067619Y-189385714D02*
X-124067619Y-189957142D01*
X-124067619Y-189671428D02*
X-125067619Y-189671428D01*
X-124924761Y-189766666D01*
X-124829523Y-189861904D01*
X-124781904Y-189957142D01*
X-124067619Y-188433333D02*
X-124067619Y-189004761D01*
X-124067619Y-188719047D02*
X-125067619Y-188719047D01*
X-124924761Y-188814285D01*
X-124829523Y-188909523D01*
X-124781904Y-189004761D01*
X-125067619Y-188100000D02*
X-125067619Y-187433333D01*
X-124067619Y-187861904D01*
X-124115238Y-187100000D02*
X-124067619Y-186957142D01*
X-124067619Y-186719047D01*
X-124115238Y-186623809D01*
X-124162857Y-186576190D01*
X-124258095Y-186528571D01*
X-124353333Y-186528571D01*
X-124448571Y-186576190D01*
X-124496190Y-186623809D01*
X-124543809Y-186719047D01*
X-124591428Y-186909523D01*
X-124639047Y-187004761D01*
X-124686666Y-187052380D01*
X-124781904Y-187100000D01*
X-124877142Y-187100000D01*
X-124972380Y-187052380D01*
X-125020000Y-187004761D01*
X-125067619Y-186909523D01*
X-125067619Y-186671428D01*
X-125020000Y-186528571D01*
X-125067619Y-186195238D02*
X-125067619Y-185576190D01*
X-124686666Y-185909523D01*
X-124686666Y-185766666D01*
X-124639047Y-185671428D01*
X-124591428Y-185623809D01*
X-124496190Y-185576190D01*
X-124258095Y-185576190D01*
X-124162857Y-185623809D01*
X-124115238Y-185671428D01*
X-124067619Y-185766666D01*
X-124067619Y-186052380D01*
X-124115238Y-186147619D01*
X-124162857Y-186195238D01*
X-125067619Y-185242857D02*
X-125067619Y-184623809D01*
X-124686666Y-184957142D01*
X-124686666Y-184814285D01*
X-124639047Y-184719047D01*
X-124591428Y-184671428D01*
X-124496190Y-184623809D01*
X-124258095Y-184623809D01*
X-124162857Y-184671428D01*
X-124115238Y-184719047D01*
X-124067619Y-184814285D01*
X-124067619Y-185100000D01*
X-124115238Y-185195238D01*
X-124162857Y-185242857D01*
X-125067619Y-184338095D02*
X-125067619Y-183766666D01*
X-124067619Y-184052380D02*
X-125067619Y-184052380D01*
X-124067619Y-182861904D02*
X-124543809Y-183195238D01*
X-124067619Y-183433333D02*
X-125067619Y-183433333D01*
X-125067619Y-183052380D01*
X-125020000Y-182957142D01*
X-124972380Y-182909523D01*
X-124877142Y-182861904D01*
X-124734285Y-182861904D01*
X-124639047Y-182909523D01*
X-124591428Y-182957142D01*
X-124543809Y-183052380D01*
X-124543809Y-183433333D01*
X-123972380Y-182671428D02*
X-123972380Y-181909523D01*
X-124115238Y-181719047D02*
X-124067619Y-181576190D01*
X-124067619Y-181338095D01*
X-124115238Y-181242857D01*
X-124162857Y-181195238D01*
X-124258095Y-181147619D01*
X-124353333Y-181147619D01*
X-124448571Y-181195238D01*
X-124496190Y-181242857D01*
X-124543809Y-181338095D01*
X-124591428Y-181528571D01*
X-124639047Y-181623809D01*
X-124686666Y-181671428D01*
X-124781904Y-181719047D01*
X-124877142Y-181719047D01*
X-124972380Y-181671428D01*
X-125020000Y-181623809D01*
X-125067619Y-181528571D01*
X-125067619Y-181290476D01*
X-125020000Y-181147619D01*
X-125067619Y-180528571D02*
X-125067619Y-180338095D01*
X-125020000Y-180242857D01*
X-124924761Y-180147619D01*
X-124734285Y-180100000D01*
X-124400952Y-180100000D01*
X-124210476Y-180147619D01*
X-124115238Y-180242857D01*
X-124067619Y-180338095D01*
X-124067619Y-180528571D01*
X-124115238Y-180623809D01*
X-124210476Y-180719047D01*
X-124400952Y-180766666D01*
X-124734285Y-180766666D01*
X-124924761Y-180719047D01*
X-125020000Y-180623809D01*
X-125067619Y-180528571D01*
X-125067619Y-179814285D02*
X-125067619Y-179242857D01*
X-124067619Y-179528571D02*
X-125067619Y-179528571D01*
X-124972380Y-178957142D02*
X-125020000Y-178909523D01*
X-125067619Y-178814285D01*
X-125067619Y-178576190D01*
X-125020000Y-178480952D01*
X-124972380Y-178433333D01*
X-124877142Y-178385714D01*
X-124781904Y-178385714D01*
X-124639047Y-178433333D01*
X-124067619Y-179004761D01*
X-124067619Y-178385714D01*
X-124972380Y-178004761D02*
X-125020000Y-177957142D01*
X-125067619Y-177861904D01*
X-125067619Y-177623809D01*
X-125020000Y-177528571D01*
X-124972380Y-177480952D01*
X-124877142Y-177433333D01*
X-124781904Y-177433333D01*
X-124639047Y-177480952D01*
X-124067619Y-178052380D01*
X-124067619Y-177433333D01*
X-125067619Y-177100000D02*
X-125067619Y-176480952D01*
X-124686666Y-176814285D01*
X-124686666Y-176671428D01*
X-124639047Y-176576190D01*
X-124591428Y-176528571D01*
X-124496190Y-176480952D01*
X-124258095Y-176480952D01*
X-124162857Y-176528571D01*
X-124115238Y-176576190D01*
X-124067619Y-176671428D01*
X-124067619Y-176957142D01*
X-124115238Y-177052380D01*
X-124162857Y-177100000D01*
X-131837619Y-185361904D02*
X-131028095Y-185361904D01*
X-130932857Y-185314285D01*
X-130885238Y-185266666D01*
X-130837619Y-185171428D01*
X-130837619Y-184980952D01*
X-130885238Y-184885714D01*
X-130932857Y-184838095D01*
X-131028095Y-184790476D01*
X-131837619Y-184790476D01*
X-130837619Y-183790476D02*
X-130837619Y-184361904D01*
X-130837619Y-184076190D02*
X-131837619Y-184076190D01*
X-131694761Y-184171428D01*
X-131599523Y-184266666D01*
X-131551904Y-184361904D01*
%TO.C,OLED1*%
X-46662857Y-165608095D02*
X-46615238Y-165655714D01*
X-46567619Y-165798571D01*
X-46567619Y-165893809D01*
X-46615238Y-166036666D01*
X-46710476Y-166131904D01*
X-46805714Y-166179523D01*
X-46996190Y-166227142D01*
X-47139047Y-166227142D01*
X-47329523Y-166179523D01*
X-47424761Y-166131904D01*
X-47520000Y-166036666D01*
X-47567619Y-165893809D01*
X-47567619Y-165798571D01*
X-47520000Y-165655714D01*
X-47472380Y-165608095D01*
X-46567619Y-165036666D02*
X-46615238Y-165131904D01*
X-46662857Y-165179523D01*
X-46758095Y-165227142D01*
X-47043809Y-165227142D01*
X-47139047Y-165179523D01*
X-47186666Y-165131904D01*
X-47234285Y-165036666D01*
X-47234285Y-164893809D01*
X-47186666Y-164798571D01*
X-47139047Y-164750952D01*
X-47043809Y-164703333D01*
X-46758095Y-164703333D01*
X-46662857Y-164750952D01*
X-46615238Y-164798571D01*
X-46567619Y-164893809D01*
X-46567619Y-165036666D01*
X-47234285Y-164274761D02*
X-46567619Y-164274761D01*
X-47139047Y-164274761D02*
X-47186666Y-164227142D01*
X-47234285Y-164131904D01*
X-47234285Y-163989047D01*
X-47186666Y-163893809D01*
X-47091428Y-163846190D01*
X-46567619Y-163846190D01*
X-47234285Y-163370000D02*
X-46567619Y-163370000D01*
X-47139047Y-163370000D02*
X-47186666Y-163322380D01*
X-47234285Y-163227142D01*
X-47234285Y-163084285D01*
X-47186666Y-162989047D01*
X-47091428Y-162941428D01*
X-46567619Y-162941428D01*
X-46472380Y-162703333D02*
X-46472380Y-161941428D01*
X-47567619Y-161512857D02*
X-47567619Y-161417619D01*
X-47520000Y-161322380D01*
X-47472380Y-161274761D01*
X-47377142Y-161227142D01*
X-47186666Y-161179523D01*
X-46948571Y-161179523D01*
X-46758095Y-161227142D01*
X-46662857Y-161274761D01*
X-46615238Y-161322380D01*
X-46567619Y-161417619D01*
X-46567619Y-161512857D01*
X-46615238Y-161608095D01*
X-46662857Y-161655714D01*
X-46758095Y-161703333D01*
X-46948571Y-161750952D01*
X-47186666Y-161750952D01*
X-47377142Y-161703333D01*
X-47472380Y-161655714D01*
X-47520000Y-161608095D01*
X-47567619Y-161512857D01*
X-46567619Y-160227142D02*
X-46567619Y-160798571D01*
X-46567619Y-160512857D02*
X-47567619Y-160512857D01*
X-47424761Y-160608095D01*
X-47329523Y-160703333D01*
X-47281904Y-160798571D01*
X-46567619Y-159893809D02*
X-47234285Y-159370000D01*
X-47234285Y-159893809D02*
X-46567619Y-159370000D01*
X-47567619Y-158798571D02*
X-47567619Y-158703333D01*
X-47520000Y-158608095D01*
X-47472380Y-158560476D01*
X-47377142Y-158512857D01*
X-47186666Y-158465238D01*
X-46948571Y-158465238D01*
X-46758095Y-158512857D01*
X-46662857Y-158560476D01*
X-46615238Y-158608095D01*
X-46567619Y-158703333D01*
X-46567619Y-158798571D01*
X-46615238Y-158893809D01*
X-46662857Y-158941428D01*
X-46758095Y-158989047D01*
X-46948571Y-159036666D01*
X-47186666Y-159036666D01*
X-47377142Y-158989047D01*
X-47472380Y-158941428D01*
X-47520000Y-158893809D01*
X-47567619Y-158798571D01*
X-47139047Y-157893809D02*
X-47186666Y-157989047D01*
X-47234285Y-158036666D01*
X-47329523Y-158084285D01*
X-47377142Y-158084285D01*
X-47472380Y-158036666D01*
X-47520000Y-157989047D01*
X-47567619Y-157893809D01*
X-47567619Y-157703333D01*
X-47520000Y-157608095D01*
X-47472380Y-157560476D01*
X-47377142Y-157512857D01*
X-47329523Y-157512857D01*
X-47234285Y-157560476D01*
X-47186666Y-157608095D01*
X-47139047Y-157703333D01*
X-47139047Y-157893809D01*
X-47091428Y-157989047D01*
X-47043809Y-158036666D01*
X-46948571Y-158084285D01*
X-46758095Y-158084285D01*
X-46662857Y-158036666D01*
X-46615238Y-157989047D01*
X-46567619Y-157893809D01*
X-46567619Y-157703333D01*
X-46615238Y-157608095D01*
X-46662857Y-157560476D01*
X-46758095Y-157512857D01*
X-46948571Y-157512857D01*
X-47043809Y-157560476D01*
X-47091428Y-157608095D01*
X-47139047Y-157703333D01*
%TO.C,R5*%
X-66987619Y-126679047D02*
X-66987619Y-127250476D01*
X-66987619Y-126964761D02*
X-67987619Y-126964761D01*
X-67844761Y-127060000D01*
X-67749523Y-127155238D01*
X-67701904Y-127250476D01*
X-66987619Y-126250476D02*
X-67987619Y-126250476D01*
X-67368571Y-126155238D02*
X-66987619Y-125869523D01*
X-67654285Y-125869523D02*
X-67273333Y-126250476D01*
X-62247619Y-126726666D02*
X-62723809Y-127060000D01*
X-62247619Y-127298095D02*
X-63247619Y-127298095D01*
X-63247619Y-126917142D01*
X-63200000Y-126821904D01*
X-63152380Y-126774285D01*
X-63057142Y-126726666D01*
X-62914285Y-126726666D01*
X-62819047Y-126774285D01*
X-62771428Y-126821904D01*
X-62723809Y-126917142D01*
X-62723809Y-127298095D01*
X-63247619Y-125821904D02*
X-63247619Y-126298095D01*
X-62771428Y-126345714D01*
X-62819047Y-126298095D01*
X-62866666Y-126202857D01*
X-62866666Y-125964761D01*
X-62819047Y-125869523D01*
X-62771428Y-125821904D01*
X-62676190Y-125774285D01*
X-62438095Y-125774285D01*
X-62342857Y-125821904D01*
X-62295238Y-125869523D01*
X-62247619Y-125964761D01*
X-62247619Y-126202857D01*
X-62295238Y-126298095D01*
X-62342857Y-126345714D01*
%TO.C,R1*%
X-52029047Y-125262380D02*
X-52600476Y-125262380D01*
X-52314761Y-125262380D02*
X-52314761Y-124262380D01*
X-52410000Y-124405238D01*
X-52505238Y-124500476D01*
X-52600476Y-124548095D01*
X-51600476Y-125262380D02*
X-51600476Y-124262380D01*
X-51505238Y-124881428D02*
X-51219523Y-125262380D01*
X-51219523Y-124595714D02*
X-51600476Y-124976666D01*
X-52076666Y-130002380D02*
X-52410000Y-129526190D01*
X-52648095Y-130002380D02*
X-52648095Y-129002380D01*
X-52267142Y-129002380D01*
X-52171904Y-129050000D01*
X-52124285Y-129097619D01*
X-52076666Y-129192857D01*
X-52076666Y-129335714D01*
X-52124285Y-129430952D01*
X-52171904Y-129478571D01*
X-52267142Y-129526190D01*
X-52648095Y-129526190D01*
X-51124285Y-130002380D02*
X-51695714Y-130002380D01*
X-51410000Y-130002380D02*
X-51410000Y-129002380D01*
X-51505238Y-129145238D01*
X-51600476Y-129240476D01*
X-51695714Y-129288095D01*
%TO.C,U2*%
D13*
X-97355476Y-154247619D02*
X-96327380Y-154247619D01*
X-96206428Y-154187142D01*
X-96145952Y-154126666D01*
X-96085476Y-154005714D01*
X-96085476Y-153763809D01*
X-96145952Y-153642857D01*
X-96206428Y-153582380D01*
X-96327380Y-153521904D01*
X-97355476Y-153521904D01*
X-97234523Y-152977619D02*
X-97295000Y-152917142D01*
X-97355476Y-152796190D01*
X-97355476Y-152493809D01*
X-97295000Y-152372857D01*
X-97234523Y-152312380D01*
X-97113571Y-152251904D01*
X-96992619Y-152251904D01*
X-96811190Y-152312380D01*
X-96085476Y-153038095D01*
X-96085476Y-152251904D01*
%TO.C,SERVO1*%
D12*
X-79002857Y-136838095D02*
X-78955238Y-136885714D01*
X-78907619Y-137028571D01*
X-78907619Y-137123809D01*
X-78955238Y-137266666D01*
X-79050476Y-137361904D01*
X-79145714Y-137409523D01*
X-79336190Y-137457142D01*
X-79479047Y-137457142D01*
X-79669523Y-137409523D01*
X-79764761Y-137361904D01*
X-79860000Y-137266666D01*
X-79907619Y-137123809D01*
X-79907619Y-137028571D01*
X-79860000Y-136885714D01*
X-79812380Y-136838095D01*
X-78907619Y-136266666D02*
X-78955238Y-136361904D01*
X-79002857Y-136409523D01*
X-79098095Y-136457142D01*
X-79383809Y-136457142D01*
X-79479047Y-136409523D01*
X-79526666Y-136361904D01*
X-79574285Y-136266666D01*
X-79574285Y-136123809D01*
X-79526666Y-136028571D01*
X-79479047Y-135980952D01*
X-79383809Y-135933333D01*
X-79098095Y-135933333D01*
X-79002857Y-135980952D01*
X-78955238Y-136028571D01*
X-78907619Y-136123809D01*
X-78907619Y-136266666D01*
X-79574285Y-135504761D02*
X-78907619Y-135504761D01*
X-79479047Y-135504761D02*
X-79526666Y-135457142D01*
X-79574285Y-135361904D01*
X-79574285Y-135219047D01*
X-79526666Y-135123809D01*
X-79431428Y-135076190D01*
X-78907619Y-135076190D01*
X-79574285Y-134600000D02*
X-78907619Y-134600000D01*
X-79479047Y-134600000D02*
X-79526666Y-134552380D01*
X-79574285Y-134457142D01*
X-79574285Y-134314285D01*
X-79526666Y-134219047D01*
X-79431428Y-134171428D01*
X-78907619Y-134171428D01*
X-78812380Y-133933333D02*
X-78812380Y-133171428D01*
X-79907619Y-132742857D02*
X-79907619Y-132647619D01*
X-79860000Y-132552380D01*
X-79812380Y-132504761D01*
X-79717142Y-132457142D01*
X-79526666Y-132409523D01*
X-79288571Y-132409523D01*
X-79098095Y-132457142D01*
X-79002857Y-132504761D01*
X-78955238Y-132552380D01*
X-78907619Y-132647619D01*
X-78907619Y-132742857D01*
X-78955238Y-132838095D01*
X-79002857Y-132885714D01*
X-79098095Y-132933333D01*
X-79288571Y-132980952D01*
X-79526666Y-132980952D01*
X-79717142Y-132933333D01*
X-79812380Y-132885714D01*
X-79860000Y-132838095D01*
X-79907619Y-132742857D01*
X-78907619Y-131457142D02*
X-78907619Y-132028571D01*
X-78907619Y-131742857D02*
X-79907619Y-131742857D01*
X-79764761Y-131838095D01*
X-79669523Y-131933333D01*
X-79621904Y-132028571D01*
X-78907619Y-131123809D02*
X-79574285Y-130600000D01*
X-79574285Y-131123809D02*
X-78907619Y-130600000D01*
X-79907619Y-130028571D02*
X-79907619Y-129933333D01*
X-79860000Y-129838095D01*
X-79812380Y-129790476D01*
X-79717142Y-129742857D01*
X-79526666Y-129695238D01*
X-79288571Y-129695238D01*
X-79098095Y-129742857D01*
X-79002857Y-129790476D01*
X-78955238Y-129838095D01*
X-78907619Y-129933333D01*
X-78907619Y-130028571D01*
X-78955238Y-130123809D01*
X-79002857Y-130171428D01*
X-79098095Y-130219047D01*
X-79288571Y-130266666D01*
X-79526666Y-130266666D01*
X-79717142Y-130219047D01*
X-79812380Y-130171428D01*
X-79860000Y-130123809D01*
X-79907619Y-130028571D01*
X-79907619Y-129361904D02*
X-79907619Y-128742857D01*
X-79526666Y-129076190D01*
X-79526666Y-128933333D01*
X-79479047Y-128838095D01*
X-79431428Y-128790476D01*
X-79336190Y-128742857D01*
X-79098095Y-128742857D01*
X-79002857Y-128790476D01*
X-78955238Y-128838095D01*
X-78907619Y-128933333D01*
X-78907619Y-129219047D01*
X-78955238Y-129314285D01*
X-79002857Y-129361904D01*
X-77156666Y-133504761D02*
X-77013809Y-133552380D01*
X-76775714Y-133552380D01*
X-76680476Y-133504761D01*
X-76632857Y-133457142D01*
X-76585238Y-133361904D01*
X-76585238Y-133266666D01*
X-76632857Y-133171428D01*
X-76680476Y-133123809D01*
X-76775714Y-133076190D01*
X-76966190Y-133028571D01*
X-77061428Y-132980952D01*
X-77109047Y-132933333D01*
X-77156666Y-132838095D01*
X-77156666Y-132742857D01*
X-77109047Y-132647619D01*
X-77061428Y-132600000D01*
X-76966190Y-132552380D01*
X-76728095Y-132552380D01*
X-76585238Y-132600000D01*
X-76156666Y-133028571D02*
X-75823333Y-133028571D01*
X-75680476Y-133552380D02*
X-76156666Y-133552380D01*
X-76156666Y-132552380D01*
X-75680476Y-132552380D01*
X-74680476Y-133552380D02*
X-75013809Y-133076190D01*
X-75251904Y-133552380D02*
X-75251904Y-132552380D01*
X-74870952Y-132552380D01*
X-74775714Y-132600000D01*
X-74728095Y-132647619D01*
X-74680476Y-132742857D01*
X-74680476Y-132885714D01*
X-74728095Y-132980952D01*
X-74775714Y-133028571D01*
X-74870952Y-133076190D01*
X-75251904Y-133076190D01*
X-74394761Y-132552380D02*
X-74061428Y-133552380D01*
X-73728095Y-132552380D01*
X-73204285Y-132552380D02*
X-73013809Y-132552380D01*
X-72918571Y-132600000D01*
X-72823333Y-132695238D01*
X-72775714Y-132885714D01*
X-72775714Y-133219047D01*
X-72823333Y-133409523D01*
X-72918571Y-133504761D01*
X-73013809Y-133552380D01*
X-73204285Y-133552380D01*
X-73299523Y-133504761D01*
X-73394761Y-133409523D01*
X-73442380Y-133219047D01*
X-73442380Y-132885714D01*
X-73394761Y-132695238D01*
X-73299523Y-132600000D01*
X-73204285Y-132552380D01*
X-71823333Y-133552380D02*
X-72394761Y-133552380D01*
X-72109047Y-133552380D02*
X-72109047Y-132552380D01*
X-72204285Y-132695238D01*
X-72299523Y-132790476D01*
X-72394761Y-132838095D01*
%TO.C,Seguro1*%
X-59882857Y-136508095D02*
X-59835238Y-136555714D01*
X-59787619Y-136698571D01*
X-59787619Y-136793809D01*
X-59835238Y-136936666D01*
X-59930476Y-137031904D01*
X-60025714Y-137079523D01*
X-60216190Y-137127142D01*
X-60359047Y-137127142D01*
X-60549523Y-137079523D01*
X-60644761Y-137031904D01*
X-60740000Y-136936666D01*
X-60787619Y-136793809D01*
X-60787619Y-136698571D01*
X-60740000Y-136555714D01*
X-60692380Y-136508095D01*
X-59787619Y-135936666D02*
X-59835238Y-136031904D01*
X-59882857Y-136079523D01*
X-59978095Y-136127142D01*
X-60263809Y-136127142D01*
X-60359047Y-136079523D01*
X-60406666Y-136031904D01*
X-60454285Y-135936666D01*
X-60454285Y-135793809D01*
X-60406666Y-135698571D01*
X-60359047Y-135650952D01*
X-60263809Y-135603333D01*
X-59978095Y-135603333D01*
X-59882857Y-135650952D01*
X-59835238Y-135698571D01*
X-59787619Y-135793809D01*
X-59787619Y-135936666D01*
X-60454285Y-135174761D02*
X-59787619Y-135174761D01*
X-60359047Y-135174761D02*
X-60406666Y-135127142D01*
X-60454285Y-135031904D01*
X-60454285Y-134889047D01*
X-60406666Y-134793809D01*
X-60311428Y-134746190D01*
X-59787619Y-134746190D01*
X-60454285Y-134270000D02*
X-59787619Y-134270000D01*
X-60359047Y-134270000D02*
X-60406666Y-134222380D01*
X-60454285Y-134127142D01*
X-60454285Y-133984285D01*
X-60406666Y-133889047D01*
X-60311428Y-133841428D01*
X-59787619Y-133841428D01*
X-59692380Y-133603333D02*
X-59692380Y-132841428D01*
X-60787619Y-132412857D02*
X-60787619Y-132317619D01*
X-60740000Y-132222380D01*
X-60692380Y-132174761D01*
X-60597142Y-132127142D01*
X-60406666Y-132079523D01*
X-60168571Y-132079523D01*
X-59978095Y-132127142D01*
X-59882857Y-132174761D01*
X-59835238Y-132222380D01*
X-59787619Y-132317619D01*
X-59787619Y-132412857D01*
X-59835238Y-132508095D01*
X-59882857Y-132555714D01*
X-59978095Y-132603333D01*
X-60168571Y-132650952D01*
X-60406666Y-132650952D01*
X-60597142Y-132603333D01*
X-60692380Y-132555714D01*
X-60740000Y-132508095D01*
X-60787619Y-132412857D01*
X-59787619Y-131127142D02*
X-59787619Y-131698571D01*
X-59787619Y-131412857D02*
X-60787619Y-131412857D01*
X-60644761Y-131508095D01*
X-60549523Y-131603333D01*
X-60501904Y-131698571D01*
X-59787619Y-130793809D02*
X-60454285Y-130270000D01*
X-60454285Y-130793809D02*
X-59787619Y-130270000D01*
X-60787619Y-129698571D02*
X-60787619Y-129603333D01*
X-60740000Y-129508095D01*
X-60692380Y-129460476D01*
X-60597142Y-129412857D01*
X-60406666Y-129365238D01*
X-60168571Y-129365238D01*
X-59978095Y-129412857D01*
X-59882857Y-129460476D01*
X-59835238Y-129508095D01*
X-59787619Y-129603333D01*
X-59787619Y-129698571D01*
X-59835238Y-129793809D01*
X-59882857Y-129841428D01*
X-59978095Y-129889047D01*
X-60168571Y-129936666D01*
X-60406666Y-129936666D01*
X-60597142Y-129889047D01*
X-60692380Y-129841428D01*
X-60740000Y-129793809D01*
X-60787619Y-129698571D01*
X-60692380Y-128984285D02*
X-60740000Y-128936666D01*
X-60787619Y-128841428D01*
X-60787619Y-128603333D01*
X-60740000Y-128508095D01*
X-60692380Y-128460476D01*
X-60597142Y-128412857D01*
X-60501904Y-128412857D01*
X-60359047Y-128460476D01*
X-59787619Y-129031904D01*
X-59787619Y-128412857D01*
X-66697142Y-133174761D02*
X-66554285Y-133222380D01*
X-66316190Y-133222380D01*
X-66220952Y-133174761D01*
X-66173333Y-133127142D01*
X-66125714Y-133031904D01*
X-66125714Y-132936666D01*
X-66173333Y-132841428D01*
X-66220952Y-132793809D01*
X-66316190Y-132746190D01*
X-66506666Y-132698571D01*
X-66601904Y-132650952D01*
X-66649523Y-132603333D01*
X-66697142Y-132508095D01*
X-66697142Y-132412857D01*
X-66649523Y-132317619D01*
X-66601904Y-132270000D01*
X-66506666Y-132222380D01*
X-66268571Y-132222380D01*
X-66125714Y-132270000D01*
X-65316190Y-133174761D02*
X-65411428Y-133222380D01*
X-65601904Y-133222380D01*
X-65697142Y-133174761D01*
X-65744761Y-133079523D01*
X-65744761Y-132698571D01*
X-65697142Y-132603333D01*
X-65601904Y-132555714D01*
X-65411428Y-132555714D01*
X-65316190Y-132603333D01*
X-65268571Y-132698571D01*
X-65268571Y-132793809D01*
X-65744761Y-132889047D01*
X-64411428Y-132555714D02*
X-64411428Y-133365238D01*
X-64459047Y-133460476D01*
X-64506666Y-133508095D01*
X-64601904Y-133555714D01*
X-64744761Y-133555714D01*
X-64840000Y-133508095D01*
X-64411428Y-133174761D02*
X-64506666Y-133222380D01*
X-64697142Y-133222380D01*
X-64792380Y-133174761D01*
X-64840000Y-133127142D01*
X-64887619Y-133031904D01*
X-64887619Y-132746190D01*
X-64840000Y-132650952D01*
X-64792380Y-132603333D01*
X-64697142Y-132555714D01*
X-64506666Y-132555714D01*
X-64411428Y-132603333D01*
X-63506666Y-132555714D02*
X-63506666Y-133222380D01*
X-63935238Y-132555714D02*
X-63935238Y-133079523D01*
X-63887619Y-133174761D01*
X-63792380Y-133222380D01*
X-63649523Y-133222380D01*
X-63554285Y-133174761D01*
X-63506666Y-133127142D01*
X-63030476Y-133222380D02*
X-63030476Y-132555714D01*
X-63030476Y-132746190D02*
X-62982857Y-132650952D01*
X-62935238Y-132603333D01*
X-62840000Y-132555714D01*
X-62744761Y-132555714D01*
X-62268571Y-133222380D02*
X-62363809Y-133174761D01*
X-62411428Y-133127142D01*
X-62459047Y-133031904D01*
X-62459047Y-132746190D01*
X-62411428Y-132650952D01*
X-62363809Y-132603333D01*
X-62268571Y-132555714D01*
X-62125714Y-132555714D01*
X-62030476Y-132603333D01*
X-61982857Y-132650952D01*
X-61935238Y-132746190D01*
X-61935238Y-133031904D01*
X-61982857Y-133127142D01*
X-62030476Y-133174761D01*
X-62125714Y-133222380D01*
X-62268571Y-133222380D01*
X-60982857Y-133222380D02*
X-61554285Y-133222380D01*
X-61268571Y-133222380D02*
X-61268571Y-132222380D01*
X-61363809Y-132365238D01*
X-61459047Y-132460476D01*
X-61554285Y-132508095D01*
%TO.C,HALL1*%
X-122518095Y-111877142D02*
X-122565714Y-111924761D01*
X-122708571Y-111972380D01*
X-122803809Y-111972380D01*
X-122946666Y-111924761D01*
X-123041904Y-111829523D01*
X-123089523Y-111734285D01*
X-123137142Y-111543809D01*
X-123137142Y-111400952D01*
X-123089523Y-111210476D01*
X-123041904Y-111115238D01*
X-122946666Y-111020000D01*
X-122803809Y-110972380D01*
X-122708571Y-110972380D01*
X-122565714Y-111020000D01*
X-122518095Y-111067619D01*
X-121946666Y-111972380D02*
X-122041904Y-111924761D01*
X-122089523Y-111877142D01*
X-122137142Y-111781904D01*
X-122137142Y-111496190D01*
X-122089523Y-111400952D01*
X-122041904Y-111353333D01*
X-121946666Y-111305714D01*
X-121803809Y-111305714D01*
X-121708571Y-111353333D01*
X-121660952Y-111400952D01*
X-121613333Y-111496190D01*
X-121613333Y-111781904D01*
X-121660952Y-111877142D01*
X-121708571Y-111924761D01*
X-121803809Y-111972380D01*
X-121946666Y-111972380D01*
X-121184761Y-111305714D02*
X-121184761Y-111972380D01*
X-121184761Y-111400952D02*
X-121137142Y-111353333D01*
X-121041904Y-111305714D01*
X-120899047Y-111305714D01*
X-120803809Y-111353333D01*
X-120756190Y-111448571D01*
X-120756190Y-111972380D01*
X-120280000Y-111305714D02*
X-120280000Y-111972380D01*
X-120280000Y-111400952D02*
X-120232380Y-111353333D01*
X-120137142Y-111305714D01*
X-119994285Y-111305714D01*
X-119899047Y-111353333D01*
X-119851428Y-111448571D01*
X-119851428Y-111972380D01*
X-119613333Y-112067619D02*
X-118851428Y-112067619D01*
X-118422857Y-110972380D02*
X-118327619Y-110972380D01*
X-118232380Y-111020000D01*
X-118184761Y-111067619D01*
X-118137142Y-111162857D01*
X-118089523Y-111353333D01*
X-118089523Y-111591428D01*
X-118137142Y-111781904D01*
X-118184761Y-111877142D01*
X-118232380Y-111924761D01*
X-118327619Y-111972380D01*
X-118422857Y-111972380D01*
X-118518095Y-111924761D01*
X-118565714Y-111877142D01*
X-118613333Y-111781904D01*
X-118660952Y-111591428D01*
X-118660952Y-111353333D01*
X-118613333Y-111162857D01*
X-118565714Y-111067619D01*
X-118518095Y-111020000D01*
X-118422857Y-110972380D01*
X-117137142Y-111972380D02*
X-117708571Y-111972380D01*
X-117422857Y-111972380D02*
X-117422857Y-110972380D01*
X-117518095Y-111115238D01*
X-117613333Y-111210476D01*
X-117708571Y-111258095D01*
X-116803809Y-111972380D02*
X-116280000Y-111305714D01*
X-116803809Y-111305714D02*
X-116280000Y-111972380D01*
X-115708571Y-110972380D02*
X-115613333Y-110972380D01*
X-115518095Y-111020000D01*
X-115470476Y-111067619D01*
X-115422857Y-111162857D01*
X-115375238Y-111353333D01*
X-115375238Y-111591428D01*
X-115422857Y-111781904D01*
X-115470476Y-111877142D01*
X-115518095Y-111924761D01*
X-115613333Y-111972380D01*
X-115708571Y-111972380D01*
X-115803809Y-111924761D01*
X-115851428Y-111877142D01*
X-115899047Y-111781904D01*
X-115946666Y-111591428D01*
X-115946666Y-111353333D01*
X-115899047Y-111162857D01*
X-115851428Y-111067619D01*
X-115803809Y-111020000D01*
X-115708571Y-110972380D01*
X-115041904Y-110972380D02*
X-114422857Y-110972380D01*
X-114756190Y-111353333D01*
X-114613333Y-111353333D01*
X-114518095Y-111400952D01*
X-114470476Y-111448571D01*
X-114422857Y-111543809D01*
X-114422857Y-111781904D01*
X-114470476Y-111877142D01*
X-114518095Y-111924761D01*
X-114613333Y-111972380D01*
X-114899047Y-111972380D01*
X-114994285Y-111924761D01*
X-115041904Y-111877142D01*
X-118327619Y-118390000D02*
X-119327619Y-118390000D01*
X-118851428Y-118390000D02*
X-118851428Y-117818571D01*
X-118327619Y-117818571D02*
X-119327619Y-117818571D01*
X-118613333Y-117390000D02*
X-118613333Y-116913809D01*
X-118327619Y-117485238D02*
X-119327619Y-117151904D01*
X-118327619Y-116818571D01*
X-118327619Y-116009047D02*
X-118327619Y-116485238D01*
X-119327619Y-116485238D01*
X-118327619Y-115199523D02*
X-118327619Y-115675714D01*
X-119327619Y-115675714D01*
X-118327619Y-114342380D02*
X-118327619Y-114913809D01*
X-118327619Y-114628095D02*
X-119327619Y-114628095D01*
X-119184761Y-114723333D01*
X-119089523Y-114818571D01*
X-119041904Y-114913809D01*
%TO.C,Bolsa1*%
X-49192857Y-136348095D02*
X-49145238Y-136395714D01*
X-49097619Y-136538571D01*
X-49097619Y-136633809D01*
X-49145238Y-136776666D01*
X-49240476Y-136871904D01*
X-49335714Y-136919523D01*
X-49526190Y-136967142D01*
X-49669047Y-136967142D01*
X-49859523Y-136919523D01*
X-49954761Y-136871904D01*
X-50050000Y-136776666D01*
X-50097619Y-136633809D01*
X-50097619Y-136538571D01*
X-50050000Y-136395714D01*
X-50002380Y-136348095D01*
X-49097619Y-135776666D02*
X-49145238Y-135871904D01*
X-49192857Y-135919523D01*
X-49288095Y-135967142D01*
X-49573809Y-135967142D01*
X-49669047Y-135919523D01*
X-49716666Y-135871904D01*
X-49764285Y-135776666D01*
X-49764285Y-135633809D01*
X-49716666Y-135538571D01*
X-49669047Y-135490952D01*
X-49573809Y-135443333D01*
X-49288095Y-135443333D01*
X-49192857Y-135490952D01*
X-49145238Y-135538571D01*
X-49097619Y-135633809D01*
X-49097619Y-135776666D01*
X-49764285Y-135014761D02*
X-49097619Y-135014761D01*
X-49669047Y-135014761D02*
X-49716666Y-134967142D01*
X-49764285Y-134871904D01*
X-49764285Y-134729047D01*
X-49716666Y-134633809D01*
X-49621428Y-134586190D01*
X-49097619Y-134586190D01*
X-49764285Y-134110000D02*
X-49097619Y-134110000D01*
X-49669047Y-134110000D02*
X-49716666Y-134062380D01*
X-49764285Y-133967142D01*
X-49764285Y-133824285D01*
X-49716666Y-133729047D01*
X-49621428Y-133681428D01*
X-49097619Y-133681428D01*
X-49002380Y-133443333D02*
X-49002380Y-132681428D01*
X-50097619Y-132252857D02*
X-50097619Y-132157619D01*
X-50050000Y-132062380D01*
X-50002380Y-132014761D01*
X-49907142Y-131967142D01*
X-49716666Y-131919523D01*
X-49478571Y-131919523D01*
X-49288095Y-131967142D01*
X-49192857Y-132014761D01*
X-49145238Y-132062380D01*
X-49097619Y-132157619D01*
X-49097619Y-132252857D01*
X-49145238Y-132348095D01*
X-49192857Y-132395714D01*
X-49288095Y-132443333D01*
X-49478571Y-132490952D01*
X-49716666Y-132490952D01*
X-49907142Y-132443333D01*
X-50002380Y-132395714D01*
X-50050000Y-132348095D01*
X-50097619Y-132252857D01*
X-49097619Y-130967142D02*
X-49097619Y-131538571D01*
X-49097619Y-131252857D02*
X-50097619Y-131252857D01*
X-49954761Y-131348095D01*
X-49859523Y-131443333D01*
X-49811904Y-131538571D01*
X-49097619Y-130633809D02*
X-49764285Y-130110000D01*
X-49764285Y-130633809D02*
X-49097619Y-130110000D01*
X-50097619Y-129538571D02*
X-50097619Y-129443333D01*
X-50050000Y-129348095D01*
X-50002380Y-129300476D01*
X-49907142Y-129252857D01*
X-49716666Y-129205238D01*
X-49478571Y-129205238D01*
X-49288095Y-129252857D01*
X-49192857Y-129300476D01*
X-49145238Y-129348095D01*
X-49097619Y-129443333D01*
X-49097619Y-129538571D01*
X-49145238Y-129633809D01*
X-49192857Y-129681428D01*
X-49288095Y-129729047D01*
X-49478571Y-129776666D01*
X-49716666Y-129776666D01*
X-49907142Y-129729047D01*
X-50002380Y-129681428D01*
X-50050000Y-129633809D01*
X-50097619Y-129538571D01*
X-50002380Y-128824285D02*
X-50050000Y-128776666D01*
X-50097619Y-128681428D01*
X-50097619Y-128443333D01*
X-50050000Y-128348095D01*
X-50002380Y-128300476D01*
X-49907142Y-128252857D01*
X-49811904Y-128252857D01*
X-49669047Y-128300476D01*
X-49097619Y-128871904D01*
X-49097619Y-128252857D01*
X-55126190Y-132538571D02*
X-54983333Y-132586190D01*
X-54935714Y-132633809D01*
X-54888095Y-132729047D01*
X-54888095Y-132871904D01*
X-54935714Y-132967142D01*
X-54983333Y-133014761D01*
X-55078571Y-133062380D01*
X-55459523Y-133062380D01*
X-55459523Y-132062380D01*
X-55126190Y-132062380D01*
X-55030952Y-132110000D01*
X-54983333Y-132157619D01*
X-54935714Y-132252857D01*
X-54935714Y-132348095D01*
X-54983333Y-132443333D01*
X-55030952Y-132490952D01*
X-55126190Y-132538571D01*
X-55459523Y-132538571D01*
X-54316666Y-133062380D02*
X-54411904Y-133014761D01*
X-54459523Y-132967142D01*
X-54507142Y-132871904D01*
X-54507142Y-132586190D01*
X-54459523Y-132490952D01*
X-54411904Y-132443333D01*
X-54316666Y-132395714D01*
X-54173809Y-132395714D01*
X-54078571Y-132443333D01*
X-54030952Y-132490952D01*
X-53983333Y-132586190D01*
X-53983333Y-132871904D01*
X-54030952Y-132967142D01*
X-54078571Y-133014761D01*
X-54173809Y-133062380D01*
X-54316666Y-133062380D01*
X-53411904Y-133062380D02*
X-53507142Y-133014761D01*
X-53554761Y-132919523D01*
X-53554761Y-132062380D01*
X-53078571Y-133014761D02*
X-52983333Y-133062380D01*
X-52792857Y-133062380D01*
X-52697619Y-133014761D01*
X-52650000Y-132919523D01*
X-52650000Y-132871904D01*
X-52697619Y-132776666D01*
X-52792857Y-132729047D01*
X-52935714Y-132729047D01*
X-53030952Y-132681428D01*
X-53078571Y-132586190D01*
X-53078571Y-132538571D01*
X-53030952Y-132443333D01*
X-52935714Y-132395714D01*
X-52792857Y-132395714D01*
X-52697619Y-132443333D01*
X-51792857Y-133062380D02*
X-51792857Y-132538571D01*
X-51840476Y-132443333D01*
X-51935714Y-132395714D01*
X-52126190Y-132395714D01*
X-52221428Y-132443333D01*
X-51792857Y-133014761D02*
X-51888095Y-133062380D01*
X-52126190Y-133062380D01*
X-52221428Y-133014761D01*
X-52269047Y-132919523D01*
X-52269047Y-132824285D01*
X-52221428Y-132729047D01*
X-52126190Y-132681428D01*
X-51888095Y-132681428D01*
X-51792857Y-132633809D01*
X-50792857Y-133062380D02*
X-51364285Y-133062380D01*
X-51078571Y-133062380D02*
X-51078571Y-132062380D01*
X-51173809Y-132205238D01*
X-51269047Y-132300476D01*
X-51364285Y-132348095D01*
%TO.C,J4*%
X-131677619Y-158299523D02*
X-132677619Y-158299523D01*
X-132677619Y-157918571D01*
X-132630000Y-157823333D01*
X-132582380Y-157775714D01*
X-132487142Y-157728095D01*
X-132344285Y-157728095D01*
X-132249047Y-157775714D01*
X-132201428Y-157823333D01*
X-132153809Y-157918571D01*
X-132153809Y-158299523D01*
X-132677619Y-157109047D02*
X-132677619Y-156918571D01*
X-132630000Y-156823333D01*
X-132534761Y-156728095D01*
X-132344285Y-156680476D01*
X-132010952Y-156680476D01*
X-131820476Y-156728095D01*
X-131725238Y-156823333D01*
X-131677619Y-156918571D01*
X-131677619Y-157109047D01*
X-131725238Y-157204285D01*
X-131820476Y-157299523D01*
X-132010952Y-157347142D01*
X-132344285Y-157347142D01*
X-132534761Y-157299523D01*
X-132630000Y-157204285D01*
X-132677619Y-157109047D01*
X-132677619Y-156347142D02*
X-131677619Y-156109047D01*
X-132391904Y-155918571D01*
X-131677619Y-155728095D01*
X-132677619Y-155490000D01*
X-132201428Y-155109047D02*
X-132201428Y-154775714D01*
X-131677619Y-154632857D02*
X-131677619Y-155109047D01*
X-132677619Y-155109047D01*
X-132677619Y-154632857D01*
X-131677619Y-153632857D02*
X-132153809Y-153966190D01*
X-131677619Y-154204285D02*
X-132677619Y-154204285D01*
X-132677619Y-153823333D01*
X-132630000Y-153728095D01*
X-132582380Y-153680476D01*
X-132487142Y-153632857D01*
X-132344285Y-153632857D01*
X-132249047Y-153680476D01*
X-132201428Y-153728095D01*
X-132153809Y-153823333D01*
X-132153809Y-154204285D01*
X-130217619Y-156323333D02*
X-129503333Y-156323333D01*
X-129360476Y-156370952D01*
X-129265238Y-156466190D01*
X-129217619Y-156609047D01*
X-129217619Y-156704285D01*
X-129884285Y-155418571D02*
X-129217619Y-155418571D01*
X-130265238Y-155656666D02*
X-129550952Y-155894761D01*
X-129550952Y-155275714D01*
%TO.C,D1*%
X-65807619Y-168451904D02*
X-66807619Y-168451904D01*
X-66807619Y-168213809D01*
X-66760000Y-168070952D01*
X-66664761Y-167975714D01*
X-66569523Y-167928095D01*
X-66379047Y-167880476D01*
X-66236190Y-167880476D01*
X-66045714Y-167928095D01*
X-65950476Y-167975714D01*
X-65855238Y-168070952D01*
X-65807619Y-168213809D01*
X-65807619Y-168451904D01*
X-65712380Y-167690000D02*
X-65712380Y-166928095D01*
X-65855238Y-166737619D02*
X-65807619Y-166594761D01*
X-65807619Y-166356666D01*
X-65855238Y-166261428D01*
X-65902857Y-166213809D01*
X-65998095Y-166166190D01*
X-66093333Y-166166190D01*
X-66188571Y-166213809D01*
X-66236190Y-166261428D01*
X-66283809Y-166356666D01*
X-66331428Y-166547142D01*
X-66379047Y-166642380D01*
X-66426666Y-166690000D01*
X-66521904Y-166737619D01*
X-66617142Y-166737619D01*
X-66712380Y-166690000D01*
X-66760000Y-166642380D01*
X-66807619Y-166547142D01*
X-66807619Y-166309047D01*
X-66760000Y-166166190D01*
X-65807619Y-165737619D02*
X-66474285Y-165737619D01*
X-66379047Y-165737619D02*
X-66426666Y-165690000D01*
X-66474285Y-165594761D01*
X-66474285Y-165451904D01*
X-66426666Y-165356666D01*
X-66331428Y-165309047D01*
X-65807619Y-165309047D01*
X-66331428Y-165309047D02*
X-66426666Y-165261428D01*
X-66474285Y-165166190D01*
X-66474285Y-165023333D01*
X-66426666Y-164928095D01*
X-66331428Y-164880476D01*
X-65807619Y-164880476D01*
X-65807619Y-163975714D02*
X-66331428Y-163975714D01*
X-66426666Y-164023333D01*
X-66474285Y-164118571D01*
X-66474285Y-164309047D01*
X-66426666Y-164404285D01*
X-65855238Y-163975714D02*
X-65807619Y-164070952D01*
X-65807619Y-164309047D01*
X-65855238Y-164404285D01*
X-65950476Y-164451904D01*
X-66045714Y-164451904D01*
X-66140952Y-164404285D01*
X-66188571Y-164309047D01*
X-66188571Y-164070952D01*
X-66236190Y-163975714D01*
X-65807619Y-163356666D02*
X-65855238Y-163451904D01*
X-65950476Y-163499523D01*
X-66807619Y-163499523D01*
X-65807619Y-162832857D02*
X-65855238Y-162928095D01*
X-65950476Y-162975714D01*
X-66807619Y-162975714D01*
X-67377619Y-166891904D02*
X-68377619Y-166891904D01*
X-67377619Y-166320476D02*
X-67949047Y-166749047D01*
X-68377619Y-166320476D02*
X-67806190Y-166891904D01*
X-70747619Y-166428095D02*
X-71747619Y-166428095D01*
X-71747619Y-166190000D01*
X-71700000Y-166047142D01*
X-71604761Y-165951904D01*
X-71509523Y-165904285D01*
X-71319047Y-165856666D01*
X-71176190Y-165856666D01*
X-70985714Y-165904285D01*
X-70890476Y-165951904D01*
X-70795238Y-166047142D01*
X-70747619Y-166190000D01*
X-70747619Y-166428095D01*
X-70747619Y-164904285D02*
X-70747619Y-165475714D01*
X-70747619Y-165190000D02*
X-71747619Y-165190000D01*
X-71604761Y-165285238D01*
X-71509523Y-165380476D01*
X-71461904Y-165475714D01*
%TD*%
M02*
