%TF.GenerationSoftware,KiCad,Pcbnew,(5.1.12)-1*%
%TF.CreationDate,2023-06-16T14:50:00-05:00*%
%TF.ProjectId,Logiplant,4c6f6769-706c-4616-9e74-2e6b69636164,rev?*%
%TF.SameCoordinates,Original*%
%TF.FileFunction,Soldermask,Top*%
%TF.FilePolarity,Negative*%
%FSLAX46Y46*%
G04 Gerber Fmt 4.6, Leading zero omitted, Abs format (unit mm)*
G04 Created by KiCad (PCBNEW (5.1.12)-1) date 2023-06-16 14:50:00*
%MOMM*%
%LPD*%
G01*
G04 APERTURE LIST*
%ADD10O,2.500000X1.500000*%
%ADD11O,1.500000X2.500000*%
%ADD12R,2.500000X1.500000*%
%ADD13R,1.700000X1.700000*%
%ADD14O,1.700000X1.700000*%
%ADD15C,2.600000*%
%ADD16R,2.600000X2.600000*%
%ADD17R,1.500000X2.500000*%
%ADD18R,1.500000X2.000000*%
%ADD19R,2.000000X1.500000*%
G04 APERTURE END LIST*
D10*
%TO.C,R4*%
X-70000000Y-101960000D03*
X-70000000Y-91800000D03*
%TD*%
D11*
%TO.C,R5*%
X-118520000Y-149800000D03*
X-123600000Y-149800000D03*
%TD*%
D10*
%TO.C,R3*%
X-120800000Y-171720000D03*
D12*
X-120800000Y-176800000D03*
%TD*%
D10*
%TO.C,R2*%
X-113800000Y-176880000D03*
X-113800000Y-171800000D03*
%TD*%
D11*
%TO.C,R1*%
X-120920000Y-131000000D03*
X-126000000Y-131000000D03*
%TD*%
D13*
%TO.C,J6*%
X-45200000Y-169800000D03*
D14*
X-54300000Y-169800000D03*
X-64200000Y-169800000D03*
D15*
X-60800000Y-119800000D03*
X-55800000Y-119800000D03*
D16*
X-50800000Y-119800000D03*
%TD*%
D15*
%TO.C,J7*%
X-82240000Y-185000000D03*
X-87320000Y-185000000D03*
D16*
X-92400000Y-185000000D03*
%TD*%
D11*
%TO.C,OLED1*%
X-92980000Y-106790000D03*
X-95520000Y-106790000D03*
X-98060000Y-106790000D03*
X-100600000Y-106790000D03*
X-103140000Y-106790000D03*
X-105680000Y-106790000D03*
D17*
X-87900000Y-106790000D03*
D11*
X-90440000Y-106790000D03*
%TD*%
D10*
%TO.C,U2*%
X-107700000Y-121420000D03*
X-107700000Y-123960000D03*
X-107700000Y-126500000D03*
X-107700000Y-129040000D03*
X-107700000Y-131580000D03*
X-107700000Y-134120000D03*
X-107700000Y-136660000D03*
X-107700000Y-139200000D03*
X-107700000Y-141740000D03*
X-107700000Y-144280000D03*
X-107700000Y-146820000D03*
D12*
X-107700000Y-149360000D03*
D10*
X-107700000Y-151900000D03*
X-107700000Y-154440000D03*
X-107700000Y-156980000D03*
X-107700000Y-159520000D03*
X-107700000Y-162060000D03*
D12*
X-107700000Y-164600000D03*
X-82300000Y-121420000D03*
D10*
X-82300000Y-123960000D03*
X-82300000Y-126500000D03*
X-82300000Y-129040000D03*
D12*
X-82300000Y-131580000D03*
D10*
X-82300000Y-134120000D03*
X-82300000Y-136660000D03*
X-82300000Y-139200000D03*
X-82300000Y-141740000D03*
X-82300000Y-144280000D03*
X-82300000Y-146820000D03*
X-82300000Y-149360000D03*
X-82300000Y-151900000D03*
X-82300000Y-154440000D03*
X-82300000Y-156980000D03*
X-82300000Y-159520000D03*
X-82300000Y-162060000D03*
X-82300000Y-164600000D03*
X-82300000Y-118800000D03*
X-107700000Y-118820000D03*
%TD*%
D11*
%TO.C,SERVO1*%
X-120920000Y-124400000D03*
X-123460000Y-124400000D03*
D18*
X-126000000Y-124400000D03*
%TD*%
D11*
%TO.C,Seguro1*%
X-125540000Y-142200000D03*
D18*
X-123000000Y-142200000D03*
%TD*%
D10*
%TO.C,Recibo1*%
X-75600000Y-105740000D03*
D19*
X-75600000Y-103200000D03*
%TD*%
D10*
%TO.C,HALL1*%
X-63600000Y-97680000D03*
X-63600000Y-95140000D03*
D19*
X-63600000Y-92600000D03*
%TD*%
D11*
%TO.C,Bolsa1*%
X-125540000Y-135000000D03*
X-123000000Y-135000000D03*
%TD*%
D15*
%TO.C,J4*%
X-108120000Y-185400000D03*
D16*
X-113200000Y-185400000D03*
%TD*%
D19*
%TO.C,D1*%
X-53600000Y-92320000D03*
D10*
X-53600000Y-97400000D03*
%TD*%
M02*
