%TF.GenerationSoftware,KiCad,Pcbnew,(5.1.12)-1*%
%TF.CreationDate,2023-09-12T13:55:16-05:00*%
%TF.ProjectId,Logiplant,4c6f6769-706c-4616-9e74-2e6b69636164,rev?*%
%TF.SameCoordinates,Original*%
%TF.FileFunction,Copper,L1,Top*%
%TF.FilePolarity,Positive*%
%FSLAX46Y46*%
G04 Gerber Fmt 4.6, Leading zero omitted, Abs format (unit mm)*
G04 Created by KiCad (PCBNEW (5.1.12)-1) date 2023-09-12 13:55:16*
%MOMM*%
%LPD*%
G01*
G04 APERTURE LIST*
%TA.AperFunction,ComponentPad*%
%ADD10O,2.000000X1.905000*%
%TD*%
%TA.AperFunction,ComponentPad*%
%ADD11R,2.000000X1.905000*%
%TD*%
%TA.AperFunction,ComponentPad*%
%ADD12O,1.905000X2.000000*%
%TD*%
%TA.AperFunction,ComponentPad*%
%ADD13R,1.905000X2.000000*%
%TD*%
%TA.AperFunction,ComponentPad*%
%ADD14O,1.600000X1.600000*%
%TD*%
%TA.AperFunction,ComponentPad*%
%ADD15C,1.600000*%
%TD*%
%TA.AperFunction,ComponentPad*%
%ADD16O,1.500000X2.500000*%
%TD*%
%TA.AperFunction,ComponentPad*%
%ADD17R,1.500000X2.500000*%
%TD*%
%TA.AperFunction,ComponentPad*%
%ADD18R,1.700000X1.700000*%
%TD*%
%TA.AperFunction,ComponentPad*%
%ADD19O,1.700000X1.700000*%
%TD*%
%TA.AperFunction,ComponentPad*%
%ADD20C,2.600000*%
%TD*%
%TA.AperFunction,ComponentPad*%
%ADD21R,2.600000X2.600000*%
%TD*%
%TA.AperFunction,ComponentPad*%
%ADD22O,2.500000X1.500000*%
%TD*%
%TA.AperFunction,ComponentPad*%
%ADD23R,2.500000X1.500000*%
%TD*%
%TA.AperFunction,ComponentPad*%
%ADD24R,1.500000X2.000000*%
%TD*%
%TA.AperFunction,ComponentPad*%
%ADD25R,2.000000X1.500000*%
%TD*%
%TA.AperFunction,Conductor*%
%ADD26C,0.500000*%
%TD*%
%TA.AperFunction,Conductor*%
%ADD27C,0.254000*%
%TD*%
%TA.AperFunction,Conductor*%
%ADD28C,0.100000*%
%TD*%
G04 APERTURE END LIST*
D10*
%TO.P,U3,3*%
%TO.N,+5V*%
X-122970000Y-175010000D03*
%TO.P,U3,2*%
%TO.N,GND*%
X-122970000Y-177550000D03*
D11*
%TO.P,U3,1*%
%TO.N,Net-(J4-Pad2)*%
X-122970000Y-180090000D03*
%TD*%
D12*
%TO.P,U1,3*%
%TO.N,+5V*%
X-118280000Y-162120000D03*
%TO.P,U1,2*%
%TO.N,+3V3*%
X-120820000Y-162120000D03*
D13*
%TO.P,U1,1*%
%TO.N,GND*%
X-123360000Y-162120000D03*
%TD*%
D14*
%TO.P,R4,2*%
%TO.N,IO25*%
X-70000000Y-96880000D03*
D15*
%TO.P,R4,1*%
%TO.N,GND*%
X-70000000Y-91800000D03*
%TD*%
D16*
%TO.P,OLED1,3*%
%TO.N,GND*%
X-92990000Y-107010000D03*
%TO.P,OLED1,4*%
%TO.N,RST*%
X-95530000Y-107010000D03*
%TO.P,OLED1,5*%
%TO.N,SCK*%
X-98070000Y-107010000D03*
%TO.P,OLED1,6*%
%TO.N,MOSI-DATA*%
X-100610000Y-107010000D03*
%TO.P,OLED1,7*%
%TO.N,CS*%
X-103150000Y-107010000D03*
%TO.P,OLED1,8*%
%TO.N,CD-DC*%
X-105690000Y-107010000D03*
D17*
%TO.P,OLED1,1*%
%TO.N,+3V3*%
X-87910000Y-107010000D03*
D16*
%TO.P,OLED1,2*%
%TO.N,+5V*%
X-90450000Y-107010000D03*
%TD*%
%TO.P,R5,2*%
%TO.N,IO19*%
X-118520000Y-149800000D03*
%TO.P,R5,1*%
%TO.N,GND*%
X-123600000Y-149800000D03*
%TD*%
%TO.P,R1,2*%
%TO.N,IO18*%
X-120920000Y-131000000D03*
%TO.P,R1,1*%
%TO.N,GND*%
X-126000000Y-131000000D03*
%TD*%
D18*
%TO.P,J6,4*%
%TO.N,N/C*%
X-45200000Y-169800000D03*
D19*
%TO.P,J6,5*%
X-54300000Y-169800000D03*
%TO.P,J6,6*%
X-64200000Y-169800000D03*
D20*
%TO.P,J6,3*%
%TO.N,GND*%
X-60800000Y-119800000D03*
%TO.P,J6,2*%
%TO.N,+5V*%
X-55800000Y-119800000D03*
D21*
%TO.P,J6,1*%
%TO.N,IO33*%
X-50800000Y-119800000D03*
%TD*%
D20*
%TO.P,J7,3*%
%TO.N,GND*%
X-82240000Y-185000000D03*
%TO.P,J7,2*%
%TO.N,+5V*%
X-87320000Y-185000000D03*
D21*
%TO.P,J7,1*%
%TO.N,IO27*%
X-92400000Y-185000000D03*
%TD*%
D22*
%TO.P,U2,37*%
%TO.N,Net-(U2-Pad37)*%
X-107700000Y-121420000D03*
%TO.P,U2,36*%
%TO.N,Net-(U2-Pad36)*%
X-107700000Y-123960000D03*
%TO.P,U2,35*%
%TO.N,Net-(U2-Pad35)*%
X-107700000Y-126500000D03*
%TO.P,U2,34*%
%TO.N,RST*%
X-107700000Y-129040000D03*
%TO.P,U2,33*%
%TO.N,CS*%
X-107700000Y-131580000D03*
%TO.P,U2,32*%
%TO.N,SCK*%
X-107700000Y-134120000D03*
%TO.P,U2,31*%
%TO.N,CD-DC*%
X-107700000Y-136660000D03*
%TO.P,U2,30*%
%TO.N,MOSI-DATA*%
X-107700000Y-139200000D03*
%TO.P,U2,29*%
%TO.N,Net-(U2-Pad29)*%
X-107700000Y-141740000D03*
%TO.P,U2,28*%
%TO.N,IO18*%
X-107700000Y-144280000D03*
%TO.P,U2,27*%
%TO.N,IO19*%
X-107700000Y-146820000D03*
D23*
%TO.P,U2,26*%
%TO.N,GND*%
X-107700000Y-149360000D03*
D22*
%TO.P,U2,25*%
%TO.N,IO21*%
X-107700000Y-151900000D03*
%TO.P,U2,24*%
%TO.N,Net-(U2-Pad24)*%
X-107700000Y-154440000D03*
%TO.P,U2,23*%
%TO.N,Net-(U2-Pad23)*%
X-107700000Y-156980000D03*
%TO.P,U2,22*%
%TO.N,Net-(U2-Pad22)*%
X-107700000Y-159520000D03*
%TO.P,U2,21*%
%TO.N,Net-(U2-Pad21)*%
X-107700000Y-162060000D03*
D23*
%TO.P,U2,20*%
%TO.N,GND*%
X-107700000Y-164600000D03*
%TO.P,U2,18*%
%TO.N,Net-(U2-Pad18)*%
X-82300000Y-121420000D03*
D22*
%TO.P,U2,17*%
%TO.N,Net-(U2-Pad17)*%
X-82300000Y-123960000D03*
%TO.P,U2,16*%
%TO.N,Net-(U2-Pad16)*%
X-82300000Y-126500000D03*
%TO.P,U2,15*%
%TO.N,Net-(U2-Pad15)*%
X-82300000Y-129040000D03*
D23*
%TO.P,U2,14*%
%TO.N,GND*%
X-82300000Y-131580000D03*
D22*
%TO.P,U2,13*%
%TO.N,Net-(U2-Pad13)*%
X-82300000Y-134120000D03*
%TO.P,U2,12*%
%TO.N,Net-(U2-Pad12)*%
X-82300000Y-136660000D03*
%TO.P,U2,11*%
%TO.N,IO27*%
X-82300000Y-139200000D03*
%TO.P,U2,10*%
%TO.N,IO26*%
X-82300000Y-141740000D03*
%TO.P,U2,9*%
%TO.N,IO25*%
X-82300000Y-144280000D03*
%TO.P,U2,8*%
%TO.N,IO33*%
X-82300000Y-146820000D03*
%TO.P,U2,7*%
%TO.N,Net-(U2-Pad7)*%
X-82300000Y-149360000D03*
%TO.P,U2,6*%
%TO.N,Net-(U2-Pad6)*%
X-82300000Y-151900000D03*
%TO.P,U2,5*%
%TO.N,Net-(U2-Pad5)*%
X-82300000Y-154440000D03*
%TO.P,U2,4*%
%TO.N,Net-(U2-Pad4)*%
X-82300000Y-156980000D03*
%TO.P,U2,3*%
%TO.N,Net-(U2-Pad3)*%
X-82300000Y-159520000D03*
%TO.P,U2,2*%
%TO.N,Net-(U2-Pad2)*%
X-82300000Y-162060000D03*
%TO.P,U2,1*%
%TO.N,+3V3*%
X-82300000Y-164600000D03*
%TO.P,U2,19*%
%TO.N,Net-(U2-Pad19)*%
X-82300000Y-118800000D03*
%TO.P,U2,38*%
%TO.N,Net-(U2-Pad38)*%
X-107700000Y-118820000D03*
%TD*%
D16*
%TO.P,SERVO1,3*%
%TO.N,IO21*%
X-120920000Y-124400000D03*
%TO.P,SERVO1,2*%
%TO.N,+3V3*%
X-123460000Y-124400000D03*
D24*
%TO.P,SERVO1,1*%
%TO.N,GND*%
X-126000000Y-124400000D03*
%TD*%
D16*
%TO.P,Seguro1,2*%
%TO.N,+3V3*%
X-125540000Y-142200000D03*
D24*
%TO.P,Seguro1,1*%
%TO.N,IO19*%
X-123000000Y-142200000D03*
%TD*%
D22*
%TO.P,Recibo1,2*%
%TO.N,+3V3*%
X-75600000Y-105740000D03*
D25*
%TO.P,Recibo1,1*%
%TO.N,IO25*%
X-75600000Y-103200000D03*
%TD*%
D22*
%TO.P,HALL1,3*%
%TO.N,IO26*%
X-63600000Y-97680000D03*
%TO.P,HALL1,2*%
%TO.N,+3V3*%
X-63600000Y-95140000D03*
D25*
%TO.P,HALL1,1*%
%TO.N,GND*%
X-63600000Y-92600000D03*
%TD*%
D16*
%TO.P,Bolsa1,2*%
%TO.N,+3V3*%
X-125540000Y-135000000D03*
%TO.P,Bolsa1,1*%
%TO.N,IO18*%
X-123000000Y-135000000D03*
%TD*%
D20*
%TO.P,J4,2*%
%TO.N,Net-(J4-Pad2)*%
X-108120000Y-185400000D03*
D21*
%TO.P,J4,1*%
%TO.N,GND*%
X-113200000Y-185400000D03*
%TD*%
D25*
%TO.P,D1,2*%
%TO.N,GND*%
X-53600000Y-92320000D03*
D22*
%TO.P,D1,1*%
%TO.N,+5V*%
X-53600000Y-97400000D03*
%TD*%
D26*
%TO.N,IO18*%
X-107700000Y-144280000D02*
X-109400300Y-144280000D01*
X-109400300Y-144280000D02*
X-109400300Y-144220000D01*
X-109400300Y-144220000D02*
X-120920000Y-132700300D01*
X-120920000Y-131000000D02*
X-120920000Y-132700300D01*
X-123000000Y-135000000D02*
X-121799700Y-135000000D01*
X-121799700Y-135000000D02*
X-121799700Y-133580000D01*
X-121799700Y-133580000D02*
X-120920000Y-132700300D01*
%TO.N,IO19*%
X-107700000Y-146820000D02*
X-109400300Y-146820000D01*
X-118520000Y-149800000D02*
X-118520000Y-148120000D01*
X-117220000Y-146820000D02*
X-109400300Y-146820000D01*
X-118520000Y-148120000D02*
X-117220000Y-146820000D01*
X-121840000Y-142200000D02*
X-117220000Y-146820000D01*
X-123000000Y-142200000D02*
X-121840000Y-142200000D01*
%TO.N,IO33*%
X-50800000Y-119800000D02*
X-50800000Y-121800000D01*
X-75820000Y-146820000D02*
X-80220000Y-146820000D01*
X-50800000Y-121800000D02*
X-75820000Y-146820000D01*
X-82300000Y-146820000D02*
X-80220000Y-146820000D01*
%TO.N,+3V3*%
X-63600000Y-95140000D02*
X-70035600Y-95140000D01*
X-75600000Y-105740000D02*
X-77300300Y-105740000D01*
X-125540000Y-133299700D02*
X-123460000Y-131219700D01*
X-123460000Y-131219700D02*
X-123460000Y-124400000D01*
X-125540000Y-135000000D02*
X-125540000Y-142200000D01*
X-125540000Y-135000000D02*
X-125540000Y-133299700D01*
X-77300300Y-105740000D02*
X-79260000Y-105740000D01*
X-79260000Y-105740000D02*
X-81945000Y-103055000D01*
X-81945000Y-103055000D02*
X-81945000Y-102745000D01*
X-74340000Y-95140000D02*
X-70035600Y-95140000D01*
X-81945000Y-102745000D02*
X-74340000Y-95140000D01*
X-120800000Y-162100000D02*
X-120820000Y-162120000D01*
X-125540000Y-144177700D02*
X-120800000Y-148917700D01*
X-125540000Y-142200000D02*
X-125540000Y-144177700D01*
X-120800000Y-152210000D02*
X-120800000Y-162100000D01*
X-120800000Y-148917700D02*
X-120800000Y-152210000D01*
X-111269200Y-161740800D02*
X-120800000Y-152210000D01*
X-84000300Y-164600000D02*
X-82300000Y-164600000D01*
X-90609500Y-171209200D02*
X-84000300Y-164600000D01*
X-108500800Y-171209200D02*
X-90609500Y-171209200D01*
X-111300000Y-168410000D02*
X-108500800Y-171209200D01*
X-111300000Y-161771600D02*
X-111269200Y-161740800D01*
X-111300000Y-168410000D02*
X-111300000Y-161771600D01*
X-85855000Y-103055000D02*
X-81945000Y-103055000D01*
X-87889700Y-105089700D02*
X-85855000Y-103055000D01*
X-87900000Y-109300000D02*
X-87900000Y-105089700D01*
X-88840000Y-110240000D02*
X-87900000Y-109300000D01*
X-93270000Y-110240000D02*
X-88840000Y-110240000D01*
X-94250000Y-109260000D02*
X-93270000Y-110240000D01*
X-94250000Y-103350000D02*
X-94250000Y-109260000D01*
X-95200000Y-102400000D02*
X-94250000Y-103350000D01*
X-104400000Y-102400000D02*
X-95200000Y-102400000D01*
X-87900000Y-105089700D02*
X-87889700Y-105089700D01*
X-123460000Y-121460000D02*
X-104400000Y-102400000D01*
X-123460000Y-124400000D02*
X-123460000Y-121460000D01*
%TO.N,+5V*%
X-49020000Y-146700000D02*
X-87320000Y-185000000D01*
X-53600000Y-97400000D02*
X-53600000Y-96199700D01*
X-53600000Y-96199700D02*
X-55878500Y-93921200D01*
X-55878500Y-93921200D02*
X-79271500Y-93921200D01*
X-79271500Y-93921200D02*
X-90440000Y-105089700D01*
X-90440000Y-106790000D02*
X-90440000Y-105089700D01*
X-53200000Y-110600000D02*
X-53600000Y-110200000D01*
X-46400000Y-117400000D02*
X-53200000Y-110600000D01*
X-48900000Y-146700000D02*
X-46400000Y-144200000D01*
X-49020000Y-146700000D02*
X-48900000Y-146700000D01*
X-46400000Y-144200000D02*
X-46400000Y-117400000D01*
X-53600000Y-97400000D02*
X-53600000Y-110200000D01*
X-54400000Y-111000000D02*
X-53600000Y-110200000D01*
X-54400000Y-118400000D02*
X-54400000Y-111000000D01*
X-55800000Y-119800000D02*
X-54400000Y-118400000D01*
X-87320000Y-187580000D02*
X-87320000Y-185000000D01*
X-88260000Y-188520000D02*
X-87320000Y-187580000D01*
X-98860000Y-188520000D02*
X-88260000Y-188520000D01*
X-99660000Y-187720000D02*
X-98860000Y-188520000D01*
X-99660000Y-178730000D02*
X-99660000Y-187720000D01*
X-103350000Y-175040000D02*
X-99660000Y-178730000D01*
X-122970000Y-175010000D02*
X-122970000Y-171830000D01*
X-118280000Y-167140000D02*
X-118280000Y-162120000D01*
X-122970000Y-171830000D02*
X-118280000Y-167140000D01*
X-122940000Y-175040000D02*
X-122970000Y-175010000D01*
X-103350000Y-175040000D02*
X-122940000Y-175040000D01*
%TO.N,IO26*%
X-81060000Y-141740000D02*
X-80599700Y-141740000D01*
X-82300000Y-141740000D02*
X-81060000Y-141740000D01*
X-58720000Y-122190000D02*
X-58720000Y-102470000D01*
X-78270000Y-141740000D02*
X-58720000Y-122190000D01*
X-81060000Y-141740000D02*
X-78270000Y-141740000D01*
X-63510000Y-97680000D02*
X-58720000Y-102470000D01*
X-63600000Y-97680000D02*
X-63510000Y-97680000D01*
%TO.N,IO27*%
X-84800000Y-139200000D02*
X-82300000Y-139200000D01*
X-84570000Y-150630000D02*
X-86000000Y-149200000D01*
X-81339400Y-150630000D02*
X-84570000Y-150630000D01*
X-78600000Y-153369400D02*
X-81339400Y-150630000D01*
X-78600000Y-169400000D02*
X-78600000Y-153369400D01*
X-86000000Y-149200000D02*
X-86000000Y-140400000D01*
X-80875150Y-171675150D02*
X-78600000Y-169400000D01*
X-80875150Y-171724850D02*
X-80875150Y-171675150D01*
X-86000000Y-140400000D02*
X-84800000Y-139200000D01*
X-92400000Y-183249700D02*
X-80875150Y-171724850D01*
X-92400000Y-185000000D02*
X-92400000Y-183249700D01*
%TO.N,CD-DC*%
X-109140000Y-136660000D02*
X-107700000Y-136660000D01*
X-110940000Y-136660000D02*
X-109140000Y-136660000D01*
X-112800000Y-134800000D02*
X-110940000Y-136660000D01*
X-112800000Y-115610300D02*
X-112800000Y-134800000D01*
X-105680000Y-108490300D02*
X-112800000Y-115610300D01*
X-105680000Y-106790000D02*
X-105680000Y-108490300D01*
%TO.N,CS*%
X-103140000Y-106790000D02*
X-103140000Y-127860000D01*
X-106980000Y-131580000D02*
X-107700000Y-131580000D01*
X-103260000Y-127860000D02*
X-106980000Y-131580000D01*
%TO.N,MOSI-DATA*%
X-105999700Y-136160100D02*
X-105999700Y-139200000D01*
X-106769800Y-135390000D02*
X-105999700Y-136160100D01*
X-110400000Y-135000000D02*
X-110010000Y-135390000D01*
X-110400000Y-133400000D02*
X-110400000Y-135000000D01*
X-105999700Y-139200000D02*
X-107700000Y-139200000D01*
X-110010000Y-135390000D02*
X-106769800Y-135390000D01*
X-109849000Y-132849000D02*
X-110400000Y-133400000D01*
X-106277800Y-132849000D02*
X-109849000Y-132849000D01*
X-100600000Y-127171200D02*
X-106277800Y-132849000D01*
X-100600000Y-106790000D02*
X-100600000Y-127171200D01*
%TO.N,SCK*%
X-105999700Y-134120000D02*
X-107700000Y-134120000D01*
X-98060000Y-127660000D02*
X-104520000Y-134120000D01*
X-104520000Y-134120000D02*
X-105999700Y-134120000D01*
X-98060000Y-106790000D02*
X-98060000Y-127660000D01*
%TO.N,RST*%
X-97233500Y-105076500D02*
X-95520000Y-106790000D01*
X-104410000Y-126610000D02*
X-104410000Y-105782900D01*
X-106840000Y-129040000D02*
X-104410000Y-126610000D01*
X-107700000Y-129040000D02*
X-106840000Y-129040000D01*
X-97233500Y-105076500D02*
X-97233500Y-104966500D01*
X-97233500Y-104966500D02*
X-98200000Y-104000000D01*
X-98200000Y-104000000D02*
X-102800000Y-104000000D01*
X-103913550Y-105113550D02*
X-103913550Y-105286450D01*
X-102800000Y-104000000D02*
X-103913550Y-105113550D01*
X-104410000Y-105782900D02*
X-103913550Y-105286450D01*
%TO.N,IO25*%
X-82300000Y-144280000D02*
X-78480000Y-144280000D01*
X-75600000Y-103200000D02*
X-73600000Y-103200000D01*
X-73600000Y-103200000D02*
X-72360000Y-101960000D01*
X-63600000Y-129400000D02*
X-63559850Y-129359850D01*
X-78480000Y-144280000D02*
X-63600000Y-129400000D01*
X-72360000Y-101960000D02*
X-72310000Y-101960000D01*
X-70000000Y-99650000D02*
X-70000000Y-96880000D01*
X-72310000Y-101960000D02*
X-70000000Y-99650000D01*
X-57900000Y-123730000D02*
X-63570000Y-129400000D01*
X-57900000Y-98400000D02*
X-57900000Y-123730000D01*
X-69585200Y-96465200D02*
X-59834800Y-96465200D01*
X-63570000Y-129400000D02*
X-63600000Y-129400000D01*
X-59834800Y-96465200D02*
X-57900000Y-98400000D01*
X-70000000Y-96880000D02*
X-69585200Y-96465200D01*
%TO.N,IO21*%
X-109910000Y-151900000D02*
X-107700000Y-151900000D01*
X-120920000Y-124400000D02*
X-120000000Y-124400000D01*
X-120000000Y-124400000D02*
X-118000000Y-126400000D01*
X-118000000Y-126400000D02*
X-118000000Y-133696100D01*
X-118000000Y-133696100D02*
X-108686100Y-143010000D01*
X-106190000Y-143010000D02*
X-104400000Y-144800000D01*
X-104400000Y-146200000D02*
X-106359999Y-148159999D01*
X-108686100Y-143010000D02*
X-106190000Y-143010000D01*
X-111220000Y-151120000D02*
X-110440000Y-151900000D01*
X-104400000Y-144800000D02*
X-104400000Y-146200000D01*
X-110440000Y-151900000D02*
X-109910000Y-151900000D01*
X-106359999Y-148159999D02*
X-110479999Y-148159999D01*
X-110479999Y-148159999D02*
X-111220000Y-148900000D01*
X-111220000Y-148900000D02*
X-111220000Y-151120000D01*
%TO.N,Net-(J4-Pad2)*%
X-113360000Y-180160000D02*
X-108614981Y-184905019D01*
X-113430000Y-180090000D02*
X-113360000Y-180160000D01*
X-122970000Y-180090000D02*
X-113430000Y-180090000D01*
%TD*%
D27*
%TO.N,GND*%
X-32659999Y-171569544D02*
X-32726562Y-190672861D01*
X-81050970Y-191140000D01*
X-131760000Y-191140000D01*
X-131760000Y-186700000D01*
X-115138072Y-186700000D01*
X-115125812Y-186824482D01*
X-115089502Y-186944180D01*
X-115030537Y-187054494D01*
X-114951185Y-187151185D01*
X-114854494Y-187230537D01*
X-114744180Y-187289502D01*
X-114624482Y-187325812D01*
X-114500000Y-187338072D01*
X-113485750Y-187335000D01*
X-113327000Y-187176250D01*
X-113327000Y-185527000D01*
X-113073000Y-185527000D01*
X-113073000Y-187176250D01*
X-112914250Y-187335000D01*
X-111900000Y-187338072D01*
X-111775518Y-187325812D01*
X-111655820Y-187289502D01*
X-111545506Y-187230537D01*
X-111448815Y-187151185D01*
X-111369463Y-187054494D01*
X-111310498Y-186944180D01*
X-111274188Y-186824482D01*
X-111261928Y-186700000D01*
X-111265000Y-185685750D01*
X-111423750Y-185527000D01*
X-113073000Y-185527000D01*
X-113327000Y-185527000D01*
X-114976250Y-185527000D01*
X-115135000Y-185685750D01*
X-115138072Y-186700000D01*
X-131760000Y-186700000D01*
X-131760000Y-184100000D01*
X-115138072Y-184100000D01*
X-115135000Y-185114250D01*
X-114976250Y-185273000D01*
X-113327000Y-185273000D01*
X-113327000Y-183623750D01*
X-113073000Y-183623750D01*
X-113073000Y-185273000D01*
X-111423750Y-185273000D01*
X-111265000Y-185114250D01*
X-111261928Y-184100000D01*
X-111274188Y-183975518D01*
X-111310498Y-183855820D01*
X-111369463Y-183745506D01*
X-111448815Y-183648815D01*
X-111545506Y-183569463D01*
X-111655820Y-183510498D01*
X-111775518Y-183474188D01*
X-111900000Y-183461928D01*
X-112914250Y-183465000D01*
X-113073000Y-183623750D01*
X-113327000Y-183623750D01*
X-113485750Y-183465000D01*
X-114500000Y-183461928D01*
X-114624482Y-183474188D01*
X-114744180Y-183510498D01*
X-114854494Y-183569463D01*
X-114951185Y-183648815D01*
X-115030537Y-183745506D01*
X-115089502Y-183855820D01*
X-115125812Y-183975518D01*
X-115138072Y-184100000D01*
X-131760000Y-184100000D01*
X-131760000Y-179137500D01*
X-124608072Y-179137500D01*
X-124608072Y-181042500D01*
X-124595812Y-181166982D01*
X-124559502Y-181286680D01*
X-124500537Y-181396994D01*
X-124421185Y-181493685D01*
X-124324494Y-181573037D01*
X-124214180Y-181632002D01*
X-124094482Y-181668312D01*
X-123970000Y-181680572D01*
X-121970000Y-181680572D01*
X-121845518Y-181668312D01*
X-121725820Y-181632002D01*
X-121615506Y-181573037D01*
X-121518815Y-181493685D01*
X-121439463Y-181396994D01*
X-121380498Y-181286680D01*
X-121344188Y-181166982D01*
X-121331928Y-181042500D01*
X-121331928Y-180975000D01*
X-113796578Y-180975000D01*
X-109967564Y-184804015D01*
X-109980639Y-184835581D01*
X-110055000Y-185209419D01*
X-110055000Y-185590581D01*
X-109980639Y-185964419D01*
X-109834775Y-186316566D01*
X-109623013Y-186633491D01*
X-109353491Y-186903013D01*
X-109036566Y-187114775D01*
X-108684419Y-187260639D01*
X-108310581Y-187335000D01*
X-107929419Y-187335000D01*
X-107555581Y-187260639D01*
X-107203434Y-187114775D01*
X-106886509Y-186903013D01*
X-106616987Y-186633491D01*
X-106405225Y-186316566D01*
X-106259361Y-185964419D01*
X-106185000Y-185590581D01*
X-106185000Y-185209419D01*
X-106259361Y-184835581D01*
X-106405225Y-184483434D01*
X-106616987Y-184166509D01*
X-106886509Y-183896987D01*
X-107203434Y-183685225D01*
X-107555581Y-183539361D01*
X-107929419Y-183465000D01*
X-108310581Y-183465000D01*
X-108684419Y-183539361D01*
X-108715985Y-183552436D01*
X-112764954Y-179503468D01*
X-112773466Y-179494956D01*
X-112801183Y-179461183D01*
X-112935941Y-179350589D01*
X-113089687Y-179268411D01*
X-113256510Y-179217805D01*
X-113386523Y-179205000D01*
X-113386531Y-179205000D01*
X-113430000Y-179200719D01*
X-113473469Y-179205000D01*
X-121331928Y-179205000D01*
X-121331928Y-179137500D01*
X-121344188Y-179013018D01*
X-121380498Y-178893320D01*
X-121439463Y-178783006D01*
X-121518815Y-178686315D01*
X-121615506Y-178606963D01*
X-121707219Y-178557941D01*
X-121594031Y-178416923D01*
X-121450429Y-178141094D01*
X-121379437Y-177922980D01*
X-121499406Y-177677000D01*
X-122843000Y-177677000D01*
X-122843000Y-177697000D01*
X-123097000Y-177697000D01*
X-123097000Y-177677000D01*
X-124440594Y-177677000D01*
X-124560563Y-177922980D01*
X-124489571Y-178141094D01*
X-124345969Y-178416923D01*
X-124232781Y-178557941D01*
X-124324494Y-178606963D01*
X-124421185Y-178686315D01*
X-124500537Y-178783006D01*
X-124559502Y-178893320D01*
X-124595812Y-179013018D01*
X-124608072Y-179137500D01*
X-131760000Y-179137500D01*
X-131760000Y-163120000D01*
X-124950572Y-163120000D01*
X-124938312Y-163244482D01*
X-124902002Y-163364180D01*
X-124843037Y-163474494D01*
X-124763685Y-163571185D01*
X-124666994Y-163650537D01*
X-124556680Y-163709502D01*
X-124436982Y-163745812D01*
X-124312500Y-163758072D01*
X-123645750Y-163755000D01*
X-123487000Y-163596250D01*
X-123487000Y-162247000D01*
X-124788750Y-162247000D01*
X-124947500Y-162405750D01*
X-124950572Y-163120000D01*
X-131760000Y-163120000D01*
X-131760000Y-161120000D01*
X-124950572Y-161120000D01*
X-124947500Y-161834250D01*
X-124788750Y-161993000D01*
X-123487000Y-161993000D01*
X-123487000Y-160643750D01*
X-123645750Y-160485000D01*
X-124312500Y-160481928D01*
X-124436982Y-160494188D01*
X-124556680Y-160530498D01*
X-124666994Y-160589463D01*
X-124763685Y-160668815D01*
X-124843037Y-160765506D01*
X-124902002Y-160875820D01*
X-124938312Y-160995518D01*
X-124950572Y-161120000D01*
X-131760000Y-161120000D01*
X-131760000Y-149927000D01*
X-124985000Y-149927000D01*
X-124985000Y-150427000D01*
X-124933611Y-150694760D01*
X-124830972Y-150947349D01*
X-124681028Y-151175061D01*
X-124489540Y-151369145D01*
X-124263868Y-151522142D01*
X-124012684Y-151628173D01*
X-123941185Y-151642318D01*
X-123727000Y-151519656D01*
X-123727000Y-149927000D01*
X-123473000Y-149927000D01*
X-123473000Y-151519656D01*
X-123258815Y-151642318D01*
X-123187316Y-151628173D01*
X-122936132Y-151522142D01*
X-122710460Y-151369145D01*
X-122518972Y-151175061D01*
X-122369028Y-150947349D01*
X-122266389Y-150694760D01*
X-122215000Y-150427000D01*
X-122215000Y-149927000D01*
X-123473000Y-149927000D01*
X-123727000Y-149927000D01*
X-124985000Y-149927000D01*
X-131760000Y-149927000D01*
X-131760000Y-149173000D01*
X-124985000Y-149173000D01*
X-124985000Y-149673000D01*
X-123727000Y-149673000D01*
X-123727000Y-148080344D01*
X-123941185Y-147957682D01*
X-124012684Y-147971827D01*
X-124263868Y-148077858D01*
X-124489540Y-148230855D01*
X-124681028Y-148424939D01*
X-124830972Y-148652651D01*
X-124933611Y-148905240D01*
X-124985000Y-149173000D01*
X-131760000Y-149173000D01*
X-131760000Y-131127000D01*
X-127385000Y-131127000D01*
X-127385000Y-131627000D01*
X-127333611Y-131894760D01*
X-127230972Y-132147349D01*
X-127081028Y-132375061D01*
X-126889540Y-132569145D01*
X-126663868Y-132722142D01*
X-126412684Y-132828173D01*
X-126341185Y-132842318D01*
X-126280411Y-132807513D01*
X-126361588Y-132959387D01*
X-126412195Y-133126210D01*
X-126429281Y-133299700D01*
X-126424999Y-133343179D01*
X-126424999Y-133434605D01*
X-126524080Y-133515919D01*
X-126697157Y-133726812D01*
X-126825764Y-133967419D01*
X-126904960Y-134228493D01*
X-126925000Y-134431963D01*
X-126925000Y-135568036D01*
X-126904960Y-135771506D01*
X-126825764Y-136032580D01*
X-126697157Y-136273187D01*
X-126524081Y-136484080D01*
X-126425000Y-136565395D01*
X-126424999Y-140634605D01*
X-126524080Y-140715919D01*
X-126697157Y-140926812D01*
X-126825764Y-141167419D01*
X-126904960Y-141428493D01*
X-126925000Y-141631963D01*
X-126925000Y-142768036D01*
X-126904960Y-142971506D01*
X-126825764Y-143232580D01*
X-126697157Y-143473187D01*
X-126524081Y-143684080D01*
X-126424999Y-143765395D01*
X-126424999Y-144134221D01*
X-126429281Y-144177700D01*
X-126412195Y-144351190D01*
X-126361588Y-144518013D01*
X-126279410Y-144671759D01*
X-126196532Y-144772746D01*
X-126196529Y-144772749D01*
X-126168816Y-144806517D01*
X-126135048Y-144834230D01*
X-122797294Y-148171985D01*
X-122936132Y-148077858D01*
X-123187316Y-147971827D01*
X-123258815Y-147957682D01*
X-123473000Y-148080344D01*
X-123473000Y-149673000D01*
X-122215000Y-149673000D01*
X-122215000Y-149173000D01*
X-122266389Y-148905240D01*
X-122369028Y-148652651D01*
X-122470061Y-148499218D01*
X-121685000Y-149284279D01*
X-121684999Y-152166514D01*
X-121685000Y-152166524D01*
X-121685000Y-152166531D01*
X-121689281Y-152210000D01*
X-121685000Y-152253469D01*
X-121684999Y-160734804D01*
X-121706235Y-160746155D01*
X-121832095Y-160849446D01*
X-121876963Y-160765506D01*
X-121956315Y-160668815D01*
X-122053006Y-160589463D01*
X-122163320Y-160530498D01*
X-122283018Y-160494188D01*
X-122407500Y-160481928D01*
X-123074250Y-160485000D01*
X-123233000Y-160643750D01*
X-123233000Y-161993000D01*
X-123213000Y-161993000D01*
X-123213000Y-162247000D01*
X-123233000Y-162247000D01*
X-123233000Y-163596250D01*
X-123074250Y-163755000D01*
X-122407500Y-163758072D01*
X-122283018Y-163745812D01*
X-122163320Y-163709502D01*
X-122053006Y-163650537D01*
X-121956315Y-163571185D01*
X-121876963Y-163474494D01*
X-121832095Y-163390553D01*
X-121706234Y-163493845D01*
X-121430448Y-163641255D01*
X-121131203Y-163732030D01*
X-120820000Y-163762681D01*
X-120508796Y-163732030D01*
X-120209551Y-163641255D01*
X-119933765Y-163493845D01*
X-119692037Y-163295463D01*
X-119550000Y-163122391D01*
X-119407963Y-163295463D01*
X-119166234Y-163493845D01*
X-119164999Y-163494505D01*
X-119165000Y-166773421D01*
X-123565048Y-171173470D01*
X-123598816Y-171201183D01*
X-123626529Y-171234951D01*
X-123626532Y-171234954D01*
X-123709410Y-171335941D01*
X-123791588Y-171489687D01*
X-123842195Y-171656510D01*
X-123859281Y-171830000D01*
X-123854999Y-171873479D01*
X-123855000Y-173657605D01*
X-123903735Y-173683655D01*
X-124145463Y-173882037D01*
X-124343845Y-174123765D01*
X-124491255Y-174399551D01*
X-124582030Y-174698796D01*
X-124612681Y-175010000D01*
X-124582030Y-175321204D01*
X-124491255Y-175620449D01*
X-124343845Y-175896235D01*
X-124145463Y-176137963D01*
X-123966101Y-176285163D01*
X-124151315Y-176440563D01*
X-124345969Y-176683077D01*
X-124489571Y-176958906D01*
X-124560563Y-177177020D01*
X-124440594Y-177423000D01*
X-123097000Y-177423000D01*
X-123097000Y-177403000D01*
X-122843000Y-177403000D01*
X-122843000Y-177423000D01*
X-121499406Y-177423000D01*
X-121379437Y-177177020D01*
X-121450429Y-176958906D01*
X-121594031Y-176683077D01*
X-121788685Y-176440563D01*
X-121973899Y-176285163D01*
X-121794537Y-176137963D01*
X-121619762Y-175925000D01*
X-103716578Y-175925000D01*
X-100545000Y-179096579D01*
X-100544999Y-187676521D01*
X-100549281Y-187720000D01*
X-100532195Y-187893490D01*
X-100481588Y-188060313D01*
X-100399410Y-188214059D01*
X-100316532Y-188315046D01*
X-100316529Y-188315049D01*
X-100288816Y-188348817D01*
X-100255049Y-188376529D01*
X-99516530Y-189115049D01*
X-99488817Y-189148817D01*
X-99455049Y-189176530D01*
X-99455047Y-189176532D01*
X-99354060Y-189259410D01*
X-99354059Y-189259411D01*
X-99200313Y-189341589D01*
X-99033490Y-189392195D01*
X-98903477Y-189405000D01*
X-98903469Y-189405000D01*
X-98860000Y-189409281D01*
X-98816531Y-189405000D01*
X-88303469Y-189405000D01*
X-88260000Y-189409281D01*
X-88216531Y-189405000D01*
X-88216523Y-189405000D01*
X-88086510Y-189392195D01*
X-87919687Y-189341589D01*
X-87765941Y-189259411D01*
X-87631183Y-189148817D01*
X-87603466Y-189115044D01*
X-86724950Y-188236529D01*
X-86691183Y-188208817D01*
X-86580589Y-188074059D01*
X-86498411Y-187920313D01*
X-86447805Y-187753490D01*
X-86435000Y-187623477D01*
X-86435000Y-187623469D01*
X-86430719Y-187580000D01*
X-86435000Y-187536531D01*
X-86435000Y-186727850D01*
X-86403434Y-186714775D01*
X-86086509Y-186503013D01*
X-85932720Y-186349224D01*
X-83409619Y-186349224D01*
X-83277683Y-186644312D01*
X-82936955Y-186815159D01*
X-82569443Y-186916250D01*
X-82189271Y-186943701D01*
X-81811049Y-186896457D01*
X-81449310Y-186776333D01*
X-81202317Y-186644312D01*
X-81070381Y-186349224D01*
X-82240000Y-185179605D01*
X-83409619Y-186349224D01*
X-85932720Y-186349224D01*
X-85816987Y-186233491D01*
X-85605225Y-185916566D01*
X-85459361Y-185564419D01*
X-85385000Y-185190581D01*
X-85385000Y-185050729D01*
X-84183701Y-185050729D01*
X-84136457Y-185428951D01*
X-84016333Y-185790690D01*
X-83884312Y-186037683D01*
X-83589224Y-186169619D01*
X-82419605Y-185000000D01*
X-82060395Y-185000000D01*
X-80890776Y-186169619D01*
X-80595688Y-186037683D01*
X-80424841Y-185696955D01*
X-80323750Y-185329443D01*
X-80296299Y-184949271D01*
X-80343543Y-184571049D01*
X-80463667Y-184209310D01*
X-80595688Y-183962317D01*
X-80890776Y-183830381D01*
X-82060395Y-185000000D01*
X-82419605Y-185000000D01*
X-83589224Y-183830381D01*
X-83884312Y-183962317D01*
X-84055159Y-184303045D01*
X-84156250Y-184670557D01*
X-84183701Y-185050729D01*
X-85385000Y-185050729D01*
X-85385000Y-184809419D01*
X-85459361Y-184435581D01*
X-85472436Y-184404014D01*
X-84719198Y-183650776D01*
X-83409619Y-183650776D01*
X-82240000Y-184820395D01*
X-81070381Y-183650776D01*
X-81202317Y-183355688D01*
X-81543045Y-183184841D01*
X-81910557Y-183083750D01*
X-82290729Y-183056299D01*
X-82668951Y-183103543D01*
X-83030690Y-183223667D01*
X-83277683Y-183355688D01*
X-83409619Y-183650776D01*
X-84719198Y-183650776D01*
X-70722162Y-169653740D01*
X-65685000Y-169653740D01*
X-65685000Y-169946260D01*
X-65627932Y-170233158D01*
X-65515990Y-170503411D01*
X-65353475Y-170746632D01*
X-65146632Y-170953475D01*
X-64903411Y-171115990D01*
X-64633158Y-171227932D01*
X-64346260Y-171285000D01*
X-64053740Y-171285000D01*
X-63766842Y-171227932D01*
X-63496589Y-171115990D01*
X-63253368Y-170953475D01*
X-63046525Y-170746632D01*
X-62884010Y-170503411D01*
X-62772068Y-170233158D01*
X-62715000Y-169946260D01*
X-62715000Y-169653740D01*
X-55785000Y-169653740D01*
X-55785000Y-169946260D01*
X-55727932Y-170233158D01*
X-55615990Y-170503411D01*
X-55453475Y-170746632D01*
X-55246632Y-170953475D01*
X-55003411Y-171115990D01*
X-54733158Y-171227932D01*
X-54446260Y-171285000D01*
X-54153740Y-171285000D01*
X-53866842Y-171227932D01*
X-53596589Y-171115990D01*
X-53353368Y-170953475D01*
X-53146525Y-170746632D01*
X-52984010Y-170503411D01*
X-52872068Y-170233158D01*
X-52815000Y-169946260D01*
X-52815000Y-169653740D01*
X-52872068Y-169366842D01*
X-52984010Y-169096589D01*
X-53081957Y-168950000D01*
X-46688072Y-168950000D01*
X-46688072Y-170650000D01*
X-46675812Y-170774482D01*
X-46639502Y-170894180D01*
X-46580537Y-171004494D01*
X-46501185Y-171101185D01*
X-46404494Y-171180537D01*
X-46294180Y-171239502D01*
X-46174482Y-171275812D01*
X-46050000Y-171288072D01*
X-44350000Y-171288072D01*
X-44225518Y-171275812D01*
X-44105820Y-171239502D01*
X-43995506Y-171180537D01*
X-43898815Y-171101185D01*
X-43819463Y-171004494D01*
X-43760498Y-170894180D01*
X-43724188Y-170774482D01*
X-43711928Y-170650000D01*
X-43711928Y-168950000D01*
X-43724188Y-168825518D01*
X-43760498Y-168705820D01*
X-43819463Y-168595506D01*
X-43898815Y-168498815D01*
X-43995506Y-168419463D01*
X-44105820Y-168360498D01*
X-44225518Y-168324188D01*
X-44350000Y-168311928D01*
X-46050000Y-168311928D01*
X-46174482Y-168324188D01*
X-46294180Y-168360498D01*
X-46404494Y-168419463D01*
X-46501185Y-168498815D01*
X-46580537Y-168595506D01*
X-46639502Y-168705820D01*
X-46675812Y-168825518D01*
X-46688072Y-168950000D01*
X-53081957Y-168950000D01*
X-53146525Y-168853368D01*
X-53353368Y-168646525D01*
X-53596589Y-168484010D01*
X-53866842Y-168372068D01*
X-54153740Y-168315000D01*
X-54446260Y-168315000D01*
X-54733158Y-168372068D01*
X-55003411Y-168484010D01*
X-55246632Y-168646525D01*
X-55453475Y-168853368D01*
X-55615990Y-169096589D01*
X-55727932Y-169366842D01*
X-55785000Y-169653740D01*
X-62715000Y-169653740D01*
X-62772068Y-169366842D01*
X-62884010Y-169096589D01*
X-63046525Y-168853368D01*
X-63253368Y-168646525D01*
X-63496589Y-168484010D01*
X-63766842Y-168372068D01*
X-64053740Y-168315000D01*
X-64346260Y-168315000D01*
X-64633158Y-168372068D01*
X-64903411Y-168484010D01*
X-65146632Y-168646525D01*
X-65353475Y-168853368D01*
X-65515990Y-169096589D01*
X-65627932Y-169366842D01*
X-65685000Y-169653740D01*
X-70722162Y-169653740D01*
X-48603214Y-147534793D01*
X-48559687Y-147521589D01*
X-48405941Y-147439411D01*
X-48271183Y-147328817D01*
X-48243466Y-147295044D01*
X-45804950Y-144856529D01*
X-45771183Y-144828817D01*
X-45660589Y-144694059D01*
X-45578411Y-144540313D01*
X-45527805Y-144373490D01*
X-45515000Y-144243477D01*
X-45515000Y-144243469D01*
X-45510719Y-144200000D01*
X-45515000Y-144156531D01*
X-45515000Y-117443465D01*
X-45510719Y-117399999D01*
X-45515000Y-117356533D01*
X-45515000Y-117356523D01*
X-45527805Y-117226510D01*
X-45578411Y-117059687D01*
X-45660589Y-116905941D01*
X-45771183Y-116771183D01*
X-45804951Y-116743470D01*
X-52604954Y-109943468D01*
X-52715000Y-109833422D01*
X-52715000Y-98730532D01*
X-52567419Y-98685764D01*
X-52326812Y-98557157D01*
X-52115919Y-98384081D01*
X-51942843Y-98173188D01*
X-51814236Y-97932581D01*
X-51735040Y-97671507D01*
X-51708299Y-97400000D01*
X-51735040Y-97128493D01*
X-51814236Y-96867419D01*
X-51942843Y-96626812D01*
X-52115919Y-96415919D01*
X-52326812Y-96242843D01*
X-52567419Y-96114236D01*
X-52723808Y-96066796D01*
X-52727805Y-96026210D01*
X-52733388Y-96007805D01*
X-52778411Y-95859386D01*
X-52860589Y-95705641D01*
X-52943468Y-95604653D01*
X-52943470Y-95604651D01*
X-52971183Y-95570883D01*
X-53004951Y-95543170D01*
X-54939651Y-93608471D01*
X-54844180Y-93659502D01*
X-54724482Y-93695812D01*
X-54600000Y-93708072D01*
X-53885750Y-93705000D01*
X-53727000Y-93546250D01*
X-53727000Y-92447000D01*
X-53473000Y-92447000D01*
X-53473000Y-93546250D01*
X-53314250Y-93705000D01*
X-52600000Y-93708072D01*
X-52475518Y-93695812D01*
X-52355820Y-93659502D01*
X-52245506Y-93600537D01*
X-52148815Y-93521185D01*
X-52069463Y-93424494D01*
X-52010498Y-93314180D01*
X-51974188Y-93194482D01*
X-51961928Y-93070000D01*
X-51965000Y-92605750D01*
X-52123750Y-92447000D01*
X-53473000Y-92447000D01*
X-53727000Y-92447000D01*
X-55076250Y-92447000D01*
X-55235000Y-92605750D01*
X-55238072Y-93070000D01*
X-55225812Y-93194482D01*
X-55189502Y-93314180D01*
X-55138471Y-93409651D01*
X-55221966Y-93326156D01*
X-55249683Y-93292383D01*
X-55384441Y-93181789D01*
X-55538187Y-93099611D01*
X-55705010Y-93049005D01*
X-55835023Y-93036200D01*
X-55835031Y-93036200D01*
X-55878500Y-93031919D01*
X-55921969Y-93036200D01*
X-61964004Y-93036200D01*
X-61965000Y-92885750D01*
X-62123750Y-92727000D01*
X-63473000Y-92727000D01*
X-63473000Y-92747000D01*
X-63727000Y-92747000D01*
X-63727000Y-92727000D01*
X-65076250Y-92727000D01*
X-65235000Y-92885750D01*
X-65235996Y-93036200D01*
X-69258348Y-93036200D01*
X-69186903Y-92792702D01*
X-70000000Y-91979605D01*
X-70813097Y-92792702D01*
X-70741652Y-93036200D01*
X-79228035Y-93036200D01*
X-79271501Y-93031919D01*
X-79314967Y-93036200D01*
X-79314977Y-93036200D01*
X-79444990Y-93049005D01*
X-79611813Y-93099611D01*
X-79765559Y-93181789D01*
X-79765561Y-93181790D01*
X-79765560Y-93181790D01*
X-79866547Y-93264668D01*
X-79866549Y-93264670D01*
X-79900317Y-93292383D01*
X-79928030Y-93326151D01*
X-91035048Y-104433170D01*
X-91068816Y-104460883D01*
X-91096529Y-104494651D01*
X-91096532Y-104494654D01*
X-91179410Y-104595641D01*
X-91261588Y-104749387D01*
X-91312195Y-104916210D01*
X-91329281Y-105089700D01*
X-91324999Y-105133179D01*
X-91324999Y-105436398D01*
X-91434080Y-105525919D01*
X-91607157Y-105736812D01*
X-91722486Y-105952578D01*
X-91759028Y-105862651D01*
X-91908972Y-105634939D01*
X-92100460Y-105440855D01*
X-92326132Y-105287858D01*
X-92577316Y-105181827D01*
X-92648815Y-105167682D01*
X-92863000Y-105290344D01*
X-92863000Y-106883000D01*
X-92843000Y-106883000D01*
X-92843000Y-107137000D01*
X-92863000Y-107137000D01*
X-92863000Y-108729656D01*
X-92648815Y-108852318D01*
X-92577316Y-108838173D01*
X-92326132Y-108732142D01*
X-92100460Y-108579145D01*
X-91908972Y-108385061D01*
X-91759028Y-108157349D01*
X-91722486Y-108067421D01*
X-91607157Y-108283187D01*
X-91434081Y-108494080D01*
X-91223188Y-108667157D01*
X-90982581Y-108795764D01*
X-90721507Y-108874960D01*
X-90450000Y-108901701D01*
X-90178494Y-108874960D01*
X-89917420Y-108795764D01*
X-89676813Y-108667157D01*
X-89465920Y-108494081D01*
X-89295473Y-108286392D01*
X-89285812Y-108384482D01*
X-89249502Y-108504180D01*
X-89190537Y-108614494D01*
X-89111185Y-108711185D01*
X-89014494Y-108790537D01*
X-88904180Y-108849502D01*
X-88785000Y-108885655D01*
X-88785000Y-108933421D01*
X-89206578Y-109355000D01*
X-92903421Y-109355000D01*
X-93365000Y-108893422D01*
X-93365000Y-108845628D01*
X-93331185Y-108852318D01*
X-93117000Y-108729656D01*
X-93117000Y-107137000D01*
X-93137000Y-107137000D01*
X-93137000Y-106883000D01*
X-93117000Y-106883000D01*
X-93117000Y-105290344D01*
X-93331185Y-105167682D01*
X-93365000Y-105174372D01*
X-93365000Y-103393469D01*
X-93360719Y-103350000D01*
X-93365000Y-103306531D01*
X-93365000Y-103306523D01*
X-93377805Y-103176510D01*
X-93428411Y-103009687D01*
X-93510589Y-102855941D01*
X-93548035Y-102810313D01*
X-93593468Y-102754953D01*
X-93593470Y-102754951D01*
X-93621183Y-102721183D01*
X-93654950Y-102693471D01*
X-94543466Y-101804956D01*
X-94571183Y-101771183D01*
X-94705941Y-101660589D01*
X-94859687Y-101578411D01*
X-95026510Y-101527805D01*
X-95156523Y-101515000D01*
X-95156531Y-101515000D01*
X-95200000Y-101510719D01*
X-95243469Y-101515000D01*
X-104356535Y-101515000D01*
X-104400001Y-101510719D01*
X-104443467Y-101515000D01*
X-104443477Y-101515000D01*
X-104573490Y-101527805D01*
X-104740313Y-101578411D01*
X-104894059Y-101660589D01*
X-104894061Y-101660590D01*
X-104894060Y-101660590D01*
X-104995047Y-101743468D01*
X-104995049Y-101743470D01*
X-105028817Y-101771183D01*
X-105056530Y-101804951D01*
X-124055048Y-120803470D01*
X-124088816Y-120831183D01*
X-124116529Y-120864951D01*
X-124116532Y-120864954D01*
X-124199410Y-120965941D01*
X-124281588Y-121119687D01*
X-124332195Y-121286510D01*
X-124349281Y-121460000D01*
X-124344999Y-121503479D01*
X-124344999Y-122834605D01*
X-124444081Y-122915920D01*
X-124617157Y-123126813D01*
X-124650420Y-123189043D01*
X-124660498Y-123155820D01*
X-124719463Y-123045506D01*
X-124798815Y-122948815D01*
X-124895506Y-122869463D01*
X-125005820Y-122810498D01*
X-125125518Y-122774188D01*
X-125250000Y-122761928D01*
X-125714250Y-122765000D01*
X-125873000Y-122923750D01*
X-125873000Y-124273000D01*
X-125853000Y-124273000D01*
X-125853000Y-124527000D01*
X-125873000Y-124527000D01*
X-125873000Y-125876250D01*
X-125714250Y-126035000D01*
X-125250000Y-126038072D01*
X-125125518Y-126025812D01*
X-125005820Y-125989502D01*
X-124895506Y-125930537D01*
X-124798815Y-125851185D01*
X-124719463Y-125754494D01*
X-124660498Y-125644180D01*
X-124650420Y-125610957D01*
X-124617157Y-125673188D01*
X-124444080Y-125884081D01*
X-124344999Y-125965395D01*
X-124345000Y-130853121D01*
X-124618879Y-131127000D01*
X-125873000Y-131127000D01*
X-125873000Y-131147000D01*
X-126127000Y-131147000D01*
X-126127000Y-131127000D01*
X-127385000Y-131127000D01*
X-131760000Y-131127000D01*
X-131760000Y-130373000D01*
X-127385000Y-130373000D01*
X-127385000Y-130873000D01*
X-126127000Y-130873000D01*
X-126127000Y-129280344D01*
X-125873000Y-129280344D01*
X-125873000Y-130873000D01*
X-124615000Y-130873000D01*
X-124615000Y-130373000D01*
X-124666389Y-130105240D01*
X-124769028Y-129852651D01*
X-124918972Y-129624939D01*
X-125110460Y-129430855D01*
X-125336132Y-129277858D01*
X-125587316Y-129171827D01*
X-125658815Y-129157682D01*
X-125873000Y-129280344D01*
X-126127000Y-129280344D01*
X-126341185Y-129157682D01*
X-126412684Y-129171827D01*
X-126663868Y-129277858D01*
X-126889540Y-129430855D01*
X-127081028Y-129624939D01*
X-127230972Y-129852651D01*
X-127333611Y-130105240D01*
X-127385000Y-130373000D01*
X-131760000Y-130373000D01*
X-131760000Y-125400000D01*
X-127388072Y-125400000D01*
X-127375812Y-125524482D01*
X-127339502Y-125644180D01*
X-127280537Y-125754494D01*
X-127201185Y-125851185D01*
X-127104494Y-125930537D01*
X-126994180Y-125989502D01*
X-126874482Y-126025812D01*
X-126750000Y-126038072D01*
X-126285750Y-126035000D01*
X-126127000Y-125876250D01*
X-126127000Y-124527000D01*
X-127226250Y-124527000D01*
X-127385000Y-124685750D01*
X-127388072Y-125400000D01*
X-131760000Y-125400000D01*
X-131760000Y-123400000D01*
X-127388072Y-123400000D01*
X-127385000Y-124114250D01*
X-127226250Y-124273000D01*
X-126127000Y-124273000D01*
X-126127000Y-122923750D01*
X-126285750Y-122765000D01*
X-126750000Y-122761928D01*
X-126874482Y-122774188D01*
X-126994180Y-122810498D01*
X-127104494Y-122869463D01*
X-127201185Y-122948815D01*
X-127280537Y-123045506D01*
X-127339502Y-123155820D01*
X-127375812Y-123275518D01*
X-127388072Y-123400000D01*
X-131760000Y-123400000D01*
X-131760000Y-98198123D01*
X-131748977Y-91870512D01*
X-71440217Y-91870512D01*
X-71398787Y-92150130D01*
X-71303603Y-92416292D01*
X-71236671Y-92541514D01*
X-70992702Y-92613097D01*
X-70179605Y-91800000D01*
X-69820395Y-91800000D01*
X-69007298Y-92613097D01*
X-68763329Y-92541514D01*
X-68642429Y-92286004D01*
X-68573700Y-92011816D01*
X-68565724Y-91850000D01*
X-65238072Y-91850000D01*
X-65235000Y-92314250D01*
X-65076250Y-92473000D01*
X-63727000Y-92473000D01*
X-63727000Y-91373750D01*
X-63473000Y-91373750D01*
X-63473000Y-92473000D01*
X-62123750Y-92473000D01*
X-61965000Y-92314250D01*
X-61961928Y-91850000D01*
X-61974188Y-91725518D01*
X-62010498Y-91605820D01*
X-62029644Y-91570000D01*
X-55238072Y-91570000D01*
X-55235000Y-92034250D01*
X-55076250Y-92193000D01*
X-53727000Y-92193000D01*
X-53727000Y-91093750D01*
X-53473000Y-91093750D01*
X-53473000Y-92193000D01*
X-52123750Y-92193000D01*
X-51965000Y-92034250D01*
X-51961928Y-91570000D01*
X-51974188Y-91445518D01*
X-52010498Y-91325820D01*
X-52069463Y-91215506D01*
X-52148815Y-91118815D01*
X-52245506Y-91039463D01*
X-52355820Y-90980498D01*
X-52475518Y-90944188D01*
X-52600000Y-90931928D01*
X-53314250Y-90935000D01*
X-53473000Y-91093750D01*
X-53727000Y-91093750D01*
X-53885750Y-90935000D01*
X-54600000Y-90931928D01*
X-54724482Y-90944188D01*
X-54844180Y-90980498D01*
X-54954494Y-91039463D01*
X-55051185Y-91118815D01*
X-55130537Y-91215506D01*
X-55189502Y-91325820D01*
X-55225812Y-91445518D01*
X-55238072Y-91570000D01*
X-62029644Y-91570000D01*
X-62069463Y-91495506D01*
X-62148815Y-91398815D01*
X-62245506Y-91319463D01*
X-62355820Y-91260498D01*
X-62475518Y-91224188D01*
X-62600000Y-91211928D01*
X-63314250Y-91215000D01*
X-63473000Y-91373750D01*
X-63727000Y-91373750D01*
X-63885750Y-91215000D01*
X-64600000Y-91211928D01*
X-64724482Y-91224188D01*
X-64844180Y-91260498D01*
X-64954494Y-91319463D01*
X-65051185Y-91398815D01*
X-65130537Y-91495506D01*
X-65189502Y-91605820D01*
X-65225812Y-91725518D01*
X-65238072Y-91850000D01*
X-68565724Y-91850000D01*
X-68559783Y-91729488D01*
X-68601213Y-91449870D01*
X-68696397Y-91183708D01*
X-68763329Y-91058486D01*
X-69007298Y-90986903D01*
X-69820395Y-91800000D01*
X-70179605Y-91800000D01*
X-70992702Y-90986903D01*
X-71236671Y-91058486D01*
X-71357571Y-91313996D01*
X-71426300Y-91588184D01*
X-71440217Y-91870512D01*
X-131748977Y-91870512D01*
X-131747125Y-90807298D01*
X-70813097Y-90807298D01*
X-70000000Y-91620395D01*
X-69186903Y-90807298D01*
X-69258486Y-90563329D01*
X-69513996Y-90442429D01*
X-69788184Y-90373700D01*
X-70070512Y-90359783D01*
X-70350130Y-90401213D01*
X-70616292Y-90496397D01*
X-70741514Y-90563329D01*
X-70813097Y-90807298D01*
X-131747125Y-90807298D01*
X-131723219Y-77085780D01*
X-67026721Y-76460000D01*
X-32660000Y-76460000D01*
X-32659999Y-171569544D01*
%TA.AperFunction,Conductor*%
D28*
G36*
X-32659999Y-171569544D02*
G01*
X-32726562Y-190672861D01*
X-81050970Y-191140000D01*
X-131760000Y-191140000D01*
X-131760000Y-186700000D01*
X-115138072Y-186700000D01*
X-115125812Y-186824482D01*
X-115089502Y-186944180D01*
X-115030537Y-187054494D01*
X-114951185Y-187151185D01*
X-114854494Y-187230537D01*
X-114744180Y-187289502D01*
X-114624482Y-187325812D01*
X-114500000Y-187338072D01*
X-113485750Y-187335000D01*
X-113327000Y-187176250D01*
X-113327000Y-185527000D01*
X-113073000Y-185527000D01*
X-113073000Y-187176250D01*
X-112914250Y-187335000D01*
X-111900000Y-187338072D01*
X-111775518Y-187325812D01*
X-111655820Y-187289502D01*
X-111545506Y-187230537D01*
X-111448815Y-187151185D01*
X-111369463Y-187054494D01*
X-111310498Y-186944180D01*
X-111274188Y-186824482D01*
X-111261928Y-186700000D01*
X-111265000Y-185685750D01*
X-111423750Y-185527000D01*
X-113073000Y-185527000D01*
X-113327000Y-185527000D01*
X-114976250Y-185527000D01*
X-115135000Y-185685750D01*
X-115138072Y-186700000D01*
X-131760000Y-186700000D01*
X-131760000Y-184100000D01*
X-115138072Y-184100000D01*
X-115135000Y-185114250D01*
X-114976250Y-185273000D01*
X-113327000Y-185273000D01*
X-113327000Y-183623750D01*
X-113073000Y-183623750D01*
X-113073000Y-185273000D01*
X-111423750Y-185273000D01*
X-111265000Y-185114250D01*
X-111261928Y-184100000D01*
X-111274188Y-183975518D01*
X-111310498Y-183855820D01*
X-111369463Y-183745506D01*
X-111448815Y-183648815D01*
X-111545506Y-183569463D01*
X-111655820Y-183510498D01*
X-111775518Y-183474188D01*
X-111900000Y-183461928D01*
X-112914250Y-183465000D01*
X-113073000Y-183623750D01*
X-113327000Y-183623750D01*
X-113485750Y-183465000D01*
X-114500000Y-183461928D01*
X-114624482Y-183474188D01*
X-114744180Y-183510498D01*
X-114854494Y-183569463D01*
X-114951185Y-183648815D01*
X-115030537Y-183745506D01*
X-115089502Y-183855820D01*
X-115125812Y-183975518D01*
X-115138072Y-184100000D01*
X-131760000Y-184100000D01*
X-131760000Y-179137500D01*
X-124608072Y-179137500D01*
X-124608072Y-181042500D01*
X-124595812Y-181166982D01*
X-124559502Y-181286680D01*
X-124500537Y-181396994D01*
X-124421185Y-181493685D01*
X-124324494Y-181573037D01*
X-124214180Y-181632002D01*
X-124094482Y-181668312D01*
X-123970000Y-181680572D01*
X-121970000Y-181680572D01*
X-121845518Y-181668312D01*
X-121725820Y-181632002D01*
X-121615506Y-181573037D01*
X-121518815Y-181493685D01*
X-121439463Y-181396994D01*
X-121380498Y-181286680D01*
X-121344188Y-181166982D01*
X-121331928Y-181042500D01*
X-121331928Y-180975000D01*
X-113796578Y-180975000D01*
X-109967564Y-184804015D01*
X-109980639Y-184835581D01*
X-110055000Y-185209419D01*
X-110055000Y-185590581D01*
X-109980639Y-185964419D01*
X-109834775Y-186316566D01*
X-109623013Y-186633491D01*
X-109353491Y-186903013D01*
X-109036566Y-187114775D01*
X-108684419Y-187260639D01*
X-108310581Y-187335000D01*
X-107929419Y-187335000D01*
X-107555581Y-187260639D01*
X-107203434Y-187114775D01*
X-106886509Y-186903013D01*
X-106616987Y-186633491D01*
X-106405225Y-186316566D01*
X-106259361Y-185964419D01*
X-106185000Y-185590581D01*
X-106185000Y-185209419D01*
X-106259361Y-184835581D01*
X-106405225Y-184483434D01*
X-106616987Y-184166509D01*
X-106886509Y-183896987D01*
X-107203434Y-183685225D01*
X-107555581Y-183539361D01*
X-107929419Y-183465000D01*
X-108310581Y-183465000D01*
X-108684419Y-183539361D01*
X-108715985Y-183552436D01*
X-112764954Y-179503468D01*
X-112773466Y-179494956D01*
X-112801183Y-179461183D01*
X-112935941Y-179350589D01*
X-113089687Y-179268411D01*
X-113256510Y-179217805D01*
X-113386523Y-179205000D01*
X-113386531Y-179205000D01*
X-113430000Y-179200719D01*
X-113473469Y-179205000D01*
X-121331928Y-179205000D01*
X-121331928Y-179137500D01*
X-121344188Y-179013018D01*
X-121380498Y-178893320D01*
X-121439463Y-178783006D01*
X-121518815Y-178686315D01*
X-121615506Y-178606963D01*
X-121707219Y-178557941D01*
X-121594031Y-178416923D01*
X-121450429Y-178141094D01*
X-121379437Y-177922980D01*
X-121499406Y-177677000D01*
X-122843000Y-177677000D01*
X-122843000Y-177697000D01*
X-123097000Y-177697000D01*
X-123097000Y-177677000D01*
X-124440594Y-177677000D01*
X-124560563Y-177922980D01*
X-124489571Y-178141094D01*
X-124345969Y-178416923D01*
X-124232781Y-178557941D01*
X-124324494Y-178606963D01*
X-124421185Y-178686315D01*
X-124500537Y-178783006D01*
X-124559502Y-178893320D01*
X-124595812Y-179013018D01*
X-124608072Y-179137500D01*
X-131760000Y-179137500D01*
X-131760000Y-163120000D01*
X-124950572Y-163120000D01*
X-124938312Y-163244482D01*
X-124902002Y-163364180D01*
X-124843037Y-163474494D01*
X-124763685Y-163571185D01*
X-124666994Y-163650537D01*
X-124556680Y-163709502D01*
X-124436982Y-163745812D01*
X-124312500Y-163758072D01*
X-123645750Y-163755000D01*
X-123487000Y-163596250D01*
X-123487000Y-162247000D01*
X-124788750Y-162247000D01*
X-124947500Y-162405750D01*
X-124950572Y-163120000D01*
X-131760000Y-163120000D01*
X-131760000Y-161120000D01*
X-124950572Y-161120000D01*
X-124947500Y-161834250D01*
X-124788750Y-161993000D01*
X-123487000Y-161993000D01*
X-123487000Y-160643750D01*
X-123645750Y-160485000D01*
X-124312500Y-160481928D01*
X-124436982Y-160494188D01*
X-124556680Y-160530498D01*
X-124666994Y-160589463D01*
X-124763685Y-160668815D01*
X-124843037Y-160765506D01*
X-124902002Y-160875820D01*
X-124938312Y-160995518D01*
X-124950572Y-161120000D01*
X-131760000Y-161120000D01*
X-131760000Y-149927000D01*
X-124985000Y-149927000D01*
X-124985000Y-150427000D01*
X-124933611Y-150694760D01*
X-124830972Y-150947349D01*
X-124681028Y-151175061D01*
X-124489540Y-151369145D01*
X-124263868Y-151522142D01*
X-124012684Y-151628173D01*
X-123941185Y-151642318D01*
X-123727000Y-151519656D01*
X-123727000Y-149927000D01*
X-123473000Y-149927000D01*
X-123473000Y-151519656D01*
X-123258815Y-151642318D01*
X-123187316Y-151628173D01*
X-122936132Y-151522142D01*
X-122710460Y-151369145D01*
X-122518972Y-151175061D01*
X-122369028Y-150947349D01*
X-122266389Y-150694760D01*
X-122215000Y-150427000D01*
X-122215000Y-149927000D01*
X-123473000Y-149927000D01*
X-123727000Y-149927000D01*
X-124985000Y-149927000D01*
X-131760000Y-149927000D01*
X-131760000Y-149173000D01*
X-124985000Y-149173000D01*
X-124985000Y-149673000D01*
X-123727000Y-149673000D01*
X-123727000Y-148080344D01*
X-123941185Y-147957682D01*
X-124012684Y-147971827D01*
X-124263868Y-148077858D01*
X-124489540Y-148230855D01*
X-124681028Y-148424939D01*
X-124830972Y-148652651D01*
X-124933611Y-148905240D01*
X-124985000Y-149173000D01*
X-131760000Y-149173000D01*
X-131760000Y-131127000D01*
X-127385000Y-131127000D01*
X-127385000Y-131627000D01*
X-127333611Y-131894760D01*
X-127230972Y-132147349D01*
X-127081028Y-132375061D01*
X-126889540Y-132569145D01*
X-126663868Y-132722142D01*
X-126412684Y-132828173D01*
X-126341185Y-132842318D01*
X-126280411Y-132807513D01*
X-126361588Y-132959387D01*
X-126412195Y-133126210D01*
X-126429281Y-133299700D01*
X-126424999Y-133343179D01*
X-126424999Y-133434605D01*
X-126524080Y-133515919D01*
X-126697157Y-133726812D01*
X-126825764Y-133967419D01*
X-126904960Y-134228493D01*
X-126925000Y-134431963D01*
X-126925000Y-135568036D01*
X-126904960Y-135771506D01*
X-126825764Y-136032580D01*
X-126697157Y-136273187D01*
X-126524081Y-136484080D01*
X-126425000Y-136565395D01*
X-126424999Y-140634605D01*
X-126524080Y-140715919D01*
X-126697157Y-140926812D01*
X-126825764Y-141167419D01*
X-126904960Y-141428493D01*
X-126925000Y-141631963D01*
X-126925000Y-142768036D01*
X-126904960Y-142971506D01*
X-126825764Y-143232580D01*
X-126697157Y-143473187D01*
X-126524081Y-143684080D01*
X-126424999Y-143765395D01*
X-126424999Y-144134221D01*
X-126429281Y-144177700D01*
X-126412195Y-144351190D01*
X-126361588Y-144518013D01*
X-126279410Y-144671759D01*
X-126196532Y-144772746D01*
X-126196529Y-144772749D01*
X-126168816Y-144806517D01*
X-126135048Y-144834230D01*
X-122797294Y-148171985D01*
X-122936132Y-148077858D01*
X-123187316Y-147971827D01*
X-123258815Y-147957682D01*
X-123473000Y-148080344D01*
X-123473000Y-149673000D01*
X-122215000Y-149673000D01*
X-122215000Y-149173000D01*
X-122266389Y-148905240D01*
X-122369028Y-148652651D01*
X-122470061Y-148499218D01*
X-121685000Y-149284279D01*
X-121684999Y-152166514D01*
X-121685000Y-152166524D01*
X-121685000Y-152166531D01*
X-121689281Y-152210000D01*
X-121685000Y-152253469D01*
X-121684999Y-160734804D01*
X-121706235Y-160746155D01*
X-121832095Y-160849446D01*
X-121876963Y-160765506D01*
X-121956315Y-160668815D01*
X-122053006Y-160589463D01*
X-122163320Y-160530498D01*
X-122283018Y-160494188D01*
X-122407500Y-160481928D01*
X-123074250Y-160485000D01*
X-123233000Y-160643750D01*
X-123233000Y-161993000D01*
X-123213000Y-161993000D01*
X-123213000Y-162247000D01*
X-123233000Y-162247000D01*
X-123233000Y-163596250D01*
X-123074250Y-163755000D01*
X-122407500Y-163758072D01*
X-122283018Y-163745812D01*
X-122163320Y-163709502D01*
X-122053006Y-163650537D01*
X-121956315Y-163571185D01*
X-121876963Y-163474494D01*
X-121832095Y-163390553D01*
X-121706234Y-163493845D01*
X-121430448Y-163641255D01*
X-121131203Y-163732030D01*
X-120820000Y-163762681D01*
X-120508796Y-163732030D01*
X-120209551Y-163641255D01*
X-119933765Y-163493845D01*
X-119692037Y-163295463D01*
X-119550000Y-163122391D01*
X-119407963Y-163295463D01*
X-119166234Y-163493845D01*
X-119164999Y-163494505D01*
X-119165000Y-166773421D01*
X-123565048Y-171173470D01*
X-123598816Y-171201183D01*
X-123626529Y-171234951D01*
X-123626532Y-171234954D01*
X-123709410Y-171335941D01*
X-123791588Y-171489687D01*
X-123842195Y-171656510D01*
X-123859281Y-171830000D01*
X-123854999Y-171873479D01*
X-123855000Y-173657605D01*
X-123903735Y-173683655D01*
X-124145463Y-173882037D01*
X-124343845Y-174123765D01*
X-124491255Y-174399551D01*
X-124582030Y-174698796D01*
X-124612681Y-175010000D01*
X-124582030Y-175321204D01*
X-124491255Y-175620449D01*
X-124343845Y-175896235D01*
X-124145463Y-176137963D01*
X-123966101Y-176285163D01*
X-124151315Y-176440563D01*
X-124345969Y-176683077D01*
X-124489571Y-176958906D01*
X-124560563Y-177177020D01*
X-124440594Y-177423000D01*
X-123097000Y-177423000D01*
X-123097000Y-177403000D01*
X-122843000Y-177403000D01*
X-122843000Y-177423000D01*
X-121499406Y-177423000D01*
X-121379437Y-177177020D01*
X-121450429Y-176958906D01*
X-121594031Y-176683077D01*
X-121788685Y-176440563D01*
X-121973899Y-176285163D01*
X-121794537Y-176137963D01*
X-121619762Y-175925000D01*
X-103716578Y-175925000D01*
X-100545000Y-179096579D01*
X-100544999Y-187676521D01*
X-100549281Y-187720000D01*
X-100532195Y-187893490D01*
X-100481588Y-188060313D01*
X-100399410Y-188214059D01*
X-100316532Y-188315046D01*
X-100316529Y-188315049D01*
X-100288816Y-188348817D01*
X-100255049Y-188376529D01*
X-99516530Y-189115049D01*
X-99488817Y-189148817D01*
X-99455049Y-189176530D01*
X-99455047Y-189176532D01*
X-99354060Y-189259410D01*
X-99354059Y-189259411D01*
X-99200313Y-189341589D01*
X-99033490Y-189392195D01*
X-98903477Y-189405000D01*
X-98903469Y-189405000D01*
X-98860000Y-189409281D01*
X-98816531Y-189405000D01*
X-88303469Y-189405000D01*
X-88260000Y-189409281D01*
X-88216531Y-189405000D01*
X-88216523Y-189405000D01*
X-88086510Y-189392195D01*
X-87919687Y-189341589D01*
X-87765941Y-189259411D01*
X-87631183Y-189148817D01*
X-87603466Y-189115044D01*
X-86724950Y-188236529D01*
X-86691183Y-188208817D01*
X-86580589Y-188074059D01*
X-86498411Y-187920313D01*
X-86447805Y-187753490D01*
X-86435000Y-187623477D01*
X-86435000Y-187623469D01*
X-86430719Y-187580000D01*
X-86435000Y-187536531D01*
X-86435000Y-186727850D01*
X-86403434Y-186714775D01*
X-86086509Y-186503013D01*
X-85932720Y-186349224D01*
X-83409619Y-186349224D01*
X-83277683Y-186644312D01*
X-82936955Y-186815159D01*
X-82569443Y-186916250D01*
X-82189271Y-186943701D01*
X-81811049Y-186896457D01*
X-81449310Y-186776333D01*
X-81202317Y-186644312D01*
X-81070381Y-186349224D01*
X-82240000Y-185179605D01*
X-83409619Y-186349224D01*
X-85932720Y-186349224D01*
X-85816987Y-186233491D01*
X-85605225Y-185916566D01*
X-85459361Y-185564419D01*
X-85385000Y-185190581D01*
X-85385000Y-185050729D01*
X-84183701Y-185050729D01*
X-84136457Y-185428951D01*
X-84016333Y-185790690D01*
X-83884312Y-186037683D01*
X-83589224Y-186169619D01*
X-82419605Y-185000000D01*
X-82060395Y-185000000D01*
X-80890776Y-186169619D01*
X-80595688Y-186037683D01*
X-80424841Y-185696955D01*
X-80323750Y-185329443D01*
X-80296299Y-184949271D01*
X-80343543Y-184571049D01*
X-80463667Y-184209310D01*
X-80595688Y-183962317D01*
X-80890776Y-183830381D01*
X-82060395Y-185000000D01*
X-82419605Y-185000000D01*
X-83589224Y-183830381D01*
X-83884312Y-183962317D01*
X-84055159Y-184303045D01*
X-84156250Y-184670557D01*
X-84183701Y-185050729D01*
X-85385000Y-185050729D01*
X-85385000Y-184809419D01*
X-85459361Y-184435581D01*
X-85472436Y-184404014D01*
X-84719198Y-183650776D01*
X-83409619Y-183650776D01*
X-82240000Y-184820395D01*
X-81070381Y-183650776D01*
X-81202317Y-183355688D01*
X-81543045Y-183184841D01*
X-81910557Y-183083750D01*
X-82290729Y-183056299D01*
X-82668951Y-183103543D01*
X-83030690Y-183223667D01*
X-83277683Y-183355688D01*
X-83409619Y-183650776D01*
X-84719198Y-183650776D01*
X-70722162Y-169653740D01*
X-65685000Y-169653740D01*
X-65685000Y-169946260D01*
X-65627932Y-170233158D01*
X-65515990Y-170503411D01*
X-65353475Y-170746632D01*
X-65146632Y-170953475D01*
X-64903411Y-171115990D01*
X-64633158Y-171227932D01*
X-64346260Y-171285000D01*
X-64053740Y-171285000D01*
X-63766842Y-171227932D01*
X-63496589Y-171115990D01*
X-63253368Y-170953475D01*
X-63046525Y-170746632D01*
X-62884010Y-170503411D01*
X-62772068Y-170233158D01*
X-62715000Y-169946260D01*
X-62715000Y-169653740D01*
X-55785000Y-169653740D01*
X-55785000Y-169946260D01*
X-55727932Y-170233158D01*
X-55615990Y-170503411D01*
X-55453475Y-170746632D01*
X-55246632Y-170953475D01*
X-55003411Y-171115990D01*
X-54733158Y-171227932D01*
X-54446260Y-171285000D01*
X-54153740Y-171285000D01*
X-53866842Y-171227932D01*
X-53596589Y-171115990D01*
X-53353368Y-170953475D01*
X-53146525Y-170746632D01*
X-52984010Y-170503411D01*
X-52872068Y-170233158D01*
X-52815000Y-169946260D01*
X-52815000Y-169653740D01*
X-52872068Y-169366842D01*
X-52984010Y-169096589D01*
X-53081957Y-168950000D01*
X-46688072Y-168950000D01*
X-46688072Y-170650000D01*
X-46675812Y-170774482D01*
X-46639502Y-170894180D01*
X-46580537Y-171004494D01*
X-46501185Y-171101185D01*
X-46404494Y-171180537D01*
X-46294180Y-171239502D01*
X-46174482Y-171275812D01*
X-46050000Y-171288072D01*
X-44350000Y-171288072D01*
X-44225518Y-171275812D01*
X-44105820Y-171239502D01*
X-43995506Y-171180537D01*
X-43898815Y-171101185D01*
X-43819463Y-171004494D01*
X-43760498Y-170894180D01*
X-43724188Y-170774482D01*
X-43711928Y-170650000D01*
X-43711928Y-168950000D01*
X-43724188Y-168825518D01*
X-43760498Y-168705820D01*
X-43819463Y-168595506D01*
X-43898815Y-168498815D01*
X-43995506Y-168419463D01*
X-44105820Y-168360498D01*
X-44225518Y-168324188D01*
X-44350000Y-168311928D01*
X-46050000Y-168311928D01*
X-46174482Y-168324188D01*
X-46294180Y-168360498D01*
X-46404494Y-168419463D01*
X-46501185Y-168498815D01*
X-46580537Y-168595506D01*
X-46639502Y-168705820D01*
X-46675812Y-168825518D01*
X-46688072Y-168950000D01*
X-53081957Y-168950000D01*
X-53146525Y-168853368D01*
X-53353368Y-168646525D01*
X-53596589Y-168484010D01*
X-53866842Y-168372068D01*
X-54153740Y-168315000D01*
X-54446260Y-168315000D01*
X-54733158Y-168372068D01*
X-55003411Y-168484010D01*
X-55246632Y-168646525D01*
X-55453475Y-168853368D01*
X-55615990Y-169096589D01*
X-55727932Y-169366842D01*
X-55785000Y-169653740D01*
X-62715000Y-169653740D01*
X-62772068Y-169366842D01*
X-62884010Y-169096589D01*
X-63046525Y-168853368D01*
X-63253368Y-168646525D01*
X-63496589Y-168484010D01*
X-63766842Y-168372068D01*
X-64053740Y-168315000D01*
X-64346260Y-168315000D01*
X-64633158Y-168372068D01*
X-64903411Y-168484010D01*
X-65146632Y-168646525D01*
X-65353475Y-168853368D01*
X-65515990Y-169096589D01*
X-65627932Y-169366842D01*
X-65685000Y-169653740D01*
X-70722162Y-169653740D01*
X-48603214Y-147534793D01*
X-48559687Y-147521589D01*
X-48405941Y-147439411D01*
X-48271183Y-147328817D01*
X-48243466Y-147295044D01*
X-45804950Y-144856529D01*
X-45771183Y-144828817D01*
X-45660589Y-144694059D01*
X-45578411Y-144540313D01*
X-45527805Y-144373490D01*
X-45515000Y-144243477D01*
X-45515000Y-144243469D01*
X-45510719Y-144200000D01*
X-45515000Y-144156531D01*
X-45515000Y-117443465D01*
X-45510719Y-117399999D01*
X-45515000Y-117356533D01*
X-45515000Y-117356523D01*
X-45527805Y-117226510D01*
X-45578411Y-117059687D01*
X-45660589Y-116905941D01*
X-45771183Y-116771183D01*
X-45804951Y-116743470D01*
X-52604954Y-109943468D01*
X-52715000Y-109833422D01*
X-52715000Y-98730532D01*
X-52567419Y-98685764D01*
X-52326812Y-98557157D01*
X-52115919Y-98384081D01*
X-51942843Y-98173188D01*
X-51814236Y-97932581D01*
X-51735040Y-97671507D01*
X-51708299Y-97400000D01*
X-51735040Y-97128493D01*
X-51814236Y-96867419D01*
X-51942843Y-96626812D01*
X-52115919Y-96415919D01*
X-52326812Y-96242843D01*
X-52567419Y-96114236D01*
X-52723808Y-96066796D01*
X-52727805Y-96026210D01*
X-52733388Y-96007805D01*
X-52778411Y-95859386D01*
X-52860589Y-95705641D01*
X-52943468Y-95604653D01*
X-52943470Y-95604651D01*
X-52971183Y-95570883D01*
X-53004951Y-95543170D01*
X-54939651Y-93608471D01*
X-54844180Y-93659502D01*
X-54724482Y-93695812D01*
X-54600000Y-93708072D01*
X-53885750Y-93705000D01*
X-53727000Y-93546250D01*
X-53727000Y-92447000D01*
X-53473000Y-92447000D01*
X-53473000Y-93546250D01*
X-53314250Y-93705000D01*
X-52600000Y-93708072D01*
X-52475518Y-93695812D01*
X-52355820Y-93659502D01*
X-52245506Y-93600537D01*
X-52148815Y-93521185D01*
X-52069463Y-93424494D01*
X-52010498Y-93314180D01*
X-51974188Y-93194482D01*
X-51961928Y-93070000D01*
X-51965000Y-92605750D01*
X-52123750Y-92447000D01*
X-53473000Y-92447000D01*
X-53727000Y-92447000D01*
X-55076250Y-92447000D01*
X-55235000Y-92605750D01*
X-55238072Y-93070000D01*
X-55225812Y-93194482D01*
X-55189502Y-93314180D01*
X-55138471Y-93409651D01*
X-55221966Y-93326156D01*
X-55249683Y-93292383D01*
X-55384441Y-93181789D01*
X-55538187Y-93099611D01*
X-55705010Y-93049005D01*
X-55835023Y-93036200D01*
X-55835031Y-93036200D01*
X-55878500Y-93031919D01*
X-55921969Y-93036200D01*
X-61964004Y-93036200D01*
X-61965000Y-92885750D01*
X-62123750Y-92727000D01*
X-63473000Y-92727000D01*
X-63473000Y-92747000D01*
X-63727000Y-92747000D01*
X-63727000Y-92727000D01*
X-65076250Y-92727000D01*
X-65235000Y-92885750D01*
X-65235996Y-93036200D01*
X-69258348Y-93036200D01*
X-69186903Y-92792702D01*
X-70000000Y-91979605D01*
X-70813097Y-92792702D01*
X-70741652Y-93036200D01*
X-79228035Y-93036200D01*
X-79271501Y-93031919D01*
X-79314967Y-93036200D01*
X-79314977Y-93036200D01*
X-79444990Y-93049005D01*
X-79611813Y-93099611D01*
X-79765559Y-93181789D01*
X-79765561Y-93181790D01*
X-79765560Y-93181790D01*
X-79866547Y-93264668D01*
X-79866549Y-93264670D01*
X-79900317Y-93292383D01*
X-79928030Y-93326151D01*
X-91035048Y-104433170D01*
X-91068816Y-104460883D01*
X-91096529Y-104494651D01*
X-91096532Y-104494654D01*
X-91179410Y-104595641D01*
X-91261588Y-104749387D01*
X-91312195Y-104916210D01*
X-91329281Y-105089700D01*
X-91324999Y-105133179D01*
X-91324999Y-105436398D01*
X-91434080Y-105525919D01*
X-91607157Y-105736812D01*
X-91722486Y-105952578D01*
X-91759028Y-105862651D01*
X-91908972Y-105634939D01*
X-92100460Y-105440855D01*
X-92326132Y-105287858D01*
X-92577316Y-105181827D01*
X-92648815Y-105167682D01*
X-92863000Y-105290344D01*
X-92863000Y-106883000D01*
X-92843000Y-106883000D01*
X-92843000Y-107137000D01*
X-92863000Y-107137000D01*
X-92863000Y-108729656D01*
X-92648815Y-108852318D01*
X-92577316Y-108838173D01*
X-92326132Y-108732142D01*
X-92100460Y-108579145D01*
X-91908972Y-108385061D01*
X-91759028Y-108157349D01*
X-91722486Y-108067421D01*
X-91607157Y-108283187D01*
X-91434081Y-108494080D01*
X-91223188Y-108667157D01*
X-90982581Y-108795764D01*
X-90721507Y-108874960D01*
X-90450000Y-108901701D01*
X-90178494Y-108874960D01*
X-89917420Y-108795764D01*
X-89676813Y-108667157D01*
X-89465920Y-108494081D01*
X-89295473Y-108286392D01*
X-89285812Y-108384482D01*
X-89249502Y-108504180D01*
X-89190537Y-108614494D01*
X-89111185Y-108711185D01*
X-89014494Y-108790537D01*
X-88904180Y-108849502D01*
X-88785000Y-108885655D01*
X-88785000Y-108933421D01*
X-89206578Y-109355000D01*
X-92903421Y-109355000D01*
X-93365000Y-108893422D01*
X-93365000Y-108845628D01*
X-93331185Y-108852318D01*
X-93117000Y-108729656D01*
X-93117000Y-107137000D01*
X-93137000Y-107137000D01*
X-93137000Y-106883000D01*
X-93117000Y-106883000D01*
X-93117000Y-105290344D01*
X-93331185Y-105167682D01*
X-93365000Y-105174372D01*
X-93365000Y-103393469D01*
X-93360719Y-103350000D01*
X-93365000Y-103306531D01*
X-93365000Y-103306523D01*
X-93377805Y-103176510D01*
X-93428411Y-103009687D01*
X-93510589Y-102855941D01*
X-93548035Y-102810313D01*
X-93593468Y-102754953D01*
X-93593470Y-102754951D01*
X-93621183Y-102721183D01*
X-93654950Y-102693471D01*
X-94543466Y-101804956D01*
X-94571183Y-101771183D01*
X-94705941Y-101660589D01*
X-94859687Y-101578411D01*
X-95026510Y-101527805D01*
X-95156523Y-101515000D01*
X-95156531Y-101515000D01*
X-95200000Y-101510719D01*
X-95243469Y-101515000D01*
X-104356535Y-101515000D01*
X-104400001Y-101510719D01*
X-104443467Y-101515000D01*
X-104443477Y-101515000D01*
X-104573490Y-101527805D01*
X-104740313Y-101578411D01*
X-104894059Y-101660589D01*
X-104894061Y-101660590D01*
X-104894060Y-101660590D01*
X-104995047Y-101743468D01*
X-104995049Y-101743470D01*
X-105028817Y-101771183D01*
X-105056530Y-101804951D01*
X-124055048Y-120803470D01*
X-124088816Y-120831183D01*
X-124116529Y-120864951D01*
X-124116532Y-120864954D01*
X-124199410Y-120965941D01*
X-124281588Y-121119687D01*
X-124332195Y-121286510D01*
X-124349281Y-121460000D01*
X-124344999Y-121503479D01*
X-124344999Y-122834605D01*
X-124444081Y-122915920D01*
X-124617157Y-123126813D01*
X-124650420Y-123189043D01*
X-124660498Y-123155820D01*
X-124719463Y-123045506D01*
X-124798815Y-122948815D01*
X-124895506Y-122869463D01*
X-125005820Y-122810498D01*
X-125125518Y-122774188D01*
X-125250000Y-122761928D01*
X-125714250Y-122765000D01*
X-125873000Y-122923750D01*
X-125873000Y-124273000D01*
X-125853000Y-124273000D01*
X-125853000Y-124527000D01*
X-125873000Y-124527000D01*
X-125873000Y-125876250D01*
X-125714250Y-126035000D01*
X-125250000Y-126038072D01*
X-125125518Y-126025812D01*
X-125005820Y-125989502D01*
X-124895506Y-125930537D01*
X-124798815Y-125851185D01*
X-124719463Y-125754494D01*
X-124660498Y-125644180D01*
X-124650420Y-125610957D01*
X-124617157Y-125673188D01*
X-124444080Y-125884081D01*
X-124344999Y-125965395D01*
X-124345000Y-130853121D01*
X-124618879Y-131127000D01*
X-125873000Y-131127000D01*
X-125873000Y-131147000D01*
X-126127000Y-131147000D01*
X-126127000Y-131127000D01*
X-127385000Y-131127000D01*
X-131760000Y-131127000D01*
X-131760000Y-130373000D01*
X-127385000Y-130373000D01*
X-127385000Y-130873000D01*
X-126127000Y-130873000D01*
X-126127000Y-129280344D01*
X-125873000Y-129280344D01*
X-125873000Y-130873000D01*
X-124615000Y-130873000D01*
X-124615000Y-130373000D01*
X-124666389Y-130105240D01*
X-124769028Y-129852651D01*
X-124918972Y-129624939D01*
X-125110460Y-129430855D01*
X-125336132Y-129277858D01*
X-125587316Y-129171827D01*
X-125658815Y-129157682D01*
X-125873000Y-129280344D01*
X-126127000Y-129280344D01*
X-126341185Y-129157682D01*
X-126412684Y-129171827D01*
X-126663868Y-129277858D01*
X-126889540Y-129430855D01*
X-127081028Y-129624939D01*
X-127230972Y-129852651D01*
X-127333611Y-130105240D01*
X-127385000Y-130373000D01*
X-131760000Y-130373000D01*
X-131760000Y-125400000D01*
X-127388072Y-125400000D01*
X-127375812Y-125524482D01*
X-127339502Y-125644180D01*
X-127280537Y-125754494D01*
X-127201185Y-125851185D01*
X-127104494Y-125930537D01*
X-126994180Y-125989502D01*
X-126874482Y-126025812D01*
X-126750000Y-126038072D01*
X-126285750Y-126035000D01*
X-126127000Y-125876250D01*
X-126127000Y-124527000D01*
X-127226250Y-124527000D01*
X-127385000Y-124685750D01*
X-127388072Y-125400000D01*
X-131760000Y-125400000D01*
X-131760000Y-123400000D01*
X-127388072Y-123400000D01*
X-127385000Y-124114250D01*
X-127226250Y-124273000D01*
X-126127000Y-124273000D01*
X-126127000Y-122923750D01*
X-126285750Y-122765000D01*
X-126750000Y-122761928D01*
X-126874482Y-122774188D01*
X-126994180Y-122810498D01*
X-127104494Y-122869463D01*
X-127201185Y-122948815D01*
X-127280537Y-123045506D01*
X-127339502Y-123155820D01*
X-127375812Y-123275518D01*
X-127388072Y-123400000D01*
X-131760000Y-123400000D01*
X-131760000Y-98198123D01*
X-131748977Y-91870512D01*
X-71440217Y-91870512D01*
X-71398787Y-92150130D01*
X-71303603Y-92416292D01*
X-71236671Y-92541514D01*
X-70992702Y-92613097D01*
X-70179605Y-91800000D01*
X-69820395Y-91800000D01*
X-69007298Y-92613097D01*
X-68763329Y-92541514D01*
X-68642429Y-92286004D01*
X-68573700Y-92011816D01*
X-68565724Y-91850000D01*
X-65238072Y-91850000D01*
X-65235000Y-92314250D01*
X-65076250Y-92473000D01*
X-63727000Y-92473000D01*
X-63727000Y-91373750D01*
X-63473000Y-91373750D01*
X-63473000Y-92473000D01*
X-62123750Y-92473000D01*
X-61965000Y-92314250D01*
X-61961928Y-91850000D01*
X-61974188Y-91725518D01*
X-62010498Y-91605820D01*
X-62029644Y-91570000D01*
X-55238072Y-91570000D01*
X-55235000Y-92034250D01*
X-55076250Y-92193000D01*
X-53727000Y-92193000D01*
X-53727000Y-91093750D01*
X-53473000Y-91093750D01*
X-53473000Y-92193000D01*
X-52123750Y-92193000D01*
X-51965000Y-92034250D01*
X-51961928Y-91570000D01*
X-51974188Y-91445518D01*
X-52010498Y-91325820D01*
X-52069463Y-91215506D01*
X-52148815Y-91118815D01*
X-52245506Y-91039463D01*
X-52355820Y-90980498D01*
X-52475518Y-90944188D01*
X-52600000Y-90931928D01*
X-53314250Y-90935000D01*
X-53473000Y-91093750D01*
X-53727000Y-91093750D01*
X-53885750Y-90935000D01*
X-54600000Y-90931928D01*
X-54724482Y-90944188D01*
X-54844180Y-90980498D01*
X-54954494Y-91039463D01*
X-55051185Y-91118815D01*
X-55130537Y-91215506D01*
X-55189502Y-91325820D01*
X-55225812Y-91445518D01*
X-55238072Y-91570000D01*
X-62029644Y-91570000D01*
X-62069463Y-91495506D01*
X-62148815Y-91398815D01*
X-62245506Y-91319463D01*
X-62355820Y-91260498D01*
X-62475518Y-91224188D01*
X-62600000Y-91211928D01*
X-63314250Y-91215000D01*
X-63473000Y-91373750D01*
X-63727000Y-91373750D01*
X-63885750Y-91215000D01*
X-64600000Y-91211928D01*
X-64724482Y-91224188D01*
X-64844180Y-91260498D01*
X-64954494Y-91319463D01*
X-65051185Y-91398815D01*
X-65130537Y-91495506D01*
X-65189502Y-91605820D01*
X-65225812Y-91725518D01*
X-65238072Y-91850000D01*
X-68565724Y-91850000D01*
X-68559783Y-91729488D01*
X-68601213Y-91449870D01*
X-68696397Y-91183708D01*
X-68763329Y-91058486D01*
X-69007298Y-90986903D01*
X-69820395Y-91800000D01*
X-70179605Y-91800000D01*
X-70992702Y-90986903D01*
X-71236671Y-91058486D01*
X-71357571Y-91313996D01*
X-71426300Y-91588184D01*
X-71440217Y-91870512D01*
X-131748977Y-91870512D01*
X-131747125Y-90807298D01*
X-70813097Y-90807298D01*
X-70000000Y-91620395D01*
X-69186903Y-90807298D01*
X-69258486Y-90563329D01*
X-69513996Y-90442429D01*
X-69788184Y-90373700D01*
X-70070512Y-90359783D01*
X-70350130Y-90401213D01*
X-70616292Y-90496397D01*
X-70741514Y-90563329D01*
X-70813097Y-90807298D01*
X-131747125Y-90807298D01*
X-131723219Y-77085780D01*
X-67026721Y-76460000D01*
X-32660000Y-76460000D01*
X-32659999Y-171569544D01*
G37*
%TD.AperFunction*%
D27*
X-65464960Y-97408493D02*
X-65491701Y-97680000D01*
X-65464960Y-97951507D01*
X-65385764Y-98212581D01*
X-65257157Y-98453188D01*
X-65084081Y-98664081D01*
X-64873188Y-98837157D01*
X-64632581Y-98965764D01*
X-64371507Y-99044960D01*
X-64168037Y-99065000D01*
X-63376578Y-99065000D01*
X-59604999Y-102836580D01*
X-59605000Y-118425392D01*
X-59630382Y-118450774D01*
X-59762317Y-118155688D01*
X-60103045Y-117984841D01*
X-60470557Y-117883750D01*
X-60850729Y-117856299D01*
X-61228951Y-117903543D01*
X-61590690Y-118023667D01*
X-61837683Y-118155688D01*
X-61969619Y-118450776D01*
X-60800000Y-119620395D01*
X-60785858Y-119606253D01*
X-60606253Y-119785858D01*
X-60620395Y-119800000D01*
X-60606253Y-119814143D01*
X-60785858Y-119993748D01*
X-60800000Y-119979605D01*
X-61969619Y-121149224D01*
X-61837683Y-121444312D01*
X-61496955Y-121615159D01*
X-61129443Y-121716250D01*
X-60749271Y-121743701D01*
X-60371049Y-121696457D01*
X-60009310Y-121576333D01*
X-59762317Y-121444312D01*
X-59630382Y-121149226D01*
X-59605000Y-121174608D01*
X-59605000Y-121823421D01*
X-78636578Y-140855000D01*
X-80734605Y-140855000D01*
X-80815919Y-140755919D01*
X-81026812Y-140582843D01*
X-81237927Y-140470000D01*
X-81026812Y-140357157D01*
X-80815919Y-140184081D01*
X-80642843Y-139973188D01*
X-80514236Y-139732581D01*
X-80435040Y-139471507D01*
X-80408299Y-139200000D01*
X-80435040Y-138928493D01*
X-80514236Y-138667419D01*
X-80642843Y-138426812D01*
X-80815919Y-138215919D01*
X-81026812Y-138042843D01*
X-81237927Y-137930000D01*
X-81026812Y-137817157D01*
X-80815919Y-137644081D01*
X-80642843Y-137433188D01*
X-80514236Y-137192581D01*
X-80435040Y-136931507D01*
X-80408299Y-136660000D01*
X-80435040Y-136388493D01*
X-80514236Y-136127419D01*
X-80642843Y-135886812D01*
X-80815919Y-135675919D01*
X-81026812Y-135502843D01*
X-81237927Y-135390000D01*
X-81026812Y-135277157D01*
X-80815919Y-135104081D01*
X-80642843Y-134893188D01*
X-80514236Y-134652581D01*
X-80435040Y-134391507D01*
X-80408299Y-134120000D01*
X-80435040Y-133848493D01*
X-80514236Y-133587419D01*
X-80642843Y-133346812D01*
X-80815919Y-133135919D01*
X-81023608Y-132965473D01*
X-80925518Y-132955812D01*
X-80805820Y-132919502D01*
X-80695506Y-132860537D01*
X-80598815Y-132781185D01*
X-80519463Y-132684494D01*
X-80460498Y-132574180D01*
X-80424188Y-132454482D01*
X-80411928Y-132330000D01*
X-80415000Y-131865750D01*
X-80573750Y-131707000D01*
X-82173000Y-131707000D01*
X-82173000Y-131727000D01*
X-82427000Y-131727000D01*
X-82427000Y-131707000D01*
X-84026250Y-131707000D01*
X-84185000Y-131865750D01*
X-84188072Y-132330000D01*
X-84175812Y-132454482D01*
X-84139502Y-132574180D01*
X-84080537Y-132684494D01*
X-84001185Y-132781185D01*
X-83904494Y-132860537D01*
X-83794180Y-132919502D01*
X-83674482Y-132955812D01*
X-83576392Y-132965473D01*
X-83784081Y-133135919D01*
X-83957157Y-133346812D01*
X-84085764Y-133587419D01*
X-84164960Y-133848493D01*
X-84191701Y-134120000D01*
X-84164960Y-134391507D01*
X-84085764Y-134652581D01*
X-83957157Y-134893188D01*
X-83784081Y-135104081D01*
X-83573188Y-135277157D01*
X-83362073Y-135390000D01*
X-83573188Y-135502843D01*
X-83784081Y-135675919D01*
X-83957157Y-135886812D01*
X-84085764Y-136127419D01*
X-84164960Y-136388493D01*
X-84191701Y-136660000D01*
X-84164960Y-136931507D01*
X-84085764Y-137192581D01*
X-83957157Y-137433188D01*
X-83784081Y-137644081D01*
X-83573188Y-137817157D01*
X-83362073Y-137930000D01*
X-83573188Y-138042843D01*
X-83784081Y-138215919D01*
X-83865395Y-138315000D01*
X-84756535Y-138315000D01*
X-84800001Y-138310719D01*
X-84843467Y-138315000D01*
X-84843477Y-138315000D01*
X-84973490Y-138327805D01*
X-85140313Y-138378411D01*
X-85294059Y-138460589D01*
X-85294061Y-138460590D01*
X-85294060Y-138460590D01*
X-85395047Y-138543468D01*
X-85395049Y-138543470D01*
X-85428817Y-138571183D01*
X-85456530Y-138604951D01*
X-86595049Y-139743471D01*
X-86628816Y-139771183D01*
X-86656529Y-139804951D01*
X-86656532Y-139804954D01*
X-86739410Y-139905941D01*
X-86821588Y-140059687D01*
X-86872195Y-140226510D01*
X-86889281Y-140400000D01*
X-86884999Y-140443479D01*
X-86885000Y-149156531D01*
X-86889281Y-149200000D01*
X-86885000Y-149243469D01*
X-86885000Y-149243476D01*
X-86872195Y-149373489D01*
X-86821589Y-149540312D01*
X-86739411Y-149694058D01*
X-86628817Y-149828817D01*
X-86595044Y-149856534D01*
X-85226530Y-151225049D01*
X-85198817Y-151258817D01*
X-85165049Y-151286530D01*
X-85165047Y-151286532D01*
X-85142601Y-151304953D01*
X-85064059Y-151369411D01*
X-84910313Y-151451589D01*
X-84743490Y-151502195D01*
X-84613477Y-151515000D01*
X-84613467Y-151515000D01*
X-84570001Y-151519281D01*
X-84526535Y-151515000D01*
X-84130532Y-151515000D01*
X-84164960Y-151628493D01*
X-84191701Y-151900000D01*
X-84164960Y-152171507D01*
X-84085764Y-152432581D01*
X-83957157Y-152673188D01*
X-83784081Y-152884081D01*
X-83573188Y-153057157D01*
X-83362073Y-153170000D01*
X-83573188Y-153282843D01*
X-83784081Y-153455919D01*
X-83957157Y-153666812D01*
X-84085764Y-153907419D01*
X-84164960Y-154168493D01*
X-84191701Y-154440000D01*
X-84164960Y-154711507D01*
X-84085764Y-154972581D01*
X-83957157Y-155213188D01*
X-83784081Y-155424081D01*
X-83573188Y-155597157D01*
X-83362073Y-155710000D01*
X-83573188Y-155822843D01*
X-83784081Y-155995919D01*
X-83957157Y-156206812D01*
X-84085764Y-156447419D01*
X-84164960Y-156708493D01*
X-84191701Y-156980000D01*
X-84164960Y-157251507D01*
X-84085764Y-157512581D01*
X-83957157Y-157753188D01*
X-83784081Y-157964081D01*
X-83573188Y-158137157D01*
X-83362073Y-158250000D01*
X-83573188Y-158362843D01*
X-83784081Y-158535919D01*
X-83957157Y-158746812D01*
X-84085764Y-158987419D01*
X-84164960Y-159248493D01*
X-84191701Y-159520000D01*
X-84164960Y-159791507D01*
X-84085764Y-160052581D01*
X-83957157Y-160293188D01*
X-83784081Y-160504081D01*
X-83573188Y-160677157D01*
X-83362073Y-160790000D01*
X-83573188Y-160902843D01*
X-83784081Y-161075919D01*
X-83957157Y-161286812D01*
X-84085764Y-161527419D01*
X-84164960Y-161788493D01*
X-84191701Y-162060000D01*
X-84164960Y-162331507D01*
X-84085764Y-162592581D01*
X-83957157Y-162833188D01*
X-83784081Y-163044081D01*
X-83573188Y-163217157D01*
X-83362073Y-163330000D01*
X-83573188Y-163442843D01*
X-83784081Y-163615919D01*
X-83865395Y-163715000D01*
X-83956835Y-163715000D01*
X-84000301Y-163710719D01*
X-84043767Y-163715000D01*
X-84043777Y-163715000D01*
X-84173790Y-163727805D01*
X-84340613Y-163778411D01*
X-84494359Y-163860589D01*
X-84494361Y-163860590D01*
X-84494360Y-163860590D01*
X-84595347Y-163943468D01*
X-84595349Y-163943470D01*
X-84629117Y-163971183D01*
X-84656830Y-164004951D01*
X-90976078Y-170324200D01*
X-108134221Y-170324200D01*
X-110415000Y-168043422D01*
X-110415000Y-165350000D01*
X-109588072Y-165350000D01*
X-109575812Y-165474482D01*
X-109539502Y-165594180D01*
X-109480537Y-165704494D01*
X-109401185Y-165801185D01*
X-109304494Y-165880537D01*
X-109194180Y-165939502D01*
X-109074482Y-165975812D01*
X-108950000Y-165988072D01*
X-107985750Y-165985000D01*
X-107827000Y-165826250D01*
X-107827000Y-164727000D01*
X-107573000Y-164727000D01*
X-107573000Y-165826250D01*
X-107414250Y-165985000D01*
X-106450000Y-165988072D01*
X-106325518Y-165975812D01*
X-106205820Y-165939502D01*
X-106095506Y-165880537D01*
X-105998815Y-165801185D01*
X-105919463Y-165704494D01*
X-105860498Y-165594180D01*
X-105824188Y-165474482D01*
X-105811928Y-165350000D01*
X-105815000Y-164885750D01*
X-105973750Y-164727000D01*
X-107573000Y-164727000D01*
X-107827000Y-164727000D01*
X-109426250Y-164727000D01*
X-109585000Y-164885750D01*
X-109588072Y-165350000D01*
X-110415000Y-165350000D01*
X-110415000Y-161973611D01*
X-110397005Y-161914290D01*
X-110379919Y-161740800D01*
X-110397005Y-161567310D01*
X-110447611Y-161400486D01*
X-110529789Y-161246741D01*
X-110612668Y-161145753D01*
X-110612670Y-161145751D01*
X-110640383Y-161111983D01*
X-110674151Y-161084270D01*
X-119915000Y-151843422D01*
X-119915000Y-148961165D01*
X-119910719Y-148917699D01*
X-119915000Y-148874233D01*
X-119915000Y-148874223D01*
X-119927805Y-148744210D01*
X-119978411Y-148577387D01*
X-120060589Y-148423641D01*
X-120108042Y-148365820D01*
X-120143468Y-148322653D01*
X-120143470Y-148322651D01*
X-120171183Y-148288883D01*
X-120204949Y-148261172D01*
X-124655000Y-143811122D01*
X-124655000Y-143765394D01*
X-124555920Y-143684081D01*
X-124382843Y-143473188D01*
X-124349580Y-143410957D01*
X-124339502Y-143444180D01*
X-124280537Y-143554494D01*
X-124201185Y-143651185D01*
X-124104494Y-143730537D01*
X-123994180Y-143789502D01*
X-123874482Y-143825812D01*
X-123750000Y-143838072D01*
X-122250000Y-143838072D01*
X-122125518Y-143825812D01*
X-122005820Y-143789502D01*
X-121895506Y-143730537D01*
X-121798815Y-143651185D01*
X-121727406Y-143564172D01*
X-118471579Y-146820000D01*
X-119115049Y-147463471D01*
X-119148816Y-147491183D01*
X-119176529Y-147524951D01*
X-119176532Y-147524954D01*
X-119259410Y-147625941D01*
X-119341588Y-147779687D01*
X-119392195Y-147946510D01*
X-119409281Y-148120000D01*
X-119404999Y-148163479D01*
X-119404999Y-148234605D01*
X-119504081Y-148315920D01*
X-119677157Y-148526813D01*
X-119805764Y-148767420D01*
X-119884960Y-149028494D01*
X-119905000Y-149231964D01*
X-119905000Y-150368037D01*
X-119884960Y-150571507D01*
X-119805764Y-150832581D01*
X-119677157Y-151073188D01*
X-119504080Y-151284081D01*
X-119293187Y-151457157D01*
X-119052580Y-151585764D01*
X-118791506Y-151664960D01*
X-118520000Y-151691701D01*
X-118248493Y-151664960D01*
X-117987419Y-151585764D01*
X-117746812Y-151457157D01*
X-117535919Y-151284081D01*
X-117362843Y-151073188D01*
X-117234236Y-150832581D01*
X-117155040Y-150571507D01*
X-117135000Y-150368037D01*
X-117135000Y-149231963D01*
X-117155040Y-149028493D01*
X-117234236Y-148767419D01*
X-117362843Y-148526812D01*
X-117503655Y-148355233D01*
X-116853421Y-147705000D01*
X-111276579Y-147705000D01*
X-111815044Y-148243466D01*
X-111848817Y-148271183D01*
X-111959411Y-148405942D01*
X-112041589Y-148559688D01*
X-112092195Y-148726511D01*
X-112105000Y-148856524D01*
X-112105000Y-148856531D01*
X-112109281Y-148900000D01*
X-112105000Y-148943469D01*
X-112104999Y-151076521D01*
X-112109281Y-151120000D01*
X-112092195Y-151293490D01*
X-112041588Y-151460313D01*
X-111959410Y-151614059D01*
X-111876532Y-151715046D01*
X-111876529Y-151715049D01*
X-111848816Y-151748817D01*
X-111815049Y-151776529D01*
X-111096530Y-152495049D01*
X-111068817Y-152528817D01*
X-111035049Y-152556530D01*
X-111035047Y-152556532D01*
X-110934059Y-152639411D01*
X-110780314Y-152721589D01*
X-110613490Y-152772195D01*
X-110483477Y-152785000D01*
X-110483469Y-152785000D01*
X-110440000Y-152789281D01*
X-110396531Y-152785000D01*
X-109265395Y-152785000D01*
X-109184081Y-152884081D01*
X-108973188Y-153057157D01*
X-108762073Y-153170000D01*
X-108973188Y-153282843D01*
X-109184081Y-153455919D01*
X-109357157Y-153666812D01*
X-109485764Y-153907419D01*
X-109564960Y-154168493D01*
X-109591701Y-154440000D01*
X-109564960Y-154711507D01*
X-109485764Y-154972581D01*
X-109357157Y-155213188D01*
X-109184081Y-155424081D01*
X-108973188Y-155597157D01*
X-108762073Y-155710000D01*
X-108973188Y-155822843D01*
X-109184081Y-155995919D01*
X-109357157Y-156206812D01*
X-109485764Y-156447419D01*
X-109564960Y-156708493D01*
X-109591701Y-156980000D01*
X-109564960Y-157251507D01*
X-109485764Y-157512581D01*
X-109357157Y-157753188D01*
X-109184081Y-157964081D01*
X-108973188Y-158137157D01*
X-108762073Y-158250000D01*
X-108973188Y-158362843D01*
X-109184081Y-158535919D01*
X-109357157Y-158746812D01*
X-109485764Y-158987419D01*
X-109564960Y-159248493D01*
X-109591701Y-159520000D01*
X-109564960Y-159791507D01*
X-109485764Y-160052581D01*
X-109357157Y-160293188D01*
X-109184081Y-160504081D01*
X-108973188Y-160677157D01*
X-108762073Y-160790000D01*
X-108973188Y-160902843D01*
X-109184081Y-161075919D01*
X-109357157Y-161286812D01*
X-109485764Y-161527419D01*
X-109564960Y-161788493D01*
X-109591701Y-162060000D01*
X-109564960Y-162331507D01*
X-109485764Y-162592581D01*
X-109357157Y-162833188D01*
X-109184081Y-163044081D01*
X-108976392Y-163214527D01*
X-109074482Y-163224188D01*
X-109194180Y-163260498D01*
X-109304494Y-163319463D01*
X-109401185Y-163398815D01*
X-109480537Y-163495506D01*
X-109539502Y-163605820D01*
X-109575812Y-163725518D01*
X-109588072Y-163850000D01*
X-109585000Y-164314250D01*
X-109426250Y-164473000D01*
X-107827000Y-164473000D01*
X-107827000Y-164453000D01*
X-107573000Y-164453000D01*
X-107573000Y-164473000D01*
X-105973750Y-164473000D01*
X-105815000Y-164314250D01*
X-105811928Y-163850000D01*
X-105824188Y-163725518D01*
X-105860498Y-163605820D01*
X-105919463Y-163495506D01*
X-105998815Y-163398815D01*
X-106095506Y-163319463D01*
X-106205820Y-163260498D01*
X-106325518Y-163224188D01*
X-106423608Y-163214527D01*
X-106215919Y-163044081D01*
X-106042843Y-162833188D01*
X-105914236Y-162592581D01*
X-105835040Y-162331507D01*
X-105808299Y-162060000D01*
X-105835040Y-161788493D01*
X-105914236Y-161527419D01*
X-106042843Y-161286812D01*
X-106215919Y-161075919D01*
X-106426812Y-160902843D01*
X-106637927Y-160790000D01*
X-106426812Y-160677157D01*
X-106215919Y-160504081D01*
X-106042843Y-160293188D01*
X-105914236Y-160052581D01*
X-105835040Y-159791507D01*
X-105808299Y-159520000D01*
X-105835040Y-159248493D01*
X-105914236Y-158987419D01*
X-106042843Y-158746812D01*
X-106215919Y-158535919D01*
X-106426812Y-158362843D01*
X-106637927Y-158250000D01*
X-106426812Y-158137157D01*
X-106215919Y-157964081D01*
X-106042843Y-157753188D01*
X-105914236Y-157512581D01*
X-105835040Y-157251507D01*
X-105808299Y-156980000D01*
X-105835040Y-156708493D01*
X-105914236Y-156447419D01*
X-106042843Y-156206812D01*
X-106215919Y-155995919D01*
X-106426812Y-155822843D01*
X-106637927Y-155710000D01*
X-106426812Y-155597157D01*
X-106215919Y-155424081D01*
X-106042843Y-155213188D01*
X-105914236Y-154972581D01*
X-105835040Y-154711507D01*
X-105808299Y-154440000D01*
X-105835040Y-154168493D01*
X-105914236Y-153907419D01*
X-106042843Y-153666812D01*
X-106215919Y-153455919D01*
X-106426812Y-153282843D01*
X-106637927Y-153170000D01*
X-106426812Y-153057157D01*
X-106215919Y-152884081D01*
X-106042843Y-152673188D01*
X-105914236Y-152432581D01*
X-105835040Y-152171507D01*
X-105808299Y-151900000D01*
X-105835040Y-151628493D01*
X-105914236Y-151367419D01*
X-106042843Y-151126812D01*
X-106215919Y-150915919D01*
X-106423608Y-150745473D01*
X-106325518Y-150735812D01*
X-106205820Y-150699502D01*
X-106095506Y-150640537D01*
X-105998815Y-150561185D01*
X-105919463Y-150464494D01*
X-105860498Y-150354180D01*
X-105824188Y-150234482D01*
X-105811928Y-150110000D01*
X-105815000Y-149645750D01*
X-105973750Y-149487000D01*
X-107573000Y-149487000D01*
X-107573000Y-149507000D01*
X-107827000Y-149507000D01*
X-107827000Y-149487000D01*
X-109426250Y-149487000D01*
X-109585000Y-149645750D01*
X-109588072Y-150110000D01*
X-109575812Y-150234482D01*
X-109539502Y-150354180D01*
X-109480537Y-150464494D01*
X-109401185Y-150561185D01*
X-109304494Y-150640537D01*
X-109194180Y-150699502D01*
X-109074482Y-150735812D01*
X-108976392Y-150745473D01*
X-109184081Y-150915919D01*
X-109265395Y-151015000D01*
X-110073421Y-151015000D01*
X-110335000Y-150753422D01*
X-110335000Y-149266578D01*
X-110113420Y-149044999D01*
X-109585194Y-149044999D01*
X-109585000Y-149074250D01*
X-109426250Y-149233000D01*
X-107827000Y-149233000D01*
X-107827000Y-149213000D01*
X-107573000Y-149213000D01*
X-107573000Y-149233000D01*
X-105973750Y-149233000D01*
X-105815000Y-149074250D01*
X-105813559Y-148856421D01*
X-105731182Y-148788816D01*
X-105703465Y-148755043D01*
X-103804951Y-146856530D01*
X-103771183Y-146828817D01*
X-103660589Y-146694059D01*
X-103578411Y-146540313D01*
X-103527805Y-146373490D01*
X-103515000Y-146243477D01*
X-103515000Y-146243467D01*
X-103510719Y-146200001D01*
X-103515000Y-146156535D01*
X-103515000Y-144843465D01*
X-103510719Y-144799999D01*
X-103515000Y-144756533D01*
X-103515000Y-144756523D01*
X-103527805Y-144626510D01*
X-103578411Y-144459687D01*
X-103660589Y-144305941D01*
X-103711853Y-144243476D01*
X-103743468Y-144204953D01*
X-103743470Y-144204951D01*
X-103771183Y-144171183D01*
X-103804950Y-144143471D01*
X-105533466Y-142414956D01*
X-105561183Y-142381183D01*
X-105695941Y-142270589D01*
X-105849687Y-142188411D01*
X-105885416Y-142177573D01*
X-105835040Y-142011507D01*
X-105808299Y-141740000D01*
X-105835040Y-141468493D01*
X-105914236Y-141207419D01*
X-106042843Y-140966812D01*
X-106215919Y-140755919D01*
X-106426812Y-140582843D01*
X-106637927Y-140470000D01*
X-106426812Y-140357157D01*
X-106215919Y-140184081D01*
X-106134605Y-140085000D01*
X-106043176Y-140085000D01*
X-105999700Y-140089282D01*
X-105826210Y-140072195D01*
X-105659387Y-140021589D01*
X-105505641Y-139939411D01*
X-105370883Y-139828817D01*
X-105260289Y-139694059D01*
X-105178111Y-139540313D01*
X-105127505Y-139373490D01*
X-105114700Y-139243477D01*
X-105110418Y-139200000D01*
X-105114700Y-139156523D01*
X-105114700Y-136203569D01*
X-105110419Y-136160100D01*
X-105114700Y-136116631D01*
X-105114700Y-136116623D01*
X-105127505Y-135986610D01*
X-105178111Y-135819787D01*
X-105260289Y-135666041D01*
X-105296770Y-135621589D01*
X-105343168Y-135565053D01*
X-105343170Y-135565051D01*
X-105370883Y-135531283D01*
X-105404650Y-135503571D01*
X-105903222Y-135005000D01*
X-104563469Y-135005000D01*
X-104520000Y-135009281D01*
X-104476531Y-135005000D01*
X-104476523Y-135005000D01*
X-104346510Y-134992195D01*
X-104179687Y-134941589D01*
X-104025941Y-134859411D01*
X-103891183Y-134748817D01*
X-103863466Y-134715044D01*
X-97464951Y-128316530D01*
X-97431183Y-128288817D01*
X-97320589Y-128154059D01*
X-97238411Y-128000314D01*
X-97187805Y-127833490D01*
X-97184508Y-127800017D01*
X-97175000Y-127703477D01*
X-97175000Y-127703469D01*
X-97170719Y-127660000D01*
X-97175000Y-127616531D01*
X-97175000Y-118800000D01*
X-84191701Y-118800000D01*
X-84164960Y-119071507D01*
X-84085764Y-119332581D01*
X-83957157Y-119573188D01*
X-83784081Y-119784081D01*
X-83573188Y-119957157D01*
X-83433301Y-120031928D01*
X-83550000Y-120031928D01*
X-83674482Y-120044188D01*
X-83794180Y-120080498D01*
X-83904494Y-120139463D01*
X-84001185Y-120218815D01*
X-84080537Y-120315506D01*
X-84139502Y-120425820D01*
X-84175812Y-120545518D01*
X-84188072Y-120670000D01*
X-84188072Y-122170000D01*
X-84175812Y-122294482D01*
X-84139502Y-122414180D01*
X-84080537Y-122524494D01*
X-84001185Y-122621185D01*
X-83904494Y-122700537D01*
X-83794180Y-122759502D01*
X-83674482Y-122795812D01*
X-83576392Y-122805473D01*
X-83784081Y-122975919D01*
X-83957157Y-123186812D01*
X-84085764Y-123427419D01*
X-84164960Y-123688493D01*
X-84191701Y-123960000D01*
X-84164960Y-124231507D01*
X-84085764Y-124492581D01*
X-83957157Y-124733188D01*
X-83784081Y-124944081D01*
X-83573188Y-125117157D01*
X-83362073Y-125230000D01*
X-83573188Y-125342843D01*
X-83784081Y-125515919D01*
X-83957157Y-125726812D01*
X-84085764Y-125967419D01*
X-84164960Y-126228493D01*
X-84191701Y-126500000D01*
X-84164960Y-126771507D01*
X-84085764Y-127032581D01*
X-83957157Y-127273188D01*
X-83784081Y-127484081D01*
X-83573188Y-127657157D01*
X-83362073Y-127770000D01*
X-83573188Y-127882843D01*
X-83784081Y-128055919D01*
X-83957157Y-128266812D01*
X-84085764Y-128507419D01*
X-84164960Y-128768493D01*
X-84191701Y-129040000D01*
X-84164960Y-129311507D01*
X-84085764Y-129572581D01*
X-83957157Y-129813188D01*
X-83784081Y-130024081D01*
X-83576392Y-130194527D01*
X-83674482Y-130204188D01*
X-83794180Y-130240498D01*
X-83904494Y-130299463D01*
X-84001185Y-130378815D01*
X-84080537Y-130475506D01*
X-84139502Y-130585820D01*
X-84175812Y-130705518D01*
X-84188072Y-130830000D01*
X-84185000Y-131294250D01*
X-84026250Y-131453000D01*
X-82427000Y-131453000D01*
X-82427000Y-131433000D01*
X-82173000Y-131433000D01*
X-82173000Y-131453000D01*
X-80573750Y-131453000D01*
X-80415000Y-131294250D01*
X-80411928Y-130830000D01*
X-80424188Y-130705518D01*
X-80460498Y-130585820D01*
X-80519463Y-130475506D01*
X-80598815Y-130378815D01*
X-80695506Y-130299463D01*
X-80805820Y-130240498D01*
X-80925518Y-130204188D01*
X-81023608Y-130194527D01*
X-80815919Y-130024081D01*
X-80642843Y-129813188D01*
X-80514236Y-129572581D01*
X-80435040Y-129311507D01*
X-80408299Y-129040000D01*
X-80435040Y-128768493D01*
X-80514236Y-128507419D01*
X-80642843Y-128266812D01*
X-80815919Y-128055919D01*
X-81026812Y-127882843D01*
X-81237927Y-127770000D01*
X-81026812Y-127657157D01*
X-80815919Y-127484081D01*
X-80642843Y-127273188D01*
X-80514236Y-127032581D01*
X-80435040Y-126771507D01*
X-80408299Y-126500000D01*
X-80435040Y-126228493D01*
X-80514236Y-125967419D01*
X-80642843Y-125726812D01*
X-80815919Y-125515919D01*
X-81026812Y-125342843D01*
X-81237927Y-125230000D01*
X-81026812Y-125117157D01*
X-80815919Y-124944081D01*
X-80642843Y-124733188D01*
X-80514236Y-124492581D01*
X-80435040Y-124231507D01*
X-80408299Y-123960000D01*
X-80435040Y-123688493D01*
X-80514236Y-123427419D01*
X-80642843Y-123186812D01*
X-80815919Y-122975919D01*
X-81023608Y-122805473D01*
X-80925518Y-122795812D01*
X-80805820Y-122759502D01*
X-80695506Y-122700537D01*
X-80598815Y-122621185D01*
X-80519463Y-122524494D01*
X-80460498Y-122414180D01*
X-80424188Y-122294482D01*
X-80411928Y-122170000D01*
X-80411928Y-120670000D01*
X-80424188Y-120545518D01*
X-80460498Y-120425820D01*
X-80519463Y-120315506D01*
X-80598815Y-120218815D01*
X-80695506Y-120139463D01*
X-80805820Y-120080498D01*
X-80925518Y-120044188D01*
X-81050000Y-120031928D01*
X-81166699Y-120031928D01*
X-81026812Y-119957157D01*
X-80897130Y-119850729D01*
X-62743701Y-119850729D01*
X-62696457Y-120228951D01*
X-62576333Y-120590690D01*
X-62444312Y-120837683D01*
X-62149224Y-120969619D01*
X-60979605Y-119800000D01*
X-62149224Y-118630381D01*
X-62444312Y-118762317D01*
X-62615159Y-119103045D01*
X-62716250Y-119470557D01*
X-62743701Y-119850729D01*
X-80897130Y-119850729D01*
X-80815919Y-119784081D01*
X-80642843Y-119573188D01*
X-80514236Y-119332581D01*
X-80435040Y-119071507D01*
X-80408299Y-118800000D01*
X-80435040Y-118528493D01*
X-80514236Y-118267419D01*
X-80642843Y-118026812D01*
X-80815919Y-117815919D01*
X-81026812Y-117642843D01*
X-81267419Y-117514236D01*
X-81528493Y-117435040D01*
X-81731963Y-117415000D01*
X-82868037Y-117415000D01*
X-83071507Y-117435040D01*
X-83332581Y-117514236D01*
X-83573188Y-117642843D01*
X-83784081Y-117815919D01*
X-83957157Y-118026812D01*
X-84085764Y-118267419D01*
X-84164960Y-118528493D01*
X-84191701Y-118800000D01*
X-97175000Y-118800000D01*
X-97175000Y-108567187D01*
X-97085920Y-108494081D01*
X-96912843Y-108283188D01*
X-96800000Y-108072073D01*
X-96687157Y-108283187D01*
X-96514081Y-108494080D01*
X-96303188Y-108667157D01*
X-96062581Y-108795764D01*
X-95801507Y-108874960D01*
X-95530000Y-108901701D01*
X-95258494Y-108874960D01*
X-95134999Y-108837498D01*
X-95134999Y-109216521D01*
X-95139281Y-109260000D01*
X-95122195Y-109433490D01*
X-95071588Y-109600313D01*
X-94989410Y-109754059D01*
X-94906532Y-109855046D01*
X-94906529Y-109855049D01*
X-94878816Y-109888817D01*
X-94845049Y-109916529D01*
X-93926530Y-110835049D01*
X-93898817Y-110868817D01*
X-93865049Y-110896530D01*
X-93865047Y-110896532D01*
X-93812799Y-110939411D01*
X-93764059Y-110979411D01*
X-93610313Y-111061589D01*
X-93443490Y-111112195D01*
X-93313477Y-111125000D01*
X-93313467Y-111125000D01*
X-93270001Y-111129281D01*
X-93226535Y-111125000D01*
X-88883469Y-111125000D01*
X-88840000Y-111129281D01*
X-88796531Y-111125000D01*
X-88796523Y-111125000D01*
X-88666510Y-111112195D01*
X-88499687Y-111061589D01*
X-88345941Y-110979411D01*
X-88211183Y-110868817D01*
X-88183466Y-110835044D01*
X-87304950Y-109956529D01*
X-87271183Y-109928817D01*
X-87238355Y-109888817D01*
X-87160589Y-109794059D01*
X-87125176Y-109727805D01*
X-87078411Y-109640313D01*
X-87027805Y-109473490D01*
X-87015000Y-109343477D01*
X-87015000Y-109343469D01*
X-87010719Y-109300000D01*
X-87015000Y-109256531D01*
X-87015000Y-108879588D01*
X-86915820Y-108849502D01*
X-86805506Y-108790537D01*
X-86708815Y-108711185D01*
X-86629463Y-108614494D01*
X-86570498Y-108504180D01*
X-86534188Y-108384482D01*
X-86521928Y-108260000D01*
X-86521928Y-105760000D01*
X-86534188Y-105635518D01*
X-86570498Y-105515820D01*
X-86629463Y-105405506D01*
X-86708815Y-105308815D01*
X-86790335Y-105241913D01*
X-85488421Y-103940000D01*
X-82311578Y-103940000D01*
X-79916530Y-106335049D01*
X-79888817Y-106368817D01*
X-79855049Y-106396530D01*
X-79855047Y-106396532D01*
X-79790276Y-106449688D01*
X-79754059Y-106479411D01*
X-79600313Y-106561589D01*
X-79433490Y-106612195D01*
X-79303477Y-106625000D01*
X-79303467Y-106625000D01*
X-79260001Y-106629281D01*
X-79216535Y-106625000D01*
X-77165395Y-106625000D01*
X-77084081Y-106724081D01*
X-76873188Y-106897157D01*
X-76632581Y-107025764D01*
X-76371507Y-107104960D01*
X-76168037Y-107125000D01*
X-75031963Y-107125000D01*
X-74828493Y-107104960D01*
X-74567419Y-107025764D01*
X-74326812Y-106897157D01*
X-74115919Y-106724081D01*
X-73942843Y-106513188D01*
X-73814236Y-106272581D01*
X-73735040Y-106011507D01*
X-73708299Y-105740000D01*
X-73735040Y-105468493D01*
X-73814236Y-105207419D01*
X-73942843Y-104966812D01*
X-74115919Y-104755919D01*
X-74326812Y-104582843D01*
X-74389043Y-104549580D01*
X-74355820Y-104539502D01*
X-74245506Y-104480537D01*
X-74148815Y-104401185D01*
X-74069463Y-104304494D01*
X-74010498Y-104194180D01*
X-73977379Y-104085000D01*
X-73643469Y-104085000D01*
X-73600000Y-104089281D01*
X-73556531Y-104085000D01*
X-73556523Y-104085000D01*
X-73426510Y-104072195D01*
X-73259687Y-104021589D01*
X-73105941Y-103939411D01*
X-72971183Y-103828817D01*
X-72943466Y-103795044D01*
X-71884451Y-102736030D01*
X-71815941Y-102699411D01*
X-71681183Y-102588817D01*
X-71653466Y-102555044D01*
X-69404950Y-100306529D01*
X-69371183Y-100278817D01*
X-69260589Y-100144059D01*
X-69178411Y-99990313D01*
X-69127805Y-99823490D01*
X-69115000Y-99693477D01*
X-69115000Y-99693467D01*
X-69110719Y-99650001D01*
X-69115000Y-99606535D01*
X-69115000Y-98014521D01*
X-69085241Y-97994637D01*
X-68885363Y-97794759D01*
X-68728320Y-97559727D01*
X-68641531Y-97350200D01*
X-65447277Y-97350200D01*
X-65464960Y-97408493D01*
%TA.AperFunction,Conductor*%
D28*
G36*
X-65464960Y-97408493D02*
G01*
X-65491701Y-97680000D01*
X-65464960Y-97951507D01*
X-65385764Y-98212581D01*
X-65257157Y-98453188D01*
X-65084081Y-98664081D01*
X-64873188Y-98837157D01*
X-64632581Y-98965764D01*
X-64371507Y-99044960D01*
X-64168037Y-99065000D01*
X-63376578Y-99065000D01*
X-59604999Y-102836580D01*
X-59605000Y-118425392D01*
X-59630382Y-118450774D01*
X-59762317Y-118155688D01*
X-60103045Y-117984841D01*
X-60470557Y-117883750D01*
X-60850729Y-117856299D01*
X-61228951Y-117903543D01*
X-61590690Y-118023667D01*
X-61837683Y-118155688D01*
X-61969619Y-118450776D01*
X-60800000Y-119620395D01*
X-60785858Y-119606253D01*
X-60606253Y-119785858D01*
X-60620395Y-119800000D01*
X-60606253Y-119814143D01*
X-60785858Y-119993748D01*
X-60800000Y-119979605D01*
X-61969619Y-121149224D01*
X-61837683Y-121444312D01*
X-61496955Y-121615159D01*
X-61129443Y-121716250D01*
X-60749271Y-121743701D01*
X-60371049Y-121696457D01*
X-60009310Y-121576333D01*
X-59762317Y-121444312D01*
X-59630382Y-121149226D01*
X-59605000Y-121174608D01*
X-59605000Y-121823421D01*
X-78636578Y-140855000D01*
X-80734605Y-140855000D01*
X-80815919Y-140755919D01*
X-81026812Y-140582843D01*
X-81237927Y-140470000D01*
X-81026812Y-140357157D01*
X-80815919Y-140184081D01*
X-80642843Y-139973188D01*
X-80514236Y-139732581D01*
X-80435040Y-139471507D01*
X-80408299Y-139200000D01*
X-80435040Y-138928493D01*
X-80514236Y-138667419D01*
X-80642843Y-138426812D01*
X-80815919Y-138215919D01*
X-81026812Y-138042843D01*
X-81237927Y-137930000D01*
X-81026812Y-137817157D01*
X-80815919Y-137644081D01*
X-80642843Y-137433188D01*
X-80514236Y-137192581D01*
X-80435040Y-136931507D01*
X-80408299Y-136660000D01*
X-80435040Y-136388493D01*
X-80514236Y-136127419D01*
X-80642843Y-135886812D01*
X-80815919Y-135675919D01*
X-81026812Y-135502843D01*
X-81237927Y-135390000D01*
X-81026812Y-135277157D01*
X-80815919Y-135104081D01*
X-80642843Y-134893188D01*
X-80514236Y-134652581D01*
X-80435040Y-134391507D01*
X-80408299Y-134120000D01*
X-80435040Y-133848493D01*
X-80514236Y-133587419D01*
X-80642843Y-133346812D01*
X-80815919Y-133135919D01*
X-81023608Y-132965473D01*
X-80925518Y-132955812D01*
X-80805820Y-132919502D01*
X-80695506Y-132860537D01*
X-80598815Y-132781185D01*
X-80519463Y-132684494D01*
X-80460498Y-132574180D01*
X-80424188Y-132454482D01*
X-80411928Y-132330000D01*
X-80415000Y-131865750D01*
X-80573750Y-131707000D01*
X-82173000Y-131707000D01*
X-82173000Y-131727000D01*
X-82427000Y-131727000D01*
X-82427000Y-131707000D01*
X-84026250Y-131707000D01*
X-84185000Y-131865750D01*
X-84188072Y-132330000D01*
X-84175812Y-132454482D01*
X-84139502Y-132574180D01*
X-84080537Y-132684494D01*
X-84001185Y-132781185D01*
X-83904494Y-132860537D01*
X-83794180Y-132919502D01*
X-83674482Y-132955812D01*
X-83576392Y-132965473D01*
X-83784081Y-133135919D01*
X-83957157Y-133346812D01*
X-84085764Y-133587419D01*
X-84164960Y-133848493D01*
X-84191701Y-134120000D01*
X-84164960Y-134391507D01*
X-84085764Y-134652581D01*
X-83957157Y-134893188D01*
X-83784081Y-135104081D01*
X-83573188Y-135277157D01*
X-83362073Y-135390000D01*
X-83573188Y-135502843D01*
X-83784081Y-135675919D01*
X-83957157Y-135886812D01*
X-84085764Y-136127419D01*
X-84164960Y-136388493D01*
X-84191701Y-136660000D01*
X-84164960Y-136931507D01*
X-84085764Y-137192581D01*
X-83957157Y-137433188D01*
X-83784081Y-137644081D01*
X-83573188Y-137817157D01*
X-83362073Y-137930000D01*
X-83573188Y-138042843D01*
X-83784081Y-138215919D01*
X-83865395Y-138315000D01*
X-84756535Y-138315000D01*
X-84800001Y-138310719D01*
X-84843467Y-138315000D01*
X-84843477Y-138315000D01*
X-84973490Y-138327805D01*
X-85140313Y-138378411D01*
X-85294059Y-138460589D01*
X-85294061Y-138460590D01*
X-85294060Y-138460590D01*
X-85395047Y-138543468D01*
X-85395049Y-138543470D01*
X-85428817Y-138571183D01*
X-85456530Y-138604951D01*
X-86595049Y-139743471D01*
X-86628816Y-139771183D01*
X-86656529Y-139804951D01*
X-86656532Y-139804954D01*
X-86739410Y-139905941D01*
X-86821588Y-140059687D01*
X-86872195Y-140226510D01*
X-86889281Y-140400000D01*
X-86884999Y-140443479D01*
X-86885000Y-149156531D01*
X-86889281Y-149200000D01*
X-86885000Y-149243469D01*
X-86885000Y-149243476D01*
X-86872195Y-149373489D01*
X-86821589Y-149540312D01*
X-86739411Y-149694058D01*
X-86628817Y-149828817D01*
X-86595044Y-149856534D01*
X-85226530Y-151225049D01*
X-85198817Y-151258817D01*
X-85165049Y-151286530D01*
X-85165047Y-151286532D01*
X-85142601Y-151304953D01*
X-85064059Y-151369411D01*
X-84910313Y-151451589D01*
X-84743490Y-151502195D01*
X-84613477Y-151515000D01*
X-84613467Y-151515000D01*
X-84570001Y-151519281D01*
X-84526535Y-151515000D01*
X-84130532Y-151515000D01*
X-84164960Y-151628493D01*
X-84191701Y-151900000D01*
X-84164960Y-152171507D01*
X-84085764Y-152432581D01*
X-83957157Y-152673188D01*
X-83784081Y-152884081D01*
X-83573188Y-153057157D01*
X-83362073Y-153170000D01*
X-83573188Y-153282843D01*
X-83784081Y-153455919D01*
X-83957157Y-153666812D01*
X-84085764Y-153907419D01*
X-84164960Y-154168493D01*
X-84191701Y-154440000D01*
X-84164960Y-154711507D01*
X-84085764Y-154972581D01*
X-83957157Y-155213188D01*
X-83784081Y-155424081D01*
X-83573188Y-155597157D01*
X-83362073Y-155710000D01*
X-83573188Y-155822843D01*
X-83784081Y-155995919D01*
X-83957157Y-156206812D01*
X-84085764Y-156447419D01*
X-84164960Y-156708493D01*
X-84191701Y-156980000D01*
X-84164960Y-157251507D01*
X-84085764Y-157512581D01*
X-83957157Y-157753188D01*
X-83784081Y-157964081D01*
X-83573188Y-158137157D01*
X-83362073Y-158250000D01*
X-83573188Y-158362843D01*
X-83784081Y-158535919D01*
X-83957157Y-158746812D01*
X-84085764Y-158987419D01*
X-84164960Y-159248493D01*
X-84191701Y-159520000D01*
X-84164960Y-159791507D01*
X-84085764Y-160052581D01*
X-83957157Y-160293188D01*
X-83784081Y-160504081D01*
X-83573188Y-160677157D01*
X-83362073Y-160790000D01*
X-83573188Y-160902843D01*
X-83784081Y-161075919D01*
X-83957157Y-161286812D01*
X-84085764Y-161527419D01*
X-84164960Y-161788493D01*
X-84191701Y-162060000D01*
X-84164960Y-162331507D01*
X-84085764Y-162592581D01*
X-83957157Y-162833188D01*
X-83784081Y-163044081D01*
X-83573188Y-163217157D01*
X-83362073Y-163330000D01*
X-83573188Y-163442843D01*
X-83784081Y-163615919D01*
X-83865395Y-163715000D01*
X-83956835Y-163715000D01*
X-84000301Y-163710719D01*
X-84043767Y-163715000D01*
X-84043777Y-163715000D01*
X-84173790Y-163727805D01*
X-84340613Y-163778411D01*
X-84494359Y-163860589D01*
X-84494361Y-163860590D01*
X-84494360Y-163860590D01*
X-84595347Y-163943468D01*
X-84595349Y-163943470D01*
X-84629117Y-163971183D01*
X-84656830Y-164004951D01*
X-90976078Y-170324200D01*
X-108134221Y-170324200D01*
X-110415000Y-168043422D01*
X-110415000Y-165350000D01*
X-109588072Y-165350000D01*
X-109575812Y-165474482D01*
X-109539502Y-165594180D01*
X-109480537Y-165704494D01*
X-109401185Y-165801185D01*
X-109304494Y-165880537D01*
X-109194180Y-165939502D01*
X-109074482Y-165975812D01*
X-108950000Y-165988072D01*
X-107985750Y-165985000D01*
X-107827000Y-165826250D01*
X-107827000Y-164727000D01*
X-107573000Y-164727000D01*
X-107573000Y-165826250D01*
X-107414250Y-165985000D01*
X-106450000Y-165988072D01*
X-106325518Y-165975812D01*
X-106205820Y-165939502D01*
X-106095506Y-165880537D01*
X-105998815Y-165801185D01*
X-105919463Y-165704494D01*
X-105860498Y-165594180D01*
X-105824188Y-165474482D01*
X-105811928Y-165350000D01*
X-105815000Y-164885750D01*
X-105973750Y-164727000D01*
X-107573000Y-164727000D01*
X-107827000Y-164727000D01*
X-109426250Y-164727000D01*
X-109585000Y-164885750D01*
X-109588072Y-165350000D01*
X-110415000Y-165350000D01*
X-110415000Y-161973611D01*
X-110397005Y-161914290D01*
X-110379919Y-161740800D01*
X-110397005Y-161567310D01*
X-110447611Y-161400486D01*
X-110529789Y-161246741D01*
X-110612668Y-161145753D01*
X-110612670Y-161145751D01*
X-110640383Y-161111983D01*
X-110674151Y-161084270D01*
X-119915000Y-151843422D01*
X-119915000Y-148961165D01*
X-119910719Y-148917699D01*
X-119915000Y-148874233D01*
X-119915000Y-148874223D01*
X-119927805Y-148744210D01*
X-119978411Y-148577387D01*
X-120060589Y-148423641D01*
X-120108042Y-148365820D01*
X-120143468Y-148322653D01*
X-120143470Y-148322651D01*
X-120171183Y-148288883D01*
X-120204949Y-148261172D01*
X-124655000Y-143811122D01*
X-124655000Y-143765394D01*
X-124555920Y-143684081D01*
X-124382843Y-143473188D01*
X-124349580Y-143410957D01*
X-124339502Y-143444180D01*
X-124280537Y-143554494D01*
X-124201185Y-143651185D01*
X-124104494Y-143730537D01*
X-123994180Y-143789502D01*
X-123874482Y-143825812D01*
X-123750000Y-143838072D01*
X-122250000Y-143838072D01*
X-122125518Y-143825812D01*
X-122005820Y-143789502D01*
X-121895506Y-143730537D01*
X-121798815Y-143651185D01*
X-121727406Y-143564172D01*
X-118471579Y-146820000D01*
X-119115049Y-147463471D01*
X-119148816Y-147491183D01*
X-119176529Y-147524951D01*
X-119176532Y-147524954D01*
X-119259410Y-147625941D01*
X-119341588Y-147779687D01*
X-119392195Y-147946510D01*
X-119409281Y-148120000D01*
X-119404999Y-148163479D01*
X-119404999Y-148234605D01*
X-119504081Y-148315920D01*
X-119677157Y-148526813D01*
X-119805764Y-148767420D01*
X-119884960Y-149028494D01*
X-119905000Y-149231964D01*
X-119905000Y-150368037D01*
X-119884960Y-150571507D01*
X-119805764Y-150832581D01*
X-119677157Y-151073188D01*
X-119504080Y-151284081D01*
X-119293187Y-151457157D01*
X-119052580Y-151585764D01*
X-118791506Y-151664960D01*
X-118520000Y-151691701D01*
X-118248493Y-151664960D01*
X-117987419Y-151585764D01*
X-117746812Y-151457157D01*
X-117535919Y-151284081D01*
X-117362843Y-151073188D01*
X-117234236Y-150832581D01*
X-117155040Y-150571507D01*
X-117135000Y-150368037D01*
X-117135000Y-149231963D01*
X-117155040Y-149028493D01*
X-117234236Y-148767419D01*
X-117362843Y-148526812D01*
X-117503655Y-148355233D01*
X-116853421Y-147705000D01*
X-111276579Y-147705000D01*
X-111815044Y-148243466D01*
X-111848817Y-148271183D01*
X-111959411Y-148405942D01*
X-112041589Y-148559688D01*
X-112092195Y-148726511D01*
X-112105000Y-148856524D01*
X-112105000Y-148856531D01*
X-112109281Y-148900000D01*
X-112105000Y-148943469D01*
X-112104999Y-151076521D01*
X-112109281Y-151120000D01*
X-112092195Y-151293490D01*
X-112041588Y-151460313D01*
X-111959410Y-151614059D01*
X-111876532Y-151715046D01*
X-111876529Y-151715049D01*
X-111848816Y-151748817D01*
X-111815049Y-151776529D01*
X-111096530Y-152495049D01*
X-111068817Y-152528817D01*
X-111035049Y-152556530D01*
X-111035047Y-152556532D01*
X-110934059Y-152639411D01*
X-110780314Y-152721589D01*
X-110613490Y-152772195D01*
X-110483477Y-152785000D01*
X-110483469Y-152785000D01*
X-110440000Y-152789281D01*
X-110396531Y-152785000D01*
X-109265395Y-152785000D01*
X-109184081Y-152884081D01*
X-108973188Y-153057157D01*
X-108762073Y-153170000D01*
X-108973188Y-153282843D01*
X-109184081Y-153455919D01*
X-109357157Y-153666812D01*
X-109485764Y-153907419D01*
X-109564960Y-154168493D01*
X-109591701Y-154440000D01*
X-109564960Y-154711507D01*
X-109485764Y-154972581D01*
X-109357157Y-155213188D01*
X-109184081Y-155424081D01*
X-108973188Y-155597157D01*
X-108762073Y-155710000D01*
X-108973188Y-155822843D01*
X-109184081Y-155995919D01*
X-109357157Y-156206812D01*
X-109485764Y-156447419D01*
X-109564960Y-156708493D01*
X-109591701Y-156980000D01*
X-109564960Y-157251507D01*
X-109485764Y-157512581D01*
X-109357157Y-157753188D01*
X-109184081Y-157964081D01*
X-108973188Y-158137157D01*
X-108762073Y-158250000D01*
X-108973188Y-158362843D01*
X-109184081Y-158535919D01*
X-109357157Y-158746812D01*
X-109485764Y-158987419D01*
X-109564960Y-159248493D01*
X-109591701Y-159520000D01*
X-109564960Y-159791507D01*
X-109485764Y-160052581D01*
X-109357157Y-160293188D01*
X-109184081Y-160504081D01*
X-108973188Y-160677157D01*
X-108762073Y-160790000D01*
X-108973188Y-160902843D01*
X-109184081Y-161075919D01*
X-109357157Y-161286812D01*
X-109485764Y-161527419D01*
X-109564960Y-161788493D01*
X-109591701Y-162060000D01*
X-109564960Y-162331507D01*
X-109485764Y-162592581D01*
X-109357157Y-162833188D01*
X-109184081Y-163044081D01*
X-108976392Y-163214527D01*
X-109074482Y-163224188D01*
X-109194180Y-163260498D01*
X-109304494Y-163319463D01*
X-109401185Y-163398815D01*
X-109480537Y-163495506D01*
X-109539502Y-163605820D01*
X-109575812Y-163725518D01*
X-109588072Y-163850000D01*
X-109585000Y-164314250D01*
X-109426250Y-164473000D01*
X-107827000Y-164473000D01*
X-107827000Y-164453000D01*
X-107573000Y-164453000D01*
X-107573000Y-164473000D01*
X-105973750Y-164473000D01*
X-105815000Y-164314250D01*
X-105811928Y-163850000D01*
X-105824188Y-163725518D01*
X-105860498Y-163605820D01*
X-105919463Y-163495506D01*
X-105998815Y-163398815D01*
X-106095506Y-163319463D01*
X-106205820Y-163260498D01*
X-106325518Y-163224188D01*
X-106423608Y-163214527D01*
X-106215919Y-163044081D01*
X-106042843Y-162833188D01*
X-105914236Y-162592581D01*
X-105835040Y-162331507D01*
X-105808299Y-162060000D01*
X-105835040Y-161788493D01*
X-105914236Y-161527419D01*
X-106042843Y-161286812D01*
X-106215919Y-161075919D01*
X-106426812Y-160902843D01*
X-106637927Y-160790000D01*
X-106426812Y-160677157D01*
X-106215919Y-160504081D01*
X-106042843Y-160293188D01*
X-105914236Y-160052581D01*
X-105835040Y-159791507D01*
X-105808299Y-159520000D01*
X-105835040Y-159248493D01*
X-105914236Y-158987419D01*
X-106042843Y-158746812D01*
X-106215919Y-158535919D01*
X-106426812Y-158362843D01*
X-106637927Y-158250000D01*
X-106426812Y-158137157D01*
X-106215919Y-157964081D01*
X-106042843Y-157753188D01*
X-105914236Y-157512581D01*
X-105835040Y-157251507D01*
X-105808299Y-156980000D01*
X-105835040Y-156708493D01*
X-105914236Y-156447419D01*
X-106042843Y-156206812D01*
X-106215919Y-155995919D01*
X-106426812Y-155822843D01*
X-106637927Y-155710000D01*
X-106426812Y-155597157D01*
X-106215919Y-155424081D01*
X-106042843Y-155213188D01*
X-105914236Y-154972581D01*
X-105835040Y-154711507D01*
X-105808299Y-154440000D01*
X-105835040Y-154168493D01*
X-105914236Y-153907419D01*
X-106042843Y-153666812D01*
X-106215919Y-153455919D01*
X-106426812Y-153282843D01*
X-106637927Y-153170000D01*
X-106426812Y-153057157D01*
X-106215919Y-152884081D01*
X-106042843Y-152673188D01*
X-105914236Y-152432581D01*
X-105835040Y-152171507D01*
X-105808299Y-151900000D01*
X-105835040Y-151628493D01*
X-105914236Y-151367419D01*
X-106042843Y-151126812D01*
X-106215919Y-150915919D01*
X-106423608Y-150745473D01*
X-106325518Y-150735812D01*
X-106205820Y-150699502D01*
X-106095506Y-150640537D01*
X-105998815Y-150561185D01*
X-105919463Y-150464494D01*
X-105860498Y-150354180D01*
X-105824188Y-150234482D01*
X-105811928Y-150110000D01*
X-105815000Y-149645750D01*
X-105973750Y-149487000D01*
X-107573000Y-149487000D01*
X-107573000Y-149507000D01*
X-107827000Y-149507000D01*
X-107827000Y-149487000D01*
X-109426250Y-149487000D01*
X-109585000Y-149645750D01*
X-109588072Y-150110000D01*
X-109575812Y-150234482D01*
X-109539502Y-150354180D01*
X-109480537Y-150464494D01*
X-109401185Y-150561185D01*
X-109304494Y-150640537D01*
X-109194180Y-150699502D01*
X-109074482Y-150735812D01*
X-108976392Y-150745473D01*
X-109184081Y-150915919D01*
X-109265395Y-151015000D01*
X-110073421Y-151015000D01*
X-110335000Y-150753422D01*
X-110335000Y-149266578D01*
X-110113420Y-149044999D01*
X-109585194Y-149044999D01*
X-109585000Y-149074250D01*
X-109426250Y-149233000D01*
X-107827000Y-149233000D01*
X-107827000Y-149213000D01*
X-107573000Y-149213000D01*
X-107573000Y-149233000D01*
X-105973750Y-149233000D01*
X-105815000Y-149074250D01*
X-105813559Y-148856421D01*
X-105731182Y-148788816D01*
X-105703465Y-148755043D01*
X-103804951Y-146856530D01*
X-103771183Y-146828817D01*
X-103660589Y-146694059D01*
X-103578411Y-146540313D01*
X-103527805Y-146373490D01*
X-103515000Y-146243477D01*
X-103515000Y-146243467D01*
X-103510719Y-146200001D01*
X-103515000Y-146156535D01*
X-103515000Y-144843465D01*
X-103510719Y-144799999D01*
X-103515000Y-144756533D01*
X-103515000Y-144756523D01*
X-103527805Y-144626510D01*
X-103578411Y-144459687D01*
X-103660589Y-144305941D01*
X-103711853Y-144243476D01*
X-103743468Y-144204953D01*
X-103743470Y-144204951D01*
X-103771183Y-144171183D01*
X-103804950Y-144143471D01*
X-105533466Y-142414956D01*
X-105561183Y-142381183D01*
X-105695941Y-142270589D01*
X-105849687Y-142188411D01*
X-105885416Y-142177573D01*
X-105835040Y-142011507D01*
X-105808299Y-141740000D01*
X-105835040Y-141468493D01*
X-105914236Y-141207419D01*
X-106042843Y-140966812D01*
X-106215919Y-140755919D01*
X-106426812Y-140582843D01*
X-106637927Y-140470000D01*
X-106426812Y-140357157D01*
X-106215919Y-140184081D01*
X-106134605Y-140085000D01*
X-106043176Y-140085000D01*
X-105999700Y-140089282D01*
X-105826210Y-140072195D01*
X-105659387Y-140021589D01*
X-105505641Y-139939411D01*
X-105370883Y-139828817D01*
X-105260289Y-139694059D01*
X-105178111Y-139540313D01*
X-105127505Y-139373490D01*
X-105114700Y-139243477D01*
X-105110418Y-139200000D01*
X-105114700Y-139156523D01*
X-105114700Y-136203569D01*
X-105110419Y-136160100D01*
X-105114700Y-136116631D01*
X-105114700Y-136116623D01*
X-105127505Y-135986610D01*
X-105178111Y-135819787D01*
X-105260289Y-135666041D01*
X-105296770Y-135621589D01*
X-105343168Y-135565053D01*
X-105343170Y-135565051D01*
X-105370883Y-135531283D01*
X-105404650Y-135503571D01*
X-105903222Y-135005000D01*
X-104563469Y-135005000D01*
X-104520000Y-135009281D01*
X-104476531Y-135005000D01*
X-104476523Y-135005000D01*
X-104346510Y-134992195D01*
X-104179687Y-134941589D01*
X-104025941Y-134859411D01*
X-103891183Y-134748817D01*
X-103863466Y-134715044D01*
X-97464951Y-128316530D01*
X-97431183Y-128288817D01*
X-97320589Y-128154059D01*
X-97238411Y-128000314D01*
X-97187805Y-127833490D01*
X-97184508Y-127800017D01*
X-97175000Y-127703477D01*
X-97175000Y-127703469D01*
X-97170719Y-127660000D01*
X-97175000Y-127616531D01*
X-97175000Y-118800000D01*
X-84191701Y-118800000D01*
X-84164960Y-119071507D01*
X-84085764Y-119332581D01*
X-83957157Y-119573188D01*
X-83784081Y-119784081D01*
X-83573188Y-119957157D01*
X-83433301Y-120031928D01*
X-83550000Y-120031928D01*
X-83674482Y-120044188D01*
X-83794180Y-120080498D01*
X-83904494Y-120139463D01*
X-84001185Y-120218815D01*
X-84080537Y-120315506D01*
X-84139502Y-120425820D01*
X-84175812Y-120545518D01*
X-84188072Y-120670000D01*
X-84188072Y-122170000D01*
X-84175812Y-122294482D01*
X-84139502Y-122414180D01*
X-84080537Y-122524494D01*
X-84001185Y-122621185D01*
X-83904494Y-122700537D01*
X-83794180Y-122759502D01*
X-83674482Y-122795812D01*
X-83576392Y-122805473D01*
X-83784081Y-122975919D01*
X-83957157Y-123186812D01*
X-84085764Y-123427419D01*
X-84164960Y-123688493D01*
X-84191701Y-123960000D01*
X-84164960Y-124231507D01*
X-84085764Y-124492581D01*
X-83957157Y-124733188D01*
X-83784081Y-124944081D01*
X-83573188Y-125117157D01*
X-83362073Y-125230000D01*
X-83573188Y-125342843D01*
X-83784081Y-125515919D01*
X-83957157Y-125726812D01*
X-84085764Y-125967419D01*
X-84164960Y-126228493D01*
X-84191701Y-126500000D01*
X-84164960Y-126771507D01*
X-84085764Y-127032581D01*
X-83957157Y-127273188D01*
X-83784081Y-127484081D01*
X-83573188Y-127657157D01*
X-83362073Y-127770000D01*
X-83573188Y-127882843D01*
X-83784081Y-128055919D01*
X-83957157Y-128266812D01*
X-84085764Y-128507419D01*
X-84164960Y-128768493D01*
X-84191701Y-129040000D01*
X-84164960Y-129311507D01*
X-84085764Y-129572581D01*
X-83957157Y-129813188D01*
X-83784081Y-130024081D01*
X-83576392Y-130194527D01*
X-83674482Y-130204188D01*
X-83794180Y-130240498D01*
X-83904494Y-130299463D01*
X-84001185Y-130378815D01*
X-84080537Y-130475506D01*
X-84139502Y-130585820D01*
X-84175812Y-130705518D01*
X-84188072Y-130830000D01*
X-84185000Y-131294250D01*
X-84026250Y-131453000D01*
X-82427000Y-131453000D01*
X-82427000Y-131433000D01*
X-82173000Y-131433000D01*
X-82173000Y-131453000D01*
X-80573750Y-131453000D01*
X-80415000Y-131294250D01*
X-80411928Y-130830000D01*
X-80424188Y-130705518D01*
X-80460498Y-130585820D01*
X-80519463Y-130475506D01*
X-80598815Y-130378815D01*
X-80695506Y-130299463D01*
X-80805820Y-130240498D01*
X-80925518Y-130204188D01*
X-81023608Y-130194527D01*
X-80815919Y-130024081D01*
X-80642843Y-129813188D01*
X-80514236Y-129572581D01*
X-80435040Y-129311507D01*
X-80408299Y-129040000D01*
X-80435040Y-128768493D01*
X-80514236Y-128507419D01*
X-80642843Y-128266812D01*
X-80815919Y-128055919D01*
X-81026812Y-127882843D01*
X-81237927Y-127770000D01*
X-81026812Y-127657157D01*
X-80815919Y-127484081D01*
X-80642843Y-127273188D01*
X-80514236Y-127032581D01*
X-80435040Y-126771507D01*
X-80408299Y-126500000D01*
X-80435040Y-126228493D01*
X-80514236Y-125967419D01*
X-80642843Y-125726812D01*
X-80815919Y-125515919D01*
X-81026812Y-125342843D01*
X-81237927Y-125230000D01*
X-81026812Y-125117157D01*
X-80815919Y-124944081D01*
X-80642843Y-124733188D01*
X-80514236Y-124492581D01*
X-80435040Y-124231507D01*
X-80408299Y-123960000D01*
X-80435040Y-123688493D01*
X-80514236Y-123427419D01*
X-80642843Y-123186812D01*
X-80815919Y-122975919D01*
X-81023608Y-122805473D01*
X-80925518Y-122795812D01*
X-80805820Y-122759502D01*
X-80695506Y-122700537D01*
X-80598815Y-122621185D01*
X-80519463Y-122524494D01*
X-80460498Y-122414180D01*
X-80424188Y-122294482D01*
X-80411928Y-122170000D01*
X-80411928Y-120670000D01*
X-80424188Y-120545518D01*
X-80460498Y-120425820D01*
X-80519463Y-120315506D01*
X-80598815Y-120218815D01*
X-80695506Y-120139463D01*
X-80805820Y-120080498D01*
X-80925518Y-120044188D01*
X-81050000Y-120031928D01*
X-81166699Y-120031928D01*
X-81026812Y-119957157D01*
X-80897130Y-119850729D01*
X-62743701Y-119850729D01*
X-62696457Y-120228951D01*
X-62576333Y-120590690D01*
X-62444312Y-120837683D01*
X-62149224Y-120969619D01*
X-60979605Y-119800000D01*
X-62149224Y-118630381D01*
X-62444312Y-118762317D01*
X-62615159Y-119103045D01*
X-62716250Y-119470557D01*
X-62743701Y-119850729D01*
X-80897130Y-119850729D01*
X-80815919Y-119784081D01*
X-80642843Y-119573188D01*
X-80514236Y-119332581D01*
X-80435040Y-119071507D01*
X-80408299Y-118800000D01*
X-80435040Y-118528493D01*
X-80514236Y-118267419D01*
X-80642843Y-118026812D01*
X-80815919Y-117815919D01*
X-81026812Y-117642843D01*
X-81267419Y-117514236D01*
X-81528493Y-117435040D01*
X-81731963Y-117415000D01*
X-82868037Y-117415000D01*
X-83071507Y-117435040D01*
X-83332581Y-117514236D01*
X-83573188Y-117642843D01*
X-83784081Y-117815919D01*
X-83957157Y-118026812D01*
X-84085764Y-118267419D01*
X-84164960Y-118528493D01*
X-84191701Y-118800000D01*
X-97175000Y-118800000D01*
X-97175000Y-108567187D01*
X-97085920Y-108494081D01*
X-96912843Y-108283188D01*
X-96800000Y-108072073D01*
X-96687157Y-108283187D01*
X-96514081Y-108494080D01*
X-96303188Y-108667157D01*
X-96062581Y-108795764D01*
X-95801507Y-108874960D01*
X-95530000Y-108901701D01*
X-95258494Y-108874960D01*
X-95134999Y-108837498D01*
X-95134999Y-109216521D01*
X-95139281Y-109260000D01*
X-95122195Y-109433490D01*
X-95071588Y-109600313D01*
X-94989410Y-109754059D01*
X-94906532Y-109855046D01*
X-94906529Y-109855049D01*
X-94878816Y-109888817D01*
X-94845049Y-109916529D01*
X-93926530Y-110835049D01*
X-93898817Y-110868817D01*
X-93865049Y-110896530D01*
X-93865047Y-110896532D01*
X-93812799Y-110939411D01*
X-93764059Y-110979411D01*
X-93610313Y-111061589D01*
X-93443490Y-111112195D01*
X-93313477Y-111125000D01*
X-93313467Y-111125000D01*
X-93270001Y-111129281D01*
X-93226535Y-111125000D01*
X-88883469Y-111125000D01*
X-88840000Y-111129281D01*
X-88796531Y-111125000D01*
X-88796523Y-111125000D01*
X-88666510Y-111112195D01*
X-88499687Y-111061589D01*
X-88345941Y-110979411D01*
X-88211183Y-110868817D01*
X-88183466Y-110835044D01*
X-87304950Y-109956529D01*
X-87271183Y-109928817D01*
X-87238355Y-109888817D01*
X-87160589Y-109794059D01*
X-87125176Y-109727805D01*
X-87078411Y-109640313D01*
X-87027805Y-109473490D01*
X-87015000Y-109343477D01*
X-87015000Y-109343469D01*
X-87010719Y-109300000D01*
X-87015000Y-109256531D01*
X-87015000Y-108879588D01*
X-86915820Y-108849502D01*
X-86805506Y-108790537D01*
X-86708815Y-108711185D01*
X-86629463Y-108614494D01*
X-86570498Y-108504180D01*
X-86534188Y-108384482D01*
X-86521928Y-108260000D01*
X-86521928Y-105760000D01*
X-86534188Y-105635518D01*
X-86570498Y-105515820D01*
X-86629463Y-105405506D01*
X-86708815Y-105308815D01*
X-86790335Y-105241913D01*
X-85488421Y-103940000D01*
X-82311578Y-103940000D01*
X-79916530Y-106335049D01*
X-79888817Y-106368817D01*
X-79855049Y-106396530D01*
X-79855047Y-106396532D01*
X-79790276Y-106449688D01*
X-79754059Y-106479411D01*
X-79600313Y-106561589D01*
X-79433490Y-106612195D01*
X-79303477Y-106625000D01*
X-79303467Y-106625000D01*
X-79260001Y-106629281D01*
X-79216535Y-106625000D01*
X-77165395Y-106625000D01*
X-77084081Y-106724081D01*
X-76873188Y-106897157D01*
X-76632581Y-107025764D01*
X-76371507Y-107104960D01*
X-76168037Y-107125000D01*
X-75031963Y-107125000D01*
X-74828493Y-107104960D01*
X-74567419Y-107025764D01*
X-74326812Y-106897157D01*
X-74115919Y-106724081D01*
X-73942843Y-106513188D01*
X-73814236Y-106272581D01*
X-73735040Y-106011507D01*
X-73708299Y-105740000D01*
X-73735040Y-105468493D01*
X-73814236Y-105207419D01*
X-73942843Y-104966812D01*
X-74115919Y-104755919D01*
X-74326812Y-104582843D01*
X-74389043Y-104549580D01*
X-74355820Y-104539502D01*
X-74245506Y-104480537D01*
X-74148815Y-104401185D01*
X-74069463Y-104304494D01*
X-74010498Y-104194180D01*
X-73977379Y-104085000D01*
X-73643469Y-104085000D01*
X-73600000Y-104089281D01*
X-73556531Y-104085000D01*
X-73556523Y-104085000D01*
X-73426510Y-104072195D01*
X-73259687Y-104021589D01*
X-73105941Y-103939411D01*
X-72971183Y-103828817D01*
X-72943466Y-103795044D01*
X-71884451Y-102736030D01*
X-71815941Y-102699411D01*
X-71681183Y-102588817D01*
X-71653466Y-102555044D01*
X-69404950Y-100306529D01*
X-69371183Y-100278817D01*
X-69260589Y-100144059D01*
X-69178411Y-99990313D01*
X-69127805Y-99823490D01*
X-69115000Y-99693477D01*
X-69115000Y-99693467D01*
X-69110719Y-99650001D01*
X-69115000Y-99606535D01*
X-69115000Y-98014521D01*
X-69085241Y-97994637D01*
X-68885363Y-97794759D01*
X-68728320Y-97559727D01*
X-68641531Y-97350200D01*
X-65447277Y-97350200D01*
X-65464960Y-97408493D01*
G37*
%TD.AperFunction*%
%TD*%
M02*
