%TF.GenerationSoftware,KiCad,Pcbnew,(5.1.12)-1*%
%TF.CreationDate,2023-11-22T13:00:46-05:00*%
%TF.ProjectId,Logiplant,4c6f6769-706c-4616-9e74-2e6b69636164,rev?*%
%TF.SameCoordinates,Original*%
%TF.FileFunction,Copper,L1,Top*%
%TF.FilePolarity,Positive*%
%FSLAX46Y46*%
G04 Gerber Fmt 4.6, Leading zero omitted, Abs format (unit mm)*
G04 Created by KiCad (PCBNEW (5.1.12)-1) date 2023-11-22 13:00:46*
%MOMM*%
%LPD*%
G01*
G04 APERTURE LIST*
%TA.AperFunction,ComponentPad*%
%ADD10C,2.600000*%
%TD*%
%TA.AperFunction,ComponentPad*%
%ADD11R,2.600000X2.600000*%
%TD*%
%TA.AperFunction,ComponentPad*%
%ADD12O,1.600000X1.600000*%
%TD*%
%TA.AperFunction,ComponentPad*%
%ADD13C,1.600000*%
%TD*%
%TA.AperFunction,ComponentPad*%
%ADD14O,2.000000X1.905000*%
%TD*%
%TA.AperFunction,ComponentPad*%
%ADD15R,2.000000X1.905000*%
%TD*%
%TA.AperFunction,ComponentPad*%
%ADD16O,2.500000X1.500000*%
%TD*%
%TA.AperFunction,ComponentPad*%
%ADD17R,2.500000X1.500000*%
%TD*%
%TA.AperFunction,ComponentPad*%
%ADD18O,1.500000X2.500000*%
%TD*%
%TA.AperFunction,ComponentPad*%
%ADD19R,1.500000X2.000000*%
%TD*%
%TA.AperFunction,ComponentPad*%
%ADD20R,2.000000X1.500000*%
%TD*%
%TA.AperFunction,ViaPad*%
%ADD21C,3.000000*%
%TD*%
%TA.AperFunction,Conductor*%
%ADD22C,0.500000*%
%TD*%
%TA.AperFunction,Conductor*%
%ADD23C,0.254000*%
%TD*%
%TA.AperFunction,Conductor*%
%ADD24C,0.100000*%
%TD*%
G04 APERTURE END LIST*
D10*
%TO.P,U4,3*%
%TO.N,IO33*%
X-102060000Y-105320000D03*
%TO.P,U4,2*%
%TO.N,GND*%
X-102060000Y-100240000D03*
D11*
%TO.P,U4,1*%
%TO.N,+12V*%
X-102060000Y-95160000D03*
%TD*%
D12*
%TO.P,R3,2*%
%TO.N,GND*%
X-69690000Y-179790000D03*
D13*
%TO.P,R3,1*%
X-79850000Y-179790000D03*
%TD*%
D12*
%TO.P,R2,2*%
%TO.N,GND*%
X-112000000Y-100830000D03*
D13*
%TO.P,R2,1*%
X-112000000Y-110990000D03*
%TD*%
D10*
%TO.P,Recibo1,3*%
%TO.N,IO25*%
X-126110000Y-139530000D03*
%TO.P,Recibo1,2*%
%TO.N,+12V*%
X-126110000Y-134450000D03*
D11*
%TO.P,Recibo1,1*%
%TO.N,GND*%
X-126110000Y-129370000D03*
%TD*%
D14*
%TO.P,U3,3*%
%TO.N,+5V*%
X-121980000Y-171940000D03*
%TO.P,U3,2*%
%TO.N,GND*%
X-121980000Y-169400000D03*
D15*
%TO.P,U3,1*%
%TO.N,+12V*%
X-121980000Y-166860000D03*
%TD*%
D14*
%TO.P,U1,3*%
%TO.N,+5V*%
X-127020000Y-182060000D03*
%TO.P,U1,2*%
%TO.N,+3V3*%
X-127020000Y-184600000D03*
D15*
%TO.P,U1,1*%
%TO.N,GND*%
X-127020000Y-187140000D03*
%TD*%
D16*
%TO.P,OLED1,3*%
%TO.N,GND*%
X-75400000Y-165740000D03*
%TO.P,OLED1,4*%
%TO.N,RST*%
X-75400000Y-163200000D03*
%TO.P,OLED1,5*%
%TO.N,SCK*%
X-75400000Y-160660000D03*
%TO.P,OLED1,6*%
%TO.N,MOSI-DATA*%
X-75400000Y-158120000D03*
%TO.P,OLED1,7*%
%TO.N,CS*%
X-75400000Y-155580000D03*
%TO.P,OLED1,8*%
%TO.N,CD-DC*%
X-75400000Y-153040000D03*
D17*
%TO.P,OLED1,1*%
%TO.N,+3V3*%
X-75400000Y-170820000D03*
D16*
%TO.P,OLED1,2*%
%TO.N,+5V*%
X-75400000Y-168280000D03*
%TD*%
%TO.P,R5,2*%
%TO.N,IO19*%
X-65070000Y-129100000D03*
%TO.P,R5,1*%
%TO.N,GND*%
X-65070000Y-124020000D03*
%TD*%
D18*
%TO.P,R1,2*%
%TO.N,IO18*%
X-54450000Y-127180000D03*
%TO.P,R1,1*%
%TO.N,GND*%
X-49370000Y-127180000D03*
%TD*%
D16*
%TO.P,U2,37*%
%TO.N,Net-(U2-Pad37)*%
X-86060000Y-172560000D03*
%TO.P,U2,36*%
%TO.N,Net-(U2-Pad36)*%
X-86060000Y-170020000D03*
%TO.P,U2,35*%
%TO.N,Net-(U2-Pad35)*%
X-86060000Y-167480000D03*
%TO.P,U2,34*%
%TO.N,RST*%
X-86060000Y-164940000D03*
%TO.P,U2,33*%
%TO.N,CS*%
X-86060000Y-162400000D03*
%TO.P,U2,32*%
%TO.N,SCK*%
X-86060000Y-159860000D03*
%TO.P,U2,31*%
%TO.N,CD-DC*%
X-86060000Y-157320000D03*
%TO.P,U2,30*%
%TO.N,MOSI-DATA*%
X-86060000Y-154780000D03*
%TO.P,U2,29*%
%TO.N,Net-(U2-Pad29)*%
X-86060000Y-152240000D03*
%TO.P,U2,28*%
%TO.N,IO18*%
X-86060000Y-149700000D03*
%TO.P,U2,27*%
%TO.N,IO19*%
X-86060000Y-147160000D03*
D17*
%TO.P,U2,26*%
%TO.N,GND*%
X-86060000Y-144620000D03*
D16*
%TO.P,U2,25*%
%TO.N,IO21*%
X-86060000Y-142080000D03*
%TO.P,U2,24*%
%TO.N,Net-(U2-Pad24)*%
X-86060000Y-139540000D03*
%TO.P,U2,23*%
%TO.N,Net-(U2-Pad23)*%
X-86060000Y-137000000D03*
%TO.P,U2,22*%
%TO.N,Net-(U2-Pad22)*%
X-86060000Y-134460000D03*
%TO.P,U2,21*%
%TO.N,Net-(U2-Pad21)*%
X-86060000Y-131920000D03*
D17*
%TO.P,U2,20*%
%TO.N,GND*%
X-86060000Y-129380000D03*
%TO.P,U2,18*%
%TO.N,Net-(U2-Pad18)*%
X-111460000Y-172560000D03*
D16*
%TO.P,U2,17*%
%TO.N,Net-(U2-Pad17)*%
X-111460000Y-170020000D03*
%TO.P,U2,16*%
%TO.N,Net-(U2-Pad16)*%
X-111460000Y-167480000D03*
%TO.P,U2,15*%
%TO.N,Net-(U2-Pad15)*%
X-111460000Y-164940000D03*
D17*
%TO.P,U2,14*%
%TO.N,GND*%
X-111460000Y-162400000D03*
D16*
%TO.P,U2,13*%
%TO.N,Net-(U2-Pad13)*%
X-111460000Y-159860000D03*
%TO.P,U2,12*%
%TO.N,Net-(U2-Pad12)*%
X-111460000Y-157320000D03*
%TO.P,U2,11*%
%TO.N,IO27*%
X-111460000Y-154780000D03*
%TO.P,U2,10*%
%TO.N,IO26*%
X-111460000Y-152240000D03*
%TO.P,U2,9*%
%TO.N,IO25*%
X-111460000Y-149700000D03*
%TO.P,U2,8*%
%TO.N,IO33*%
X-111460000Y-147160000D03*
%TO.P,U2,7*%
%TO.N,Net-(U2-Pad7)*%
X-111460000Y-144620000D03*
%TO.P,U2,6*%
%TO.N,Net-(U2-Pad6)*%
X-111460000Y-142080000D03*
%TO.P,U2,5*%
%TO.N,Net-(U2-Pad5)*%
X-111460000Y-139540000D03*
%TO.P,U2,4*%
%TO.N,Net-(U2-Pad4)*%
X-111460000Y-137000000D03*
%TO.P,U2,3*%
%TO.N,Net-(U2-Pad3)*%
X-111460000Y-134460000D03*
%TO.P,U2,2*%
%TO.N,Net-(U2-Pad2)*%
X-111460000Y-131920000D03*
%TO.P,U2,1*%
%TO.N,+3V3*%
X-111460000Y-129380000D03*
%TO.P,U2,19*%
%TO.N,+5V*%
X-111460000Y-175180000D03*
%TO.P,U2,38*%
%TO.N,Net-(U2-Pad38)*%
X-86060000Y-175160000D03*
%TD*%
D18*
%TO.P,SERVO1,3*%
%TO.N,IO21*%
X-77030000Y-133100000D03*
%TO.P,SERVO1,2*%
%TO.N,+3V3*%
X-74490000Y-133100000D03*
D19*
%TO.P,SERVO1,1*%
%TO.N,GND*%
X-71950000Y-133100000D03*
%TD*%
D18*
%TO.P,Seguro1,2*%
%TO.N,+3V3*%
X-62570000Y-132770000D03*
D19*
%TO.P,Seguro1,1*%
%TO.N,IO19*%
X-65110000Y-132770000D03*
%TD*%
D16*
%TO.P,HALL1,3*%
%TO.N,IO26*%
X-118780000Y-113850000D03*
%TO.P,HALL1,2*%
%TO.N,+3V3*%
X-118780000Y-116390000D03*
D20*
%TO.P,HALL1,1*%
%TO.N,GND*%
X-118780000Y-118930000D03*
%TD*%
D18*
%TO.P,Bolsa1,2*%
%TO.N,+3V3*%
X-51880000Y-132610000D03*
%TO.P,Bolsa1,1*%
%TO.N,IO18*%
X-54420000Y-132610000D03*
%TD*%
D10*
%TO.P,J4,2*%
%TO.N,+12V*%
X-126470000Y-158530000D03*
D11*
%TO.P,J4,1*%
%TO.N,GND*%
X-126470000Y-153450000D03*
%TD*%
D20*
%TO.P,D1,2*%
%TO.N,GND*%
X-68730000Y-163150000D03*
D16*
%TO.P,D1,1*%
%TO.N,+5V*%
X-68730000Y-168230000D03*
%TD*%
D21*
%TO.N,*%
X-34750000Y-188730000D03*
X-129030000Y-79760000D03*
%TD*%
D22*
%TO.N,IO18*%
X-86060000Y-149700000D02*
X-84670000Y-149700000D01*
X-84670000Y-149700000D02*
X-82050000Y-147080000D01*
X-82050000Y-147080000D02*
X-58820000Y-147080000D01*
X-54420000Y-142680000D02*
X-54420000Y-132610000D01*
X-58820000Y-147080000D02*
X-54420000Y-142680000D01*
X-54420000Y-127210000D02*
X-54450000Y-127180000D01*
X-54420000Y-132610000D02*
X-54420000Y-127210000D01*
%TO.N,IO19*%
X-86060000Y-147160000D02*
X-84980000Y-147160000D01*
X-84980000Y-147160000D02*
X-82230000Y-144410000D01*
X-82230000Y-144410000D02*
X-67620000Y-144410000D01*
X-65110000Y-141900000D02*
X-65110000Y-132770000D01*
X-67620000Y-144410000D02*
X-65110000Y-141900000D01*
X-65110000Y-129140000D02*
X-65070000Y-129100000D01*
X-65110000Y-132770000D02*
X-65110000Y-129140000D01*
%TO.N,IO33*%
X-102060000Y-105160000D02*
X-102060000Y-139050000D01*
X-110170000Y-147160000D02*
X-111460000Y-147160000D01*
X-102060000Y-139050000D02*
X-110170000Y-147160000D01*
%TO.N,+3V3*%
X-75400000Y-170820000D02*
X-62670000Y-170820000D01*
X-51880000Y-160030000D02*
X-51880000Y-132610000D01*
X-62670000Y-170820000D02*
X-51880000Y-160030000D01*
X-51880000Y-132610000D02*
X-51880000Y-125030000D01*
X-51880000Y-125030000D02*
X-53240000Y-123670000D01*
X-53240000Y-123670000D02*
X-56040000Y-123670000D01*
X-56040000Y-123670000D02*
X-57520000Y-125150000D01*
X-59080000Y-132770000D02*
X-62570000Y-132770000D01*
X-57520000Y-131210000D02*
X-59080000Y-132770000D01*
X-74490000Y-133100000D02*
X-74490000Y-130780000D01*
X-74490000Y-130780000D02*
X-70110000Y-126400000D01*
X-57520000Y-126400000D02*
X-57520000Y-131210000D01*
X-57520000Y-125150000D02*
X-57520000Y-126400000D01*
X-118780000Y-116390000D02*
X-121620000Y-116390000D01*
X-121620000Y-116390000D02*
X-124050000Y-118820000D01*
X-124050000Y-118820000D02*
X-124050000Y-123870000D01*
X-118540000Y-129380000D02*
X-111460000Y-129380000D01*
X-124050000Y-123870000D02*
X-118540000Y-129380000D01*
X-113890000Y-97910000D02*
X-88982930Y-97910000D01*
X-69890000Y-117002930D02*
X-69890000Y-126400000D01*
X-124050000Y-108070000D02*
X-113890000Y-97910000D01*
X-124050000Y-118820000D02*
X-124050000Y-108070000D01*
X-69890000Y-126400000D02*
X-57520000Y-126400000D01*
X-88982930Y-97910000D02*
X-69890000Y-117002930D01*
X-70110000Y-126400000D02*
X-69890000Y-126400000D01*
X-77230000Y-171770000D02*
X-76280000Y-170820000D01*
X-77230000Y-180740000D02*
X-77230000Y-171770000D01*
X-76280000Y-170820000D02*
X-75400000Y-170820000D01*
X-81090000Y-184600000D02*
X-77230000Y-180740000D01*
X-127020000Y-184600000D02*
X-81090000Y-184600000D01*
%TO.N,+5V*%
X-68780000Y-168280000D02*
X-68730000Y-168230000D01*
X-75400000Y-168280000D02*
X-68780000Y-168280000D01*
X-121980000Y-177020000D02*
X-127020000Y-182060000D01*
X-121980000Y-171940000D02*
X-121980000Y-177020000D01*
X-120140000Y-175180000D02*
X-121980000Y-177020000D01*
X-111460000Y-175180000D02*
X-120140000Y-175180000D01*
X-78800000Y-168280000D02*
X-75400000Y-168280000D01*
X-80340000Y-169820000D02*
X-78800000Y-168280000D01*
X-80340000Y-176320000D02*
X-80340000Y-169820000D01*
X-107870000Y-178840000D02*
X-82860000Y-178840000D01*
X-111460000Y-175250000D02*
X-107870000Y-178840000D01*
X-82860000Y-178840000D02*
X-80340000Y-176320000D01*
X-111460000Y-175180000D02*
X-111460000Y-175250000D01*
%TO.N,IO26*%
X-111460000Y-152240000D02*
X-110700000Y-152240000D01*
X-110700000Y-152240000D02*
X-96140000Y-137680000D01*
X-96140000Y-137680000D02*
X-96140000Y-105480000D01*
X-96140000Y-105480000D02*
X-98690000Y-102930000D01*
X-118780000Y-113850000D02*
X-118780000Y-111690000D01*
X-110020000Y-102930000D02*
X-98690000Y-102930000D01*
X-118780000Y-111690000D02*
X-110020000Y-102930000D01*
%TO.N,CD-DC*%
X-86060000Y-157320000D02*
X-88280000Y-157320000D01*
X-75800010Y-153440010D02*
X-75400000Y-153040000D01*
X-75400000Y-153040000D02*
X-80130000Y-153040000D01*
X-80669990Y-153579990D02*
X-88239990Y-153579990D01*
X-80130000Y-153040000D02*
X-80669990Y-153579990D01*
X-88239990Y-153579990D02*
X-89280000Y-154620000D01*
X-89280000Y-156320000D02*
X-88280000Y-157320000D01*
X-89280000Y-154620000D02*
X-89280000Y-156320000D01*
%TO.N,CS*%
X-75400000Y-155580000D02*
X-73210000Y-155580000D01*
X-73210000Y-155580000D02*
X-72030000Y-154400000D01*
X-72030000Y-154400000D02*
X-72030000Y-151990000D01*
X-72030000Y-151990000D02*
X-73040000Y-150980000D01*
X-73040000Y-150980000D02*
X-89470000Y-150980000D01*
X-89470000Y-150980000D02*
X-91060000Y-152570000D01*
X-91060000Y-152570000D02*
X-91060000Y-161030000D01*
X-89690000Y-162400000D02*
X-86060000Y-162400000D01*
X-91060000Y-161030000D02*
X-89690000Y-162400000D01*
%TO.N,MOSI-DATA*%
X-75400000Y-158120000D02*
X-80290000Y-158120000D01*
X-80290000Y-158120000D02*
X-83130000Y-155280000D01*
X-85560000Y-155280000D02*
X-86060000Y-154780000D01*
X-83130000Y-155280000D02*
X-85560000Y-155280000D01*
%TO.N,SCK*%
X-86060000Y-159860000D02*
X-81580000Y-159860000D01*
X-80780000Y-160660000D02*
X-75400000Y-160660000D01*
X-81580000Y-159860000D02*
X-80780000Y-160660000D01*
%TO.N,RST*%
X-86060000Y-164940000D02*
X-82220000Y-164940000D01*
X-80480000Y-163200000D02*
X-75400000Y-163200000D01*
X-82220000Y-164940000D02*
X-80480000Y-163200000D01*
%TO.N,IO25*%
X-111460000Y-149700000D02*
X-120130000Y-149700000D01*
X-126110000Y-143720000D02*
X-126110000Y-139530000D01*
X-120130000Y-149700000D02*
X-126110000Y-143720000D01*
%TO.N,IO21*%
X-86060000Y-142080000D02*
X-84080000Y-142080000D01*
X-77030000Y-135030000D02*
X-77030000Y-133100000D01*
X-84080000Y-142080000D02*
X-77030000Y-135030000D01*
%TO.N,+12V*%
X-130180000Y-138520000D02*
X-126110000Y-134450000D01*
X-126110000Y-134450000D02*
X-129440000Y-131120000D01*
X-129440000Y-131120000D02*
X-129440000Y-103070000D01*
X-121530000Y-95160000D02*
X-102060000Y-95160000D01*
X-129440000Y-103070000D02*
X-121530000Y-95160000D01*
X-130180000Y-154820000D02*
X-130180000Y-154490000D01*
X-126470000Y-158530000D02*
X-130180000Y-154820000D01*
X-130180000Y-154490000D02*
X-130180000Y-138520000D01*
X-121980000Y-166860000D02*
X-123620000Y-166860000D01*
X-126470000Y-164010000D02*
X-126470000Y-158530000D01*
X-123620000Y-166860000D02*
X-126470000Y-164010000D01*
%TD*%
D23*
%TO.N,GND*%
X-32659999Y-171569411D02*
X-32717451Y-188057984D01*
X-32857988Y-187718698D01*
X-33091637Y-187369017D01*
X-33389017Y-187071637D01*
X-33738698Y-186837988D01*
X-34127244Y-186677047D01*
X-34539721Y-186595000D01*
X-34960279Y-186595000D01*
X-35372756Y-186677047D01*
X-35761302Y-186837988D01*
X-36110983Y-187071637D01*
X-36408363Y-187369017D01*
X-36642012Y-187718698D01*
X-36802953Y-188107244D01*
X-36885000Y-188519721D01*
X-36885000Y-188940279D01*
X-36802953Y-189352756D01*
X-36642012Y-189741302D01*
X-36408363Y-190090983D01*
X-36110983Y-190388363D01*
X-35761302Y-190622012D01*
X-35580716Y-190696813D01*
X-88055785Y-191140000D01*
X-131760000Y-191140000D01*
X-131760000Y-188092500D01*
X-128658072Y-188092500D01*
X-128645812Y-188216982D01*
X-128609502Y-188336680D01*
X-128550537Y-188446994D01*
X-128471185Y-188543685D01*
X-128374494Y-188623037D01*
X-128264180Y-188682002D01*
X-128144482Y-188718312D01*
X-128020000Y-188730572D01*
X-127305750Y-188727500D01*
X-127147000Y-188568750D01*
X-127147000Y-187267000D01*
X-126893000Y-187267000D01*
X-126893000Y-188568750D01*
X-126734250Y-188727500D01*
X-126020000Y-188730572D01*
X-125895518Y-188718312D01*
X-125775820Y-188682002D01*
X-125665506Y-188623037D01*
X-125568815Y-188543685D01*
X-125489463Y-188446994D01*
X-125430498Y-188336680D01*
X-125394188Y-188216982D01*
X-125381928Y-188092500D01*
X-125385000Y-187425750D01*
X-125543750Y-187267000D01*
X-126893000Y-187267000D01*
X-127147000Y-187267000D01*
X-128496250Y-187267000D01*
X-128655000Y-187425750D01*
X-128658072Y-188092500D01*
X-131760000Y-188092500D01*
X-131760000Y-138520000D01*
X-131069281Y-138520000D01*
X-131064999Y-138563479D01*
X-131065000Y-154446523D01*
X-131065000Y-154776531D01*
X-131069281Y-154820000D01*
X-131065000Y-154863469D01*
X-131065000Y-154863476D01*
X-131053788Y-154977314D01*
X-131052195Y-154993490D01*
X-131041478Y-155028817D01*
X-131001589Y-155160312D01*
X-130919411Y-155314058D01*
X-130808817Y-155448817D01*
X-130775044Y-155476534D01*
X-128317564Y-157934015D01*
X-128330639Y-157965581D01*
X-128405000Y-158339419D01*
X-128405000Y-158720581D01*
X-128330639Y-159094419D01*
X-128184775Y-159446566D01*
X-127973013Y-159763491D01*
X-127703491Y-160033013D01*
X-127386566Y-160244775D01*
X-127354999Y-160257850D01*
X-127355000Y-163966531D01*
X-127359281Y-164010000D01*
X-127355000Y-164053469D01*
X-127355000Y-164053476D01*
X-127343838Y-164166812D01*
X-127342195Y-164183490D01*
X-127337008Y-164200589D01*
X-127291589Y-164350312D01*
X-127209411Y-164504058D01*
X-127098817Y-164638817D01*
X-127065044Y-164666534D01*
X-124276530Y-167455049D01*
X-124248817Y-167488817D01*
X-124215049Y-167516530D01*
X-124215047Y-167516532D01*
X-124114059Y-167599411D01*
X-123960314Y-167681589D01*
X-123793490Y-167732195D01*
X-123663477Y-167745000D01*
X-123663469Y-167745000D01*
X-123620000Y-167749281D01*
X-123618072Y-167749091D01*
X-123618072Y-167812500D01*
X-123605812Y-167936982D01*
X-123569502Y-168056680D01*
X-123510537Y-168166994D01*
X-123431185Y-168263685D01*
X-123334494Y-168343037D01*
X-123242781Y-168392059D01*
X-123355969Y-168533077D01*
X-123499571Y-168808906D01*
X-123570563Y-169027020D01*
X-123450594Y-169273000D01*
X-122107000Y-169273000D01*
X-122107000Y-169253000D01*
X-121853000Y-169253000D01*
X-121853000Y-169273000D01*
X-120509406Y-169273000D01*
X-120389437Y-169027020D01*
X-120460429Y-168808906D01*
X-120604031Y-168533077D01*
X-120717219Y-168392059D01*
X-120625506Y-168343037D01*
X-120528815Y-168263685D01*
X-120449463Y-168166994D01*
X-120390498Y-168056680D01*
X-120354188Y-167936982D01*
X-120341928Y-167812500D01*
X-120341928Y-165907500D01*
X-120354188Y-165783018D01*
X-120390498Y-165663320D01*
X-120449463Y-165553006D01*
X-120528815Y-165456315D01*
X-120625506Y-165376963D01*
X-120735820Y-165317998D01*
X-120855518Y-165281688D01*
X-120980000Y-165269428D01*
X-122980000Y-165269428D01*
X-123104482Y-165281688D01*
X-123224180Y-165317998D01*
X-123334494Y-165376963D01*
X-123431185Y-165456315D01*
X-123510537Y-165553006D01*
X-123567969Y-165660452D01*
X-125585000Y-163643422D01*
X-125585000Y-160257850D01*
X-125553434Y-160244775D01*
X-125236509Y-160033013D01*
X-124966987Y-159763491D01*
X-124755225Y-159446566D01*
X-124609361Y-159094419D01*
X-124535000Y-158720581D01*
X-124535000Y-158339419D01*
X-124609361Y-157965581D01*
X-124755225Y-157613434D01*
X-124966987Y-157296509D01*
X-125236509Y-157026987D01*
X-125553434Y-156815225D01*
X-125905581Y-156669361D01*
X-126279419Y-156595000D01*
X-126660581Y-156595000D01*
X-127034419Y-156669361D01*
X-127065985Y-156682436D01*
X-128998421Y-154750000D01*
X-128408072Y-154750000D01*
X-128395812Y-154874482D01*
X-128359502Y-154994180D01*
X-128300537Y-155104494D01*
X-128221185Y-155201185D01*
X-128124494Y-155280537D01*
X-128014180Y-155339502D01*
X-127894482Y-155375812D01*
X-127770000Y-155388072D01*
X-126755750Y-155385000D01*
X-126597000Y-155226250D01*
X-126597000Y-153577000D01*
X-126343000Y-153577000D01*
X-126343000Y-155226250D01*
X-126184250Y-155385000D01*
X-125170000Y-155388072D01*
X-125045518Y-155375812D01*
X-124925820Y-155339502D01*
X-124815506Y-155280537D01*
X-124718815Y-155201185D01*
X-124639463Y-155104494D01*
X-124580498Y-154994180D01*
X-124544188Y-154874482D01*
X-124531928Y-154750000D01*
X-124535000Y-153735750D01*
X-124693750Y-153577000D01*
X-126343000Y-153577000D01*
X-126597000Y-153577000D01*
X-128246250Y-153577000D01*
X-128405000Y-153735750D01*
X-128408072Y-154750000D01*
X-128998421Y-154750000D01*
X-129295000Y-154453422D01*
X-129295000Y-152150000D01*
X-128408072Y-152150000D01*
X-128405000Y-153164250D01*
X-128246250Y-153323000D01*
X-126597000Y-153323000D01*
X-126597000Y-151673750D01*
X-126343000Y-151673750D01*
X-126343000Y-153323000D01*
X-124693750Y-153323000D01*
X-124535000Y-153164250D01*
X-124531928Y-152150000D01*
X-124544188Y-152025518D01*
X-124580498Y-151905820D01*
X-124639463Y-151795506D01*
X-124718815Y-151698815D01*
X-124815506Y-151619463D01*
X-124925820Y-151560498D01*
X-125045518Y-151524188D01*
X-125170000Y-151511928D01*
X-126184250Y-151515000D01*
X-126343000Y-151673750D01*
X-126597000Y-151673750D01*
X-126755750Y-151515000D01*
X-127770000Y-151511928D01*
X-127894482Y-151524188D01*
X-128014180Y-151560498D01*
X-128124494Y-151619463D01*
X-128221185Y-151698815D01*
X-128300537Y-151795506D01*
X-128359502Y-151905820D01*
X-128395812Y-152025518D01*
X-128408072Y-152150000D01*
X-129295000Y-152150000D01*
X-129295000Y-138886578D01*
X-126705985Y-136297564D01*
X-126674419Y-136310639D01*
X-126300581Y-136385000D01*
X-125919419Y-136385000D01*
X-125545581Y-136310639D01*
X-125193434Y-136164775D01*
X-124876509Y-135953013D01*
X-124606987Y-135683491D01*
X-124395225Y-135366566D01*
X-124249361Y-135014419D01*
X-124175000Y-134640581D01*
X-124175000Y-134259419D01*
X-124249361Y-133885581D01*
X-124395225Y-133533434D01*
X-124606987Y-133216509D01*
X-124876509Y-132946987D01*
X-125193434Y-132735225D01*
X-125545581Y-132589361D01*
X-125919419Y-132515000D01*
X-126300581Y-132515000D01*
X-126674419Y-132589361D01*
X-126705985Y-132602436D01*
X-128555000Y-130753422D01*
X-128555000Y-130670000D01*
X-128048072Y-130670000D01*
X-128035812Y-130794482D01*
X-127999502Y-130914180D01*
X-127940537Y-131024494D01*
X-127861185Y-131121185D01*
X-127764494Y-131200537D01*
X-127654180Y-131259502D01*
X-127534482Y-131295812D01*
X-127410000Y-131308072D01*
X-126395750Y-131305000D01*
X-126237000Y-131146250D01*
X-126237000Y-129497000D01*
X-125983000Y-129497000D01*
X-125983000Y-131146250D01*
X-125824250Y-131305000D01*
X-124810000Y-131308072D01*
X-124685518Y-131295812D01*
X-124565820Y-131259502D01*
X-124455506Y-131200537D01*
X-124358815Y-131121185D01*
X-124279463Y-131024494D01*
X-124220498Y-130914180D01*
X-124184188Y-130794482D01*
X-124171928Y-130670000D01*
X-124175000Y-129655750D01*
X-124333750Y-129497000D01*
X-125983000Y-129497000D01*
X-126237000Y-129497000D01*
X-127886250Y-129497000D01*
X-128045000Y-129655750D01*
X-128048072Y-130670000D01*
X-128555000Y-130670000D01*
X-128555000Y-128070000D01*
X-128048072Y-128070000D01*
X-128045000Y-129084250D01*
X-127886250Y-129243000D01*
X-126237000Y-129243000D01*
X-126237000Y-127593750D01*
X-125983000Y-127593750D01*
X-125983000Y-129243000D01*
X-124333750Y-129243000D01*
X-124175000Y-129084250D01*
X-124171928Y-128070000D01*
X-124184188Y-127945518D01*
X-124220498Y-127825820D01*
X-124279463Y-127715506D01*
X-124358815Y-127618815D01*
X-124455506Y-127539463D01*
X-124565820Y-127480498D01*
X-124685518Y-127444188D01*
X-124810000Y-127431928D01*
X-125824250Y-127435000D01*
X-125983000Y-127593750D01*
X-126237000Y-127593750D01*
X-126395750Y-127435000D01*
X-127410000Y-127431928D01*
X-127534482Y-127444188D01*
X-127654180Y-127480498D01*
X-127764494Y-127539463D01*
X-127861185Y-127618815D01*
X-127940537Y-127715506D01*
X-127999502Y-127825820D01*
X-128035812Y-127945518D01*
X-128048072Y-128070000D01*
X-128555000Y-128070000D01*
X-128555000Y-103436578D01*
X-121163421Y-96045000D01*
X-103998072Y-96045000D01*
X-103998072Y-96460000D01*
X-103985812Y-96584482D01*
X-103949502Y-96704180D01*
X-103890537Y-96814494D01*
X-103811185Y-96911185D01*
X-103714494Y-96990537D01*
X-103650019Y-97025000D01*
X-113846531Y-97025000D01*
X-113890000Y-97020719D01*
X-113933469Y-97025000D01*
X-113933477Y-97025000D01*
X-114063490Y-97037805D01*
X-114230313Y-97088411D01*
X-114384059Y-97170589D01*
X-114485047Y-97253468D01*
X-114485049Y-97253470D01*
X-114518817Y-97281183D01*
X-114546530Y-97314951D01*
X-124645048Y-107413470D01*
X-124678816Y-107441183D01*
X-124706529Y-107474951D01*
X-124706532Y-107474954D01*
X-124789410Y-107575941D01*
X-124871588Y-107729687D01*
X-124922195Y-107896510D01*
X-124939281Y-108070000D01*
X-124934999Y-108113479D01*
X-124935000Y-118776523D01*
X-124935000Y-118776531D01*
X-124939281Y-118820000D01*
X-124935000Y-118863469D01*
X-124934999Y-123826521D01*
X-124939281Y-123870000D01*
X-124922195Y-124043490D01*
X-124871588Y-124210313D01*
X-124789410Y-124364059D01*
X-124706532Y-124465046D01*
X-124706529Y-124465049D01*
X-124678816Y-124498817D01*
X-124645048Y-124526530D01*
X-119196530Y-129975049D01*
X-119168817Y-130008817D01*
X-119135049Y-130036530D01*
X-119135047Y-130036532D01*
X-119034059Y-130119411D01*
X-118880313Y-130201589D01*
X-118713490Y-130252195D01*
X-118583477Y-130265000D01*
X-118583469Y-130265000D01*
X-118540000Y-130269281D01*
X-118496531Y-130265000D01*
X-113025395Y-130265000D01*
X-112944081Y-130364081D01*
X-112733188Y-130537157D01*
X-112522073Y-130650000D01*
X-112733188Y-130762843D01*
X-112944081Y-130935919D01*
X-113117157Y-131146812D01*
X-113245764Y-131387419D01*
X-113324960Y-131648493D01*
X-113351701Y-131920000D01*
X-113324960Y-132191507D01*
X-113245764Y-132452581D01*
X-113117157Y-132693188D01*
X-112944081Y-132904081D01*
X-112733188Y-133077157D01*
X-112522073Y-133190000D01*
X-112733188Y-133302843D01*
X-112944081Y-133475919D01*
X-113117157Y-133686812D01*
X-113245764Y-133927419D01*
X-113324960Y-134188493D01*
X-113351701Y-134460000D01*
X-113324960Y-134731507D01*
X-113245764Y-134992581D01*
X-113117157Y-135233188D01*
X-112944081Y-135444081D01*
X-112733188Y-135617157D01*
X-112522073Y-135730000D01*
X-112733188Y-135842843D01*
X-112944081Y-136015919D01*
X-113117157Y-136226812D01*
X-113245764Y-136467419D01*
X-113324960Y-136728493D01*
X-113351701Y-137000000D01*
X-113324960Y-137271507D01*
X-113245764Y-137532581D01*
X-113117157Y-137773188D01*
X-112944081Y-137984081D01*
X-112733188Y-138157157D01*
X-112522073Y-138270000D01*
X-112733188Y-138382843D01*
X-112944081Y-138555919D01*
X-113117157Y-138766812D01*
X-113245764Y-139007419D01*
X-113324960Y-139268493D01*
X-113351701Y-139540000D01*
X-113324960Y-139811507D01*
X-113245764Y-140072581D01*
X-113117157Y-140313188D01*
X-112944081Y-140524081D01*
X-112733188Y-140697157D01*
X-112522073Y-140810000D01*
X-112733188Y-140922843D01*
X-112944081Y-141095919D01*
X-113117157Y-141306812D01*
X-113245764Y-141547419D01*
X-113324960Y-141808493D01*
X-113351701Y-142080000D01*
X-113324960Y-142351507D01*
X-113245764Y-142612581D01*
X-113117157Y-142853188D01*
X-112944081Y-143064081D01*
X-112733188Y-143237157D01*
X-112522073Y-143350000D01*
X-112733188Y-143462843D01*
X-112944081Y-143635919D01*
X-113117157Y-143846812D01*
X-113245764Y-144087419D01*
X-113324960Y-144348493D01*
X-113351701Y-144620000D01*
X-113324960Y-144891507D01*
X-113245764Y-145152581D01*
X-113117157Y-145393188D01*
X-112944081Y-145604081D01*
X-112733188Y-145777157D01*
X-112522073Y-145890000D01*
X-112733188Y-146002843D01*
X-112944081Y-146175919D01*
X-113117157Y-146386812D01*
X-113245764Y-146627419D01*
X-113324960Y-146888493D01*
X-113351701Y-147160000D01*
X-113324960Y-147431507D01*
X-113245764Y-147692581D01*
X-113117157Y-147933188D01*
X-112944081Y-148144081D01*
X-112733188Y-148317157D01*
X-112522073Y-148430000D01*
X-112733188Y-148542843D01*
X-112944081Y-148715919D01*
X-113025395Y-148815000D01*
X-119763421Y-148815000D01*
X-125225000Y-143353422D01*
X-125225000Y-141257850D01*
X-125193434Y-141244775D01*
X-124876509Y-141033013D01*
X-124606987Y-140763491D01*
X-124395225Y-140446566D01*
X-124249361Y-140094419D01*
X-124175000Y-139720581D01*
X-124175000Y-139339419D01*
X-124249361Y-138965581D01*
X-124395225Y-138613434D01*
X-124606987Y-138296509D01*
X-124876509Y-138026987D01*
X-125193434Y-137815225D01*
X-125545581Y-137669361D01*
X-125919419Y-137595000D01*
X-126300581Y-137595000D01*
X-126674419Y-137669361D01*
X-127026566Y-137815225D01*
X-127343491Y-138026987D01*
X-127613013Y-138296509D01*
X-127824775Y-138613434D01*
X-127970639Y-138965581D01*
X-128045000Y-139339419D01*
X-128045000Y-139720581D01*
X-127970639Y-140094419D01*
X-127824775Y-140446566D01*
X-127613013Y-140763491D01*
X-127343491Y-141033013D01*
X-127026566Y-141244775D01*
X-126994999Y-141257850D01*
X-126995000Y-143676531D01*
X-126999281Y-143720000D01*
X-126995000Y-143763469D01*
X-126995000Y-143763476D01*
X-126982195Y-143893489D01*
X-126931589Y-144060312D01*
X-126849411Y-144214058D01*
X-126738817Y-144348817D01*
X-126705044Y-144376534D01*
X-120786530Y-150295049D01*
X-120758817Y-150328817D01*
X-120725049Y-150356530D01*
X-120725047Y-150356532D01*
X-120653548Y-150415210D01*
X-120624059Y-150439411D01*
X-120470313Y-150521589D01*
X-120303490Y-150572195D01*
X-120173477Y-150585000D01*
X-120173467Y-150585000D01*
X-120130001Y-150589281D01*
X-120086535Y-150585000D01*
X-113025395Y-150585000D01*
X-112944081Y-150684081D01*
X-112733188Y-150857157D01*
X-112522073Y-150970000D01*
X-112733188Y-151082843D01*
X-112944081Y-151255919D01*
X-113117157Y-151466812D01*
X-113245764Y-151707419D01*
X-113324960Y-151968493D01*
X-113351701Y-152240000D01*
X-113324960Y-152511507D01*
X-113245764Y-152772581D01*
X-113117157Y-153013188D01*
X-112944081Y-153224081D01*
X-112733188Y-153397157D01*
X-112522073Y-153510000D01*
X-112733188Y-153622843D01*
X-112944081Y-153795919D01*
X-113117157Y-154006812D01*
X-113245764Y-154247419D01*
X-113324960Y-154508493D01*
X-113351701Y-154780000D01*
X-113324960Y-155051507D01*
X-113245764Y-155312581D01*
X-113117157Y-155553188D01*
X-112944081Y-155764081D01*
X-112733188Y-155937157D01*
X-112522073Y-156050000D01*
X-112733188Y-156162843D01*
X-112944081Y-156335919D01*
X-113117157Y-156546812D01*
X-113245764Y-156787419D01*
X-113324960Y-157048493D01*
X-113351701Y-157320000D01*
X-113324960Y-157591507D01*
X-113245764Y-157852581D01*
X-113117157Y-158093188D01*
X-112944081Y-158304081D01*
X-112733188Y-158477157D01*
X-112522073Y-158590000D01*
X-112733188Y-158702843D01*
X-112944081Y-158875919D01*
X-113117157Y-159086812D01*
X-113245764Y-159327419D01*
X-113324960Y-159588493D01*
X-113351701Y-159860000D01*
X-113324960Y-160131507D01*
X-113245764Y-160392581D01*
X-113117157Y-160633188D01*
X-112944081Y-160844081D01*
X-112736392Y-161014527D01*
X-112834482Y-161024188D01*
X-112954180Y-161060498D01*
X-113064494Y-161119463D01*
X-113161185Y-161198815D01*
X-113240537Y-161295506D01*
X-113299502Y-161405820D01*
X-113335812Y-161525518D01*
X-113348072Y-161650000D01*
X-113345000Y-162114250D01*
X-113186250Y-162273000D01*
X-111587000Y-162273000D01*
X-111587000Y-162253000D01*
X-111333000Y-162253000D01*
X-111333000Y-162273000D01*
X-109733750Y-162273000D01*
X-109575000Y-162114250D01*
X-109571928Y-161650000D01*
X-109584188Y-161525518D01*
X-109620498Y-161405820D01*
X-109679463Y-161295506D01*
X-109758815Y-161198815D01*
X-109855506Y-161119463D01*
X-109965820Y-161060498D01*
X-110085518Y-161024188D01*
X-110183608Y-161014527D01*
X-109975919Y-160844081D01*
X-109802843Y-160633188D01*
X-109674236Y-160392581D01*
X-109595040Y-160131507D01*
X-109568299Y-159860000D01*
X-109595040Y-159588493D01*
X-109674236Y-159327419D01*
X-109802843Y-159086812D01*
X-109975919Y-158875919D01*
X-110186812Y-158702843D01*
X-110397927Y-158590000D01*
X-110186812Y-158477157D01*
X-109975919Y-158304081D01*
X-109802843Y-158093188D01*
X-109674236Y-157852581D01*
X-109595040Y-157591507D01*
X-109568299Y-157320000D01*
X-109595040Y-157048493D01*
X-109674236Y-156787419D01*
X-109802843Y-156546812D01*
X-109975919Y-156335919D01*
X-110186812Y-156162843D01*
X-110397927Y-156050000D01*
X-110186812Y-155937157D01*
X-109975919Y-155764081D01*
X-109802843Y-155553188D01*
X-109674236Y-155312581D01*
X-109595040Y-155051507D01*
X-109568299Y-154780000D01*
X-109595040Y-154508493D01*
X-109674236Y-154247419D01*
X-109802843Y-154006812D01*
X-109975919Y-153795919D01*
X-110186812Y-153622843D01*
X-110397927Y-153510000D01*
X-110186812Y-153397157D01*
X-109975919Y-153224081D01*
X-109802843Y-153013188D01*
X-109674236Y-152772581D01*
X-109595040Y-152511507D01*
X-109581396Y-152372974D01*
X-95544949Y-138336528D01*
X-95511183Y-138308817D01*
X-95400589Y-138174059D01*
X-95318411Y-138020313D01*
X-95267805Y-137853490D01*
X-95255000Y-137723477D01*
X-95255000Y-137723467D01*
X-95250719Y-137680001D01*
X-95255000Y-137636535D01*
X-95255000Y-128630000D01*
X-87948072Y-128630000D01*
X-87945000Y-129094250D01*
X-87786250Y-129253000D01*
X-86187000Y-129253000D01*
X-86187000Y-128153750D01*
X-85933000Y-128153750D01*
X-85933000Y-129253000D01*
X-84333750Y-129253000D01*
X-84175000Y-129094250D01*
X-84171928Y-128630000D01*
X-84184188Y-128505518D01*
X-84220498Y-128385820D01*
X-84279463Y-128275506D01*
X-84358815Y-128178815D01*
X-84455506Y-128099463D01*
X-84565820Y-128040498D01*
X-84685518Y-128004188D01*
X-84810000Y-127991928D01*
X-85774250Y-127995000D01*
X-85933000Y-128153750D01*
X-86187000Y-128153750D01*
X-86345750Y-127995000D01*
X-87310000Y-127991928D01*
X-87434482Y-128004188D01*
X-87554180Y-128040498D01*
X-87664494Y-128099463D01*
X-87761185Y-128178815D01*
X-87840537Y-128275506D01*
X-87899502Y-128385820D01*
X-87935812Y-128505518D01*
X-87948072Y-128630000D01*
X-95255000Y-128630000D01*
X-95255000Y-105523469D01*
X-95250719Y-105480000D01*
X-95255000Y-105436531D01*
X-95255000Y-105436523D01*
X-95267805Y-105306510D01*
X-95318411Y-105139687D01*
X-95318411Y-105139686D01*
X-95400589Y-104985941D01*
X-95483468Y-104884953D01*
X-95483470Y-104884951D01*
X-95511183Y-104851183D01*
X-95544951Y-104823470D01*
X-98033466Y-102334956D01*
X-98061183Y-102301183D01*
X-98195941Y-102190589D01*
X-98349687Y-102108411D01*
X-98516510Y-102057805D01*
X-98646523Y-102045000D01*
X-98646531Y-102045000D01*
X-98690000Y-102040719D01*
X-98733469Y-102045000D01*
X-101355637Y-102045000D01*
X-101269310Y-102016333D01*
X-101022317Y-101884312D01*
X-100890381Y-101589224D01*
X-102060000Y-100419605D01*
X-103229619Y-101589224D01*
X-103097683Y-101884312D01*
X-102777216Y-102045000D01*
X-109976531Y-102045000D01*
X-110020000Y-102040719D01*
X-110063469Y-102045000D01*
X-110063477Y-102045000D01*
X-110193490Y-102057805D01*
X-110360313Y-102108411D01*
X-110495591Y-102180718D01*
X-110514059Y-102190589D01*
X-110615047Y-102273468D01*
X-110615049Y-102273470D01*
X-110648817Y-102301183D01*
X-110676530Y-102334951D01*
X-119375048Y-111033470D01*
X-119408816Y-111061183D01*
X-119436529Y-111094951D01*
X-119436532Y-111094954D01*
X-119519410Y-111195941D01*
X-119601588Y-111349687D01*
X-119652195Y-111516510D01*
X-119669281Y-111690000D01*
X-119664999Y-111733479D01*
X-119664999Y-112519468D01*
X-119812581Y-112564236D01*
X-120053188Y-112692843D01*
X-120264081Y-112865919D01*
X-120437157Y-113076812D01*
X-120565764Y-113317419D01*
X-120644960Y-113578493D01*
X-120671701Y-113850000D01*
X-120644960Y-114121507D01*
X-120565764Y-114382581D01*
X-120437157Y-114623188D01*
X-120264081Y-114834081D01*
X-120053188Y-115007157D01*
X-119842073Y-115120000D01*
X-120053188Y-115232843D01*
X-120264081Y-115405919D01*
X-120345395Y-115505000D01*
X-121576531Y-115505000D01*
X-121620000Y-115500719D01*
X-121663469Y-115505000D01*
X-121663477Y-115505000D01*
X-121778694Y-115516348D01*
X-121793491Y-115517805D01*
X-121844097Y-115533157D01*
X-121960313Y-115568411D01*
X-122114059Y-115650589D01*
X-122114061Y-115650590D01*
X-122114060Y-115650590D01*
X-122215047Y-115733468D01*
X-122215049Y-115733470D01*
X-122248817Y-115761183D01*
X-122276530Y-115794951D01*
X-123165000Y-116683421D01*
X-123165000Y-108436578D01*
X-115907462Y-101179040D01*
X-113391909Y-101179040D01*
X-113297070Y-101443881D01*
X-113152385Y-101685131D01*
X-112963414Y-101893519D01*
X-112737420Y-102061037D01*
X-112483087Y-102181246D01*
X-112349039Y-102221904D01*
X-112127000Y-102099915D01*
X-112127000Y-100957000D01*
X-111873000Y-100957000D01*
X-111873000Y-102099915D01*
X-111650961Y-102221904D01*
X-111516913Y-102181246D01*
X-111262580Y-102061037D01*
X-111036586Y-101893519D01*
X-110847615Y-101685131D01*
X-110702930Y-101443881D01*
X-110608091Y-101179040D01*
X-110729376Y-100957000D01*
X-111873000Y-100957000D01*
X-112127000Y-100957000D01*
X-113270624Y-100957000D01*
X-113391909Y-101179040D01*
X-115907462Y-101179040D01*
X-115209382Y-100480960D01*
X-113391909Y-100480960D01*
X-113270624Y-100703000D01*
X-112127000Y-100703000D01*
X-112127000Y-99560085D01*
X-111873000Y-99560085D01*
X-111873000Y-100703000D01*
X-110729376Y-100703000D01*
X-110608091Y-100480960D01*
X-110676212Y-100290729D01*
X-104003701Y-100290729D01*
X-103956457Y-100668951D01*
X-103836333Y-101030690D01*
X-103704312Y-101277683D01*
X-103409224Y-101409619D01*
X-102239605Y-100240000D01*
X-101880395Y-100240000D01*
X-100710776Y-101409619D01*
X-100415688Y-101277683D01*
X-100244841Y-100936955D01*
X-100143750Y-100569443D01*
X-100116299Y-100189271D01*
X-100163543Y-99811049D01*
X-100283667Y-99449310D01*
X-100415688Y-99202317D01*
X-100710776Y-99070381D01*
X-101880395Y-100240000D01*
X-102239605Y-100240000D01*
X-103409224Y-99070381D01*
X-103704312Y-99202317D01*
X-103875159Y-99543045D01*
X-103976250Y-99910557D01*
X-104003701Y-100290729D01*
X-110676212Y-100290729D01*
X-110702930Y-100216119D01*
X-110847615Y-99974869D01*
X-111036586Y-99766481D01*
X-111262580Y-99598963D01*
X-111516913Y-99478754D01*
X-111650961Y-99438096D01*
X-111873000Y-99560085D01*
X-112127000Y-99560085D01*
X-112349039Y-99438096D01*
X-112483087Y-99478754D01*
X-112737420Y-99598963D01*
X-112963414Y-99766481D01*
X-113152385Y-99974869D01*
X-113297070Y-100216119D01*
X-113391909Y-100480960D01*
X-115209382Y-100480960D01*
X-113523421Y-98795000D01*
X-103186797Y-98795000D01*
X-103229619Y-98890776D01*
X-102060000Y-100060395D01*
X-100890381Y-98890776D01*
X-100933203Y-98795000D01*
X-89349508Y-98795000D01*
X-70775000Y-117369509D01*
X-70774999Y-125813420D01*
X-75085049Y-130123470D01*
X-75118816Y-130151183D01*
X-75146529Y-130184951D01*
X-75146532Y-130184954D01*
X-75229410Y-130285941D01*
X-75311588Y-130439687D01*
X-75362195Y-130606510D01*
X-75379281Y-130780000D01*
X-75374999Y-130823479D01*
X-75374999Y-131534605D01*
X-75474080Y-131615919D01*
X-75647157Y-131826812D01*
X-75760000Y-132037927D01*
X-75872843Y-131826812D01*
X-76045919Y-131615919D01*
X-76256812Y-131442843D01*
X-76497419Y-131314236D01*
X-76758493Y-131235040D01*
X-77030000Y-131208299D01*
X-77301506Y-131235040D01*
X-77562580Y-131314236D01*
X-77803187Y-131442843D01*
X-78014080Y-131615919D01*
X-78187157Y-131826812D01*
X-78315764Y-132067419D01*
X-78394960Y-132328493D01*
X-78415000Y-132531963D01*
X-78415000Y-133668036D01*
X-78394960Y-133871506D01*
X-78315764Y-134132580D01*
X-78187157Y-134373187D01*
X-78014081Y-134584080D01*
X-77916084Y-134664505D01*
X-84446578Y-141195000D01*
X-84494605Y-141195000D01*
X-84575919Y-141095919D01*
X-84786812Y-140922843D01*
X-84997927Y-140810000D01*
X-84786812Y-140697157D01*
X-84575919Y-140524081D01*
X-84402843Y-140313188D01*
X-84274236Y-140072581D01*
X-84195040Y-139811507D01*
X-84168299Y-139540000D01*
X-84195040Y-139268493D01*
X-84274236Y-139007419D01*
X-84402843Y-138766812D01*
X-84575919Y-138555919D01*
X-84786812Y-138382843D01*
X-84997927Y-138270000D01*
X-84786812Y-138157157D01*
X-84575919Y-137984081D01*
X-84402843Y-137773188D01*
X-84274236Y-137532581D01*
X-84195040Y-137271507D01*
X-84168299Y-137000000D01*
X-84195040Y-136728493D01*
X-84274236Y-136467419D01*
X-84402843Y-136226812D01*
X-84575919Y-136015919D01*
X-84786812Y-135842843D01*
X-84997927Y-135730000D01*
X-84786812Y-135617157D01*
X-84575919Y-135444081D01*
X-84402843Y-135233188D01*
X-84274236Y-134992581D01*
X-84195040Y-134731507D01*
X-84168299Y-134460000D01*
X-84195040Y-134188493D01*
X-84274236Y-133927419D01*
X-84402843Y-133686812D01*
X-84575919Y-133475919D01*
X-84786812Y-133302843D01*
X-84997927Y-133190000D01*
X-84786812Y-133077157D01*
X-84575919Y-132904081D01*
X-84402843Y-132693188D01*
X-84274236Y-132452581D01*
X-84195040Y-132191507D01*
X-84168299Y-131920000D01*
X-84195040Y-131648493D01*
X-84274236Y-131387419D01*
X-84402843Y-131146812D01*
X-84575919Y-130935919D01*
X-84783608Y-130765473D01*
X-84685518Y-130755812D01*
X-84565820Y-130719502D01*
X-84455506Y-130660537D01*
X-84358815Y-130581185D01*
X-84279463Y-130484494D01*
X-84220498Y-130374180D01*
X-84184188Y-130254482D01*
X-84171928Y-130130000D01*
X-84175000Y-129665750D01*
X-84333750Y-129507000D01*
X-85933000Y-129507000D01*
X-85933000Y-129527000D01*
X-86187000Y-129527000D01*
X-86187000Y-129507000D01*
X-87786250Y-129507000D01*
X-87945000Y-129665750D01*
X-87948072Y-130130000D01*
X-87935812Y-130254482D01*
X-87899502Y-130374180D01*
X-87840537Y-130484494D01*
X-87761185Y-130581185D01*
X-87664494Y-130660537D01*
X-87554180Y-130719502D01*
X-87434482Y-130755812D01*
X-87336392Y-130765473D01*
X-87544081Y-130935919D01*
X-87717157Y-131146812D01*
X-87845764Y-131387419D01*
X-87924960Y-131648493D01*
X-87951701Y-131920000D01*
X-87924960Y-132191507D01*
X-87845764Y-132452581D01*
X-87717157Y-132693188D01*
X-87544081Y-132904081D01*
X-87333188Y-133077157D01*
X-87122073Y-133190000D01*
X-87333188Y-133302843D01*
X-87544081Y-133475919D01*
X-87717157Y-133686812D01*
X-87845764Y-133927419D01*
X-87924960Y-134188493D01*
X-87951701Y-134460000D01*
X-87924960Y-134731507D01*
X-87845764Y-134992581D01*
X-87717157Y-135233188D01*
X-87544081Y-135444081D01*
X-87333188Y-135617157D01*
X-87122073Y-135730000D01*
X-87333188Y-135842843D01*
X-87544081Y-136015919D01*
X-87717157Y-136226812D01*
X-87845764Y-136467419D01*
X-87924960Y-136728493D01*
X-87951701Y-137000000D01*
X-87924960Y-137271507D01*
X-87845764Y-137532581D01*
X-87717157Y-137773188D01*
X-87544081Y-137984081D01*
X-87333188Y-138157157D01*
X-87122073Y-138270000D01*
X-87333188Y-138382843D01*
X-87544081Y-138555919D01*
X-87717157Y-138766812D01*
X-87845764Y-139007419D01*
X-87924960Y-139268493D01*
X-87951701Y-139540000D01*
X-87924960Y-139811507D01*
X-87845764Y-140072581D01*
X-87717157Y-140313188D01*
X-87544081Y-140524081D01*
X-87333188Y-140697157D01*
X-87122073Y-140810000D01*
X-87333188Y-140922843D01*
X-87544081Y-141095919D01*
X-87717157Y-141306812D01*
X-87845764Y-141547419D01*
X-87924960Y-141808493D01*
X-87951701Y-142080000D01*
X-87924960Y-142351507D01*
X-87845764Y-142612581D01*
X-87717157Y-142853188D01*
X-87544081Y-143064081D01*
X-87336392Y-143234527D01*
X-87434482Y-143244188D01*
X-87554180Y-143280498D01*
X-87664494Y-143339463D01*
X-87761185Y-143418815D01*
X-87840537Y-143515506D01*
X-87899502Y-143625820D01*
X-87935812Y-143745518D01*
X-87948072Y-143870000D01*
X-87945000Y-144334250D01*
X-87786250Y-144493000D01*
X-86187000Y-144493000D01*
X-86187000Y-144473000D01*
X-85933000Y-144473000D01*
X-85933000Y-144493000D01*
X-84333750Y-144493000D01*
X-84175000Y-144334250D01*
X-84171928Y-143870000D01*
X-84184188Y-143745518D01*
X-84220498Y-143625820D01*
X-84279463Y-143515506D01*
X-84358815Y-143418815D01*
X-84455506Y-143339463D01*
X-84565820Y-143280498D01*
X-84685518Y-143244188D01*
X-84783608Y-143234527D01*
X-84575919Y-143064081D01*
X-84494605Y-142965000D01*
X-84123469Y-142965000D01*
X-84080000Y-142969281D01*
X-84036531Y-142965000D01*
X-84036523Y-142965000D01*
X-83906510Y-142952195D01*
X-83739687Y-142901589D01*
X-83585941Y-142819411D01*
X-83451183Y-142708817D01*
X-83423466Y-142675044D01*
X-76434949Y-135686528D01*
X-76401183Y-135658817D01*
X-76290589Y-135524059D01*
X-76247840Y-135444081D01*
X-76208411Y-135370314D01*
X-76157805Y-135203490D01*
X-76148256Y-135106532D01*
X-76145000Y-135073477D01*
X-76145000Y-135073469D01*
X-76140719Y-135030000D01*
X-76145000Y-134986531D01*
X-76145000Y-134665394D01*
X-76045920Y-134584081D01*
X-75872843Y-134373188D01*
X-75760000Y-134162073D01*
X-75647157Y-134373187D01*
X-75474081Y-134584080D01*
X-75263188Y-134757157D01*
X-75022581Y-134885764D01*
X-74761507Y-134964960D01*
X-74490000Y-134991701D01*
X-74218494Y-134964960D01*
X-73957420Y-134885764D01*
X-73716813Y-134757157D01*
X-73505920Y-134584081D01*
X-73332843Y-134373188D01*
X-73299580Y-134310957D01*
X-73289502Y-134344180D01*
X-73230537Y-134454494D01*
X-73151185Y-134551185D01*
X-73054494Y-134630537D01*
X-72944180Y-134689502D01*
X-72824482Y-134725812D01*
X-72700000Y-134738072D01*
X-72235750Y-134735000D01*
X-72077000Y-134576250D01*
X-72077000Y-133227000D01*
X-71823000Y-133227000D01*
X-71823000Y-134576250D01*
X-71664250Y-134735000D01*
X-71200000Y-134738072D01*
X-71075518Y-134725812D01*
X-70955820Y-134689502D01*
X-70845506Y-134630537D01*
X-70748815Y-134551185D01*
X-70669463Y-134454494D01*
X-70610498Y-134344180D01*
X-70574188Y-134224482D01*
X-70561928Y-134100000D01*
X-70565000Y-133385750D01*
X-70723750Y-133227000D01*
X-71823000Y-133227000D01*
X-72077000Y-133227000D01*
X-72097000Y-133227000D01*
X-72097000Y-132973000D01*
X-72077000Y-132973000D01*
X-72077000Y-131623750D01*
X-71823000Y-131623750D01*
X-71823000Y-132973000D01*
X-70723750Y-132973000D01*
X-70565000Y-132814250D01*
X-70561928Y-132100000D01*
X-70574188Y-131975518D01*
X-70610498Y-131855820D01*
X-70669463Y-131745506D01*
X-70748815Y-131648815D01*
X-70845506Y-131569463D01*
X-70955820Y-131510498D01*
X-71075518Y-131474188D01*
X-71200000Y-131461928D01*
X-71664250Y-131465000D01*
X-71823000Y-131623750D01*
X-72077000Y-131623750D01*
X-72235750Y-131465000D01*
X-72700000Y-131461928D01*
X-72824482Y-131474188D01*
X-72944180Y-131510498D01*
X-73054494Y-131569463D01*
X-73151185Y-131648815D01*
X-73230537Y-131745506D01*
X-73289502Y-131855820D01*
X-73299580Y-131889043D01*
X-73332843Y-131826812D01*
X-73505919Y-131615919D01*
X-73605000Y-131534605D01*
X-73605000Y-131146578D01*
X-69743421Y-127285000D01*
X-58405000Y-127285000D01*
X-58404999Y-130843420D01*
X-59446578Y-131885000D01*
X-61239468Y-131885000D01*
X-61284236Y-131737419D01*
X-61412843Y-131496812D01*
X-61585920Y-131285919D01*
X-61796813Y-131112843D01*
X-62037420Y-130984236D01*
X-62298494Y-130905040D01*
X-62570000Y-130878299D01*
X-62841507Y-130905040D01*
X-63102581Y-130984236D01*
X-63343188Y-131112843D01*
X-63554081Y-131285920D01*
X-63727157Y-131496813D01*
X-63760420Y-131559043D01*
X-63770498Y-131525820D01*
X-63829463Y-131415506D01*
X-63908815Y-131318815D01*
X-64005506Y-131239463D01*
X-64115820Y-131180498D01*
X-64225000Y-131147379D01*
X-64225000Y-130442666D01*
X-64037419Y-130385764D01*
X-63796812Y-130257157D01*
X-63585919Y-130084081D01*
X-63412843Y-129873188D01*
X-63284236Y-129632581D01*
X-63205040Y-129371507D01*
X-63178299Y-129100000D01*
X-63205040Y-128828493D01*
X-63284236Y-128567419D01*
X-63412843Y-128326812D01*
X-63585919Y-128115919D01*
X-63796812Y-127942843D01*
X-64037419Y-127814236D01*
X-64298493Y-127735040D01*
X-64501963Y-127715000D01*
X-65638037Y-127715000D01*
X-65841507Y-127735040D01*
X-66102581Y-127814236D01*
X-66343188Y-127942843D01*
X-66554081Y-128115919D01*
X-66727157Y-128326812D01*
X-66855764Y-128567419D01*
X-66934960Y-128828493D01*
X-66961701Y-129100000D01*
X-66934960Y-129371507D01*
X-66855764Y-129632581D01*
X-66727157Y-129873188D01*
X-66554081Y-130084081D01*
X-66343188Y-130257157D01*
X-66102581Y-130385764D01*
X-65994999Y-130418399D01*
X-65995000Y-131147378D01*
X-66104180Y-131180498D01*
X-66214494Y-131239463D01*
X-66311185Y-131318815D01*
X-66390537Y-131415506D01*
X-66449502Y-131525820D01*
X-66485812Y-131645518D01*
X-66498072Y-131770000D01*
X-66498072Y-133770000D01*
X-66485812Y-133894482D01*
X-66449502Y-134014180D01*
X-66390537Y-134124494D01*
X-66311185Y-134221185D01*
X-66214494Y-134300537D01*
X-66104180Y-134359502D01*
X-65994999Y-134392622D01*
X-65995000Y-141533421D01*
X-67986578Y-143525000D01*
X-82186535Y-143525000D01*
X-82230001Y-143520719D01*
X-82273467Y-143525000D01*
X-82273477Y-143525000D01*
X-82403490Y-143537805D01*
X-82570313Y-143588411D01*
X-82724059Y-143670589D01*
X-82724061Y-143670590D01*
X-82724060Y-143670590D01*
X-82825047Y-143753468D01*
X-82825049Y-143753470D01*
X-82858817Y-143781183D01*
X-82886530Y-143814951D01*
X-84173701Y-145102122D01*
X-84175000Y-144905750D01*
X-84333750Y-144747000D01*
X-85933000Y-144747000D01*
X-85933000Y-144767000D01*
X-86187000Y-144767000D01*
X-86187000Y-144747000D01*
X-87786250Y-144747000D01*
X-87945000Y-144905750D01*
X-87948072Y-145370000D01*
X-87935812Y-145494482D01*
X-87899502Y-145614180D01*
X-87840537Y-145724494D01*
X-87761185Y-145821185D01*
X-87664494Y-145900537D01*
X-87554180Y-145959502D01*
X-87434482Y-145995812D01*
X-87336392Y-146005473D01*
X-87544081Y-146175919D01*
X-87717157Y-146386812D01*
X-87845764Y-146627419D01*
X-87924960Y-146888493D01*
X-87951701Y-147160000D01*
X-87924960Y-147431507D01*
X-87845764Y-147692581D01*
X-87717157Y-147933188D01*
X-87544081Y-148144081D01*
X-87333188Y-148317157D01*
X-87122073Y-148430000D01*
X-87333188Y-148542843D01*
X-87544081Y-148715919D01*
X-87717157Y-148926812D01*
X-87845764Y-149167419D01*
X-87924960Y-149428493D01*
X-87951701Y-149700000D01*
X-87924960Y-149971507D01*
X-87887499Y-150095000D01*
X-89426531Y-150095000D01*
X-89470000Y-150090719D01*
X-89513469Y-150095000D01*
X-89513477Y-150095000D01*
X-89643490Y-150107805D01*
X-89810314Y-150158411D01*
X-89964059Y-150240589D01*
X-90065047Y-150323468D01*
X-90065049Y-150323470D01*
X-90098817Y-150351183D01*
X-90126530Y-150384951D01*
X-91655044Y-151913466D01*
X-91688817Y-151941183D01*
X-91799411Y-152075942D01*
X-91881589Y-152229688D01*
X-91903097Y-152300589D01*
X-91928238Y-152383468D01*
X-91932195Y-152396511D01*
X-91945000Y-152526524D01*
X-91945000Y-152526531D01*
X-91949281Y-152570000D01*
X-91945000Y-152613469D01*
X-91944999Y-160986521D01*
X-91949281Y-161030000D01*
X-91932195Y-161203490D01*
X-91881588Y-161370313D01*
X-91799410Y-161524059D01*
X-91716532Y-161625046D01*
X-91716529Y-161625049D01*
X-91688816Y-161658817D01*
X-91655049Y-161686529D01*
X-90346530Y-162995049D01*
X-90318817Y-163028817D01*
X-90285049Y-163056530D01*
X-90285047Y-163056532D01*
X-90184059Y-163139411D01*
X-90030314Y-163221589D01*
X-89868781Y-163270590D01*
X-89863490Y-163272195D01*
X-89733477Y-163285000D01*
X-89733469Y-163285000D01*
X-89690000Y-163289281D01*
X-89646531Y-163285000D01*
X-87625395Y-163285000D01*
X-87544081Y-163384081D01*
X-87333188Y-163557157D01*
X-87122073Y-163670000D01*
X-87333188Y-163782843D01*
X-87544081Y-163955919D01*
X-87717157Y-164166812D01*
X-87845764Y-164407419D01*
X-87924960Y-164668493D01*
X-87951701Y-164940000D01*
X-87924960Y-165211507D01*
X-87845764Y-165472581D01*
X-87717157Y-165713188D01*
X-87544081Y-165924081D01*
X-87333188Y-166097157D01*
X-87122073Y-166210000D01*
X-87333188Y-166322843D01*
X-87544081Y-166495919D01*
X-87717157Y-166706812D01*
X-87845764Y-166947419D01*
X-87924960Y-167208493D01*
X-87951701Y-167480000D01*
X-87924960Y-167751507D01*
X-87845764Y-168012581D01*
X-87717157Y-168253188D01*
X-87544081Y-168464081D01*
X-87333188Y-168637157D01*
X-87122073Y-168750000D01*
X-87333188Y-168862843D01*
X-87544081Y-169035919D01*
X-87717157Y-169246812D01*
X-87845764Y-169487419D01*
X-87924960Y-169748493D01*
X-87951701Y-170020000D01*
X-87924960Y-170291507D01*
X-87845764Y-170552581D01*
X-87717157Y-170793188D01*
X-87544081Y-171004081D01*
X-87333188Y-171177157D01*
X-87122073Y-171290000D01*
X-87333188Y-171402843D01*
X-87544081Y-171575919D01*
X-87717157Y-171786812D01*
X-87845764Y-172027419D01*
X-87924960Y-172288493D01*
X-87951701Y-172560000D01*
X-87924960Y-172831507D01*
X-87845764Y-173092581D01*
X-87717157Y-173333188D01*
X-87544081Y-173544081D01*
X-87333188Y-173717157D01*
X-87092581Y-173845764D01*
X-87045651Y-173860000D01*
X-87092581Y-173874236D01*
X-87333188Y-174002843D01*
X-87544081Y-174175919D01*
X-87717157Y-174386812D01*
X-87845764Y-174627419D01*
X-87924960Y-174888493D01*
X-87951701Y-175160000D01*
X-87924960Y-175431507D01*
X-87845764Y-175692581D01*
X-87717157Y-175933188D01*
X-87544081Y-176144081D01*
X-87333188Y-176317157D01*
X-87092581Y-176445764D01*
X-86831507Y-176524960D01*
X-86628037Y-176545000D01*
X-85491963Y-176545000D01*
X-85288493Y-176524960D01*
X-85027419Y-176445764D01*
X-84786812Y-176317157D01*
X-84575919Y-176144081D01*
X-84402843Y-175933188D01*
X-84274236Y-175692581D01*
X-84195040Y-175431507D01*
X-84168299Y-175160000D01*
X-84195040Y-174888493D01*
X-84274236Y-174627419D01*
X-84402843Y-174386812D01*
X-84575919Y-174175919D01*
X-84786812Y-174002843D01*
X-85027419Y-173874236D01*
X-85074349Y-173860000D01*
X-85027419Y-173845764D01*
X-84786812Y-173717157D01*
X-84575919Y-173544081D01*
X-84402843Y-173333188D01*
X-84274236Y-173092581D01*
X-84195040Y-172831507D01*
X-84168299Y-172560000D01*
X-84195040Y-172288493D01*
X-84274236Y-172027419D01*
X-84402843Y-171786812D01*
X-84575919Y-171575919D01*
X-84786812Y-171402843D01*
X-84997927Y-171290000D01*
X-84786812Y-171177157D01*
X-84575919Y-171004081D01*
X-84402843Y-170793188D01*
X-84274236Y-170552581D01*
X-84195040Y-170291507D01*
X-84168299Y-170020000D01*
X-84195040Y-169748493D01*
X-84274236Y-169487419D01*
X-84402843Y-169246812D01*
X-84575919Y-169035919D01*
X-84786812Y-168862843D01*
X-84997927Y-168750000D01*
X-84786812Y-168637157D01*
X-84575919Y-168464081D01*
X-84402843Y-168253188D01*
X-84274236Y-168012581D01*
X-84195040Y-167751507D01*
X-84168299Y-167480000D01*
X-84195040Y-167208493D01*
X-84274236Y-166947419D01*
X-84402843Y-166706812D01*
X-84575919Y-166495919D01*
X-84786812Y-166322843D01*
X-84997927Y-166210000D01*
X-84786812Y-166097157D01*
X-84575919Y-165924081D01*
X-84494605Y-165825000D01*
X-82263469Y-165825000D01*
X-82220000Y-165829281D01*
X-82176531Y-165825000D01*
X-82176523Y-165825000D01*
X-82046510Y-165812195D01*
X-81879687Y-165761589D01*
X-81725941Y-165679411D01*
X-81591183Y-165568817D01*
X-81563466Y-165535044D01*
X-80113421Y-164085000D01*
X-76965395Y-164085000D01*
X-76884081Y-164184081D01*
X-76673188Y-164357157D01*
X-76457422Y-164472486D01*
X-76547349Y-164509028D01*
X-76775061Y-164658972D01*
X-76969145Y-164850460D01*
X-77122142Y-165076132D01*
X-77228173Y-165327316D01*
X-77242318Y-165398815D01*
X-77119656Y-165613000D01*
X-75527000Y-165613000D01*
X-75527000Y-165593000D01*
X-75273000Y-165593000D01*
X-75273000Y-165613000D01*
X-73680344Y-165613000D01*
X-73557682Y-165398815D01*
X-73571827Y-165327316D01*
X-73677858Y-165076132D01*
X-73830855Y-164850460D01*
X-74024939Y-164658972D01*
X-74252651Y-164509028D01*
X-74342578Y-164472486D01*
X-74126812Y-164357157D01*
X-73915919Y-164184081D01*
X-73742843Y-163973188D01*
X-73703724Y-163900000D01*
X-70368072Y-163900000D01*
X-70355812Y-164024482D01*
X-70319502Y-164144180D01*
X-70260537Y-164254494D01*
X-70181185Y-164351185D01*
X-70084494Y-164430537D01*
X-69974180Y-164489502D01*
X-69854482Y-164525812D01*
X-69730000Y-164538072D01*
X-69015750Y-164535000D01*
X-68857000Y-164376250D01*
X-68857000Y-163277000D01*
X-68603000Y-163277000D01*
X-68603000Y-164376250D01*
X-68444250Y-164535000D01*
X-67730000Y-164538072D01*
X-67605518Y-164525812D01*
X-67485820Y-164489502D01*
X-67375506Y-164430537D01*
X-67278815Y-164351185D01*
X-67199463Y-164254494D01*
X-67140498Y-164144180D01*
X-67104188Y-164024482D01*
X-67091928Y-163900000D01*
X-67095000Y-163435750D01*
X-67253750Y-163277000D01*
X-68603000Y-163277000D01*
X-68857000Y-163277000D01*
X-70206250Y-163277000D01*
X-70365000Y-163435750D01*
X-70368072Y-163900000D01*
X-73703724Y-163900000D01*
X-73614236Y-163732581D01*
X-73535040Y-163471507D01*
X-73508299Y-163200000D01*
X-73535040Y-162928493D01*
X-73614236Y-162667419D01*
X-73742843Y-162426812D01*
X-73764847Y-162400000D01*
X-70368072Y-162400000D01*
X-70365000Y-162864250D01*
X-70206250Y-163023000D01*
X-68857000Y-163023000D01*
X-68857000Y-161923750D01*
X-68603000Y-161923750D01*
X-68603000Y-163023000D01*
X-67253750Y-163023000D01*
X-67095000Y-162864250D01*
X-67091928Y-162400000D01*
X-67104188Y-162275518D01*
X-67140498Y-162155820D01*
X-67199463Y-162045506D01*
X-67278815Y-161948815D01*
X-67375506Y-161869463D01*
X-67485820Y-161810498D01*
X-67605518Y-161774188D01*
X-67730000Y-161761928D01*
X-68444250Y-161765000D01*
X-68603000Y-161923750D01*
X-68857000Y-161923750D01*
X-69015750Y-161765000D01*
X-69730000Y-161761928D01*
X-69854482Y-161774188D01*
X-69974180Y-161810498D01*
X-70084494Y-161869463D01*
X-70181185Y-161948815D01*
X-70260537Y-162045506D01*
X-70319502Y-162155820D01*
X-70355812Y-162275518D01*
X-70368072Y-162400000D01*
X-73764847Y-162400000D01*
X-73915919Y-162215919D01*
X-74126812Y-162042843D01*
X-74337927Y-161930000D01*
X-74126812Y-161817157D01*
X-73915919Y-161644081D01*
X-73742843Y-161433188D01*
X-73614236Y-161192581D01*
X-73535040Y-160931507D01*
X-73508299Y-160660000D01*
X-73535040Y-160388493D01*
X-73614236Y-160127419D01*
X-73742843Y-159886812D01*
X-73915919Y-159675919D01*
X-74126812Y-159502843D01*
X-74337927Y-159390000D01*
X-74126812Y-159277157D01*
X-73915919Y-159104081D01*
X-73742843Y-158893188D01*
X-73614236Y-158652581D01*
X-73535040Y-158391507D01*
X-73508299Y-158120000D01*
X-73535040Y-157848493D01*
X-73614236Y-157587419D01*
X-73742843Y-157346812D01*
X-73915919Y-157135919D01*
X-74126812Y-156962843D01*
X-74337927Y-156850000D01*
X-74126812Y-156737157D01*
X-73915919Y-156564081D01*
X-73834605Y-156465000D01*
X-73253469Y-156465000D01*
X-73210000Y-156469281D01*
X-73166531Y-156465000D01*
X-73166523Y-156465000D01*
X-73036510Y-156452195D01*
X-72869687Y-156401589D01*
X-72715941Y-156319411D01*
X-72581183Y-156208817D01*
X-72553466Y-156175044D01*
X-71434950Y-155056529D01*
X-71401183Y-155028817D01*
X-71372756Y-154994180D01*
X-71290590Y-154894060D01*
X-71290589Y-154894059D01*
X-71208411Y-154740313D01*
X-71157805Y-154573490D01*
X-71145000Y-154443477D01*
X-71145000Y-154443467D01*
X-71140719Y-154400001D01*
X-71145000Y-154356534D01*
X-71145000Y-152033469D01*
X-71140719Y-151990000D01*
X-71145000Y-151946531D01*
X-71145000Y-151946523D01*
X-71157805Y-151816510D01*
X-71208411Y-151649687D01*
X-71290589Y-151495941D01*
X-71314495Y-151466812D01*
X-71373468Y-151394953D01*
X-71373470Y-151394951D01*
X-71401183Y-151361183D01*
X-71434951Y-151333470D01*
X-72383466Y-150384956D01*
X-72411183Y-150351183D01*
X-72545941Y-150240589D01*
X-72699687Y-150158411D01*
X-72866510Y-150107805D01*
X-72996523Y-150095000D01*
X-72996531Y-150095000D01*
X-73040000Y-150090719D01*
X-73083469Y-150095000D01*
X-83813422Y-150095000D01*
X-81683421Y-147965000D01*
X-58863469Y-147965000D01*
X-58820000Y-147969281D01*
X-58776531Y-147965000D01*
X-58776523Y-147965000D01*
X-58646510Y-147952195D01*
X-58479687Y-147901589D01*
X-58325941Y-147819411D01*
X-58191183Y-147708817D01*
X-58163466Y-147675044D01*
X-53824950Y-143336528D01*
X-53791183Y-143308817D01*
X-53732372Y-143237157D01*
X-53680589Y-143174059D01*
X-53598411Y-143020314D01*
X-53547805Y-142853490D01*
X-53544449Y-142819411D01*
X-53535000Y-142723477D01*
X-53535000Y-142723469D01*
X-53530719Y-142680000D01*
X-53535000Y-142636531D01*
X-53535000Y-134175395D01*
X-53435919Y-134094081D01*
X-53262843Y-133883188D01*
X-53150000Y-133672073D01*
X-53037157Y-133883188D01*
X-52864080Y-134094081D01*
X-52764999Y-134175395D01*
X-52765000Y-159663421D01*
X-63036578Y-169935000D01*
X-73527379Y-169935000D01*
X-73560498Y-169825820D01*
X-73619463Y-169715506D01*
X-73698815Y-169618815D01*
X-73795506Y-169539463D01*
X-73905820Y-169480498D01*
X-74025518Y-169444188D01*
X-74123608Y-169434527D01*
X-73915919Y-169264081D01*
X-73834605Y-169165000D01*
X-70254361Y-169165000D01*
X-70214081Y-169214081D01*
X-70003188Y-169387157D01*
X-69762581Y-169515764D01*
X-69501507Y-169594960D01*
X-69298037Y-169615000D01*
X-68161963Y-169615000D01*
X-67958493Y-169594960D01*
X-67697419Y-169515764D01*
X-67456812Y-169387157D01*
X-67245919Y-169214081D01*
X-67072843Y-169003188D01*
X-66944236Y-168762581D01*
X-66865040Y-168501507D01*
X-66838299Y-168230000D01*
X-66865040Y-167958493D01*
X-66944236Y-167697419D01*
X-67072843Y-167456812D01*
X-67245919Y-167245919D01*
X-67456812Y-167072843D01*
X-67697419Y-166944236D01*
X-67958493Y-166865040D01*
X-68161963Y-166845000D01*
X-69298037Y-166845000D01*
X-69501507Y-166865040D01*
X-69762581Y-166944236D01*
X-70003188Y-167072843D01*
X-70214081Y-167245919D01*
X-70336429Y-167395000D01*
X-73834605Y-167395000D01*
X-73915919Y-167295919D01*
X-74126812Y-167122843D01*
X-74342578Y-167007514D01*
X-74252651Y-166970972D01*
X-74024939Y-166821028D01*
X-73830855Y-166629540D01*
X-73677858Y-166403868D01*
X-73571827Y-166152684D01*
X-73557682Y-166081185D01*
X-73680344Y-165867000D01*
X-75273000Y-165867000D01*
X-75273000Y-165887000D01*
X-75527000Y-165887000D01*
X-75527000Y-165867000D01*
X-77119656Y-165867000D01*
X-77242318Y-166081185D01*
X-77228173Y-166152684D01*
X-77122142Y-166403868D01*
X-76969145Y-166629540D01*
X-76775061Y-166821028D01*
X-76547349Y-166970972D01*
X-76457422Y-167007514D01*
X-76673188Y-167122843D01*
X-76884081Y-167295919D01*
X-76965395Y-167395000D01*
X-78756531Y-167395000D01*
X-78800000Y-167390719D01*
X-78843469Y-167395000D01*
X-78843477Y-167395000D01*
X-78973490Y-167407805D01*
X-79140313Y-167458411D01*
X-79197199Y-167488817D01*
X-79294059Y-167540589D01*
X-79395047Y-167623468D01*
X-79395049Y-167623470D01*
X-79428817Y-167651183D01*
X-79456530Y-167684951D01*
X-80935049Y-169163471D01*
X-80968816Y-169191183D01*
X-80996529Y-169224951D01*
X-80996532Y-169224954D01*
X-81079410Y-169325941D01*
X-81161588Y-169479687D01*
X-81212195Y-169646510D01*
X-81229281Y-169820000D01*
X-81224999Y-169863479D01*
X-81225000Y-175953421D01*
X-83226578Y-177955000D01*
X-107503421Y-177955000D01*
X-109699178Y-175759244D01*
X-109674236Y-175712581D01*
X-109595040Y-175451507D01*
X-109568299Y-175180000D01*
X-109595040Y-174908493D01*
X-109674236Y-174647419D01*
X-109802843Y-174406812D01*
X-109975919Y-174195919D01*
X-110186812Y-174022843D01*
X-110326699Y-173948072D01*
X-110210000Y-173948072D01*
X-110085518Y-173935812D01*
X-109965820Y-173899502D01*
X-109855506Y-173840537D01*
X-109758815Y-173761185D01*
X-109679463Y-173664494D01*
X-109620498Y-173554180D01*
X-109584188Y-173434482D01*
X-109571928Y-173310000D01*
X-109571928Y-171810000D01*
X-109584188Y-171685518D01*
X-109620498Y-171565820D01*
X-109679463Y-171455506D01*
X-109758815Y-171358815D01*
X-109855506Y-171279463D01*
X-109965820Y-171220498D01*
X-110085518Y-171184188D01*
X-110183608Y-171174527D01*
X-109975919Y-171004081D01*
X-109802843Y-170793188D01*
X-109674236Y-170552581D01*
X-109595040Y-170291507D01*
X-109568299Y-170020000D01*
X-109595040Y-169748493D01*
X-109674236Y-169487419D01*
X-109802843Y-169246812D01*
X-109975919Y-169035919D01*
X-110186812Y-168862843D01*
X-110397927Y-168750000D01*
X-110186812Y-168637157D01*
X-109975919Y-168464081D01*
X-109802843Y-168253188D01*
X-109674236Y-168012581D01*
X-109595040Y-167751507D01*
X-109568299Y-167480000D01*
X-109595040Y-167208493D01*
X-109674236Y-166947419D01*
X-109802843Y-166706812D01*
X-109975919Y-166495919D01*
X-110186812Y-166322843D01*
X-110397927Y-166210000D01*
X-110186812Y-166097157D01*
X-109975919Y-165924081D01*
X-109802843Y-165713188D01*
X-109674236Y-165472581D01*
X-109595040Y-165211507D01*
X-109568299Y-164940000D01*
X-109595040Y-164668493D01*
X-109674236Y-164407419D01*
X-109802843Y-164166812D01*
X-109975919Y-163955919D01*
X-110183608Y-163785473D01*
X-110085518Y-163775812D01*
X-109965820Y-163739502D01*
X-109855506Y-163680537D01*
X-109758815Y-163601185D01*
X-109679463Y-163504494D01*
X-109620498Y-163394180D01*
X-109584188Y-163274482D01*
X-109571928Y-163150000D01*
X-109575000Y-162685750D01*
X-109733750Y-162527000D01*
X-111333000Y-162527000D01*
X-111333000Y-162547000D01*
X-111587000Y-162547000D01*
X-111587000Y-162527000D01*
X-113186250Y-162527000D01*
X-113345000Y-162685750D01*
X-113348072Y-163150000D01*
X-113335812Y-163274482D01*
X-113299502Y-163394180D01*
X-113240537Y-163504494D01*
X-113161185Y-163601185D01*
X-113064494Y-163680537D01*
X-112954180Y-163739502D01*
X-112834482Y-163775812D01*
X-112736392Y-163785473D01*
X-112944081Y-163955919D01*
X-113117157Y-164166812D01*
X-113245764Y-164407419D01*
X-113324960Y-164668493D01*
X-113351701Y-164940000D01*
X-113324960Y-165211507D01*
X-113245764Y-165472581D01*
X-113117157Y-165713188D01*
X-112944081Y-165924081D01*
X-112733188Y-166097157D01*
X-112522073Y-166210000D01*
X-112733188Y-166322843D01*
X-112944081Y-166495919D01*
X-113117157Y-166706812D01*
X-113245764Y-166947419D01*
X-113324960Y-167208493D01*
X-113351701Y-167480000D01*
X-113324960Y-167751507D01*
X-113245764Y-168012581D01*
X-113117157Y-168253188D01*
X-112944081Y-168464081D01*
X-112733188Y-168637157D01*
X-112522073Y-168750000D01*
X-112733188Y-168862843D01*
X-112944081Y-169035919D01*
X-113117157Y-169246812D01*
X-113245764Y-169487419D01*
X-113324960Y-169748493D01*
X-113351701Y-170020000D01*
X-113324960Y-170291507D01*
X-113245764Y-170552581D01*
X-113117157Y-170793188D01*
X-112944081Y-171004081D01*
X-112736392Y-171174527D01*
X-112834482Y-171184188D01*
X-112954180Y-171220498D01*
X-113064494Y-171279463D01*
X-113161185Y-171358815D01*
X-113240537Y-171455506D01*
X-113299502Y-171565820D01*
X-113335812Y-171685518D01*
X-113348072Y-171810000D01*
X-113348072Y-173310000D01*
X-113335812Y-173434482D01*
X-113299502Y-173554180D01*
X-113240537Y-173664494D01*
X-113161185Y-173761185D01*
X-113064494Y-173840537D01*
X-112954180Y-173899502D01*
X-112834482Y-173935812D01*
X-112710000Y-173948072D01*
X-112593301Y-173948072D01*
X-112733188Y-174022843D01*
X-112944081Y-174195919D01*
X-113025395Y-174295000D01*
X-120096531Y-174295000D01*
X-120140000Y-174290719D01*
X-120183469Y-174295000D01*
X-120183477Y-174295000D01*
X-120298694Y-174306348D01*
X-120313491Y-174307805D01*
X-120364097Y-174323157D01*
X-120480313Y-174358411D01*
X-120634059Y-174440589D01*
X-120634061Y-174440590D01*
X-120634060Y-174440590D01*
X-120735047Y-174523468D01*
X-120735049Y-174523470D01*
X-120768817Y-174551183D01*
X-120796530Y-174584951D01*
X-121095000Y-174883421D01*
X-121095000Y-173292394D01*
X-121046265Y-173266345D01*
X-120804537Y-173067963D01*
X-120606155Y-172826235D01*
X-120458745Y-172550449D01*
X-120367970Y-172251204D01*
X-120337319Y-171940000D01*
X-120367970Y-171628796D01*
X-120458745Y-171329551D01*
X-120606155Y-171053765D01*
X-120804537Y-170812037D01*
X-120983899Y-170664837D01*
X-120798685Y-170509437D01*
X-120604031Y-170266923D01*
X-120460429Y-169991094D01*
X-120389437Y-169772980D01*
X-120509406Y-169527000D01*
X-121853000Y-169527000D01*
X-121853000Y-169547000D01*
X-122107000Y-169547000D01*
X-122107000Y-169527000D01*
X-123450594Y-169527000D01*
X-123570563Y-169772980D01*
X-123499571Y-169991094D01*
X-123355969Y-170266923D01*
X-123161315Y-170509437D01*
X-122976101Y-170664837D01*
X-123155463Y-170812037D01*
X-123353845Y-171053765D01*
X-123501255Y-171329551D01*
X-123592030Y-171628796D01*
X-123622681Y-171940000D01*
X-123592030Y-172251204D01*
X-123501255Y-172550449D01*
X-123353845Y-172826235D01*
X-123155463Y-173067963D01*
X-122913735Y-173266345D01*
X-122865000Y-173292394D01*
X-122864999Y-176653420D01*
X-126702946Y-180491368D01*
X-126894514Y-180472500D01*
X-127145486Y-180472500D01*
X-127378704Y-180495470D01*
X-127677949Y-180586245D01*
X-127953735Y-180733655D01*
X-128195463Y-180932037D01*
X-128393845Y-181173765D01*
X-128541255Y-181449551D01*
X-128632030Y-181748796D01*
X-128662681Y-182060000D01*
X-128632030Y-182371204D01*
X-128541255Y-182670449D01*
X-128393845Y-182946235D01*
X-128195463Y-183187963D01*
X-128022391Y-183330000D01*
X-128195463Y-183472037D01*
X-128393845Y-183713765D01*
X-128541255Y-183989551D01*
X-128632030Y-184288796D01*
X-128662681Y-184600000D01*
X-128632030Y-184911204D01*
X-128541255Y-185210449D01*
X-128393845Y-185486235D01*
X-128290554Y-185612095D01*
X-128374494Y-185656963D01*
X-128471185Y-185736315D01*
X-128550537Y-185833006D01*
X-128609502Y-185943320D01*
X-128645812Y-186063018D01*
X-128658072Y-186187500D01*
X-128655000Y-186854250D01*
X-128496250Y-187013000D01*
X-127147000Y-187013000D01*
X-127147000Y-186993000D01*
X-126893000Y-186993000D01*
X-126893000Y-187013000D01*
X-125543750Y-187013000D01*
X-125385000Y-186854250D01*
X-125381928Y-186187500D01*
X-125394188Y-186063018D01*
X-125430498Y-185943320D01*
X-125489463Y-185833006D01*
X-125568815Y-185736315D01*
X-125665506Y-185656963D01*
X-125749446Y-185612095D01*
X-125646155Y-185486235D01*
X-125645495Y-185485000D01*
X-81133469Y-185485000D01*
X-81090000Y-185489281D01*
X-81046531Y-185485000D01*
X-81046523Y-185485000D01*
X-80916510Y-185472195D01*
X-80749687Y-185421589D01*
X-80595941Y-185339411D01*
X-80461183Y-185228817D01*
X-80433466Y-185195044D01*
X-76634950Y-181396529D01*
X-76601183Y-181368817D01*
X-76490589Y-181234059D01*
X-76408411Y-181080313D01*
X-76357805Y-180913490D01*
X-76345000Y-180783477D01*
X-76345000Y-180783467D01*
X-76340719Y-180740001D01*
X-76345000Y-180696535D01*
X-76345000Y-180139039D01*
X-71081904Y-180139039D01*
X-71041246Y-180273087D01*
X-70921037Y-180527420D01*
X-70753519Y-180753414D01*
X-70545131Y-180942385D01*
X-70303881Y-181087070D01*
X-70039040Y-181181909D01*
X-69817000Y-181060624D01*
X-69817000Y-179917000D01*
X-69563000Y-179917000D01*
X-69563000Y-181060624D01*
X-69340960Y-181181909D01*
X-69076119Y-181087070D01*
X-68834869Y-180942385D01*
X-68626481Y-180753414D01*
X-68458963Y-180527420D01*
X-68338754Y-180273087D01*
X-68298096Y-180139039D01*
X-68420085Y-179917000D01*
X-69563000Y-179917000D01*
X-69817000Y-179917000D01*
X-70959915Y-179917000D01*
X-71081904Y-180139039D01*
X-76345000Y-180139039D01*
X-76345000Y-179440961D01*
X-71081904Y-179440961D01*
X-70959915Y-179663000D01*
X-69817000Y-179663000D01*
X-69817000Y-178519376D01*
X-69563000Y-178519376D01*
X-69563000Y-179663000D01*
X-68420085Y-179663000D01*
X-68298096Y-179440961D01*
X-68338754Y-179306913D01*
X-68458963Y-179052580D01*
X-68626481Y-178826586D01*
X-68834869Y-178637615D01*
X-69076119Y-178492930D01*
X-69340960Y-178398091D01*
X-69563000Y-178519376D01*
X-69817000Y-178519376D01*
X-70039040Y-178398091D01*
X-70303881Y-178492930D01*
X-70545131Y-178637615D01*
X-70753519Y-178826586D01*
X-70921037Y-179052580D01*
X-71041246Y-179306913D01*
X-71081904Y-179440961D01*
X-76345000Y-179440961D01*
X-76345000Y-172208072D01*
X-74150000Y-172208072D01*
X-74025518Y-172195812D01*
X-73905820Y-172159502D01*
X-73795506Y-172100537D01*
X-73698815Y-172021185D01*
X-73619463Y-171924494D01*
X-73560498Y-171814180D01*
X-73527379Y-171705000D01*
X-62713469Y-171705000D01*
X-62670000Y-171709281D01*
X-62626531Y-171705000D01*
X-62626523Y-171705000D01*
X-62496510Y-171692195D01*
X-62329687Y-171641589D01*
X-62175941Y-171559411D01*
X-62041183Y-171448817D01*
X-62013466Y-171415044D01*
X-51284949Y-160686528D01*
X-51251183Y-160658817D01*
X-51140589Y-160524059D01*
X-51058411Y-160370313D01*
X-51007805Y-160203490D01*
X-50995000Y-160073477D01*
X-50995000Y-160073467D01*
X-50990719Y-160030001D01*
X-50995000Y-159986535D01*
X-50995000Y-134175395D01*
X-50895919Y-134094081D01*
X-50722843Y-133883188D01*
X-50594236Y-133642581D01*
X-50515040Y-133381507D01*
X-50495000Y-133178037D01*
X-50495000Y-132041963D01*
X-50515040Y-131838493D01*
X-50594236Y-131577419D01*
X-50722843Y-131336812D01*
X-50895920Y-131125919D01*
X-50995000Y-131044606D01*
X-50995000Y-127307000D01*
X-50755000Y-127307000D01*
X-50755000Y-127807000D01*
X-50703611Y-128074760D01*
X-50600972Y-128327349D01*
X-50451028Y-128555061D01*
X-50259540Y-128749145D01*
X-50033868Y-128902142D01*
X-49782684Y-129008173D01*
X-49711185Y-129022318D01*
X-49497000Y-128899656D01*
X-49497000Y-127307000D01*
X-49243000Y-127307000D01*
X-49243000Y-128899656D01*
X-49028815Y-129022318D01*
X-48957316Y-129008173D01*
X-48706132Y-128902142D01*
X-48480460Y-128749145D01*
X-48288972Y-128555061D01*
X-48139028Y-128327349D01*
X-48036389Y-128074760D01*
X-47985000Y-127807000D01*
X-47985000Y-127307000D01*
X-49243000Y-127307000D01*
X-49497000Y-127307000D01*
X-50755000Y-127307000D01*
X-50995000Y-127307000D01*
X-50995000Y-126553000D01*
X-50755000Y-126553000D01*
X-50755000Y-127053000D01*
X-49497000Y-127053000D01*
X-49497000Y-125460344D01*
X-49243000Y-125460344D01*
X-49243000Y-127053000D01*
X-47985000Y-127053000D01*
X-47985000Y-126553000D01*
X-48036389Y-126285240D01*
X-48139028Y-126032651D01*
X-48288972Y-125804939D01*
X-48480460Y-125610855D01*
X-48706132Y-125457858D01*
X-48957316Y-125351827D01*
X-49028815Y-125337682D01*
X-49243000Y-125460344D01*
X-49497000Y-125460344D01*
X-49711185Y-125337682D01*
X-49782684Y-125351827D01*
X-50033868Y-125457858D01*
X-50259540Y-125610855D01*
X-50451028Y-125804939D01*
X-50600972Y-126032651D01*
X-50703611Y-126285240D01*
X-50755000Y-126553000D01*
X-50995000Y-126553000D01*
X-50995000Y-125073465D01*
X-50990719Y-125029999D01*
X-50995000Y-124986533D01*
X-50995000Y-124986523D01*
X-51007805Y-124856510D01*
X-51058411Y-124689687D01*
X-51140589Y-124535941D01*
X-51176988Y-124491589D01*
X-51223468Y-124434953D01*
X-51223470Y-124434951D01*
X-51251183Y-124401183D01*
X-51284951Y-124373470D01*
X-52583466Y-123074956D01*
X-52611183Y-123041183D01*
X-52745941Y-122930589D01*
X-52899687Y-122848411D01*
X-53066510Y-122797805D01*
X-53196523Y-122785000D01*
X-53196531Y-122785000D01*
X-53240000Y-122780719D01*
X-53283469Y-122785000D01*
X-55996534Y-122785000D01*
X-56040001Y-122780719D01*
X-56083467Y-122785000D01*
X-56083477Y-122785000D01*
X-56213490Y-122797805D01*
X-56380313Y-122848411D01*
X-56534059Y-122930589D01*
X-56563548Y-122954790D01*
X-56635047Y-123013468D01*
X-56635049Y-123013470D01*
X-56668817Y-123041183D01*
X-56696530Y-123074951D01*
X-58115044Y-124493466D01*
X-58148817Y-124521183D01*
X-58259411Y-124655942D01*
X-58341589Y-124809688D01*
X-58392195Y-124976511D01*
X-58405000Y-125106524D01*
X-58405000Y-125106531D01*
X-58409281Y-125150000D01*
X-58405000Y-125193470D01*
X-58405000Y-125515000D01*
X-69005000Y-125515000D01*
X-69005000Y-124361185D01*
X-66912318Y-124361185D01*
X-66898173Y-124432684D01*
X-66792142Y-124683868D01*
X-66639145Y-124909540D01*
X-66445061Y-125101028D01*
X-66217349Y-125250972D01*
X-65964760Y-125353611D01*
X-65697000Y-125405000D01*
X-65197000Y-125405000D01*
X-65197000Y-124147000D01*
X-64943000Y-124147000D01*
X-64943000Y-125405000D01*
X-64443000Y-125405000D01*
X-64175240Y-125353611D01*
X-63922651Y-125250972D01*
X-63694939Y-125101028D01*
X-63500855Y-124909540D01*
X-63347858Y-124683868D01*
X-63241827Y-124432684D01*
X-63227682Y-124361185D01*
X-63350344Y-124147000D01*
X-64943000Y-124147000D01*
X-65197000Y-124147000D01*
X-66789656Y-124147000D01*
X-66912318Y-124361185D01*
X-69005000Y-124361185D01*
X-69005000Y-123678815D01*
X-66912318Y-123678815D01*
X-66789656Y-123893000D01*
X-65197000Y-123893000D01*
X-65197000Y-122635000D01*
X-64943000Y-122635000D01*
X-64943000Y-123893000D01*
X-63350344Y-123893000D01*
X-63227682Y-123678815D01*
X-63241827Y-123607316D01*
X-63347858Y-123356132D01*
X-63500855Y-123130460D01*
X-63694939Y-122938972D01*
X-63922651Y-122789028D01*
X-64175240Y-122686389D01*
X-64443000Y-122635000D01*
X-64943000Y-122635000D01*
X-65197000Y-122635000D01*
X-65697000Y-122635000D01*
X-65964760Y-122686389D01*
X-66217349Y-122789028D01*
X-66445061Y-122938972D01*
X-66639145Y-123130460D01*
X-66792142Y-123356132D01*
X-66898173Y-123607316D01*
X-66912318Y-123678815D01*
X-69005000Y-123678815D01*
X-69005000Y-117046399D01*
X-69000719Y-117002930D01*
X-69005000Y-116959461D01*
X-69005000Y-116959453D01*
X-69017805Y-116829440D01*
X-69047875Y-116730313D01*
X-69068411Y-116662616D01*
X-69150589Y-116508871D01*
X-69233468Y-116407883D01*
X-69233470Y-116407881D01*
X-69261183Y-116374113D01*
X-69294949Y-116346402D01*
X-88326396Y-97314956D01*
X-88354113Y-97281183D01*
X-88488871Y-97170589D01*
X-88642617Y-97088411D01*
X-88809440Y-97037805D01*
X-88939453Y-97025000D01*
X-88939461Y-97025000D01*
X-88982930Y-97020719D01*
X-89026399Y-97025000D01*
X-100469981Y-97025000D01*
X-100405506Y-96990537D01*
X-100308815Y-96911185D01*
X-100229463Y-96814494D01*
X-100170498Y-96704180D01*
X-100134188Y-96584482D01*
X-100121928Y-96460000D01*
X-100121928Y-93860000D01*
X-100134188Y-93735518D01*
X-100170498Y-93615820D01*
X-100229463Y-93505506D01*
X-100308815Y-93408815D01*
X-100405506Y-93329463D01*
X-100515820Y-93270498D01*
X-100635518Y-93234188D01*
X-100760000Y-93221928D01*
X-103360000Y-93221928D01*
X-103484482Y-93234188D01*
X-103604180Y-93270498D01*
X-103714494Y-93329463D01*
X-103811185Y-93408815D01*
X-103890537Y-93505506D01*
X-103949502Y-93615820D01*
X-103985812Y-93735518D01*
X-103998072Y-93860000D01*
X-103998072Y-94275000D01*
X-121486535Y-94275000D01*
X-121530001Y-94270719D01*
X-121573467Y-94275000D01*
X-121573477Y-94275000D01*
X-121703490Y-94287805D01*
X-121870313Y-94338411D01*
X-122024059Y-94420589D01*
X-122024061Y-94420590D01*
X-122024060Y-94420590D01*
X-122125047Y-94503468D01*
X-122125049Y-94503470D01*
X-122158817Y-94531183D01*
X-122186530Y-94564951D01*
X-130035048Y-102413470D01*
X-130068816Y-102441183D01*
X-130096529Y-102474951D01*
X-130096532Y-102474954D01*
X-130179410Y-102575941D01*
X-130261588Y-102729687D01*
X-130312195Y-102896510D01*
X-130329281Y-103070000D01*
X-130324999Y-103113479D01*
X-130325000Y-131076531D01*
X-130329281Y-131120000D01*
X-130325000Y-131163469D01*
X-130325000Y-131163476D01*
X-130317516Y-131239463D01*
X-130312195Y-131293490D01*
X-130304512Y-131318815D01*
X-130261589Y-131460312D01*
X-130179411Y-131614058D01*
X-130068817Y-131748817D01*
X-130035044Y-131776534D01*
X-127957564Y-133854015D01*
X-127970639Y-133885581D01*
X-128045000Y-134259419D01*
X-128045000Y-134640581D01*
X-127970639Y-135014419D01*
X-127957564Y-135045985D01*
X-130775049Y-137863470D01*
X-130808816Y-137891183D01*
X-130836529Y-137924951D01*
X-130836532Y-137924954D01*
X-130919410Y-138025941D01*
X-131001588Y-138179687D01*
X-131052195Y-138346510D01*
X-131069281Y-138520000D01*
X-131760000Y-138520000D01*
X-131760000Y-88428251D01*
X-131731355Y-79549721D01*
X-131165000Y-79549721D01*
X-131165000Y-79970279D01*
X-131082953Y-80382756D01*
X-130922012Y-80771302D01*
X-130688363Y-81120983D01*
X-130390983Y-81418363D01*
X-130041302Y-81652012D01*
X-129652756Y-81812953D01*
X-129240279Y-81895000D01*
X-128819721Y-81895000D01*
X-128407244Y-81812953D01*
X-128018698Y-81652012D01*
X-127669017Y-81418363D01*
X-127371637Y-81120983D01*
X-127137988Y-80771302D01*
X-126977047Y-80382756D01*
X-126895000Y-79970279D01*
X-126895000Y-79549721D01*
X-126977047Y-79137244D01*
X-127137988Y-78748698D01*
X-127371637Y-78399017D01*
X-127669017Y-78101637D01*
X-128018698Y-77867988D01*
X-128407244Y-77707047D01*
X-128819721Y-77625000D01*
X-129240279Y-77625000D01*
X-129652756Y-77707047D01*
X-130041302Y-77867988D01*
X-130390983Y-78101637D01*
X-130688363Y-78399017D01*
X-130922012Y-78748698D01*
X-131082953Y-79137244D01*
X-131165000Y-79549721D01*
X-131731355Y-79549721D01*
X-131723405Y-77085781D01*
X-67026750Y-76460000D01*
X-32660000Y-76460000D01*
X-32659999Y-171569411D01*
%TA.AperFunction,Conductor*%
D24*
G36*
X-32659999Y-171569411D02*
G01*
X-32717451Y-188057984D01*
X-32857988Y-187718698D01*
X-33091637Y-187369017D01*
X-33389017Y-187071637D01*
X-33738698Y-186837988D01*
X-34127244Y-186677047D01*
X-34539721Y-186595000D01*
X-34960279Y-186595000D01*
X-35372756Y-186677047D01*
X-35761302Y-186837988D01*
X-36110983Y-187071637D01*
X-36408363Y-187369017D01*
X-36642012Y-187718698D01*
X-36802953Y-188107244D01*
X-36885000Y-188519721D01*
X-36885000Y-188940279D01*
X-36802953Y-189352756D01*
X-36642012Y-189741302D01*
X-36408363Y-190090983D01*
X-36110983Y-190388363D01*
X-35761302Y-190622012D01*
X-35580716Y-190696813D01*
X-88055785Y-191140000D01*
X-131760000Y-191140000D01*
X-131760000Y-188092500D01*
X-128658072Y-188092500D01*
X-128645812Y-188216982D01*
X-128609502Y-188336680D01*
X-128550537Y-188446994D01*
X-128471185Y-188543685D01*
X-128374494Y-188623037D01*
X-128264180Y-188682002D01*
X-128144482Y-188718312D01*
X-128020000Y-188730572D01*
X-127305750Y-188727500D01*
X-127147000Y-188568750D01*
X-127147000Y-187267000D01*
X-126893000Y-187267000D01*
X-126893000Y-188568750D01*
X-126734250Y-188727500D01*
X-126020000Y-188730572D01*
X-125895518Y-188718312D01*
X-125775820Y-188682002D01*
X-125665506Y-188623037D01*
X-125568815Y-188543685D01*
X-125489463Y-188446994D01*
X-125430498Y-188336680D01*
X-125394188Y-188216982D01*
X-125381928Y-188092500D01*
X-125385000Y-187425750D01*
X-125543750Y-187267000D01*
X-126893000Y-187267000D01*
X-127147000Y-187267000D01*
X-128496250Y-187267000D01*
X-128655000Y-187425750D01*
X-128658072Y-188092500D01*
X-131760000Y-188092500D01*
X-131760000Y-138520000D01*
X-131069281Y-138520000D01*
X-131064999Y-138563479D01*
X-131065000Y-154446523D01*
X-131065000Y-154776531D01*
X-131069281Y-154820000D01*
X-131065000Y-154863469D01*
X-131065000Y-154863476D01*
X-131053788Y-154977314D01*
X-131052195Y-154993490D01*
X-131041478Y-155028817D01*
X-131001589Y-155160312D01*
X-130919411Y-155314058D01*
X-130808817Y-155448817D01*
X-130775044Y-155476534D01*
X-128317564Y-157934015D01*
X-128330639Y-157965581D01*
X-128405000Y-158339419D01*
X-128405000Y-158720581D01*
X-128330639Y-159094419D01*
X-128184775Y-159446566D01*
X-127973013Y-159763491D01*
X-127703491Y-160033013D01*
X-127386566Y-160244775D01*
X-127354999Y-160257850D01*
X-127355000Y-163966531D01*
X-127359281Y-164010000D01*
X-127355000Y-164053469D01*
X-127355000Y-164053476D01*
X-127343838Y-164166812D01*
X-127342195Y-164183490D01*
X-127337008Y-164200589D01*
X-127291589Y-164350312D01*
X-127209411Y-164504058D01*
X-127098817Y-164638817D01*
X-127065044Y-164666534D01*
X-124276530Y-167455049D01*
X-124248817Y-167488817D01*
X-124215049Y-167516530D01*
X-124215047Y-167516532D01*
X-124114059Y-167599411D01*
X-123960314Y-167681589D01*
X-123793490Y-167732195D01*
X-123663477Y-167745000D01*
X-123663469Y-167745000D01*
X-123620000Y-167749281D01*
X-123618072Y-167749091D01*
X-123618072Y-167812500D01*
X-123605812Y-167936982D01*
X-123569502Y-168056680D01*
X-123510537Y-168166994D01*
X-123431185Y-168263685D01*
X-123334494Y-168343037D01*
X-123242781Y-168392059D01*
X-123355969Y-168533077D01*
X-123499571Y-168808906D01*
X-123570563Y-169027020D01*
X-123450594Y-169273000D01*
X-122107000Y-169273000D01*
X-122107000Y-169253000D01*
X-121853000Y-169253000D01*
X-121853000Y-169273000D01*
X-120509406Y-169273000D01*
X-120389437Y-169027020D01*
X-120460429Y-168808906D01*
X-120604031Y-168533077D01*
X-120717219Y-168392059D01*
X-120625506Y-168343037D01*
X-120528815Y-168263685D01*
X-120449463Y-168166994D01*
X-120390498Y-168056680D01*
X-120354188Y-167936982D01*
X-120341928Y-167812500D01*
X-120341928Y-165907500D01*
X-120354188Y-165783018D01*
X-120390498Y-165663320D01*
X-120449463Y-165553006D01*
X-120528815Y-165456315D01*
X-120625506Y-165376963D01*
X-120735820Y-165317998D01*
X-120855518Y-165281688D01*
X-120980000Y-165269428D01*
X-122980000Y-165269428D01*
X-123104482Y-165281688D01*
X-123224180Y-165317998D01*
X-123334494Y-165376963D01*
X-123431185Y-165456315D01*
X-123510537Y-165553006D01*
X-123567969Y-165660452D01*
X-125585000Y-163643422D01*
X-125585000Y-160257850D01*
X-125553434Y-160244775D01*
X-125236509Y-160033013D01*
X-124966987Y-159763491D01*
X-124755225Y-159446566D01*
X-124609361Y-159094419D01*
X-124535000Y-158720581D01*
X-124535000Y-158339419D01*
X-124609361Y-157965581D01*
X-124755225Y-157613434D01*
X-124966987Y-157296509D01*
X-125236509Y-157026987D01*
X-125553434Y-156815225D01*
X-125905581Y-156669361D01*
X-126279419Y-156595000D01*
X-126660581Y-156595000D01*
X-127034419Y-156669361D01*
X-127065985Y-156682436D01*
X-128998421Y-154750000D01*
X-128408072Y-154750000D01*
X-128395812Y-154874482D01*
X-128359502Y-154994180D01*
X-128300537Y-155104494D01*
X-128221185Y-155201185D01*
X-128124494Y-155280537D01*
X-128014180Y-155339502D01*
X-127894482Y-155375812D01*
X-127770000Y-155388072D01*
X-126755750Y-155385000D01*
X-126597000Y-155226250D01*
X-126597000Y-153577000D01*
X-126343000Y-153577000D01*
X-126343000Y-155226250D01*
X-126184250Y-155385000D01*
X-125170000Y-155388072D01*
X-125045518Y-155375812D01*
X-124925820Y-155339502D01*
X-124815506Y-155280537D01*
X-124718815Y-155201185D01*
X-124639463Y-155104494D01*
X-124580498Y-154994180D01*
X-124544188Y-154874482D01*
X-124531928Y-154750000D01*
X-124535000Y-153735750D01*
X-124693750Y-153577000D01*
X-126343000Y-153577000D01*
X-126597000Y-153577000D01*
X-128246250Y-153577000D01*
X-128405000Y-153735750D01*
X-128408072Y-154750000D01*
X-128998421Y-154750000D01*
X-129295000Y-154453422D01*
X-129295000Y-152150000D01*
X-128408072Y-152150000D01*
X-128405000Y-153164250D01*
X-128246250Y-153323000D01*
X-126597000Y-153323000D01*
X-126597000Y-151673750D01*
X-126343000Y-151673750D01*
X-126343000Y-153323000D01*
X-124693750Y-153323000D01*
X-124535000Y-153164250D01*
X-124531928Y-152150000D01*
X-124544188Y-152025518D01*
X-124580498Y-151905820D01*
X-124639463Y-151795506D01*
X-124718815Y-151698815D01*
X-124815506Y-151619463D01*
X-124925820Y-151560498D01*
X-125045518Y-151524188D01*
X-125170000Y-151511928D01*
X-126184250Y-151515000D01*
X-126343000Y-151673750D01*
X-126597000Y-151673750D01*
X-126755750Y-151515000D01*
X-127770000Y-151511928D01*
X-127894482Y-151524188D01*
X-128014180Y-151560498D01*
X-128124494Y-151619463D01*
X-128221185Y-151698815D01*
X-128300537Y-151795506D01*
X-128359502Y-151905820D01*
X-128395812Y-152025518D01*
X-128408072Y-152150000D01*
X-129295000Y-152150000D01*
X-129295000Y-138886578D01*
X-126705985Y-136297564D01*
X-126674419Y-136310639D01*
X-126300581Y-136385000D01*
X-125919419Y-136385000D01*
X-125545581Y-136310639D01*
X-125193434Y-136164775D01*
X-124876509Y-135953013D01*
X-124606987Y-135683491D01*
X-124395225Y-135366566D01*
X-124249361Y-135014419D01*
X-124175000Y-134640581D01*
X-124175000Y-134259419D01*
X-124249361Y-133885581D01*
X-124395225Y-133533434D01*
X-124606987Y-133216509D01*
X-124876509Y-132946987D01*
X-125193434Y-132735225D01*
X-125545581Y-132589361D01*
X-125919419Y-132515000D01*
X-126300581Y-132515000D01*
X-126674419Y-132589361D01*
X-126705985Y-132602436D01*
X-128555000Y-130753422D01*
X-128555000Y-130670000D01*
X-128048072Y-130670000D01*
X-128035812Y-130794482D01*
X-127999502Y-130914180D01*
X-127940537Y-131024494D01*
X-127861185Y-131121185D01*
X-127764494Y-131200537D01*
X-127654180Y-131259502D01*
X-127534482Y-131295812D01*
X-127410000Y-131308072D01*
X-126395750Y-131305000D01*
X-126237000Y-131146250D01*
X-126237000Y-129497000D01*
X-125983000Y-129497000D01*
X-125983000Y-131146250D01*
X-125824250Y-131305000D01*
X-124810000Y-131308072D01*
X-124685518Y-131295812D01*
X-124565820Y-131259502D01*
X-124455506Y-131200537D01*
X-124358815Y-131121185D01*
X-124279463Y-131024494D01*
X-124220498Y-130914180D01*
X-124184188Y-130794482D01*
X-124171928Y-130670000D01*
X-124175000Y-129655750D01*
X-124333750Y-129497000D01*
X-125983000Y-129497000D01*
X-126237000Y-129497000D01*
X-127886250Y-129497000D01*
X-128045000Y-129655750D01*
X-128048072Y-130670000D01*
X-128555000Y-130670000D01*
X-128555000Y-128070000D01*
X-128048072Y-128070000D01*
X-128045000Y-129084250D01*
X-127886250Y-129243000D01*
X-126237000Y-129243000D01*
X-126237000Y-127593750D01*
X-125983000Y-127593750D01*
X-125983000Y-129243000D01*
X-124333750Y-129243000D01*
X-124175000Y-129084250D01*
X-124171928Y-128070000D01*
X-124184188Y-127945518D01*
X-124220498Y-127825820D01*
X-124279463Y-127715506D01*
X-124358815Y-127618815D01*
X-124455506Y-127539463D01*
X-124565820Y-127480498D01*
X-124685518Y-127444188D01*
X-124810000Y-127431928D01*
X-125824250Y-127435000D01*
X-125983000Y-127593750D01*
X-126237000Y-127593750D01*
X-126395750Y-127435000D01*
X-127410000Y-127431928D01*
X-127534482Y-127444188D01*
X-127654180Y-127480498D01*
X-127764494Y-127539463D01*
X-127861185Y-127618815D01*
X-127940537Y-127715506D01*
X-127999502Y-127825820D01*
X-128035812Y-127945518D01*
X-128048072Y-128070000D01*
X-128555000Y-128070000D01*
X-128555000Y-103436578D01*
X-121163421Y-96045000D01*
X-103998072Y-96045000D01*
X-103998072Y-96460000D01*
X-103985812Y-96584482D01*
X-103949502Y-96704180D01*
X-103890537Y-96814494D01*
X-103811185Y-96911185D01*
X-103714494Y-96990537D01*
X-103650019Y-97025000D01*
X-113846531Y-97025000D01*
X-113890000Y-97020719D01*
X-113933469Y-97025000D01*
X-113933477Y-97025000D01*
X-114063490Y-97037805D01*
X-114230313Y-97088411D01*
X-114384059Y-97170589D01*
X-114485047Y-97253468D01*
X-114485049Y-97253470D01*
X-114518817Y-97281183D01*
X-114546530Y-97314951D01*
X-124645048Y-107413470D01*
X-124678816Y-107441183D01*
X-124706529Y-107474951D01*
X-124706532Y-107474954D01*
X-124789410Y-107575941D01*
X-124871588Y-107729687D01*
X-124922195Y-107896510D01*
X-124939281Y-108070000D01*
X-124934999Y-108113479D01*
X-124935000Y-118776523D01*
X-124935000Y-118776531D01*
X-124939281Y-118820000D01*
X-124935000Y-118863469D01*
X-124934999Y-123826521D01*
X-124939281Y-123870000D01*
X-124922195Y-124043490D01*
X-124871588Y-124210313D01*
X-124789410Y-124364059D01*
X-124706532Y-124465046D01*
X-124706529Y-124465049D01*
X-124678816Y-124498817D01*
X-124645048Y-124526530D01*
X-119196530Y-129975049D01*
X-119168817Y-130008817D01*
X-119135049Y-130036530D01*
X-119135047Y-130036532D01*
X-119034059Y-130119411D01*
X-118880313Y-130201589D01*
X-118713490Y-130252195D01*
X-118583477Y-130265000D01*
X-118583469Y-130265000D01*
X-118540000Y-130269281D01*
X-118496531Y-130265000D01*
X-113025395Y-130265000D01*
X-112944081Y-130364081D01*
X-112733188Y-130537157D01*
X-112522073Y-130650000D01*
X-112733188Y-130762843D01*
X-112944081Y-130935919D01*
X-113117157Y-131146812D01*
X-113245764Y-131387419D01*
X-113324960Y-131648493D01*
X-113351701Y-131920000D01*
X-113324960Y-132191507D01*
X-113245764Y-132452581D01*
X-113117157Y-132693188D01*
X-112944081Y-132904081D01*
X-112733188Y-133077157D01*
X-112522073Y-133190000D01*
X-112733188Y-133302843D01*
X-112944081Y-133475919D01*
X-113117157Y-133686812D01*
X-113245764Y-133927419D01*
X-113324960Y-134188493D01*
X-113351701Y-134460000D01*
X-113324960Y-134731507D01*
X-113245764Y-134992581D01*
X-113117157Y-135233188D01*
X-112944081Y-135444081D01*
X-112733188Y-135617157D01*
X-112522073Y-135730000D01*
X-112733188Y-135842843D01*
X-112944081Y-136015919D01*
X-113117157Y-136226812D01*
X-113245764Y-136467419D01*
X-113324960Y-136728493D01*
X-113351701Y-137000000D01*
X-113324960Y-137271507D01*
X-113245764Y-137532581D01*
X-113117157Y-137773188D01*
X-112944081Y-137984081D01*
X-112733188Y-138157157D01*
X-112522073Y-138270000D01*
X-112733188Y-138382843D01*
X-112944081Y-138555919D01*
X-113117157Y-138766812D01*
X-113245764Y-139007419D01*
X-113324960Y-139268493D01*
X-113351701Y-139540000D01*
X-113324960Y-139811507D01*
X-113245764Y-140072581D01*
X-113117157Y-140313188D01*
X-112944081Y-140524081D01*
X-112733188Y-140697157D01*
X-112522073Y-140810000D01*
X-112733188Y-140922843D01*
X-112944081Y-141095919D01*
X-113117157Y-141306812D01*
X-113245764Y-141547419D01*
X-113324960Y-141808493D01*
X-113351701Y-142080000D01*
X-113324960Y-142351507D01*
X-113245764Y-142612581D01*
X-113117157Y-142853188D01*
X-112944081Y-143064081D01*
X-112733188Y-143237157D01*
X-112522073Y-143350000D01*
X-112733188Y-143462843D01*
X-112944081Y-143635919D01*
X-113117157Y-143846812D01*
X-113245764Y-144087419D01*
X-113324960Y-144348493D01*
X-113351701Y-144620000D01*
X-113324960Y-144891507D01*
X-113245764Y-145152581D01*
X-113117157Y-145393188D01*
X-112944081Y-145604081D01*
X-112733188Y-145777157D01*
X-112522073Y-145890000D01*
X-112733188Y-146002843D01*
X-112944081Y-146175919D01*
X-113117157Y-146386812D01*
X-113245764Y-146627419D01*
X-113324960Y-146888493D01*
X-113351701Y-147160000D01*
X-113324960Y-147431507D01*
X-113245764Y-147692581D01*
X-113117157Y-147933188D01*
X-112944081Y-148144081D01*
X-112733188Y-148317157D01*
X-112522073Y-148430000D01*
X-112733188Y-148542843D01*
X-112944081Y-148715919D01*
X-113025395Y-148815000D01*
X-119763421Y-148815000D01*
X-125225000Y-143353422D01*
X-125225000Y-141257850D01*
X-125193434Y-141244775D01*
X-124876509Y-141033013D01*
X-124606987Y-140763491D01*
X-124395225Y-140446566D01*
X-124249361Y-140094419D01*
X-124175000Y-139720581D01*
X-124175000Y-139339419D01*
X-124249361Y-138965581D01*
X-124395225Y-138613434D01*
X-124606987Y-138296509D01*
X-124876509Y-138026987D01*
X-125193434Y-137815225D01*
X-125545581Y-137669361D01*
X-125919419Y-137595000D01*
X-126300581Y-137595000D01*
X-126674419Y-137669361D01*
X-127026566Y-137815225D01*
X-127343491Y-138026987D01*
X-127613013Y-138296509D01*
X-127824775Y-138613434D01*
X-127970639Y-138965581D01*
X-128045000Y-139339419D01*
X-128045000Y-139720581D01*
X-127970639Y-140094419D01*
X-127824775Y-140446566D01*
X-127613013Y-140763491D01*
X-127343491Y-141033013D01*
X-127026566Y-141244775D01*
X-126994999Y-141257850D01*
X-126995000Y-143676531D01*
X-126999281Y-143720000D01*
X-126995000Y-143763469D01*
X-126995000Y-143763476D01*
X-126982195Y-143893489D01*
X-126931589Y-144060312D01*
X-126849411Y-144214058D01*
X-126738817Y-144348817D01*
X-126705044Y-144376534D01*
X-120786530Y-150295049D01*
X-120758817Y-150328817D01*
X-120725049Y-150356530D01*
X-120725047Y-150356532D01*
X-120653548Y-150415210D01*
X-120624059Y-150439411D01*
X-120470313Y-150521589D01*
X-120303490Y-150572195D01*
X-120173477Y-150585000D01*
X-120173467Y-150585000D01*
X-120130001Y-150589281D01*
X-120086535Y-150585000D01*
X-113025395Y-150585000D01*
X-112944081Y-150684081D01*
X-112733188Y-150857157D01*
X-112522073Y-150970000D01*
X-112733188Y-151082843D01*
X-112944081Y-151255919D01*
X-113117157Y-151466812D01*
X-113245764Y-151707419D01*
X-113324960Y-151968493D01*
X-113351701Y-152240000D01*
X-113324960Y-152511507D01*
X-113245764Y-152772581D01*
X-113117157Y-153013188D01*
X-112944081Y-153224081D01*
X-112733188Y-153397157D01*
X-112522073Y-153510000D01*
X-112733188Y-153622843D01*
X-112944081Y-153795919D01*
X-113117157Y-154006812D01*
X-113245764Y-154247419D01*
X-113324960Y-154508493D01*
X-113351701Y-154780000D01*
X-113324960Y-155051507D01*
X-113245764Y-155312581D01*
X-113117157Y-155553188D01*
X-112944081Y-155764081D01*
X-112733188Y-155937157D01*
X-112522073Y-156050000D01*
X-112733188Y-156162843D01*
X-112944081Y-156335919D01*
X-113117157Y-156546812D01*
X-113245764Y-156787419D01*
X-113324960Y-157048493D01*
X-113351701Y-157320000D01*
X-113324960Y-157591507D01*
X-113245764Y-157852581D01*
X-113117157Y-158093188D01*
X-112944081Y-158304081D01*
X-112733188Y-158477157D01*
X-112522073Y-158590000D01*
X-112733188Y-158702843D01*
X-112944081Y-158875919D01*
X-113117157Y-159086812D01*
X-113245764Y-159327419D01*
X-113324960Y-159588493D01*
X-113351701Y-159860000D01*
X-113324960Y-160131507D01*
X-113245764Y-160392581D01*
X-113117157Y-160633188D01*
X-112944081Y-160844081D01*
X-112736392Y-161014527D01*
X-112834482Y-161024188D01*
X-112954180Y-161060498D01*
X-113064494Y-161119463D01*
X-113161185Y-161198815D01*
X-113240537Y-161295506D01*
X-113299502Y-161405820D01*
X-113335812Y-161525518D01*
X-113348072Y-161650000D01*
X-113345000Y-162114250D01*
X-113186250Y-162273000D01*
X-111587000Y-162273000D01*
X-111587000Y-162253000D01*
X-111333000Y-162253000D01*
X-111333000Y-162273000D01*
X-109733750Y-162273000D01*
X-109575000Y-162114250D01*
X-109571928Y-161650000D01*
X-109584188Y-161525518D01*
X-109620498Y-161405820D01*
X-109679463Y-161295506D01*
X-109758815Y-161198815D01*
X-109855506Y-161119463D01*
X-109965820Y-161060498D01*
X-110085518Y-161024188D01*
X-110183608Y-161014527D01*
X-109975919Y-160844081D01*
X-109802843Y-160633188D01*
X-109674236Y-160392581D01*
X-109595040Y-160131507D01*
X-109568299Y-159860000D01*
X-109595040Y-159588493D01*
X-109674236Y-159327419D01*
X-109802843Y-159086812D01*
X-109975919Y-158875919D01*
X-110186812Y-158702843D01*
X-110397927Y-158590000D01*
X-110186812Y-158477157D01*
X-109975919Y-158304081D01*
X-109802843Y-158093188D01*
X-109674236Y-157852581D01*
X-109595040Y-157591507D01*
X-109568299Y-157320000D01*
X-109595040Y-157048493D01*
X-109674236Y-156787419D01*
X-109802843Y-156546812D01*
X-109975919Y-156335919D01*
X-110186812Y-156162843D01*
X-110397927Y-156050000D01*
X-110186812Y-155937157D01*
X-109975919Y-155764081D01*
X-109802843Y-155553188D01*
X-109674236Y-155312581D01*
X-109595040Y-155051507D01*
X-109568299Y-154780000D01*
X-109595040Y-154508493D01*
X-109674236Y-154247419D01*
X-109802843Y-154006812D01*
X-109975919Y-153795919D01*
X-110186812Y-153622843D01*
X-110397927Y-153510000D01*
X-110186812Y-153397157D01*
X-109975919Y-153224081D01*
X-109802843Y-153013188D01*
X-109674236Y-152772581D01*
X-109595040Y-152511507D01*
X-109581396Y-152372974D01*
X-95544949Y-138336528D01*
X-95511183Y-138308817D01*
X-95400589Y-138174059D01*
X-95318411Y-138020313D01*
X-95267805Y-137853490D01*
X-95255000Y-137723477D01*
X-95255000Y-137723467D01*
X-95250719Y-137680001D01*
X-95255000Y-137636535D01*
X-95255000Y-128630000D01*
X-87948072Y-128630000D01*
X-87945000Y-129094250D01*
X-87786250Y-129253000D01*
X-86187000Y-129253000D01*
X-86187000Y-128153750D01*
X-85933000Y-128153750D01*
X-85933000Y-129253000D01*
X-84333750Y-129253000D01*
X-84175000Y-129094250D01*
X-84171928Y-128630000D01*
X-84184188Y-128505518D01*
X-84220498Y-128385820D01*
X-84279463Y-128275506D01*
X-84358815Y-128178815D01*
X-84455506Y-128099463D01*
X-84565820Y-128040498D01*
X-84685518Y-128004188D01*
X-84810000Y-127991928D01*
X-85774250Y-127995000D01*
X-85933000Y-128153750D01*
X-86187000Y-128153750D01*
X-86345750Y-127995000D01*
X-87310000Y-127991928D01*
X-87434482Y-128004188D01*
X-87554180Y-128040498D01*
X-87664494Y-128099463D01*
X-87761185Y-128178815D01*
X-87840537Y-128275506D01*
X-87899502Y-128385820D01*
X-87935812Y-128505518D01*
X-87948072Y-128630000D01*
X-95255000Y-128630000D01*
X-95255000Y-105523469D01*
X-95250719Y-105480000D01*
X-95255000Y-105436531D01*
X-95255000Y-105436523D01*
X-95267805Y-105306510D01*
X-95318411Y-105139687D01*
X-95318411Y-105139686D01*
X-95400589Y-104985941D01*
X-95483468Y-104884953D01*
X-95483470Y-104884951D01*
X-95511183Y-104851183D01*
X-95544951Y-104823470D01*
X-98033466Y-102334956D01*
X-98061183Y-102301183D01*
X-98195941Y-102190589D01*
X-98349687Y-102108411D01*
X-98516510Y-102057805D01*
X-98646523Y-102045000D01*
X-98646531Y-102045000D01*
X-98690000Y-102040719D01*
X-98733469Y-102045000D01*
X-101355637Y-102045000D01*
X-101269310Y-102016333D01*
X-101022317Y-101884312D01*
X-100890381Y-101589224D01*
X-102060000Y-100419605D01*
X-103229619Y-101589224D01*
X-103097683Y-101884312D01*
X-102777216Y-102045000D01*
X-109976531Y-102045000D01*
X-110020000Y-102040719D01*
X-110063469Y-102045000D01*
X-110063477Y-102045000D01*
X-110193490Y-102057805D01*
X-110360313Y-102108411D01*
X-110495591Y-102180718D01*
X-110514059Y-102190589D01*
X-110615047Y-102273468D01*
X-110615049Y-102273470D01*
X-110648817Y-102301183D01*
X-110676530Y-102334951D01*
X-119375048Y-111033470D01*
X-119408816Y-111061183D01*
X-119436529Y-111094951D01*
X-119436532Y-111094954D01*
X-119519410Y-111195941D01*
X-119601588Y-111349687D01*
X-119652195Y-111516510D01*
X-119669281Y-111690000D01*
X-119664999Y-111733479D01*
X-119664999Y-112519468D01*
X-119812581Y-112564236D01*
X-120053188Y-112692843D01*
X-120264081Y-112865919D01*
X-120437157Y-113076812D01*
X-120565764Y-113317419D01*
X-120644960Y-113578493D01*
X-120671701Y-113850000D01*
X-120644960Y-114121507D01*
X-120565764Y-114382581D01*
X-120437157Y-114623188D01*
X-120264081Y-114834081D01*
X-120053188Y-115007157D01*
X-119842073Y-115120000D01*
X-120053188Y-115232843D01*
X-120264081Y-115405919D01*
X-120345395Y-115505000D01*
X-121576531Y-115505000D01*
X-121620000Y-115500719D01*
X-121663469Y-115505000D01*
X-121663477Y-115505000D01*
X-121778694Y-115516348D01*
X-121793491Y-115517805D01*
X-121844097Y-115533157D01*
X-121960313Y-115568411D01*
X-122114059Y-115650589D01*
X-122114061Y-115650590D01*
X-122114060Y-115650590D01*
X-122215047Y-115733468D01*
X-122215049Y-115733470D01*
X-122248817Y-115761183D01*
X-122276530Y-115794951D01*
X-123165000Y-116683421D01*
X-123165000Y-108436578D01*
X-115907462Y-101179040D01*
X-113391909Y-101179040D01*
X-113297070Y-101443881D01*
X-113152385Y-101685131D01*
X-112963414Y-101893519D01*
X-112737420Y-102061037D01*
X-112483087Y-102181246D01*
X-112349039Y-102221904D01*
X-112127000Y-102099915D01*
X-112127000Y-100957000D01*
X-111873000Y-100957000D01*
X-111873000Y-102099915D01*
X-111650961Y-102221904D01*
X-111516913Y-102181246D01*
X-111262580Y-102061037D01*
X-111036586Y-101893519D01*
X-110847615Y-101685131D01*
X-110702930Y-101443881D01*
X-110608091Y-101179040D01*
X-110729376Y-100957000D01*
X-111873000Y-100957000D01*
X-112127000Y-100957000D01*
X-113270624Y-100957000D01*
X-113391909Y-101179040D01*
X-115907462Y-101179040D01*
X-115209382Y-100480960D01*
X-113391909Y-100480960D01*
X-113270624Y-100703000D01*
X-112127000Y-100703000D01*
X-112127000Y-99560085D01*
X-111873000Y-99560085D01*
X-111873000Y-100703000D01*
X-110729376Y-100703000D01*
X-110608091Y-100480960D01*
X-110676212Y-100290729D01*
X-104003701Y-100290729D01*
X-103956457Y-100668951D01*
X-103836333Y-101030690D01*
X-103704312Y-101277683D01*
X-103409224Y-101409619D01*
X-102239605Y-100240000D01*
X-101880395Y-100240000D01*
X-100710776Y-101409619D01*
X-100415688Y-101277683D01*
X-100244841Y-100936955D01*
X-100143750Y-100569443D01*
X-100116299Y-100189271D01*
X-100163543Y-99811049D01*
X-100283667Y-99449310D01*
X-100415688Y-99202317D01*
X-100710776Y-99070381D01*
X-101880395Y-100240000D01*
X-102239605Y-100240000D01*
X-103409224Y-99070381D01*
X-103704312Y-99202317D01*
X-103875159Y-99543045D01*
X-103976250Y-99910557D01*
X-104003701Y-100290729D01*
X-110676212Y-100290729D01*
X-110702930Y-100216119D01*
X-110847615Y-99974869D01*
X-111036586Y-99766481D01*
X-111262580Y-99598963D01*
X-111516913Y-99478754D01*
X-111650961Y-99438096D01*
X-111873000Y-99560085D01*
X-112127000Y-99560085D01*
X-112349039Y-99438096D01*
X-112483087Y-99478754D01*
X-112737420Y-99598963D01*
X-112963414Y-99766481D01*
X-113152385Y-99974869D01*
X-113297070Y-100216119D01*
X-113391909Y-100480960D01*
X-115209382Y-100480960D01*
X-113523421Y-98795000D01*
X-103186797Y-98795000D01*
X-103229619Y-98890776D01*
X-102060000Y-100060395D01*
X-100890381Y-98890776D01*
X-100933203Y-98795000D01*
X-89349508Y-98795000D01*
X-70775000Y-117369509D01*
X-70774999Y-125813420D01*
X-75085049Y-130123470D01*
X-75118816Y-130151183D01*
X-75146529Y-130184951D01*
X-75146532Y-130184954D01*
X-75229410Y-130285941D01*
X-75311588Y-130439687D01*
X-75362195Y-130606510D01*
X-75379281Y-130780000D01*
X-75374999Y-130823479D01*
X-75374999Y-131534605D01*
X-75474080Y-131615919D01*
X-75647157Y-131826812D01*
X-75760000Y-132037927D01*
X-75872843Y-131826812D01*
X-76045919Y-131615919D01*
X-76256812Y-131442843D01*
X-76497419Y-131314236D01*
X-76758493Y-131235040D01*
X-77030000Y-131208299D01*
X-77301506Y-131235040D01*
X-77562580Y-131314236D01*
X-77803187Y-131442843D01*
X-78014080Y-131615919D01*
X-78187157Y-131826812D01*
X-78315764Y-132067419D01*
X-78394960Y-132328493D01*
X-78415000Y-132531963D01*
X-78415000Y-133668036D01*
X-78394960Y-133871506D01*
X-78315764Y-134132580D01*
X-78187157Y-134373187D01*
X-78014081Y-134584080D01*
X-77916084Y-134664505D01*
X-84446578Y-141195000D01*
X-84494605Y-141195000D01*
X-84575919Y-141095919D01*
X-84786812Y-140922843D01*
X-84997927Y-140810000D01*
X-84786812Y-140697157D01*
X-84575919Y-140524081D01*
X-84402843Y-140313188D01*
X-84274236Y-140072581D01*
X-84195040Y-139811507D01*
X-84168299Y-139540000D01*
X-84195040Y-139268493D01*
X-84274236Y-139007419D01*
X-84402843Y-138766812D01*
X-84575919Y-138555919D01*
X-84786812Y-138382843D01*
X-84997927Y-138270000D01*
X-84786812Y-138157157D01*
X-84575919Y-137984081D01*
X-84402843Y-137773188D01*
X-84274236Y-137532581D01*
X-84195040Y-137271507D01*
X-84168299Y-137000000D01*
X-84195040Y-136728493D01*
X-84274236Y-136467419D01*
X-84402843Y-136226812D01*
X-84575919Y-136015919D01*
X-84786812Y-135842843D01*
X-84997927Y-135730000D01*
X-84786812Y-135617157D01*
X-84575919Y-135444081D01*
X-84402843Y-135233188D01*
X-84274236Y-134992581D01*
X-84195040Y-134731507D01*
X-84168299Y-134460000D01*
X-84195040Y-134188493D01*
X-84274236Y-133927419D01*
X-84402843Y-133686812D01*
X-84575919Y-133475919D01*
X-84786812Y-133302843D01*
X-84997927Y-133190000D01*
X-84786812Y-133077157D01*
X-84575919Y-132904081D01*
X-84402843Y-132693188D01*
X-84274236Y-132452581D01*
X-84195040Y-132191507D01*
X-84168299Y-131920000D01*
X-84195040Y-131648493D01*
X-84274236Y-131387419D01*
X-84402843Y-131146812D01*
X-84575919Y-130935919D01*
X-84783608Y-130765473D01*
X-84685518Y-130755812D01*
X-84565820Y-130719502D01*
X-84455506Y-130660537D01*
X-84358815Y-130581185D01*
X-84279463Y-130484494D01*
X-84220498Y-130374180D01*
X-84184188Y-130254482D01*
X-84171928Y-130130000D01*
X-84175000Y-129665750D01*
X-84333750Y-129507000D01*
X-85933000Y-129507000D01*
X-85933000Y-129527000D01*
X-86187000Y-129527000D01*
X-86187000Y-129507000D01*
X-87786250Y-129507000D01*
X-87945000Y-129665750D01*
X-87948072Y-130130000D01*
X-87935812Y-130254482D01*
X-87899502Y-130374180D01*
X-87840537Y-130484494D01*
X-87761185Y-130581185D01*
X-87664494Y-130660537D01*
X-87554180Y-130719502D01*
X-87434482Y-130755812D01*
X-87336392Y-130765473D01*
X-87544081Y-130935919D01*
X-87717157Y-131146812D01*
X-87845764Y-131387419D01*
X-87924960Y-131648493D01*
X-87951701Y-131920000D01*
X-87924960Y-132191507D01*
X-87845764Y-132452581D01*
X-87717157Y-132693188D01*
X-87544081Y-132904081D01*
X-87333188Y-133077157D01*
X-87122073Y-133190000D01*
X-87333188Y-133302843D01*
X-87544081Y-133475919D01*
X-87717157Y-133686812D01*
X-87845764Y-133927419D01*
X-87924960Y-134188493D01*
X-87951701Y-134460000D01*
X-87924960Y-134731507D01*
X-87845764Y-134992581D01*
X-87717157Y-135233188D01*
X-87544081Y-135444081D01*
X-87333188Y-135617157D01*
X-87122073Y-135730000D01*
X-87333188Y-135842843D01*
X-87544081Y-136015919D01*
X-87717157Y-136226812D01*
X-87845764Y-136467419D01*
X-87924960Y-136728493D01*
X-87951701Y-137000000D01*
X-87924960Y-137271507D01*
X-87845764Y-137532581D01*
X-87717157Y-137773188D01*
X-87544081Y-137984081D01*
X-87333188Y-138157157D01*
X-87122073Y-138270000D01*
X-87333188Y-138382843D01*
X-87544081Y-138555919D01*
X-87717157Y-138766812D01*
X-87845764Y-139007419D01*
X-87924960Y-139268493D01*
X-87951701Y-139540000D01*
X-87924960Y-139811507D01*
X-87845764Y-140072581D01*
X-87717157Y-140313188D01*
X-87544081Y-140524081D01*
X-87333188Y-140697157D01*
X-87122073Y-140810000D01*
X-87333188Y-140922843D01*
X-87544081Y-141095919D01*
X-87717157Y-141306812D01*
X-87845764Y-141547419D01*
X-87924960Y-141808493D01*
X-87951701Y-142080000D01*
X-87924960Y-142351507D01*
X-87845764Y-142612581D01*
X-87717157Y-142853188D01*
X-87544081Y-143064081D01*
X-87336392Y-143234527D01*
X-87434482Y-143244188D01*
X-87554180Y-143280498D01*
X-87664494Y-143339463D01*
X-87761185Y-143418815D01*
X-87840537Y-143515506D01*
X-87899502Y-143625820D01*
X-87935812Y-143745518D01*
X-87948072Y-143870000D01*
X-87945000Y-144334250D01*
X-87786250Y-144493000D01*
X-86187000Y-144493000D01*
X-86187000Y-144473000D01*
X-85933000Y-144473000D01*
X-85933000Y-144493000D01*
X-84333750Y-144493000D01*
X-84175000Y-144334250D01*
X-84171928Y-143870000D01*
X-84184188Y-143745518D01*
X-84220498Y-143625820D01*
X-84279463Y-143515506D01*
X-84358815Y-143418815D01*
X-84455506Y-143339463D01*
X-84565820Y-143280498D01*
X-84685518Y-143244188D01*
X-84783608Y-143234527D01*
X-84575919Y-143064081D01*
X-84494605Y-142965000D01*
X-84123469Y-142965000D01*
X-84080000Y-142969281D01*
X-84036531Y-142965000D01*
X-84036523Y-142965000D01*
X-83906510Y-142952195D01*
X-83739687Y-142901589D01*
X-83585941Y-142819411D01*
X-83451183Y-142708817D01*
X-83423466Y-142675044D01*
X-76434949Y-135686528D01*
X-76401183Y-135658817D01*
X-76290589Y-135524059D01*
X-76247840Y-135444081D01*
X-76208411Y-135370314D01*
X-76157805Y-135203490D01*
X-76148256Y-135106532D01*
X-76145000Y-135073477D01*
X-76145000Y-135073469D01*
X-76140719Y-135030000D01*
X-76145000Y-134986531D01*
X-76145000Y-134665394D01*
X-76045920Y-134584081D01*
X-75872843Y-134373188D01*
X-75760000Y-134162073D01*
X-75647157Y-134373187D01*
X-75474081Y-134584080D01*
X-75263188Y-134757157D01*
X-75022581Y-134885764D01*
X-74761507Y-134964960D01*
X-74490000Y-134991701D01*
X-74218494Y-134964960D01*
X-73957420Y-134885764D01*
X-73716813Y-134757157D01*
X-73505920Y-134584081D01*
X-73332843Y-134373188D01*
X-73299580Y-134310957D01*
X-73289502Y-134344180D01*
X-73230537Y-134454494D01*
X-73151185Y-134551185D01*
X-73054494Y-134630537D01*
X-72944180Y-134689502D01*
X-72824482Y-134725812D01*
X-72700000Y-134738072D01*
X-72235750Y-134735000D01*
X-72077000Y-134576250D01*
X-72077000Y-133227000D01*
X-71823000Y-133227000D01*
X-71823000Y-134576250D01*
X-71664250Y-134735000D01*
X-71200000Y-134738072D01*
X-71075518Y-134725812D01*
X-70955820Y-134689502D01*
X-70845506Y-134630537D01*
X-70748815Y-134551185D01*
X-70669463Y-134454494D01*
X-70610498Y-134344180D01*
X-70574188Y-134224482D01*
X-70561928Y-134100000D01*
X-70565000Y-133385750D01*
X-70723750Y-133227000D01*
X-71823000Y-133227000D01*
X-72077000Y-133227000D01*
X-72097000Y-133227000D01*
X-72097000Y-132973000D01*
X-72077000Y-132973000D01*
X-72077000Y-131623750D01*
X-71823000Y-131623750D01*
X-71823000Y-132973000D01*
X-70723750Y-132973000D01*
X-70565000Y-132814250D01*
X-70561928Y-132100000D01*
X-70574188Y-131975518D01*
X-70610498Y-131855820D01*
X-70669463Y-131745506D01*
X-70748815Y-131648815D01*
X-70845506Y-131569463D01*
X-70955820Y-131510498D01*
X-71075518Y-131474188D01*
X-71200000Y-131461928D01*
X-71664250Y-131465000D01*
X-71823000Y-131623750D01*
X-72077000Y-131623750D01*
X-72235750Y-131465000D01*
X-72700000Y-131461928D01*
X-72824482Y-131474188D01*
X-72944180Y-131510498D01*
X-73054494Y-131569463D01*
X-73151185Y-131648815D01*
X-73230537Y-131745506D01*
X-73289502Y-131855820D01*
X-73299580Y-131889043D01*
X-73332843Y-131826812D01*
X-73505919Y-131615919D01*
X-73605000Y-131534605D01*
X-73605000Y-131146578D01*
X-69743421Y-127285000D01*
X-58405000Y-127285000D01*
X-58404999Y-130843420D01*
X-59446578Y-131885000D01*
X-61239468Y-131885000D01*
X-61284236Y-131737419D01*
X-61412843Y-131496812D01*
X-61585920Y-131285919D01*
X-61796813Y-131112843D01*
X-62037420Y-130984236D01*
X-62298494Y-130905040D01*
X-62570000Y-130878299D01*
X-62841507Y-130905040D01*
X-63102581Y-130984236D01*
X-63343188Y-131112843D01*
X-63554081Y-131285920D01*
X-63727157Y-131496813D01*
X-63760420Y-131559043D01*
X-63770498Y-131525820D01*
X-63829463Y-131415506D01*
X-63908815Y-131318815D01*
X-64005506Y-131239463D01*
X-64115820Y-131180498D01*
X-64225000Y-131147379D01*
X-64225000Y-130442666D01*
X-64037419Y-130385764D01*
X-63796812Y-130257157D01*
X-63585919Y-130084081D01*
X-63412843Y-129873188D01*
X-63284236Y-129632581D01*
X-63205040Y-129371507D01*
X-63178299Y-129100000D01*
X-63205040Y-128828493D01*
X-63284236Y-128567419D01*
X-63412843Y-128326812D01*
X-63585919Y-128115919D01*
X-63796812Y-127942843D01*
X-64037419Y-127814236D01*
X-64298493Y-127735040D01*
X-64501963Y-127715000D01*
X-65638037Y-127715000D01*
X-65841507Y-127735040D01*
X-66102581Y-127814236D01*
X-66343188Y-127942843D01*
X-66554081Y-128115919D01*
X-66727157Y-128326812D01*
X-66855764Y-128567419D01*
X-66934960Y-128828493D01*
X-66961701Y-129100000D01*
X-66934960Y-129371507D01*
X-66855764Y-129632581D01*
X-66727157Y-129873188D01*
X-66554081Y-130084081D01*
X-66343188Y-130257157D01*
X-66102581Y-130385764D01*
X-65994999Y-130418399D01*
X-65995000Y-131147378D01*
X-66104180Y-131180498D01*
X-66214494Y-131239463D01*
X-66311185Y-131318815D01*
X-66390537Y-131415506D01*
X-66449502Y-131525820D01*
X-66485812Y-131645518D01*
X-66498072Y-131770000D01*
X-66498072Y-133770000D01*
X-66485812Y-133894482D01*
X-66449502Y-134014180D01*
X-66390537Y-134124494D01*
X-66311185Y-134221185D01*
X-66214494Y-134300537D01*
X-66104180Y-134359502D01*
X-65994999Y-134392622D01*
X-65995000Y-141533421D01*
X-67986578Y-143525000D01*
X-82186535Y-143525000D01*
X-82230001Y-143520719D01*
X-82273467Y-143525000D01*
X-82273477Y-143525000D01*
X-82403490Y-143537805D01*
X-82570313Y-143588411D01*
X-82724059Y-143670589D01*
X-82724061Y-143670590D01*
X-82724060Y-143670590D01*
X-82825047Y-143753468D01*
X-82825049Y-143753470D01*
X-82858817Y-143781183D01*
X-82886530Y-143814951D01*
X-84173701Y-145102122D01*
X-84175000Y-144905750D01*
X-84333750Y-144747000D01*
X-85933000Y-144747000D01*
X-85933000Y-144767000D01*
X-86187000Y-144767000D01*
X-86187000Y-144747000D01*
X-87786250Y-144747000D01*
X-87945000Y-144905750D01*
X-87948072Y-145370000D01*
X-87935812Y-145494482D01*
X-87899502Y-145614180D01*
X-87840537Y-145724494D01*
X-87761185Y-145821185D01*
X-87664494Y-145900537D01*
X-87554180Y-145959502D01*
X-87434482Y-145995812D01*
X-87336392Y-146005473D01*
X-87544081Y-146175919D01*
X-87717157Y-146386812D01*
X-87845764Y-146627419D01*
X-87924960Y-146888493D01*
X-87951701Y-147160000D01*
X-87924960Y-147431507D01*
X-87845764Y-147692581D01*
X-87717157Y-147933188D01*
X-87544081Y-148144081D01*
X-87333188Y-148317157D01*
X-87122073Y-148430000D01*
X-87333188Y-148542843D01*
X-87544081Y-148715919D01*
X-87717157Y-148926812D01*
X-87845764Y-149167419D01*
X-87924960Y-149428493D01*
X-87951701Y-149700000D01*
X-87924960Y-149971507D01*
X-87887499Y-150095000D01*
X-89426531Y-150095000D01*
X-89470000Y-150090719D01*
X-89513469Y-150095000D01*
X-89513477Y-150095000D01*
X-89643490Y-150107805D01*
X-89810314Y-150158411D01*
X-89964059Y-150240589D01*
X-90065047Y-150323468D01*
X-90065049Y-150323470D01*
X-90098817Y-150351183D01*
X-90126530Y-150384951D01*
X-91655044Y-151913466D01*
X-91688817Y-151941183D01*
X-91799411Y-152075942D01*
X-91881589Y-152229688D01*
X-91903097Y-152300589D01*
X-91928238Y-152383468D01*
X-91932195Y-152396511D01*
X-91945000Y-152526524D01*
X-91945000Y-152526531D01*
X-91949281Y-152570000D01*
X-91945000Y-152613469D01*
X-91944999Y-160986521D01*
X-91949281Y-161030000D01*
X-91932195Y-161203490D01*
X-91881588Y-161370313D01*
X-91799410Y-161524059D01*
X-91716532Y-161625046D01*
X-91716529Y-161625049D01*
X-91688816Y-161658817D01*
X-91655049Y-161686529D01*
X-90346530Y-162995049D01*
X-90318817Y-163028817D01*
X-90285049Y-163056530D01*
X-90285047Y-163056532D01*
X-90184059Y-163139411D01*
X-90030314Y-163221589D01*
X-89868781Y-163270590D01*
X-89863490Y-163272195D01*
X-89733477Y-163285000D01*
X-89733469Y-163285000D01*
X-89690000Y-163289281D01*
X-89646531Y-163285000D01*
X-87625395Y-163285000D01*
X-87544081Y-163384081D01*
X-87333188Y-163557157D01*
X-87122073Y-163670000D01*
X-87333188Y-163782843D01*
X-87544081Y-163955919D01*
X-87717157Y-164166812D01*
X-87845764Y-164407419D01*
X-87924960Y-164668493D01*
X-87951701Y-164940000D01*
X-87924960Y-165211507D01*
X-87845764Y-165472581D01*
X-87717157Y-165713188D01*
X-87544081Y-165924081D01*
X-87333188Y-166097157D01*
X-87122073Y-166210000D01*
X-87333188Y-166322843D01*
X-87544081Y-166495919D01*
X-87717157Y-166706812D01*
X-87845764Y-166947419D01*
X-87924960Y-167208493D01*
X-87951701Y-167480000D01*
X-87924960Y-167751507D01*
X-87845764Y-168012581D01*
X-87717157Y-168253188D01*
X-87544081Y-168464081D01*
X-87333188Y-168637157D01*
X-87122073Y-168750000D01*
X-87333188Y-168862843D01*
X-87544081Y-169035919D01*
X-87717157Y-169246812D01*
X-87845764Y-169487419D01*
X-87924960Y-169748493D01*
X-87951701Y-170020000D01*
X-87924960Y-170291507D01*
X-87845764Y-170552581D01*
X-87717157Y-170793188D01*
X-87544081Y-171004081D01*
X-87333188Y-171177157D01*
X-87122073Y-171290000D01*
X-87333188Y-171402843D01*
X-87544081Y-171575919D01*
X-87717157Y-171786812D01*
X-87845764Y-172027419D01*
X-87924960Y-172288493D01*
X-87951701Y-172560000D01*
X-87924960Y-172831507D01*
X-87845764Y-173092581D01*
X-87717157Y-173333188D01*
X-87544081Y-173544081D01*
X-87333188Y-173717157D01*
X-87092581Y-173845764D01*
X-87045651Y-173860000D01*
X-87092581Y-173874236D01*
X-87333188Y-174002843D01*
X-87544081Y-174175919D01*
X-87717157Y-174386812D01*
X-87845764Y-174627419D01*
X-87924960Y-174888493D01*
X-87951701Y-175160000D01*
X-87924960Y-175431507D01*
X-87845764Y-175692581D01*
X-87717157Y-175933188D01*
X-87544081Y-176144081D01*
X-87333188Y-176317157D01*
X-87092581Y-176445764D01*
X-86831507Y-176524960D01*
X-86628037Y-176545000D01*
X-85491963Y-176545000D01*
X-85288493Y-176524960D01*
X-85027419Y-176445764D01*
X-84786812Y-176317157D01*
X-84575919Y-176144081D01*
X-84402843Y-175933188D01*
X-84274236Y-175692581D01*
X-84195040Y-175431507D01*
X-84168299Y-175160000D01*
X-84195040Y-174888493D01*
X-84274236Y-174627419D01*
X-84402843Y-174386812D01*
X-84575919Y-174175919D01*
X-84786812Y-174002843D01*
X-85027419Y-173874236D01*
X-85074349Y-173860000D01*
X-85027419Y-173845764D01*
X-84786812Y-173717157D01*
X-84575919Y-173544081D01*
X-84402843Y-173333188D01*
X-84274236Y-173092581D01*
X-84195040Y-172831507D01*
X-84168299Y-172560000D01*
X-84195040Y-172288493D01*
X-84274236Y-172027419D01*
X-84402843Y-171786812D01*
X-84575919Y-171575919D01*
X-84786812Y-171402843D01*
X-84997927Y-171290000D01*
X-84786812Y-171177157D01*
X-84575919Y-171004081D01*
X-84402843Y-170793188D01*
X-84274236Y-170552581D01*
X-84195040Y-170291507D01*
X-84168299Y-170020000D01*
X-84195040Y-169748493D01*
X-84274236Y-169487419D01*
X-84402843Y-169246812D01*
X-84575919Y-169035919D01*
X-84786812Y-168862843D01*
X-84997927Y-168750000D01*
X-84786812Y-168637157D01*
X-84575919Y-168464081D01*
X-84402843Y-168253188D01*
X-84274236Y-168012581D01*
X-84195040Y-167751507D01*
X-84168299Y-167480000D01*
X-84195040Y-167208493D01*
X-84274236Y-166947419D01*
X-84402843Y-166706812D01*
X-84575919Y-166495919D01*
X-84786812Y-166322843D01*
X-84997927Y-166210000D01*
X-84786812Y-166097157D01*
X-84575919Y-165924081D01*
X-84494605Y-165825000D01*
X-82263469Y-165825000D01*
X-82220000Y-165829281D01*
X-82176531Y-165825000D01*
X-82176523Y-165825000D01*
X-82046510Y-165812195D01*
X-81879687Y-165761589D01*
X-81725941Y-165679411D01*
X-81591183Y-165568817D01*
X-81563466Y-165535044D01*
X-80113421Y-164085000D01*
X-76965395Y-164085000D01*
X-76884081Y-164184081D01*
X-76673188Y-164357157D01*
X-76457422Y-164472486D01*
X-76547349Y-164509028D01*
X-76775061Y-164658972D01*
X-76969145Y-164850460D01*
X-77122142Y-165076132D01*
X-77228173Y-165327316D01*
X-77242318Y-165398815D01*
X-77119656Y-165613000D01*
X-75527000Y-165613000D01*
X-75527000Y-165593000D01*
X-75273000Y-165593000D01*
X-75273000Y-165613000D01*
X-73680344Y-165613000D01*
X-73557682Y-165398815D01*
X-73571827Y-165327316D01*
X-73677858Y-165076132D01*
X-73830855Y-164850460D01*
X-74024939Y-164658972D01*
X-74252651Y-164509028D01*
X-74342578Y-164472486D01*
X-74126812Y-164357157D01*
X-73915919Y-164184081D01*
X-73742843Y-163973188D01*
X-73703724Y-163900000D01*
X-70368072Y-163900000D01*
X-70355812Y-164024482D01*
X-70319502Y-164144180D01*
X-70260537Y-164254494D01*
X-70181185Y-164351185D01*
X-70084494Y-164430537D01*
X-69974180Y-164489502D01*
X-69854482Y-164525812D01*
X-69730000Y-164538072D01*
X-69015750Y-164535000D01*
X-68857000Y-164376250D01*
X-68857000Y-163277000D01*
X-68603000Y-163277000D01*
X-68603000Y-164376250D01*
X-68444250Y-164535000D01*
X-67730000Y-164538072D01*
X-67605518Y-164525812D01*
X-67485820Y-164489502D01*
X-67375506Y-164430537D01*
X-67278815Y-164351185D01*
X-67199463Y-164254494D01*
X-67140498Y-164144180D01*
X-67104188Y-164024482D01*
X-67091928Y-163900000D01*
X-67095000Y-163435750D01*
X-67253750Y-163277000D01*
X-68603000Y-163277000D01*
X-68857000Y-163277000D01*
X-70206250Y-163277000D01*
X-70365000Y-163435750D01*
X-70368072Y-163900000D01*
X-73703724Y-163900000D01*
X-73614236Y-163732581D01*
X-73535040Y-163471507D01*
X-73508299Y-163200000D01*
X-73535040Y-162928493D01*
X-73614236Y-162667419D01*
X-73742843Y-162426812D01*
X-73764847Y-162400000D01*
X-70368072Y-162400000D01*
X-70365000Y-162864250D01*
X-70206250Y-163023000D01*
X-68857000Y-163023000D01*
X-68857000Y-161923750D01*
X-68603000Y-161923750D01*
X-68603000Y-163023000D01*
X-67253750Y-163023000D01*
X-67095000Y-162864250D01*
X-67091928Y-162400000D01*
X-67104188Y-162275518D01*
X-67140498Y-162155820D01*
X-67199463Y-162045506D01*
X-67278815Y-161948815D01*
X-67375506Y-161869463D01*
X-67485820Y-161810498D01*
X-67605518Y-161774188D01*
X-67730000Y-161761928D01*
X-68444250Y-161765000D01*
X-68603000Y-161923750D01*
X-68857000Y-161923750D01*
X-69015750Y-161765000D01*
X-69730000Y-161761928D01*
X-69854482Y-161774188D01*
X-69974180Y-161810498D01*
X-70084494Y-161869463D01*
X-70181185Y-161948815D01*
X-70260537Y-162045506D01*
X-70319502Y-162155820D01*
X-70355812Y-162275518D01*
X-70368072Y-162400000D01*
X-73764847Y-162400000D01*
X-73915919Y-162215919D01*
X-74126812Y-162042843D01*
X-74337927Y-161930000D01*
X-74126812Y-161817157D01*
X-73915919Y-161644081D01*
X-73742843Y-161433188D01*
X-73614236Y-161192581D01*
X-73535040Y-160931507D01*
X-73508299Y-160660000D01*
X-73535040Y-160388493D01*
X-73614236Y-160127419D01*
X-73742843Y-159886812D01*
X-73915919Y-159675919D01*
X-74126812Y-159502843D01*
X-74337927Y-159390000D01*
X-74126812Y-159277157D01*
X-73915919Y-159104081D01*
X-73742843Y-158893188D01*
X-73614236Y-158652581D01*
X-73535040Y-158391507D01*
X-73508299Y-158120000D01*
X-73535040Y-157848493D01*
X-73614236Y-157587419D01*
X-73742843Y-157346812D01*
X-73915919Y-157135919D01*
X-74126812Y-156962843D01*
X-74337927Y-156850000D01*
X-74126812Y-156737157D01*
X-73915919Y-156564081D01*
X-73834605Y-156465000D01*
X-73253469Y-156465000D01*
X-73210000Y-156469281D01*
X-73166531Y-156465000D01*
X-73166523Y-156465000D01*
X-73036510Y-156452195D01*
X-72869687Y-156401589D01*
X-72715941Y-156319411D01*
X-72581183Y-156208817D01*
X-72553466Y-156175044D01*
X-71434950Y-155056529D01*
X-71401183Y-155028817D01*
X-71372756Y-154994180D01*
X-71290590Y-154894060D01*
X-71290589Y-154894059D01*
X-71208411Y-154740313D01*
X-71157805Y-154573490D01*
X-71145000Y-154443477D01*
X-71145000Y-154443467D01*
X-71140719Y-154400001D01*
X-71145000Y-154356534D01*
X-71145000Y-152033469D01*
X-71140719Y-151990000D01*
X-71145000Y-151946531D01*
X-71145000Y-151946523D01*
X-71157805Y-151816510D01*
X-71208411Y-151649687D01*
X-71290589Y-151495941D01*
X-71314495Y-151466812D01*
X-71373468Y-151394953D01*
X-71373470Y-151394951D01*
X-71401183Y-151361183D01*
X-71434951Y-151333470D01*
X-72383466Y-150384956D01*
X-72411183Y-150351183D01*
X-72545941Y-150240589D01*
X-72699687Y-150158411D01*
X-72866510Y-150107805D01*
X-72996523Y-150095000D01*
X-72996531Y-150095000D01*
X-73040000Y-150090719D01*
X-73083469Y-150095000D01*
X-83813422Y-150095000D01*
X-81683421Y-147965000D01*
X-58863469Y-147965000D01*
X-58820000Y-147969281D01*
X-58776531Y-147965000D01*
X-58776523Y-147965000D01*
X-58646510Y-147952195D01*
X-58479687Y-147901589D01*
X-58325941Y-147819411D01*
X-58191183Y-147708817D01*
X-58163466Y-147675044D01*
X-53824950Y-143336528D01*
X-53791183Y-143308817D01*
X-53732372Y-143237157D01*
X-53680589Y-143174059D01*
X-53598411Y-143020314D01*
X-53547805Y-142853490D01*
X-53544449Y-142819411D01*
X-53535000Y-142723477D01*
X-53535000Y-142723469D01*
X-53530719Y-142680000D01*
X-53535000Y-142636531D01*
X-53535000Y-134175395D01*
X-53435919Y-134094081D01*
X-53262843Y-133883188D01*
X-53150000Y-133672073D01*
X-53037157Y-133883188D01*
X-52864080Y-134094081D01*
X-52764999Y-134175395D01*
X-52765000Y-159663421D01*
X-63036578Y-169935000D01*
X-73527379Y-169935000D01*
X-73560498Y-169825820D01*
X-73619463Y-169715506D01*
X-73698815Y-169618815D01*
X-73795506Y-169539463D01*
X-73905820Y-169480498D01*
X-74025518Y-169444188D01*
X-74123608Y-169434527D01*
X-73915919Y-169264081D01*
X-73834605Y-169165000D01*
X-70254361Y-169165000D01*
X-70214081Y-169214081D01*
X-70003188Y-169387157D01*
X-69762581Y-169515764D01*
X-69501507Y-169594960D01*
X-69298037Y-169615000D01*
X-68161963Y-169615000D01*
X-67958493Y-169594960D01*
X-67697419Y-169515764D01*
X-67456812Y-169387157D01*
X-67245919Y-169214081D01*
X-67072843Y-169003188D01*
X-66944236Y-168762581D01*
X-66865040Y-168501507D01*
X-66838299Y-168230000D01*
X-66865040Y-167958493D01*
X-66944236Y-167697419D01*
X-67072843Y-167456812D01*
X-67245919Y-167245919D01*
X-67456812Y-167072843D01*
X-67697419Y-166944236D01*
X-67958493Y-166865040D01*
X-68161963Y-166845000D01*
X-69298037Y-166845000D01*
X-69501507Y-166865040D01*
X-69762581Y-166944236D01*
X-70003188Y-167072843D01*
X-70214081Y-167245919D01*
X-70336429Y-167395000D01*
X-73834605Y-167395000D01*
X-73915919Y-167295919D01*
X-74126812Y-167122843D01*
X-74342578Y-167007514D01*
X-74252651Y-166970972D01*
X-74024939Y-166821028D01*
X-73830855Y-166629540D01*
X-73677858Y-166403868D01*
X-73571827Y-166152684D01*
X-73557682Y-166081185D01*
X-73680344Y-165867000D01*
X-75273000Y-165867000D01*
X-75273000Y-165887000D01*
X-75527000Y-165887000D01*
X-75527000Y-165867000D01*
X-77119656Y-165867000D01*
X-77242318Y-166081185D01*
X-77228173Y-166152684D01*
X-77122142Y-166403868D01*
X-76969145Y-166629540D01*
X-76775061Y-166821028D01*
X-76547349Y-166970972D01*
X-76457422Y-167007514D01*
X-76673188Y-167122843D01*
X-76884081Y-167295919D01*
X-76965395Y-167395000D01*
X-78756531Y-167395000D01*
X-78800000Y-167390719D01*
X-78843469Y-167395000D01*
X-78843477Y-167395000D01*
X-78973490Y-167407805D01*
X-79140313Y-167458411D01*
X-79197199Y-167488817D01*
X-79294059Y-167540589D01*
X-79395047Y-167623468D01*
X-79395049Y-167623470D01*
X-79428817Y-167651183D01*
X-79456530Y-167684951D01*
X-80935049Y-169163471D01*
X-80968816Y-169191183D01*
X-80996529Y-169224951D01*
X-80996532Y-169224954D01*
X-81079410Y-169325941D01*
X-81161588Y-169479687D01*
X-81212195Y-169646510D01*
X-81229281Y-169820000D01*
X-81224999Y-169863479D01*
X-81225000Y-175953421D01*
X-83226578Y-177955000D01*
X-107503421Y-177955000D01*
X-109699178Y-175759244D01*
X-109674236Y-175712581D01*
X-109595040Y-175451507D01*
X-109568299Y-175180000D01*
X-109595040Y-174908493D01*
X-109674236Y-174647419D01*
X-109802843Y-174406812D01*
X-109975919Y-174195919D01*
X-110186812Y-174022843D01*
X-110326699Y-173948072D01*
X-110210000Y-173948072D01*
X-110085518Y-173935812D01*
X-109965820Y-173899502D01*
X-109855506Y-173840537D01*
X-109758815Y-173761185D01*
X-109679463Y-173664494D01*
X-109620498Y-173554180D01*
X-109584188Y-173434482D01*
X-109571928Y-173310000D01*
X-109571928Y-171810000D01*
X-109584188Y-171685518D01*
X-109620498Y-171565820D01*
X-109679463Y-171455506D01*
X-109758815Y-171358815D01*
X-109855506Y-171279463D01*
X-109965820Y-171220498D01*
X-110085518Y-171184188D01*
X-110183608Y-171174527D01*
X-109975919Y-171004081D01*
X-109802843Y-170793188D01*
X-109674236Y-170552581D01*
X-109595040Y-170291507D01*
X-109568299Y-170020000D01*
X-109595040Y-169748493D01*
X-109674236Y-169487419D01*
X-109802843Y-169246812D01*
X-109975919Y-169035919D01*
X-110186812Y-168862843D01*
X-110397927Y-168750000D01*
X-110186812Y-168637157D01*
X-109975919Y-168464081D01*
X-109802843Y-168253188D01*
X-109674236Y-168012581D01*
X-109595040Y-167751507D01*
X-109568299Y-167480000D01*
X-109595040Y-167208493D01*
X-109674236Y-166947419D01*
X-109802843Y-166706812D01*
X-109975919Y-166495919D01*
X-110186812Y-166322843D01*
X-110397927Y-166210000D01*
X-110186812Y-166097157D01*
X-109975919Y-165924081D01*
X-109802843Y-165713188D01*
X-109674236Y-165472581D01*
X-109595040Y-165211507D01*
X-109568299Y-164940000D01*
X-109595040Y-164668493D01*
X-109674236Y-164407419D01*
X-109802843Y-164166812D01*
X-109975919Y-163955919D01*
X-110183608Y-163785473D01*
X-110085518Y-163775812D01*
X-109965820Y-163739502D01*
X-109855506Y-163680537D01*
X-109758815Y-163601185D01*
X-109679463Y-163504494D01*
X-109620498Y-163394180D01*
X-109584188Y-163274482D01*
X-109571928Y-163150000D01*
X-109575000Y-162685750D01*
X-109733750Y-162527000D01*
X-111333000Y-162527000D01*
X-111333000Y-162547000D01*
X-111587000Y-162547000D01*
X-111587000Y-162527000D01*
X-113186250Y-162527000D01*
X-113345000Y-162685750D01*
X-113348072Y-163150000D01*
X-113335812Y-163274482D01*
X-113299502Y-163394180D01*
X-113240537Y-163504494D01*
X-113161185Y-163601185D01*
X-113064494Y-163680537D01*
X-112954180Y-163739502D01*
X-112834482Y-163775812D01*
X-112736392Y-163785473D01*
X-112944081Y-163955919D01*
X-113117157Y-164166812D01*
X-113245764Y-164407419D01*
X-113324960Y-164668493D01*
X-113351701Y-164940000D01*
X-113324960Y-165211507D01*
X-113245764Y-165472581D01*
X-113117157Y-165713188D01*
X-112944081Y-165924081D01*
X-112733188Y-166097157D01*
X-112522073Y-166210000D01*
X-112733188Y-166322843D01*
X-112944081Y-166495919D01*
X-113117157Y-166706812D01*
X-113245764Y-166947419D01*
X-113324960Y-167208493D01*
X-113351701Y-167480000D01*
X-113324960Y-167751507D01*
X-113245764Y-168012581D01*
X-113117157Y-168253188D01*
X-112944081Y-168464081D01*
X-112733188Y-168637157D01*
X-112522073Y-168750000D01*
X-112733188Y-168862843D01*
X-112944081Y-169035919D01*
X-113117157Y-169246812D01*
X-113245764Y-169487419D01*
X-113324960Y-169748493D01*
X-113351701Y-170020000D01*
X-113324960Y-170291507D01*
X-113245764Y-170552581D01*
X-113117157Y-170793188D01*
X-112944081Y-171004081D01*
X-112736392Y-171174527D01*
X-112834482Y-171184188D01*
X-112954180Y-171220498D01*
X-113064494Y-171279463D01*
X-113161185Y-171358815D01*
X-113240537Y-171455506D01*
X-113299502Y-171565820D01*
X-113335812Y-171685518D01*
X-113348072Y-171810000D01*
X-113348072Y-173310000D01*
X-113335812Y-173434482D01*
X-113299502Y-173554180D01*
X-113240537Y-173664494D01*
X-113161185Y-173761185D01*
X-113064494Y-173840537D01*
X-112954180Y-173899502D01*
X-112834482Y-173935812D01*
X-112710000Y-173948072D01*
X-112593301Y-173948072D01*
X-112733188Y-174022843D01*
X-112944081Y-174195919D01*
X-113025395Y-174295000D01*
X-120096531Y-174295000D01*
X-120140000Y-174290719D01*
X-120183469Y-174295000D01*
X-120183477Y-174295000D01*
X-120298694Y-174306348D01*
X-120313491Y-174307805D01*
X-120364097Y-174323157D01*
X-120480313Y-174358411D01*
X-120634059Y-174440589D01*
X-120634061Y-174440590D01*
X-120634060Y-174440590D01*
X-120735047Y-174523468D01*
X-120735049Y-174523470D01*
X-120768817Y-174551183D01*
X-120796530Y-174584951D01*
X-121095000Y-174883421D01*
X-121095000Y-173292394D01*
X-121046265Y-173266345D01*
X-120804537Y-173067963D01*
X-120606155Y-172826235D01*
X-120458745Y-172550449D01*
X-120367970Y-172251204D01*
X-120337319Y-171940000D01*
X-120367970Y-171628796D01*
X-120458745Y-171329551D01*
X-120606155Y-171053765D01*
X-120804537Y-170812037D01*
X-120983899Y-170664837D01*
X-120798685Y-170509437D01*
X-120604031Y-170266923D01*
X-120460429Y-169991094D01*
X-120389437Y-169772980D01*
X-120509406Y-169527000D01*
X-121853000Y-169527000D01*
X-121853000Y-169547000D01*
X-122107000Y-169547000D01*
X-122107000Y-169527000D01*
X-123450594Y-169527000D01*
X-123570563Y-169772980D01*
X-123499571Y-169991094D01*
X-123355969Y-170266923D01*
X-123161315Y-170509437D01*
X-122976101Y-170664837D01*
X-123155463Y-170812037D01*
X-123353845Y-171053765D01*
X-123501255Y-171329551D01*
X-123592030Y-171628796D01*
X-123622681Y-171940000D01*
X-123592030Y-172251204D01*
X-123501255Y-172550449D01*
X-123353845Y-172826235D01*
X-123155463Y-173067963D01*
X-122913735Y-173266345D01*
X-122865000Y-173292394D01*
X-122864999Y-176653420D01*
X-126702946Y-180491368D01*
X-126894514Y-180472500D01*
X-127145486Y-180472500D01*
X-127378704Y-180495470D01*
X-127677949Y-180586245D01*
X-127953735Y-180733655D01*
X-128195463Y-180932037D01*
X-128393845Y-181173765D01*
X-128541255Y-181449551D01*
X-128632030Y-181748796D01*
X-128662681Y-182060000D01*
X-128632030Y-182371204D01*
X-128541255Y-182670449D01*
X-128393845Y-182946235D01*
X-128195463Y-183187963D01*
X-128022391Y-183330000D01*
X-128195463Y-183472037D01*
X-128393845Y-183713765D01*
X-128541255Y-183989551D01*
X-128632030Y-184288796D01*
X-128662681Y-184600000D01*
X-128632030Y-184911204D01*
X-128541255Y-185210449D01*
X-128393845Y-185486235D01*
X-128290554Y-185612095D01*
X-128374494Y-185656963D01*
X-128471185Y-185736315D01*
X-128550537Y-185833006D01*
X-128609502Y-185943320D01*
X-128645812Y-186063018D01*
X-128658072Y-186187500D01*
X-128655000Y-186854250D01*
X-128496250Y-187013000D01*
X-127147000Y-187013000D01*
X-127147000Y-186993000D01*
X-126893000Y-186993000D01*
X-126893000Y-187013000D01*
X-125543750Y-187013000D01*
X-125385000Y-186854250D01*
X-125381928Y-186187500D01*
X-125394188Y-186063018D01*
X-125430498Y-185943320D01*
X-125489463Y-185833006D01*
X-125568815Y-185736315D01*
X-125665506Y-185656963D01*
X-125749446Y-185612095D01*
X-125646155Y-185486235D01*
X-125645495Y-185485000D01*
X-81133469Y-185485000D01*
X-81090000Y-185489281D01*
X-81046531Y-185485000D01*
X-81046523Y-185485000D01*
X-80916510Y-185472195D01*
X-80749687Y-185421589D01*
X-80595941Y-185339411D01*
X-80461183Y-185228817D01*
X-80433466Y-185195044D01*
X-76634950Y-181396529D01*
X-76601183Y-181368817D01*
X-76490589Y-181234059D01*
X-76408411Y-181080313D01*
X-76357805Y-180913490D01*
X-76345000Y-180783477D01*
X-76345000Y-180783467D01*
X-76340719Y-180740001D01*
X-76345000Y-180696535D01*
X-76345000Y-180139039D01*
X-71081904Y-180139039D01*
X-71041246Y-180273087D01*
X-70921037Y-180527420D01*
X-70753519Y-180753414D01*
X-70545131Y-180942385D01*
X-70303881Y-181087070D01*
X-70039040Y-181181909D01*
X-69817000Y-181060624D01*
X-69817000Y-179917000D01*
X-69563000Y-179917000D01*
X-69563000Y-181060624D01*
X-69340960Y-181181909D01*
X-69076119Y-181087070D01*
X-68834869Y-180942385D01*
X-68626481Y-180753414D01*
X-68458963Y-180527420D01*
X-68338754Y-180273087D01*
X-68298096Y-180139039D01*
X-68420085Y-179917000D01*
X-69563000Y-179917000D01*
X-69817000Y-179917000D01*
X-70959915Y-179917000D01*
X-71081904Y-180139039D01*
X-76345000Y-180139039D01*
X-76345000Y-179440961D01*
X-71081904Y-179440961D01*
X-70959915Y-179663000D01*
X-69817000Y-179663000D01*
X-69817000Y-178519376D01*
X-69563000Y-178519376D01*
X-69563000Y-179663000D01*
X-68420085Y-179663000D01*
X-68298096Y-179440961D01*
X-68338754Y-179306913D01*
X-68458963Y-179052580D01*
X-68626481Y-178826586D01*
X-68834869Y-178637615D01*
X-69076119Y-178492930D01*
X-69340960Y-178398091D01*
X-69563000Y-178519376D01*
X-69817000Y-178519376D01*
X-70039040Y-178398091D01*
X-70303881Y-178492930D01*
X-70545131Y-178637615D01*
X-70753519Y-178826586D01*
X-70921037Y-179052580D01*
X-71041246Y-179306913D01*
X-71081904Y-179440961D01*
X-76345000Y-179440961D01*
X-76345000Y-172208072D01*
X-74150000Y-172208072D01*
X-74025518Y-172195812D01*
X-73905820Y-172159502D01*
X-73795506Y-172100537D01*
X-73698815Y-172021185D01*
X-73619463Y-171924494D01*
X-73560498Y-171814180D01*
X-73527379Y-171705000D01*
X-62713469Y-171705000D01*
X-62670000Y-171709281D01*
X-62626531Y-171705000D01*
X-62626523Y-171705000D01*
X-62496510Y-171692195D01*
X-62329687Y-171641589D01*
X-62175941Y-171559411D01*
X-62041183Y-171448817D01*
X-62013466Y-171415044D01*
X-51284949Y-160686528D01*
X-51251183Y-160658817D01*
X-51140589Y-160524059D01*
X-51058411Y-160370313D01*
X-51007805Y-160203490D01*
X-50995000Y-160073477D01*
X-50995000Y-160073467D01*
X-50990719Y-160030001D01*
X-50995000Y-159986535D01*
X-50995000Y-134175395D01*
X-50895919Y-134094081D01*
X-50722843Y-133883188D01*
X-50594236Y-133642581D01*
X-50515040Y-133381507D01*
X-50495000Y-133178037D01*
X-50495000Y-132041963D01*
X-50515040Y-131838493D01*
X-50594236Y-131577419D01*
X-50722843Y-131336812D01*
X-50895920Y-131125919D01*
X-50995000Y-131044606D01*
X-50995000Y-127307000D01*
X-50755000Y-127307000D01*
X-50755000Y-127807000D01*
X-50703611Y-128074760D01*
X-50600972Y-128327349D01*
X-50451028Y-128555061D01*
X-50259540Y-128749145D01*
X-50033868Y-128902142D01*
X-49782684Y-129008173D01*
X-49711185Y-129022318D01*
X-49497000Y-128899656D01*
X-49497000Y-127307000D01*
X-49243000Y-127307000D01*
X-49243000Y-128899656D01*
X-49028815Y-129022318D01*
X-48957316Y-129008173D01*
X-48706132Y-128902142D01*
X-48480460Y-128749145D01*
X-48288972Y-128555061D01*
X-48139028Y-128327349D01*
X-48036389Y-128074760D01*
X-47985000Y-127807000D01*
X-47985000Y-127307000D01*
X-49243000Y-127307000D01*
X-49497000Y-127307000D01*
X-50755000Y-127307000D01*
X-50995000Y-127307000D01*
X-50995000Y-126553000D01*
X-50755000Y-126553000D01*
X-50755000Y-127053000D01*
X-49497000Y-127053000D01*
X-49497000Y-125460344D01*
X-49243000Y-125460344D01*
X-49243000Y-127053000D01*
X-47985000Y-127053000D01*
X-47985000Y-126553000D01*
X-48036389Y-126285240D01*
X-48139028Y-126032651D01*
X-48288972Y-125804939D01*
X-48480460Y-125610855D01*
X-48706132Y-125457858D01*
X-48957316Y-125351827D01*
X-49028815Y-125337682D01*
X-49243000Y-125460344D01*
X-49497000Y-125460344D01*
X-49711185Y-125337682D01*
X-49782684Y-125351827D01*
X-50033868Y-125457858D01*
X-50259540Y-125610855D01*
X-50451028Y-125804939D01*
X-50600972Y-126032651D01*
X-50703611Y-126285240D01*
X-50755000Y-126553000D01*
X-50995000Y-126553000D01*
X-50995000Y-125073465D01*
X-50990719Y-125029999D01*
X-50995000Y-124986533D01*
X-50995000Y-124986523D01*
X-51007805Y-124856510D01*
X-51058411Y-124689687D01*
X-51140589Y-124535941D01*
X-51176988Y-124491589D01*
X-51223468Y-124434953D01*
X-51223470Y-124434951D01*
X-51251183Y-124401183D01*
X-51284951Y-124373470D01*
X-52583466Y-123074956D01*
X-52611183Y-123041183D01*
X-52745941Y-122930589D01*
X-52899687Y-122848411D01*
X-53066510Y-122797805D01*
X-53196523Y-122785000D01*
X-53196531Y-122785000D01*
X-53240000Y-122780719D01*
X-53283469Y-122785000D01*
X-55996534Y-122785000D01*
X-56040001Y-122780719D01*
X-56083467Y-122785000D01*
X-56083477Y-122785000D01*
X-56213490Y-122797805D01*
X-56380313Y-122848411D01*
X-56534059Y-122930589D01*
X-56563548Y-122954790D01*
X-56635047Y-123013468D01*
X-56635049Y-123013470D01*
X-56668817Y-123041183D01*
X-56696530Y-123074951D01*
X-58115044Y-124493466D01*
X-58148817Y-124521183D01*
X-58259411Y-124655942D01*
X-58341589Y-124809688D01*
X-58392195Y-124976511D01*
X-58405000Y-125106524D01*
X-58405000Y-125106531D01*
X-58409281Y-125150000D01*
X-58405000Y-125193470D01*
X-58405000Y-125515000D01*
X-69005000Y-125515000D01*
X-69005000Y-124361185D01*
X-66912318Y-124361185D01*
X-66898173Y-124432684D01*
X-66792142Y-124683868D01*
X-66639145Y-124909540D01*
X-66445061Y-125101028D01*
X-66217349Y-125250972D01*
X-65964760Y-125353611D01*
X-65697000Y-125405000D01*
X-65197000Y-125405000D01*
X-65197000Y-124147000D01*
X-64943000Y-124147000D01*
X-64943000Y-125405000D01*
X-64443000Y-125405000D01*
X-64175240Y-125353611D01*
X-63922651Y-125250972D01*
X-63694939Y-125101028D01*
X-63500855Y-124909540D01*
X-63347858Y-124683868D01*
X-63241827Y-124432684D01*
X-63227682Y-124361185D01*
X-63350344Y-124147000D01*
X-64943000Y-124147000D01*
X-65197000Y-124147000D01*
X-66789656Y-124147000D01*
X-66912318Y-124361185D01*
X-69005000Y-124361185D01*
X-69005000Y-123678815D01*
X-66912318Y-123678815D01*
X-66789656Y-123893000D01*
X-65197000Y-123893000D01*
X-65197000Y-122635000D01*
X-64943000Y-122635000D01*
X-64943000Y-123893000D01*
X-63350344Y-123893000D01*
X-63227682Y-123678815D01*
X-63241827Y-123607316D01*
X-63347858Y-123356132D01*
X-63500855Y-123130460D01*
X-63694939Y-122938972D01*
X-63922651Y-122789028D01*
X-64175240Y-122686389D01*
X-64443000Y-122635000D01*
X-64943000Y-122635000D01*
X-65197000Y-122635000D01*
X-65697000Y-122635000D01*
X-65964760Y-122686389D01*
X-66217349Y-122789028D01*
X-66445061Y-122938972D01*
X-66639145Y-123130460D01*
X-66792142Y-123356132D01*
X-66898173Y-123607316D01*
X-66912318Y-123678815D01*
X-69005000Y-123678815D01*
X-69005000Y-117046399D01*
X-69000719Y-117002930D01*
X-69005000Y-116959461D01*
X-69005000Y-116959453D01*
X-69017805Y-116829440D01*
X-69047875Y-116730313D01*
X-69068411Y-116662616D01*
X-69150589Y-116508871D01*
X-69233468Y-116407883D01*
X-69233470Y-116407881D01*
X-69261183Y-116374113D01*
X-69294949Y-116346402D01*
X-88326396Y-97314956D01*
X-88354113Y-97281183D01*
X-88488871Y-97170589D01*
X-88642617Y-97088411D01*
X-88809440Y-97037805D01*
X-88939453Y-97025000D01*
X-88939461Y-97025000D01*
X-88982930Y-97020719D01*
X-89026399Y-97025000D01*
X-100469981Y-97025000D01*
X-100405506Y-96990537D01*
X-100308815Y-96911185D01*
X-100229463Y-96814494D01*
X-100170498Y-96704180D01*
X-100134188Y-96584482D01*
X-100121928Y-96460000D01*
X-100121928Y-93860000D01*
X-100134188Y-93735518D01*
X-100170498Y-93615820D01*
X-100229463Y-93505506D01*
X-100308815Y-93408815D01*
X-100405506Y-93329463D01*
X-100515820Y-93270498D01*
X-100635518Y-93234188D01*
X-100760000Y-93221928D01*
X-103360000Y-93221928D01*
X-103484482Y-93234188D01*
X-103604180Y-93270498D01*
X-103714494Y-93329463D01*
X-103811185Y-93408815D01*
X-103890537Y-93505506D01*
X-103949502Y-93615820D01*
X-103985812Y-93735518D01*
X-103998072Y-93860000D01*
X-103998072Y-94275000D01*
X-121486535Y-94275000D01*
X-121530001Y-94270719D01*
X-121573467Y-94275000D01*
X-121573477Y-94275000D01*
X-121703490Y-94287805D01*
X-121870313Y-94338411D01*
X-122024059Y-94420589D01*
X-122024061Y-94420590D01*
X-122024060Y-94420590D01*
X-122125047Y-94503468D01*
X-122125049Y-94503470D01*
X-122158817Y-94531183D01*
X-122186530Y-94564951D01*
X-130035048Y-102413470D01*
X-130068816Y-102441183D01*
X-130096529Y-102474951D01*
X-130096532Y-102474954D01*
X-130179410Y-102575941D01*
X-130261588Y-102729687D01*
X-130312195Y-102896510D01*
X-130329281Y-103070000D01*
X-130324999Y-103113479D01*
X-130325000Y-131076531D01*
X-130329281Y-131120000D01*
X-130325000Y-131163469D01*
X-130325000Y-131163476D01*
X-130317516Y-131239463D01*
X-130312195Y-131293490D01*
X-130304512Y-131318815D01*
X-130261589Y-131460312D01*
X-130179411Y-131614058D01*
X-130068817Y-131748817D01*
X-130035044Y-131776534D01*
X-127957564Y-133854015D01*
X-127970639Y-133885581D01*
X-128045000Y-134259419D01*
X-128045000Y-134640581D01*
X-127970639Y-135014419D01*
X-127957564Y-135045985D01*
X-130775049Y-137863470D01*
X-130808816Y-137891183D01*
X-130836529Y-137924951D01*
X-130836532Y-137924954D01*
X-130919410Y-138025941D01*
X-131001588Y-138179687D01*
X-131052195Y-138346510D01*
X-131069281Y-138520000D01*
X-131760000Y-138520000D01*
X-131760000Y-88428251D01*
X-131731355Y-79549721D01*
X-131165000Y-79549721D01*
X-131165000Y-79970279D01*
X-131082953Y-80382756D01*
X-130922012Y-80771302D01*
X-130688363Y-81120983D01*
X-130390983Y-81418363D01*
X-130041302Y-81652012D01*
X-129652756Y-81812953D01*
X-129240279Y-81895000D01*
X-128819721Y-81895000D01*
X-128407244Y-81812953D01*
X-128018698Y-81652012D01*
X-127669017Y-81418363D01*
X-127371637Y-81120983D01*
X-127137988Y-80771302D01*
X-126977047Y-80382756D01*
X-126895000Y-79970279D01*
X-126895000Y-79549721D01*
X-126977047Y-79137244D01*
X-127137988Y-78748698D01*
X-127371637Y-78399017D01*
X-127669017Y-78101637D01*
X-128018698Y-77867988D01*
X-128407244Y-77707047D01*
X-128819721Y-77625000D01*
X-129240279Y-77625000D01*
X-129652756Y-77707047D01*
X-130041302Y-77867988D01*
X-130390983Y-78101637D01*
X-130688363Y-78399017D01*
X-130922012Y-78748698D01*
X-131082953Y-79137244D01*
X-131165000Y-79549721D01*
X-131731355Y-79549721D01*
X-131723405Y-77085781D01*
X-67026750Y-76460000D01*
X-32660000Y-76460000D01*
X-32659999Y-171569411D01*
G37*
%TD.AperFunction*%
D23*
X-76884081Y-169264081D02*
X-76676392Y-169434527D01*
X-76774482Y-169444188D01*
X-76894180Y-169480498D01*
X-77004494Y-169539463D01*
X-77101185Y-169618815D01*
X-77180537Y-169715506D01*
X-77239502Y-169825820D01*
X-77275812Y-169945518D01*
X-77288072Y-170070000D01*
X-77288072Y-170576493D01*
X-77825049Y-171113471D01*
X-77858816Y-171141183D01*
X-77886529Y-171174951D01*
X-77886532Y-171174954D01*
X-77969410Y-171275941D01*
X-78051588Y-171429687D01*
X-78102195Y-171596510D01*
X-78119281Y-171770000D01*
X-78114999Y-171813479D01*
X-78115000Y-180373421D01*
X-81456578Y-183715000D01*
X-125645495Y-183715000D01*
X-125646155Y-183713765D01*
X-125844537Y-183472037D01*
X-126017609Y-183330000D01*
X-125844537Y-183187963D01*
X-125646155Y-182946235D01*
X-125498745Y-182670449D01*
X-125407970Y-182371204D01*
X-125377319Y-182060000D01*
X-125407970Y-181748796D01*
X-125419432Y-181711010D01*
X-124491124Y-180782702D01*
X-80663097Y-180782702D01*
X-80591514Y-181026671D01*
X-80336004Y-181147571D01*
X-80061816Y-181216300D01*
X-79779488Y-181230217D01*
X-79499870Y-181188787D01*
X-79233708Y-181093603D01*
X-79108486Y-181026671D01*
X-79036903Y-180782702D01*
X-79850000Y-179969605D01*
X-80663097Y-180782702D01*
X-124491124Y-180782702D01*
X-123568934Y-179860512D01*
X-81290217Y-179860512D01*
X-81248787Y-180140130D01*
X-81153603Y-180406292D01*
X-81086671Y-180531514D01*
X-80842702Y-180603097D01*
X-80029605Y-179790000D01*
X-79670395Y-179790000D01*
X-78857298Y-180603097D01*
X-78613329Y-180531514D01*
X-78492429Y-180276004D01*
X-78423700Y-180001816D01*
X-78409783Y-179719488D01*
X-78451213Y-179439870D01*
X-78546397Y-179173708D01*
X-78613329Y-179048486D01*
X-78857298Y-178976903D01*
X-79670395Y-179790000D01*
X-80029605Y-179790000D01*
X-80842702Y-178976903D01*
X-81086671Y-179048486D01*
X-81207571Y-179303996D01*
X-81276300Y-179578184D01*
X-81290217Y-179860512D01*
X-123568934Y-179860512D01*
X-121384951Y-177676530D01*
X-121351183Y-177648817D01*
X-121323466Y-177615044D01*
X-119773421Y-176065000D01*
X-113025395Y-176065000D01*
X-112944081Y-176164081D01*
X-112733188Y-176337157D01*
X-112492581Y-176465764D01*
X-112231507Y-176544960D01*
X-112028037Y-176565000D01*
X-111396578Y-176565000D01*
X-108526530Y-179435049D01*
X-108498817Y-179468817D01*
X-108465049Y-179496530D01*
X-108465047Y-179496532D01*
X-108364059Y-179579411D01*
X-108210314Y-179661589D01*
X-108043490Y-179712195D01*
X-107913477Y-179725000D01*
X-107913469Y-179725000D01*
X-107870000Y-179729281D01*
X-107826531Y-179725000D01*
X-82903469Y-179725000D01*
X-82860000Y-179729281D01*
X-82816531Y-179725000D01*
X-82816523Y-179725000D01*
X-82686510Y-179712195D01*
X-82519687Y-179661589D01*
X-82365941Y-179579411D01*
X-82231183Y-179468817D01*
X-82203466Y-179435044D01*
X-81565720Y-178797298D01*
X-80663097Y-178797298D01*
X-79850000Y-179610395D01*
X-79036903Y-178797298D01*
X-79108486Y-178553329D01*
X-79363996Y-178432429D01*
X-79638184Y-178363700D01*
X-79920512Y-178349783D01*
X-80200130Y-178391213D01*
X-80466292Y-178486397D01*
X-80591514Y-178553329D01*
X-80663097Y-178797298D01*
X-81565720Y-178797298D01*
X-79744950Y-176976529D01*
X-79711183Y-176948817D01*
X-79600589Y-176814059D01*
X-79518411Y-176660313D01*
X-79467805Y-176493490D01*
X-79455000Y-176363477D01*
X-79455000Y-176363467D01*
X-79450719Y-176320001D01*
X-79455000Y-176276535D01*
X-79455000Y-170186578D01*
X-78433421Y-169165000D01*
X-76965395Y-169165000D01*
X-76884081Y-169264081D01*
%TA.AperFunction,Conductor*%
D24*
G36*
X-76884081Y-169264081D02*
G01*
X-76676392Y-169434527D01*
X-76774482Y-169444188D01*
X-76894180Y-169480498D01*
X-77004494Y-169539463D01*
X-77101185Y-169618815D01*
X-77180537Y-169715506D01*
X-77239502Y-169825820D01*
X-77275812Y-169945518D01*
X-77288072Y-170070000D01*
X-77288072Y-170576493D01*
X-77825049Y-171113471D01*
X-77858816Y-171141183D01*
X-77886529Y-171174951D01*
X-77886532Y-171174954D01*
X-77969410Y-171275941D01*
X-78051588Y-171429687D01*
X-78102195Y-171596510D01*
X-78119281Y-171770000D01*
X-78114999Y-171813479D01*
X-78115000Y-180373421D01*
X-81456578Y-183715000D01*
X-125645495Y-183715000D01*
X-125646155Y-183713765D01*
X-125844537Y-183472037D01*
X-126017609Y-183330000D01*
X-125844537Y-183187963D01*
X-125646155Y-182946235D01*
X-125498745Y-182670449D01*
X-125407970Y-182371204D01*
X-125377319Y-182060000D01*
X-125407970Y-181748796D01*
X-125419432Y-181711010D01*
X-124491124Y-180782702D01*
X-80663097Y-180782702D01*
X-80591514Y-181026671D01*
X-80336004Y-181147571D01*
X-80061816Y-181216300D01*
X-79779488Y-181230217D01*
X-79499870Y-181188787D01*
X-79233708Y-181093603D01*
X-79108486Y-181026671D01*
X-79036903Y-180782702D01*
X-79850000Y-179969605D01*
X-80663097Y-180782702D01*
X-124491124Y-180782702D01*
X-123568934Y-179860512D01*
X-81290217Y-179860512D01*
X-81248787Y-180140130D01*
X-81153603Y-180406292D01*
X-81086671Y-180531514D01*
X-80842702Y-180603097D01*
X-80029605Y-179790000D01*
X-79670395Y-179790000D01*
X-78857298Y-180603097D01*
X-78613329Y-180531514D01*
X-78492429Y-180276004D01*
X-78423700Y-180001816D01*
X-78409783Y-179719488D01*
X-78451213Y-179439870D01*
X-78546397Y-179173708D01*
X-78613329Y-179048486D01*
X-78857298Y-178976903D01*
X-79670395Y-179790000D01*
X-80029605Y-179790000D01*
X-80842702Y-178976903D01*
X-81086671Y-179048486D01*
X-81207571Y-179303996D01*
X-81276300Y-179578184D01*
X-81290217Y-179860512D01*
X-123568934Y-179860512D01*
X-121384951Y-177676530D01*
X-121351183Y-177648817D01*
X-121323466Y-177615044D01*
X-119773421Y-176065000D01*
X-113025395Y-176065000D01*
X-112944081Y-176164081D01*
X-112733188Y-176337157D01*
X-112492581Y-176465764D01*
X-112231507Y-176544960D01*
X-112028037Y-176565000D01*
X-111396578Y-176565000D01*
X-108526530Y-179435049D01*
X-108498817Y-179468817D01*
X-108465049Y-179496530D01*
X-108465047Y-179496532D01*
X-108364059Y-179579411D01*
X-108210314Y-179661589D01*
X-108043490Y-179712195D01*
X-107913477Y-179725000D01*
X-107913469Y-179725000D01*
X-107870000Y-179729281D01*
X-107826531Y-179725000D01*
X-82903469Y-179725000D01*
X-82860000Y-179729281D01*
X-82816531Y-179725000D01*
X-82816523Y-179725000D01*
X-82686510Y-179712195D01*
X-82519687Y-179661589D01*
X-82365941Y-179579411D01*
X-82231183Y-179468817D01*
X-82203466Y-179435044D01*
X-81565720Y-178797298D01*
X-80663097Y-178797298D01*
X-79850000Y-179610395D01*
X-79036903Y-178797298D01*
X-79108486Y-178553329D01*
X-79363996Y-178432429D01*
X-79638184Y-178363700D01*
X-79920512Y-178349783D01*
X-80200130Y-178391213D01*
X-80466292Y-178486397D01*
X-80591514Y-178553329D01*
X-80663097Y-178797298D01*
X-81565720Y-178797298D01*
X-79744950Y-176976529D01*
X-79711183Y-176948817D01*
X-79600589Y-176814059D01*
X-79518411Y-176660313D01*
X-79467805Y-176493490D01*
X-79455000Y-176363477D01*
X-79455000Y-176363467D01*
X-79450719Y-176320001D01*
X-79455000Y-176276535D01*
X-79455000Y-170186578D01*
X-78433421Y-169165000D01*
X-76965395Y-169165000D01*
X-76884081Y-169264081D01*
G37*
%TD.AperFunction*%
D23*
X-103293491Y-103816987D02*
X-103563013Y-104086509D01*
X-103774775Y-104403434D01*
X-103920639Y-104755581D01*
X-103995000Y-105129419D01*
X-103995000Y-105510581D01*
X-103920639Y-105884419D01*
X-103774775Y-106236566D01*
X-103563013Y-106553491D01*
X-103293491Y-106823013D01*
X-102976566Y-107034775D01*
X-102945000Y-107047850D01*
X-102944999Y-138683420D01*
X-110237388Y-145975810D01*
X-110397927Y-145890000D01*
X-110186812Y-145777157D01*
X-109975919Y-145604081D01*
X-109802843Y-145393188D01*
X-109674236Y-145152581D01*
X-109595040Y-144891507D01*
X-109568299Y-144620000D01*
X-109595040Y-144348493D01*
X-109674236Y-144087419D01*
X-109802843Y-143846812D01*
X-109975919Y-143635919D01*
X-110186812Y-143462843D01*
X-110397927Y-143350000D01*
X-110186812Y-143237157D01*
X-109975919Y-143064081D01*
X-109802843Y-142853188D01*
X-109674236Y-142612581D01*
X-109595040Y-142351507D01*
X-109568299Y-142080000D01*
X-109595040Y-141808493D01*
X-109674236Y-141547419D01*
X-109802843Y-141306812D01*
X-109975919Y-141095919D01*
X-110186812Y-140922843D01*
X-110397927Y-140810000D01*
X-110186812Y-140697157D01*
X-109975919Y-140524081D01*
X-109802843Y-140313188D01*
X-109674236Y-140072581D01*
X-109595040Y-139811507D01*
X-109568299Y-139540000D01*
X-109595040Y-139268493D01*
X-109674236Y-139007419D01*
X-109802843Y-138766812D01*
X-109975919Y-138555919D01*
X-110186812Y-138382843D01*
X-110397927Y-138270000D01*
X-110186812Y-138157157D01*
X-109975919Y-137984081D01*
X-109802843Y-137773188D01*
X-109674236Y-137532581D01*
X-109595040Y-137271507D01*
X-109568299Y-137000000D01*
X-109595040Y-136728493D01*
X-109674236Y-136467419D01*
X-109802843Y-136226812D01*
X-109975919Y-136015919D01*
X-110186812Y-135842843D01*
X-110397927Y-135730000D01*
X-110186812Y-135617157D01*
X-109975919Y-135444081D01*
X-109802843Y-135233188D01*
X-109674236Y-134992581D01*
X-109595040Y-134731507D01*
X-109568299Y-134460000D01*
X-109595040Y-134188493D01*
X-109674236Y-133927419D01*
X-109802843Y-133686812D01*
X-109975919Y-133475919D01*
X-110186812Y-133302843D01*
X-110397927Y-133190000D01*
X-110186812Y-133077157D01*
X-109975919Y-132904081D01*
X-109802843Y-132693188D01*
X-109674236Y-132452581D01*
X-109595040Y-132191507D01*
X-109568299Y-131920000D01*
X-109595040Y-131648493D01*
X-109674236Y-131387419D01*
X-109802843Y-131146812D01*
X-109975919Y-130935919D01*
X-110186812Y-130762843D01*
X-110397927Y-130650000D01*
X-110186812Y-130537157D01*
X-109975919Y-130364081D01*
X-109802843Y-130153188D01*
X-109674236Y-129912581D01*
X-109595040Y-129651507D01*
X-109568299Y-129380000D01*
X-109595040Y-129108493D01*
X-109674236Y-128847419D01*
X-109802843Y-128606812D01*
X-109975919Y-128395919D01*
X-110186812Y-128222843D01*
X-110427419Y-128094236D01*
X-110688493Y-128015040D01*
X-110891963Y-127995000D01*
X-112028037Y-127995000D01*
X-112231507Y-128015040D01*
X-112492581Y-128094236D01*
X-112733188Y-128222843D01*
X-112944081Y-128395919D01*
X-113025395Y-128495000D01*
X-118173421Y-128495000D01*
X-123165000Y-123503422D01*
X-123165000Y-119680000D01*
X-120418072Y-119680000D01*
X-120405812Y-119804482D01*
X-120369502Y-119924180D01*
X-120310537Y-120034494D01*
X-120231185Y-120131185D01*
X-120134494Y-120210537D01*
X-120024180Y-120269502D01*
X-119904482Y-120305812D01*
X-119780000Y-120318072D01*
X-119065750Y-120315000D01*
X-118907000Y-120156250D01*
X-118907000Y-119057000D01*
X-118653000Y-119057000D01*
X-118653000Y-120156250D01*
X-118494250Y-120315000D01*
X-117780000Y-120318072D01*
X-117655518Y-120305812D01*
X-117535820Y-120269502D01*
X-117425506Y-120210537D01*
X-117328815Y-120131185D01*
X-117249463Y-120034494D01*
X-117190498Y-119924180D01*
X-117154188Y-119804482D01*
X-117141928Y-119680000D01*
X-117145000Y-119215750D01*
X-117303750Y-119057000D01*
X-118653000Y-119057000D01*
X-118907000Y-119057000D01*
X-120256250Y-119057000D01*
X-120415000Y-119215750D01*
X-120418072Y-119680000D01*
X-123165000Y-119680000D01*
X-123165000Y-119186578D01*
X-121253421Y-117275000D01*
X-120345395Y-117275000D01*
X-120264081Y-117374081D01*
X-120053188Y-117547157D01*
X-119990957Y-117580420D01*
X-120024180Y-117590498D01*
X-120134494Y-117649463D01*
X-120231185Y-117728815D01*
X-120310537Y-117825506D01*
X-120369502Y-117935820D01*
X-120405812Y-118055518D01*
X-120418072Y-118180000D01*
X-120415000Y-118644250D01*
X-120256250Y-118803000D01*
X-118907000Y-118803000D01*
X-118907000Y-118783000D01*
X-118653000Y-118783000D01*
X-118653000Y-118803000D01*
X-117303750Y-118803000D01*
X-117145000Y-118644250D01*
X-117141928Y-118180000D01*
X-117154188Y-118055518D01*
X-117190498Y-117935820D01*
X-117249463Y-117825506D01*
X-117328815Y-117728815D01*
X-117425506Y-117649463D01*
X-117535820Y-117590498D01*
X-117569043Y-117580420D01*
X-117506812Y-117547157D01*
X-117295919Y-117374081D01*
X-117122843Y-117163188D01*
X-116994236Y-116922581D01*
X-116915040Y-116661507D01*
X-116888299Y-116390000D01*
X-116915040Y-116118493D01*
X-116994236Y-115857419D01*
X-117122843Y-115616812D01*
X-117295919Y-115405919D01*
X-117506812Y-115232843D01*
X-117717927Y-115120000D01*
X-117506812Y-115007157D01*
X-117295919Y-114834081D01*
X-117122843Y-114623188D01*
X-116994236Y-114382581D01*
X-116915040Y-114121507D01*
X-116888299Y-113850000D01*
X-116915040Y-113578493D01*
X-116994236Y-113317419D01*
X-117122843Y-113076812D01*
X-117295919Y-112865919D01*
X-117506812Y-112692843D01*
X-117747419Y-112564236D01*
X-117895000Y-112519468D01*
X-117895000Y-112056578D01*
X-117821124Y-111982702D01*
X-112813097Y-111982702D01*
X-112741514Y-112226671D01*
X-112486004Y-112347571D01*
X-112211816Y-112416300D01*
X-111929488Y-112430217D01*
X-111649870Y-112388787D01*
X-111383708Y-112293603D01*
X-111258486Y-112226671D01*
X-111186903Y-111982702D01*
X-112000000Y-111169605D01*
X-112813097Y-111982702D01*
X-117821124Y-111982702D01*
X-116898934Y-111060512D01*
X-113440217Y-111060512D01*
X-113398787Y-111340130D01*
X-113303603Y-111606292D01*
X-113236671Y-111731514D01*
X-112992702Y-111803097D01*
X-112179605Y-110990000D01*
X-111820395Y-110990000D01*
X-111007298Y-111803097D01*
X-110763329Y-111731514D01*
X-110642429Y-111476004D01*
X-110573700Y-111201816D01*
X-110559783Y-110919488D01*
X-110601213Y-110639870D01*
X-110696397Y-110373708D01*
X-110763329Y-110248486D01*
X-111007298Y-110176903D01*
X-111820395Y-110990000D01*
X-112179605Y-110990000D01*
X-112992702Y-110176903D01*
X-113236671Y-110248486D01*
X-113357571Y-110503996D01*
X-113426300Y-110778184D01*
X-113440217Y-111060512D01*
X-116898934Y-111060512D01*
X-115835720Y-109997298D01*
X-112813097Y-109997298D01*
X-112000000Y-110810395D01*
X-111186903Y-109997298D01*
X-111258486Y-109753329D01*
X-111513996Y-109632429D01*
X-111788184Y-109563700D01*
X-112070512Y-109549783D01*
X-112350130Y-109591213D01*
X-112616292Y-109686397D01*
X-112741514Y-109753329D01*
X-112813097Y-109997298D01*
X-115835720Y-109997298D01*
X-109653421Y-103815000D01*
X-103290517Y-103815000D01*
X-103293491Y-103816987D01*
%TA.AperFunction,Conductor*%
D24*
G36*
X-103293491Y-103816987D02*
G01*
X-103563013Y-104086509D01*
X-103774775Y-104403434D01*
X-103920639Y-104755581D01*
X-103995000Y-105129419D01*
X-103995000Y-105510581D01*
X-103920639Y-105884419D01*
X-103774775Y-106236566D01*
X-103563013Y-106553491D01*
X-103293491Y-106823013D01*
X-102976566Y-107034775D01*
X-102945000Y-107047850D01*
X-102944999Y-138683420D01*
X-110237388Y-145975810D01*
X-110397927Y-145890000D01*
X-110186812Y-145777157D01*
X-109975919Y-145604081D01*
X-109802843Y-145393188D01*
X-109674236Y-145152581D01*
X-109595040Y-144891507D01*
X-109568299Y-144620000D01*
X-109595040Y-144348493D01*
X-109674236Y-144087419D01*
X-109802843Y-143846812D01*
X-109975919Y-143635919D01*
X-110186812Y-143462843D01*
X-110397927Y-143350000D01*
X-110186812Y-143237157D01*
X-109975919Y-143064081D01*
X-109802843Y-142853188D01*
X-109674236Y-142612581D01*
X-109595040Y-142351507D01*
X-109568299Y-142080000D01*
X-109595040Y-141808493D01*
X-109674236Y-141547419D01*
X-109802843Y-141306812D01*
X-109975919Y-141095919D01*
X-110186812Y-140922843D01*
X-110397927Y-140810000D01*
X-110186812Y-140697157D01*
X-109975919Y-140524081D01*
X-109802843Y-140313188D01*
X-109674236Y-140072581D01*
X-109595040Y-139811507D01*
X-109568299Y-139540000D01*
X-109595040Y-139268493D01*
X-109674236Y-139007419D01*
X-109802843Y-138766812D01*
X-109975919Y-138555919D01*
X-110186812Y-138382843D01*
X-110397927Y-138270000D01*
X-110186812Y-138157157D01*
X-109975919Y-137984081D01*
X-109802843Y-137773188D01*
X-109674236Y-137532581D01*
X-109595040Y-137271507D01*
X-109568299Y-137000000D01*
X-109595040Y-136728493D01*
X-109674236Y-136467419D01*
X-109802843Y-136226812D01*
X-109975919Y-136015919D01*
X-110186812Y-135842843D01*
X-110397927Y-135730000D01*
X-110186812Y-135617157D01*
X-109975919Y-135444081D01*
X-109802843Y-135233188D01*
X-109674236Y-134992581D01*
X-109595040Y-134731507D01*
X-109568299Y-134460000D01*
X-109595040Y-134188493D01*
X-109674236Y-133927419D01*
X-109802843Y-133686812D01*
X-109975919Y-133475919D01*
X-110186812Y-133302843D01*
X-110397927Y-133190000D01*
X-110186812Y-133077157D01*
X-109975919Y-132904081D01*
X-109802843Y-132693188D01*
X-109674236Y-132452581D01*
X-109595040Y-132191507D01*
X-109568299Y-131920000D01*
X-109595040Y-131648493D01*
X-109674236Y-131387419D01*
X-109802843Y-131146812D01*
X-109975919Y-130935919D01*
X-110186812Y-130762843D01*
X-110397927Y-130650000D01*
X-110186812Y-130537157D01*
X-109975919Y-130364081D01*
X-109802843Y-130153188D01*
X-109674236Y-129912581D01*
X-109595040Y-129651507D01*
X-109568299Y-129380000D01*
X-109595040Y-129108493D01*
X-109674236Y-128847419D01*
X-109802843Y-128606812D01*
X-109975919Y-128395919D01*
X-110186812Y-128222843D01*
X-110427419Y-128094236D01*
X-110688493Y-128015040D01*
X-110891963Y-127995000D01*
X-112028037Y-127995000D01*
X-112231507Y-128015040D01*
X-112492581Y-128094236D01*
X-112733188Y-128222843D01*
X-112944081Y-128395919D01*
X-113025395Y-128495000D01*
X-118173421Y-128495000D01*
X-123165000Y-123503422D01*
X-123165000Y-119680000D01*
X-120418072Y-119680000D01*
X-120405812Y-119804482D01*
X-120369502Y-119924180D01*
X-120310537Y-120034494D01*
X-120231185Y-120131185D01*
X-120134494Y-120210537D01*
X-120024180Y-120269502D01*
X-119904482Y-120305812D01*
X-119780000Y-120318072D01*
X-119065750Y-120315000D01*
X-118907000Y-120156250D01*
X-118907000Y-119057000D01*
X-118653000Y-119057000D01*
X-118653000Y-120156250D01*
X-118494250Y-120315000D01*
X-117780000Y-120318072D01*
X-117655518Y-120305812D01*
X-117535820Y-120269502D01*
X-117425506Y-120210537D01*
X-117328815Y-120131185D01*
X-117249463Y-120034494D01*
X-117190498Y-119924180D01*
X-117154188Y-119804482D01*
X-117141928Y-119680000D01*
X-117145000Y-119215750D01*
X-117303750Y-119057000D01*
X-118653000Y-119057000D01*
X-118907000Y-119057000D01*
X-120256250Y-119057000D01*
X-120415000Y-119215750D01*
X-120418072Y-119680000D01*
X-123165000Y-119680000D01*
X-123165000Y-119186578D01*
X-121253421Y-117275000D01*
X-120345395Y-117275000D01*
X-120264081Y-117374081D01*
X-120053188Y-117547157D01*
X-119990957Y-117580420D01*
X-120024180Y-117590498D01*
X-120134494Y-117649463D01*
X-120231185Y-117728815D01*
X-120310537Y-117825506D01*
X-120369502Y-117935820D01*
X-120405812Y-118055518D01*
X-120418072Y-118180000D01*
X-120415000Y-118644250D01*
X-120256250Y-118803000D01*
X-118907000Y-118803000D01*
X-118907000Y-118783000D01*
X-118653000Y-118783000D01*
X-118653000Y-118803000D01*
X-117303750Y-118803000D01*
X-117145000Y-118644250D01*
X-117141928Y-118180000D01*
X-117154188Y-118055518D01*
X-117190498Y-117935820D01*
X-117249463Y-117825506D01*
X-117328815Y-117728815D01*
X-117425506Y-117649463D01*
X-117535820Y-117590498D01*
X-117569043Y-117580420D01*
X-117506812Y-117547157D01*
X-117295919Y-117374081D01*
X-117122843Y-117163188D01*
X-116994236Y-116922581D01*
X-116915040Y-116661507D01*
X-116888299Y-116390000D01*
X-116915040Y-116118493D01*
X-116994236Y-115857419D01*
X-117122843Y-115616812D01*
X-117295919Y-115405919D01*
X-117506812Y-115232843D01*
X-117717927Y-115120000D01*
X-117506812Y-115007157D01*
X-117295919Y-114834081D01*
X-117122843Y-114623188D01*
X-116994236Y-114382581D01*
X-116915040Y-114121507D01*
X-116888299Y-113850000D01*
X-116915040Y-113578493D01*
X-116994236Y-113317419D01*
X-117122843Y-113076812D01*
X-117295919Y-112865919D01*
X-117506812Y-112692843D01*
X-117747419Y-112564236D01*
X-117895000Y-112519468D01*
X-117895000Y-112056578D01*
X-117821124Y-111982702D01*
X-112813097Y-111982702D01*
X-112741514Y-112226671D01*
X-112486004Y-112347571D01*
X-112211816Y-112416300D01*
X-111929488Y-112430217D01*
X-111649870Y-112388787D01*
X-111383708Y-112293603D01*
X-111258486Y-112226671D01*
X-111186903Y-111982702D01*
X-112000000Y-111169605D01*
X-112813097Y-111982702D01*
X-117821124Y-111982702D01*
X-116898934Y-111060512D01*
X-113440217Y-111060512D01*
X-113398787Y-111340130D01*
X-113303603Y-111606292D01*
X-113236671Y-111731514D01*
X-112992702Y-111803097D01*
X-112179605Y-110990000D01*
X-111820395Y-110990000D01*
X-111007298Y-111803097D01*
X-110763329Y-111731514D01*
X-110642429Y-111476004D01*
X-110573700Y-111201816D01*
X-110559783Y-110919488D01*
X-110601213Y-110639870D01*
X-110696397Y-110373708D01*
X-110763329Y-110248486D01*
X-111007298Y-110176903D01*
X-111820395Y-110990000D01*
X-112179605Y-110990000D01*
X-112992702Y-110176903D01*
X-113236671Y-110248486D01*
X-113357571Y-110503996D01*
X-113426300Y-110778184D01*
X-113440217Y-111060512D01*
X-116898934Y-111060512D01*
X-115835720Y-109997298D01*
X-112813097Y-109997298D01*
X-112000000Y-110810395D01*
X-111186903Y-109997298D01*
X-111258486Y-109753329D01*
X-111513996Y-109632429D01*
X-111788184Y-109563700D01*
X-112070512Y-109549783D01*
X-112350130Y-109591213D01*
X-112616292Y-109686397D01*
X-112741514Y-109753329D01*
X-112813097Y-109997298D01*
X-115835720Y-109997298D01*
X-109653421Y-103815000D01*
X-103290517Y-103815000D01*
X-103293491Y-103816987D01*
G37*
%TD.AperFunction*%
%TD*%
M02*
