%TF.GenerationSoftware,KiCad,Pcbnew,(5.1.12)-1*%
%TF.CreationDate,2023-10-31T12:09:21-05:00*%
%TF.ProjectId,Logiplant,4c6f6769-706c-4616-9e74-2e6b69636164,rev?*%
%TF.SameCoordinates,Original*%
%TF.FileFunction,Soldermask,Top*%
%TF.FilePolarity,Negative*%
%FSLAX46Y46*%
G04 Gerber Fmt 4.6, Leading zero omitted, Abs format (unit mm)*
G04 Created by KiCad (PCBNEW (5.1.12)-1) date 2023-10-31 12:09:21*
%MOMM*%
%LPD*%
G01*
G04 APERTURE LIST*
%ADD10O,1.600000X1.600000*%
%ADD11C,1.600000*%
%ADD12C,2.600000*%
%ADD13R,2.600000X2.600000*%
%ADD14R,1.700000X1.700000*%
%ADD15O,1.700000X1.700000*%
%ADD16O,2.000000X1.905000*%
%ADD17R,2.000000X1.905000*%
%ADD18O,1.905000X2.000000*%
%ADD19R,1.905000X2.000000*%
%ADD20O,2.500000X1.500000*%
%ADD21R,2.500000X1.500000*%
%ADD22O,1.500000X2.500000*%
%ADD23R,1.500000X2.000000*%
%ADD24R,2.000000X1.500000*%
G04 APERTURE END LIST*
D10*
%TO.C,R3*%
X-69690000Y-179790000D03*
D11*
X-79850000Y-179790000D03*
%TD*%
D10*
%TO.C,R2*%
X-112000000Y-100830000D03*
D11*
X-112000000Y-110990000D03*
%TD*%
D12*
%TO.C,Recibo1*%
X-126110000Y-139530000D03*
X-126110000Y-134450000D03*
D13*
X-126110000Y-129370000D03*
%TD*%
D14*
%TO.C,U4*%
X-52060000Y-89560000D03*
D15*
X-52060000Y-98660000D03*
X-52060000Y-108560000D03*
D12*
X-102060000Y-105160000D03*
X-102060000Y-100160000D03*
D13*
X-102060000Y-95160000D03*
%TD*%
D16*
%TO.C,U3*%
X-126140000Y-179900000D03*
X-126140000Y-182440000D03*
D17*
X-126140000Y-184980000D03*
%TD*%
D18*
%TO.C,U1*%
X-119090000Y-181170000D03*
X-116550000Y-181170000D03*
D19*
X-114010000Y-181170000D03*
%TD*%
D20*
%TO.C,OLED1*%
X-75400000Y-165740000D03*
X-75400000Y-163200000D03*
X-75400000Y-160660000D03*
X-75400000Y-158120000D03*
X-75400000Y-155580000D03*
X-75400000Y-153040000D03*
D21*
X-75400000Y-170820000D03*
D20*
X-75400000Y-168280000D03*
%TD*%
%TO.C,R5*%
X-65070000Y-129100000D03*
X-65070000Y-124020000D03*
%TD*%
D22*
%TO.C,R1*%
X-54450000Y-127180000D03*
X-49370000Y-127180000D03*
%TD*%
D20*
%TO.C,U2*%
X-86060000Y-172560000D03*
X-86060000Y-170020000D03*
X-86060000Y-167480000D03*
X-86060000Y-164940000D03*
X-86060000Y-162400000D03*
X-86060000Y-159860000D03*
X-86060000Y-157320000D03*
X-86060000Y-154780000D03*
X-86060000Y-152240000D03*
X-86060000Y-149700000D03*
X-86060000Y-147160000D03*
D21*
X-86060000Y-144620000D03*
D20*
X-86060000Y-142080000D03*
X-86060000Y-139540000D03*
X-86060000Y-137000000D03*
X-86060000Y-134460000D03*
X-86060000Y-131920000D03*
D21*
X-86060000Y-129380000D03*
X-111460000Y-172560000D03*
D20*
X-111460000Y-170020000D03*
X-111460000Y-167480000D03*
X-111460000Y-164940000D03*
D21*
X-111460000Y-162400000D03*
D20*
X-111460000Y-159860000D03*
X-111460000Y-157320000D03*
X-111460000Y-154780000D03*
X-111460000Y-152240000D03*
X-111460000Y-149700000D03*
X-111460000Y-147160000D03*
X-111460000Y-144620000D03*
X-111460000Y-142080000D03*
X-111460000Y-139540000D03*
X-111460000Y-137000000D03*
X-111460000Y-134460000D03*
X-111460000Y-131920000D03*
X-111460000Y-129380000D03*
X-111460000Y-175180000D03*
X-86060000Y-175160000D03*
%TD*%
D22*
%TO.C,SERVO1*%
X-77030000Y-133100000D03*
X-74490000Y-133100000D03*
D23*
X-71950000Y-133100000D03*
%TD*%
D22*
%TO.C,Seguro1*%
X-62570000Y-132770000D03*
D23*
X-65110000Y-132770000D03*
%TD*%
D20*
%TO.C,HALL1*%
X-118780000Y-113850000D03*
X-118780000Y-116390000D03*
D24*
X-118780000Y-118930000D03*
%TD*%
D22*
%TO.C,Bolsa1*%
X-51880000Y-132610000D03*
X-54420000Y-132610000D03*
%TD*%
D12*
%TO.C,J4*%
X-101500000Y-185670000D03*
D13*
X-106580000Y-185670000D03*
%TD*%
D24*
%TO.C,D1*%
X-68730000Y-163150000D03*
D20*
X-68730000Y-168230000D03*
%TD*%
M02*
