M48
; DRILL file {KiCad (5.1.12)-1} date 09/12/23 13:55:15
; FORMAT={-:-/ absolute / metric / decimal}
; #@! TF.CreationDate,2023-09-12T13:55:15-05:00
; #@! TF.GenerationSoftware,Kicad,Pcbnew,(5.1.12)-1
; #@! TF.FileFunction,Plated,1,2,PTH
FMAT,2
METRIC
T1C0.800
T2C1.000
T3C1.100
T4C1.300
%
G90
G05
T1
X-70.0Y-91.8
X-70.0Y-96.88
T2
X-126.0Y-124.4
X-123.0Y-142.2
X-75.6Y-103.2
X-64.2Y-169.8
X-63.6Y-92.6
X-54.3Y-169.8
X-53.6Y-92.32
X-45.2Y-169.8
T3
X-126.0Y-131.0
X-125.54Y-135.0
X-125.54Y-142.2
X-123.6Y-149.8
X-123.46Y-124.4
X-123.36Y-162.12
X-123.0Y-135.0
X-122.97Y-175.01
X-122.97Y-177.55
X-122.97Y-180.09
X-120.92Y-124.4
X-120.92Y-131.0
X-120.82Y-162.12
X-118.52Y-149.8
X-118.28Y-162.12
X-107.7Y-118.82
X-107.7Y-121.42
X-107.7Y-123.96
X-107.7Y-126.5
X-107.7Y-129.04
X-107.7Y-131.58
X-107.7Y-134.12
X-107.7Y-136.66
X-107.7Y-139.2
X-107.7Y-141.74
X-107.7Y-144.28
X-107.7Y-146.82
X-107.7Y-149.36
X-107.7Y-151.9
X-107.7Y-154.44
X-107.7Y-156.98
X-107.7Y-159.52
X-107.7Y-162.06
X-107.7Y-164.6
X-105.69Y-107.01
X-103.15Y-107.01
X-100.61Y-107.01
X-98.07Y-107.01
X-95.53Y-107.01
X-92.99Y-107.01
X-90.45Y-107.01
X-87.91Y-107.01
X-82.3Y-118.8
X-82.3Y-121.42
X-82.3Y-123.96
X-82.3Y-126.5
X-82.3Y-129.04
X-82.3Y-131.58
X-82.3Y-134.12
X-82.3Y-136.66
X-82.3Y-139.2
X-82.3Y-141.74
X-82.3Y-144.28
X-82.3Y-146.82
X-82.3Y-149.36
X-82.3Y-151.9
X-82.3Y-154.44
X-82.3Y-156.98
X-82.3Y-159.52
X-82.3Y-162.06
X-82.3Y-164.6
X-75.6Y-105.74
X-63.6Y-95.14
X-63.6Y-97.68
X-53.6Y-97.4
T4
X-113.2Y-185.4
X-108.12Y-185.4
X-92.4Y-185.0
X-87.32Y-185.0
X-82.24Y-185.0
X-60.8Y-119.8
X-55.8Y-119.8
X-50.8Y-119.8
T0
M30
