M48
; DRILL file {KiCad (5.1.12)-1} date 11/22/23 13:00:43
; FORMAT={-:-/ absolute / metric / decimal}
; #@! TF.CreationDate,2023-11-22T13:00:43-05:00
; #@! TF.GenerationSoftware,Kicad,Pcbnew,(5.1.12)-1
; #@! TF.FileFunction,Plated,1,2,PTH
FMAT,2
METRIC
T1C0.800
T2C1.000
T3C1.100
T4C1.300
T5C2.800
%
G90
G05
T1
X-112.0Y-100.83
X-112.0Y-110.99
X-79.85Y-179.79
X-69.69Y-179.79
T2
X-118.78Y-118.93
X-71.95Y-133.1
X-68.73Y-163.15
X-65.11Y-132.77
T3
X-127.02Y-182.06
X-127.02Y-184.6
X-127.02Y-187.14
X-121.98Y-166.86
X-121.98Y-169.4
X-121.98Y-171.94
X-118.78Y-113.85
X-118.78Y-116.39
X-111.46Y-129.38
X-111.46Y-131.92
X-111.46Y-134.46
X-111.46Y-137.0
X-111.46Y-139.54
X-111.46Y-142.08
X-111.46Y-144.62
X-111.46Y-147.16
X-111.46Y-149.7
X-111.46Y-152.24
X-111.46Y-154.78
X-111.46Y-157.32
X-111.46Y-159.86
X-111.46Y-162.4
X-111.46Y-164.94
X-111.46Y-167.48
X-111.46Y-170.02
X-111.46Y-172.56
X-111.46Y-175.18
X-86.06Y-129.38
X-86.06Y-131.92
X-86.06Y-134.46
X-86.06Y-137.0
X-86.06Y-139.54
X-86.06Y-142.08
X-86.06Y-144.62
X-86.06Y-147.16
X-86.06Y-149.7
X-86.06Y-152.24
X-86.06Y-154.78
X-86.06Y-157.32
X-86.06Y-159.86
X-86.06Y-162.4
X-86.06Y-164.94
X-86.06Y-167.48
X-86.06Y-170.02
X-86.06Y-172.56
X-86.06Y-175.16
X-77.03Y-133.1
X-75.4Y-153.04
X-75.4Y-155.58
X-75.4Y-158.12
X-75.4Y-160.66
X-75.4Y-163.2
X-75.4Y-165.74
X-75.4Y-168.28
X-75.4Y-170.82
X-74.49Y-133.1
X-68.73Y-168.23
X-65.07Y-124.02
X-65.07Y-129.1
X-62.57Y-132.77
X-54.45Y-127.18
X-54.42Y-132.61
X-51.88Y-132.61
X-49.37Y-127.18
T4
X-126.47Y-153.45
X-126.47Y-158.53
X-126.11Y-129.37
X-126.11Y-134.45
X-126.11Y-139.53
X-102.06Y-95.16
X-102.06Y-100.24
X-102.06Y-105.32
T5
X-129.03Y-79.76
X-34.75Y-188.73
T0
M30
